<svg width="18" height="13" fill="none" xmlns="http://www.w3.org/2000/svg"><mask id="mask0_1603_31103" style="mask-type:luminance" maskUnits="userSpaceOnUse" x="0" y="0" width="18" height="13"><path d="M18 0H0v13h18V0z" fill="#fff"/></mask><g mask="url(#mask0_1603_31103)"><path d="M18 0H0v13h18V0z" fill="#fff"/><path d="M12.052 4.7L18 .579V0h-.408l-6.784 4.7h1.244zm-.279 3.858L18 12.874v-.863l-4.983-3.453h-1.244zM0 .99L5.326 4.7h1.25L0 .127V.99zm6.291 7.568L0 12.92V13h1.137l6.399-4.442H6.29z" fill="#BD0034"/><path d="M16.772 0h-6.308v4.369L16.772 0zM7.686 0h-6.28l6.28 4.369V0zM18 4.7V1.72L13.725 4.7H18zm0 6.806V8.558h-4.275L18 11.506zM1.765 13h5.921V8.89L1.765 13zm8.699 0h5.943l-5.943-4.11V13zM0 8.558v3.087l4.425-3.087H0zM0 4.7h4.425L0 1.614v3.088z" fill="#1A237B"/><path d="M8.238 0v5.47H0v2.318h8.238V13h1.674V7.788H18V5.471H9.912V0H8.238z" fill="#BD0034"/></g></svg>