<svg width="147" height="44" fill="none" xmlns="http://www.w3.org/2000/svg"><rect x=".5" y=".352" width="146" height="43.296" rx="8" fill="#000"/><path d="M38.409 22.692a4.95 4.95 0 012.356-4.152 5.066 5.066 0 00-3.991-2.157c-1.68-.177-3.307 1.005-4.163 1.005-.872 0-2.19-.988-3.608-.959a5.316 5.316 0 00-4.473 2.728c-1.934 3.349-.492 8.27 1.36 10.976.928 1.326 2.011 2.806 3.429 2.754 1.387-.058 1.905-.885 3.579-.885 1.659 0 2.145.885 3.591.851 1.488-.024 2.426-1.331 3.32-2.669a10.965 10.965 0 001.519-3.092 4.782 4.782 0 01-2.92-4.4zm-2.732-8.089a4.872 4.872 0 001.115-3.49 4.957 4.957 0 00-3.208 1.659 4.634 4.634 0 00-1.144 3.361 4.1 4.1 0 003.237-1.53zm17.764-4.798a2.64 2.64 0 012.808 2.965c0 1.906-1.03 3.002-2.808 3.002h-2.155V9.805h2.155zm-1.228 5.123h1.125a1.875 1.875 0 001.968-2.146 1.881 1.881 0 00-1.968-2.134h-1.125v4.28zm5.083-1.41a2.132 2.132 0 114.247 0 2.134 2.134 0 11-4.247 0zm3.333 0c0-.976-.438-1.547-1.208-1.547-.772 0-1.207.57-1.207 1.547 0 .984.435 1.55 1.207 1.55.77 0 1.208-.57 1.208-1.55zm6.56 2.253h-.922l-.931-3.316h-.07l-.927 3.316h-.913l-1.241-4.502h.9l.808 3.436h.066l.926-3.436h.852l.926 3.436h.07l.803-3.436h.889l-1.236 4.502zm2.28-4.502h.855v.715h.067a1.348 1.348 0 011.343-.802 1.464 1.464 0 011.559 1.675v2.915h-.889V13.08c0-.724-.314-1.084-.971-1.084a1.033 1.033 0 00-1.076 1.141v2.634h-.888V11.27zm5.24-1.759h.889v6.261h-.889v-6.26zm2.124 4.008a2.133 2.133 0 114.248 0 2.132 2.132 0 01-3.704 1.64 2.133 2.133 0 01-.544-1.64zm3.333 0c0-.976-.438-1.547-1.208-1.547-.772 0-1.207.571-1.207 1.547 0 .984.435 1.55 1.207 1.55.77 0 1.208-.57 1.208-1.55zm1.85.98c0-.81.603-1.278 1.674-1.344l1.22-.07v-.39c0-.475-.314-.743-.922-.743-.496 0-.84.182-.938.5h-.86c.09-.773.818-1.27 1.84-1.27 1.128 0 1.765.563 1.765 1.514v3.076h-.856v-.632h-.07a1.515 1.515 0 01-1.352.707 1.362 1.362 0 01-1.501-1.348zm2.894-.385v-.376l-1.1.07c-.62.042-.9.253-.9.65 0 .405.35.64.834.64a1.06 1.06 0 001.166-.984zm2.053-.595c0-1.423.731-2.324 1.869-2.324a1.484 1.484 0 011.38.79h.067V9.51h.889v6.26h-.852v-.71h-.07a1.563 1.563 0 01-1.414.785c-1.145 0-1.87-.902-1.87-2.328zm.918 0c0 .955.45 1.53 1.203 1.53.749 0 1.212-.583 1.212-1.526 0-.938-.468-1.53-1.212-1.53-.748 0-1.203.579-1.203 1.526zm6.964 0a2.132 2.132 0 114.247 0 2.134 2.134 0 11-4.247 0zm3.333 0c0-.976-.438-1.547-1.208-1.547-.772 0-1.207.57-1.207 1.547 0 .984.435 1.55 1.207 1.55.77 0 1.208-.57 1.208-1.55zm2.106-2.249h.856v.715h.066a1.35 1.35 0 011.344-.802 1.467 1.467 0 011.508 1.025c.065.21.083.432.05.65v2.915h-.888V13.08c0-.724-.315-1.084-.972-1.084a1.03 1.03 0 00-1.027.702 1.04 1.04 0 00-.048.44v2.633h-.889V11.27zm8.846-1.121v1.141h.975v.749h-.975v2.315c0 .472.194.678.637.678.113 0 .226-.007.338-.02v.74a2.915 2.915 0 01-.483.045c-.988 0-1.382-.347-1.382-1.215v-2.543h-.715v-.749h.715v-1.141h.89zm2.19-.638h.881v2.482h.07a1.391 1.391 0 011.373-.806 1.489 1.489 0 011.171.474 1.488 1.488 0 01.38 1.204v2.907h-.889v-2.688c0-.719-.335-1.083-.963-1.083a1.05 1.05 0 00-1.134 1.142v2.63h-.889V9.51zm9.057 5.046a1.832 1.832 0 01-1.952 1.303 2.048 2.048 0 01-2.01-1.448 2.065 2.065 0 01-.07-.877 2.077 2.077 0 012.077-2.352c1.252 0 2.008.856 2.008 2.27v.31h-3.179v.05a1.19 1.19 0 001.199 1.29 1.082 1.082 0 001.071-.546h.856zm-3.126-1.451h2.274a1.089 1.089 0 00-.666-1.084 1.09 1.09 0 00-.442-.083 1.15 1.15 0 00-1.166 1.167zM56.203 28.138H51.47l-1.137 3.356h-2.005l4.483-12.418h2.084l4.483 12.418h-2.04l-1.135-3.356zm-4.243-1.55h3.752l-1.85-5.446h-.051l-1.851 5.447zm17.1.38c0 2.813-1.505 4.62-3.778 4.62a3.07 3.07 0 01-2.848-1.583h-.043v4.484h-1.859V22.44h1.8v1.506h.033a3.21 3.21 0 012.883-1.6c2.298 0 3.813 1.816 3.813 4.622zm-1.91 0c0-1.833-.947-3.038-2.392-3.038-1.42 0-2.375 1.23-2.375 3.038 0 1.824.955 3.046 2.375 3.046 1.445 0 2.392-1.197 2.392-3.046zm11.875 0c0 2.813-1.505 4.62-3.778 4.62a3.07 3.07 0 01-2.849-1.583h-.042v4.484h-1.859V22.44h1.799v1.506h.034a3.212 3.212 0 012.883-1.6c2.298 0 3.812 1.816 3.812 4.622zm-1.91 0c0-1.833-.947-3.038-2.392-3.038-1.42 0-2.375 1.23-2.375 3.038 0 1.824.955 3.046 2.375 3.046 1.445 0 2.392-1.197 2.392-3.046zm8.496 1.066c.138 1.232 1.334 2.04 2.97 2.04 1.566 0 2.692-.808 2.692-1.919 0-.964-.68-1.54-2.289-1.936l-1.609-.388c-2.28-.55-3.339-1.617-3.339-3.348 0-2.142 1.867-3.614 4.519-3.614 2.624 0 4.423 1.472 4.483 3.614h-1.876c-.112-1.239-1.137-1.987-2.634-1.987-1.497 0-2.521.757-2.521 1.859 0 .877.654 1.394 2.255 1.79l1.368.335c2.548.603 3.606 1.626 3.606 3.443 0 2.323-1.85 3.778-4.794 3.778-2.753 0-4.613-1.42-4.733-3.667h1.902zm11.636-7.736v2.142h1.722v1.472h-1.722v4.991c0 .776.345 1.137 1.102 1.137.204-.003.408-.018.611-.043v1.463c-.34.063-.686.092-1.032.086-1.833 0-2.548-.689-2.548-2.444v-5.19h-1.316V22.44h1.316v-2.142h1.867zm2.719 6.67c0-2.849 1.678-4.639 4.294-4.639 2.625 0 4.295 1.79 4.295 4.639 0 2.856-1.661 4.638-4.295 4.638-2.633 0-4.294-1.782-4.294-4.638zm6.695 0c0-1.954-.895-3.108-2.401-3.108-1.506 0-2.401 1.163-2.401 3.108 0 1.962.895 3.106 2.401 3.106 1.506 0 2.401-1.144 2.401-3.106zm3.426-4.528h1.772v1.542h.043a2.159 2.159 0 012.178-1.636c.214 0 .428.022.637.07v1.737a2.604 2.604 0 00-.835-.112 1.874 1.874 0 00-1.937 2.083v5.37h-1.858v-9.053zm13.198 6.395c-.25 1.643-1.85 2.771-3.898 2.771-2.634 0-4.269-1.764-4.269-4.595 0-2.84 1.644-4.682 4.191-4.682 2.504 0 4.08 1.72 4.08 4.466v.637h-6.395v.112a2.353 2.353 0 00.639 1.832 2.363 2.363 0 001.797.732 2.046 2.046 0 002.091-1.273h1.764zm-6.282-2.702h4.526a2.166 2.166 0 00-.608-1.634 2.177 2.177 0 00-1.612-.664 2.293 2.293 0 00-2.306 2.298z" fill="#fff"/></svg>