<svg width="147" height="44" fill="none" xmlns="http://www.w3.org/2000/svg"><rect x=".5" y=".352" width="146" height="43.296" rx="8" fill="#000"/><path d="M26.356 21.284l-10.647 11.3.002.006a2.873 2.873 0 004.236 1.735l.034-.02 11.984-6.915-5.609-6.106z" fill="#EB4335"/><path d="M37.127 19.36l-.01-.006-5.174-3-5.829 5.187 5.85 5.848 5.146-2.97a2.876 2.876 0 00.017-5.059z" fill="#FABC13"/><path d="M15.71 11.137a2.818 2.818 0 00-.099.74v19.967c0 .257.033.505.098.74l11.013-11.011L15.71 11.137z" fill="#547DBF"/><path d="M26.434 21.86l5.511-5.509-11.971-6.94a2.878 2.878 0 00-4.265 1.723v.003L26.434 21.86z" fill="#30A851"/><path d="M52.636 11.277h-2.908v.721h2.18c-.06.586-.295 1.047-.688 1.382-.394.335-.897.503-1.492.503a2.253 2.253 0 01-1.659-.679c-.444-.46-.67-1.03-.67-1.718 0-.687.226-1.257.67-1.718a2.256 2.256 0 011.66-.678c.334 0 .653.058.946.184.293.126.528.302.712.528l.553-.553a2.503 2.503 0 00-.963-.662 3.284 3.284 0 00-1.249-.235c-.872 0-1.609.302-2.212.905-.604.604-.905 1.35-.905 2.23 0 .88.301 1.625.905 2.228.603.604 1.34.905 2.212.905.913 0 1.642-.293 2.204-.888.494-.494.746-1.165.746-2.003 0-.142-.017-.293-.042-.452zm1.148-2.791v6h3.503v-.737h-2.732v-1.902h2.463v-.72h-2.463V9.223h2.732v-.738h-3.503zm8.429.738v-.738H58.09v.738h1.676v5.262h.771V9.224h1.676zm3.755-.738h-.77v6h.77v-6zm5.095.738v-.738H66.94v.738h1.676v5.262h.771V9.224h1.676zm7.802.042c-.595-.612-1.324-.914-2.196-.914-.87 0-1.6.302-2.196.905-.595.595-.888 1.341-.888 2.23 0 .888.293 1.633.888 2.228.595.604 1.325.905 2.196.905.863 0 1.601-.3 2.196-.905.595-.595.888-1.34.888-2.229 0-.88-.293-1.625-.888-2.22zm-3.838.502c.444-.452.988-.678 1.642-.678.654 0 1.198.226 1.634.678.444.445.662 1.023.662 1.718 0 .696-.218 1.274-.662 1.718-.436.453-.98.68-1.634.68-.654 0-1.198-.227-1.642-.68-.436-.452-.654-1.022-.654-1.718 0-.695.218-1.265.654-1.718zm6.578.982l-.033-1.158h.033l3.051 4.894h.804v-6h-.77v3.512l.033 1.156h-.034l-2.916-4.668h-.938v6h.77V10.75zm-7.9 12.575c-2.352 0-4.269 1.788-4.269 4.253 0 2.45 1.917 4.253 4.27 4.253 2.351 0 4.268-1.804 4.268-4.253 0-2.465-1.917-4.253-4.269-4.253zm0 6.831c-1.289 0-2.4-1.063-2.4-2.578 0-1.53 1.111-2.578 2.4-2.578 1.29 0 2.4 1.047 2.4 2.578 0 1.514-1.11 2.578-2.4 2.578zm-9.314-6.83c-2.352 0-4.269 1.787-4.269 4.252 0 2.45 1.917 4.253 4.27 4.253 2.351 0 4.268-1.804 4.268-4.253.001-2.465-1.917-4.253-4.269-4.253zm0 6.83c-1.289 0-2.4-1.063-2.4-2.578 0-1.53 1.112-2.578 2.4-2.578 1.29 0 2.4 1.047 2.4 2.578.001 1.514-1.11 2.578-2.4 2.578zM53.313 24.63v1.804h4.318c-.129 1.015-.467 1.756-.983 2.272-.628.628-1.61 1.321-3.335 1.321-2.658 0-4.736-2.143-4.736-4.8 0-2.659 2.078-4.802 4.736-4.802 1.434 0 2.481.564 3.254 1.29l1.273-1.274c-1.079-1.03-2.513-1.82-4.527-1.82-3.64 0-6.702 2.963-6.702 6.604s3.061 6.605 6.702 6.605c1.965 0 3.448-.644 4.608-1.853 1.192-1.192 1.563-2.868 1.563-4.22a5.84 5.84 0 00-.097-1.129h-6.074v.002zm45.308 1.401c-.354-.95-1.434-2.707-3.64-2.707-2.192 0-4.012 1.724-4.012 4.253 0 2.384 1.804 4.253 4.221 4.253 1.95 0 3.077-1.192 3.544-1.885l-1.45-.967c-.483.71-1.144 1.176-2.094 1.176s-1.627-.435-2.062-1.289l5.687-2.352-.194-.482zm-5.8 1.418c-.048-1.643 1.273-2.48 2.223-2.48.741 0 1.37.37 1.58.901l-3.803 1.58zm-4.624 4.124h1.87v-12.5h-1.87v12.5zm-3.06-7.298h-.065c-.419-.499-1.224-.95-2.239-.95-2.127 0-4.076 1.868-4.076 4.268 0 2.384 1.95 4.237 4.076 4.237 1.015 0 1.82-.45 2.24-.967h.063v.612c0 1.627-.87 2.497-2.272 2.497-1.144 0-1.853-.822-2.143-1.514l-1.627.677c.467 1.128 1.708 2.513 3.77 2.513 2.191 0 4.044-1.289 4.044-4.43v-7.636h-1.772v.693zm-2.143 5.881c-1.289 0-2.368-1.079-2.368-2.562 0-1.498 1.08-2.594 2.368-2.594 1.273 0 2.271 1.095 2.271 2.594 0 1.482-.998 2.562-2.27 2.562zm24.381-11.084h-4.471v12.501h1.865v-4.736h2.605c2.068 0 4.101-1.497 4.101-3.882s-2.032-3.883-4.1-3.883zm.048 6.025h-2.654v-4.285h2.654c1.395 0 2.187 1.155 2.187 2.143 0 .968-.792 2.142-2.187 2.142zm11.532-1.795c-1.351 0-2.75.595-3.329 1.914l1.657.692c.354-.692 1.013-.917 1.705-.917.965 0 1.946.58 1.962 1.608v.13c-.338-.194-1.062-.484-1.946-.484-1.785 0-3.603.981-3.603 2.815 0 1.673 1.464 2.75 3.104 2.75 1.255 0 1.946-.563 2.38-1.222h.064v.965h1.801V26.76c0-2.22-1.656-3.458-3.795-3.458zm-.226 6.851c-.611 0-1.464-.306-1.464-1.06 0-.966 1.062-1.336 1.978-1.336.82 0 1.206.177 1.705.418a2.26 2.26 0 01-2.219 1.978zm10.583-6.578l-2.139 5.42h-.064l-2.219-5.42h-2.01l3.329 7.575-1.898 4.214h1.946l5.131-11.789h-2.076zm-16.807 7.998h1.866v-12.5h-1.866v12.5z" fill="#fff"/></svg>