<svg width="150" height="150" viewBox="0 0 150 150" fill="none" xmlns="http://www.w3.org/2000/svg">
<path fill-rule="evenodd" clip-rule="evenodd" d="M66.972 16.1889C66.6626 16.6859 65.7192 17.5919 64.4844 18.5784C63.954 19.0021 62.9565 19.8924 62.2675 20.557C61.0087 21.7713 60.9049 21.794 61.7041 20.6801C62.0678 20.1732 62.1039 20.0704 61.9314 20.0338C61.6881 19.9823 60.6055 21.1352 60.1357 21.946C59.9629 22.2444 59.42 23.3493 58.9294 24.4013C57.9057 26.5961 57.2429 27.5917 56.2594 28.4117C55.8774 28.7303 55.2337 29.3016 54.8289 29.6817C54.4241 30.0616 53.9495 30.4085 53.7742 30.4525C53.5307 30.5136 53.4553 30.6076 53.4543 30.8509C53.4537 31.0326 53.2704 31.3995 53.0278 31.7049C52.4925 32.3785 51.8155 33.74 51.5854 34.6057C51.4887 34.9704 51.4086 35.7057 51.4079 36.2398C51.406 37.4983 51.7551 38.274 52.521 38.7127C52.9633 38.966 53.1826 39.0056 54.1185 39C56.3728 38.9869 58.2094 38.2428 63.1991 35.3212C64.0549 34.8202 64.1015 34.8076 64.6455 34.931C64.9547 35.0011 65.5284 35.1772 65.9205 35.3224C67.7955 36.0164 69.6439 35.9329 72.3077 35.0337C73.7459 34.5482 74.0539 34.4851 74.988 34.4851C76.381 34.4851 76.1903 34.2618 74.6488 34.0878C73.7017 33.9809 73.5838 33.9452 73.9013 33.8616C74.159 33.7939 74.3262 33.6467 74.4298 33.3965C74.6268 32.921 74.5188 32.8291 74.1261 33.1381C73.8387 33.3642 73.3984 33.4863 72.0988 33.7002C71.6708 33.7706 71.6403 33.7565 71.677 33.5044C71.7103 33.274 71.891 33.1802 72.8614 32.8894C73.4912 32.7007 74.3473 32.5133 74.7637 32.4731C75.1801 32.4328 75.5479 32.3562 75.5809 32.3028C75.6927 32.122 74.3897 31.8326 73.4641 31.8326C72.3207 31.8326 71.5866 32.0453 70.5304 32.6825C69.284 33.4345 68.5423 33.6531 67.0156 33.7183L65.6897 33.7748L66.2321 33.2824C68.5748 31.1551 74.3637 28.4163 76.1027 28.6124C76.5321 28.6608 76.7276 28.6156 77.0713 28.3887C77.7003 27.9735 78.9256 27.6898 79.6652 27.7883C80.0002 27.8329 80.4099 27.8593 80.5756 27.8469C81.5241 27.7759 83.8061 27.8396 84.7943 27.9648C87.159 28.2643 87.5081 28.4305 91.8482 31.3231C96.1595 34.1967 98.7175 35.7242 101.488 37.0801C105.133 38.8635 107.935 39.8173 111.272 40.4097C112.571 40.6405 113.232 40.6836 115.41 40.6798C118.922 40.6737 121.85 40.2808 126.981 39.1271C128.274 38.8364 129.982 38.4808 130.778 38.3369C131.573 38.1929 132.408 37.9704 132.632 37.8423C133.611 37.2824 136.994 36.6571 139.049 36.656C141.471 36.6547 143.411 37.1717 145.302 38.3222C146.737 39.1952 147.196 39.3907 147.38 39.2067C147.546 39.0411 147.638 39.1139 146.309 38.3609C142.138 35.9981 138.528 35.2337 134.632 35.8889C133.279 36.1165 132.767 36.06 132.767 35.6829C132.767 35.295 133.286 34.8777 134.044 34.6574C134.602 34.4952 135.025 34.4686 136.136 34.5259C136.901 34.5653 137.69 34.6307 137.889 34.6711L138.251 34.7447L137.95 34.497C136.925 33.6552 134.445 33.452 132.526 34.0524C130.29 34.752 128.066 35.0925 128.066 34.7353C128.066 34.6845 128.717 34.4657 129.512 34.2489C130.308 34.0321 130.959 33.8068 130.959 33.7479C130.959 33.5982 130.871 33.6086 129.672 33.899C129.087 34.0409 128.201 34.1611 127.704 34.1663C126.882 34.175 126.699 34.1288 125.677 33.6546C124.62 33.1642 124.502 33.1362 123.688 33.1808C122.898 33.2241 122.638 33.316 120.713 34.2329C117.811 35.6151 115.662 36.5585 115.521 36.5117C115.457 36.4901 116.735 35.7433 118.362 34.8522C119.989 33.961 121.303 33.1801 121.282 33.1167C121.261 33.0534 120.977 32.9339 120.651 32.851C119.877 32.6546 119.387 32.1288 119.389 31.4991C119.39 31.2515 119.431 30.9869 119.48 30.9111C119.656 30.6362 121.628 29.5278 122.276 29.3396C122.904 29.157 123.025 29.1609 124.548 29.4145C125.434 29.5617 126.185 29.655 126.218 29.6216C126.309 29.5305 125.746 29.1913 125.087 28.9409C123.635 28.3892 120.326 28.3007 119.086 28.7804C118.569 28.9806 117.288 29.6819 115.487 30.7518L115.022 31.0282L115.206 30.6707C115.308 30.474 115.724 30.0797 116.131 29.7942C116.538 29.5087 116.847 29.2512 116.818 29.2223C116.74 29.1443 111.805 30.2596 111.312 30.4666C110.974 30.6084 110.758 30.6182 110.227 30.5161C109.862 30.4459 109.051 30.3312 108.423 30.261C107.796 30.1908 107.258 30.1084 107.227 30.0775C107.065 29.9158 108.158 29.4237 108.683 29.422C108.795 29.4216 108.916 29.3737 108.952 29.3157C109.06 29.1408 107.815 29.072 106.852 29.1996C106.345 29.2669 104.678 29.7338 103.055 30.2626C98.8688 31.6272 97.8028 31.8771 96.1847 31.8735C94.1941 31.869 93.4866 31.5512 89.9017 29.0505C88.4461 28.0352 88.1706 27.7918 88.0033 27.3736C87.8957 27.1045 87.8076 26.8375 87.8076 26.78C87.8076 26.5679 88.5808 26.5725 89.5961 26.7907C91.009 27.0943 93.6392 27.1936 95.6916 27.021C96.6137 26.9433 97.4273 26.8416 97.4996 26.7947C97.5719 26.7479 96.7097 26.6008 95.5836 26.4679C93.7956 26.2568 93.5307 26.198 93.4932 26.0031C93.4531 25.7942 93.522 25.7853 94.5764 25.8634C95.7985 25.954 97.6641 25.7911 98.8119 25.4935C99.647 25.2771 100.892 24.7454 100.793 24.6471C100.756 24.6091 99.9278 24.8048 98.9538 25.0816C97.7319 25.4291 97.1444 25.5464 97.0582 25.4602C96.972 25.374 97.0415 25.3113 97.2822 25.2578C98.7709 24.9272 99.6169 24.5666 100.886 23.7219C101.766 23.1358 105.332 19.5332 105.181 19.3823C105.122 19.3238 104.892 19.2935 104.669 19.3149C104.309 19.3495 104.186 19.4694 103.574 20.3786C102.375 22.1627 100.82 23.3467 98.6087 24.161C97.5363 24.556 97.751 24.5454 92.4482 24.4642C90.554 24.4352 90.2548 24.4618 88.4902 24.8171C85.7827 25.3621 84.0741 25.3249 83.4568 24.7075C83.3264 24.5771 83.0452 24.4399 82.8319 24.4026C82.6184 24.3653 81.332 23.9654 79.9729 23.5139C76.3834 22.3214 75.9605 22.2464 72.8614 22.253C70.5101 22.2579 70.1265 22.2889 68.7222 22.5874C66.2795 23.1066 64.0281 23.9125 61.5644 25.1494C60.3562 25.756 59.3402 26.2247 59.3067 26.1912C59.2732 26.1577 59.3579 25.9307 59.495 25.6867C59.7958 25.1513 61.1853 24.1869 62.5375 23.575C64.5674 22.6565 66.0762 21.3335 67.1873 19.4981C67.34 19.246 67.4359 19.0106 67.4003 18.975C67.3648 18.9394 66.8544 19.3198 66.2662 19.8202C65.0812 20.8284 64.291 21.2561 63.8929 21.1052C63.7351 21.0454 63.6554 20.9252 63.6802 20.7845C63.7197 20.5594 63.8322 20.4299 65.7752 18.3735C66.7406 17.3515 67.161 16.7438 67.3698 16.0683C67.4946 15.6646 67.2529 15.7379 66.972 16.1889ZM51.3326 19.5045C51.3673 19.6205 51.4586 19.9733 51.5358 20.2882C51.7062 20.9839 51.9511 21.0306 52.0541 20.3868C52.1604 19.7218 51.9755 19.2935 51.5821 19.2935C51.3409 19.2935 51.284 19.3416 51.3326 19.5045ZM52.9795 19.708C52.7868 19.9404 52.9736 20.9212 53.2106 20.9212C53.4173 20.9212 53.6192 20.2053 53.5218 19.8173C53.4419 19.4985 53.1947 19.4488 52.9795 19.708ZM50.0226 20.1302C49.9414 20.3861 50.4874 21.5843 50.6853 21.5843C50.9347 21.5843 50.6996 20.178 50.4207 20.0011C50.1806 19.8489 50.1041 19.8736 50.0226 20.1302ZM54.4439 20.1616C54.3643 20.2412 54.2993 20.5667 54.2993 20.885C54.2993 21.6416 54.566 21.6598 54.8476 20.9225C55.0147 20.4845 55.0254 20.3466 54.903 20.1991C54.7205 19.9791 54.6335 19.972 54.4439 20.1616ZM48.8752 21.2414C48.8752 21.5625 49.4272 22.3077 49.6649 22.3077C49.887 22.3077 49.8848 22.1673 49.654 21.6148C49.3833 20.9667 48.8752 20.723 48.8752 21.2414ZM55.5195 21.2649C55.3251 21.4992 55.1969 22.5489 55.3626 22.5489C55.5578 22.5489 56.1431 21.4899 56.0632 21.2815C55.9773 21.0577 55.6984 21.0492 55.5195 21.2649ZM48.0315 22.4785C48.0315 22.8144 48.9401 23.6173 49.1185 23.4389C49.2881 23.2693 48.5567 22.1872 48.2724 22.1872C48.0981 22.1872 48.0315 22.2676 48.0315 22.4785ZM56.2432 22.5905C56.0161 22.8643 55.9308 23.5138 56.1223 23.5114C56.3457 23.5085 56.8274 22.8019 56.7478 22.5942C56.6667 22.3828 56.4172 22.381 56.2432 22.5905ZM101.91 23.7484C101.431 24.0029 100.745 24.6875 101.095 24.5619C101.21 24.5205 101.78 24.3406 102.361 24.1621C103.573 23.7895 103.591 23.7797 103.353 23.6293C103.067 23.4484 102.365 23.5064 101.91 23.7484ZM47.7904 24.0399C47.7904 24.2737 48.7362 24.8726 48.9661 24.7843C49.1205 24.725 49.0803 24.633 48.751 24.2932C48.3426 23.8719 47.7904 23.7262 47.7904 24.0399ZM44.9599 24.3509C44.8727 24.626 45.4425 25.5631 45.6972 25.5631C45.8951 25.5631 45.8972 25.5189 45.7311 24.8999C45.545 24.2063 45.1052 23.8932 44.9599 24.3509ZM43.4545 24.5684C43.458 24.7972 44.2231 25.6836 44.4171 25.6836C44.5964 25.6836 44.5628 25.504 44.271 24.9032C44.0707 24.4909 43.9381 24.3574 43.7286 24.3574C43.5436 24.3574 43.4523 24.4277 43.4545 24.5684ZM46.4326 24.8698C46.3604 25.0785 46.8477 26.0582 46.9987 26.008C47.1153 25.969 47.107 25.0017 46.9885 24.8098C46.8974 24.6623 46.489 24.7064 46.4326 24.8698ZM42.0392 25.0444C41.9476 25.2835 42.9009 26.1651 43.2516 26.1655C43.4415 26.1659 43.4152 26.0845 43.0708 25.6064C42.6122 24.9696 42.162 24.7244 42.0392 25.0444ZM47.7841 25.7607C47.7175 25.9356 47.692 26.1075 47.7272 26.1428C47.7624 26.178 48.0666 26.0778 48.4031 25.9201C48.8961 25.6891 48.9723 25.6164 48.7946 25.5464C48.2953 25.3497 47.9092 25.4315 47.7841 25.7607ZM40.7995 26.1074C40.7995 26.2079 40.9758 26.3988 41.1912 26.5318C42.1299 27.1115 42.7039 26.9173 41.8684 26.3028C41.3177 25.8975 40.7995 25.8029 40.7995 26.1074ZM99.512 26.2299C99.1543 26.3964 98.8929 26.5639 98.931 26.602C99.0639 26.735 101.066 26.5049 101.066 26.3566C101.066 25.8588 100.422 25.8064 99.512 26.2299ZM40.3159 27.6099C40.3861 27.741 40.5381 27.8991 40.6538 27.9609C40.9926 28.1423 41.7638 28.2562 41.7638 28.1248C41.7638 27.9184 40.859 27.3716 40.5176 27.3716C40.227 27.3716 40.2033 27.3996 40.3159 27.6099ZM40.1968 29.1228C40.1968 29.3482 40.6738 29.5418 41.2292 29.5418C41.7599 29.5418 41.7556 29.3989 41.2173 29.1421C40.6783 28.8851 40.1968 28.876 40.1968 29.1228ZM40.5283 30.3483C40.4122 30.3787 40.3174 30.4809 40.3174 30.5754C40.3174 30.7053 40.4945 30.7475 41.0406 30.7475C41.4383 30.7475 41.7638 30.7176 41.7638 30.6811C41.7638 30.6022 40.9694 30.2591 40.8335 30.2792C40.7817 30.2869 40.6444 30.318 40.5283 30.3483ZM41.4022 31.8929C41.4022 32.0883 41.7234 32.124 42.3514 31.9984C42.9532 31.8779 42.7872 31.712 42.0651 31.712C41.5562 31.712 41.4022 31.754 41.4022 31.8929ZM42.8754 32.6232C42.547 32.8532 42.5379 33.0464 42.8382 33.4167C43.1228 33.768 43.1658 33.7274 43.2729 33.0081C43.3643 32.3932 43.2968 32.3279 42.8754 32.6232ZM41.0937 33.3317C40.8727 33.4951 40.8917 33.5189 41.438 33.7619C42.1954 34.0989 42.3558 34.0255 41.9086 33.5466C41.4999 33.1089 41.4228 33.0886 41.0937 33.3317ZM39.7951 33.9627C39.5103 34.2476 40.0836 34.6057 40.8246 34.6057C41.2651 34.6057 41.1705 34.4357 40.5551 34.1217C40.0509 33.8644 39.9206 33.837 39.7951 33.9627ZM38.7909 35.1563C38.6852 35.4319 38.8543 35.5355 39.564 35.6295C40.4038 35.7408 40.4303 35.4686 39.6081 35.1766C38.8905 34.9216 38.8811 34.9213 38.7909 35.1563ZM38.1478 36.5653C38.1478 36.9394 38.4776 37.0661 39.0015 36.8932C39.6063 36.6935 39.7185 36.5348 39.2547 36.5348C39.0602 36.5348 38.7316 36.5009 38.5244 36.4594C38.2362 36.4018 38.1478 36.4266 38.1478 36.5653ZM134.914 37.5438C133.785 37.7349 133.723 37.9055 134.816 37.8174C135.313 37.7772 136.723 37.7096 137.95 37.6673C139.176 37.6248 140.261 37.5443 140.36 37.4881C140.63 37.3358 135.854 37.3846 134.914 37.5438ZM38.9915 37.9272C38.892 37.9483 38.6073 37.9987 38.3587 38.0393C37.7243 38.1428 37.7429 38.4638 38.3832 38.4638C38.9453 38.4638 39.4736 38.2501 39.4736 38.0224C39.4736 37.8663 39.373 37.8465 38.9915 37.9272ZM143.012 37.9399C143.012 38.0387 143.927 38.8356 144.266 39.0323C144.616 39.2354 145.022 39.2226 145.105 39.0059C145.156 38.8733 144.917 38.6953 144.216 38.3428C143.278 37.8706 143.012 37.7818 143.012 37.9399ZM39.2823 39.3009C38.7915 39.4183 38.6299 39.5263 38.6299 39.7369C38.6299 39.982 39.0396 39.9525 39.599 39.6671C40.3621 39.2777 40.1937 39.083 39.2823 39.3009ZM66.3621 39.2936C66.1354 39.3346 65.9265 39.439 65.898 39.5256C65.8586 39.6448 66.002 39.674 66.4899 39.6461C66.9897 39.6174 67.1429 39.562 67.174 39.3982C67.2167 39.1734 67.1058 39.159 66.3621 39.2936ZM93.3906 39.3814C93.27 39.696 93.5087 40.446 93.7439 40.491C93.9188 40.5243 93.9548 40.441 93.9548 40.0039C93.9548 39.321 93.5747 38.9016 93.3906 39.3814ZM94.9191 39.9709C94.9191 40.5536 94.9483 40.6341 95.1602 40.6341C95.3721 40.6341 95.4012 40.5536 95.4012 39.9709C95.4012 39.3882 95.3721 39.3078 95.1602 39.3078C94.9483 39.3078 94.9191 39.3882 94.9191 39.9709ZM91.9642 39.9136C91.8248 40.1393 92.2801 41.1163 92.5248 41.1163C92.7982 41.1163 92.8002 41.0671 92.5574 40.3541C92.3755 39.8202 92.1332 39.6402 91.9642 39.9136ZM96.3932 40.0614C96.3258 40.1443 96.2511 40.4699 96.2269 40.7848C96.1907 41.2561 96.2185 41.3575 96.3835 41.3575C96.646 41.3575 96.9878 40.3981 96.8275 40.1115C96.6935 39.8721 96.5594 39.8565 96.3932 40.0614ZM40.0835 40.4836C39.5426 40.7585 39.4669 40.9958 39.9201 40.9958C40.1292 40.9958 40.4314 40.8546 40.6835 40.639C41.0937 40.2883 41.0956 40.2821 40.7995 40.2774C40.6338 40.2749 40.3116 40.3676 40.0835 40.4836ZM67.0758 40.6944C67.4714 40.9205 67.973 40.9205 68.1606 40.6944C68.2914 40.5368 68.212 40.5141 67.5425 40.5177C66.8156 40.5218 66.7906 40.5312 67.0758 40.6944ZM90.8328 40.8653C90.6939 40.9533 90.7216 41.071 90.9885 41.5266C91.1671 41.8314 91.3923 42.0809 91.489 42.0809C91.7199 42.0809 91.7111 41.9679 91.428 41.3072C91.1824 40.7344 91.1166 40.6856 90.8328 40.8653ZM41.2997 41.2376C40.738 41.6447 40.6659 41.8397 41.0772 41.8397C41.328 41.8397 42.1254 41.1705 42.1254 40.9598C42.1254 40.7754 41.7752 40.8932 41.2997 41.2376ZM97.3441 41.4109C97.1747 42.0839 97.1745 42.0809 97.3812 42.0809C97.627 42.0809 98.053 41.4971 98.053 41.1603C98.053 40.9403 97.9874 40.8752 97.766 40.8752C97.527 40.8752 97.4563 40.9648 97.3441 41.4109ZM102.473 41.4479C102.35 41.656 102.256 42.8043 102.362 42.8043C102.669 42.8043 103.167 41.873 103.039 41.5394C102.967 41.3519 102.569 41.2874 102.473 41.4479ZM103.972 41.7901C103.832 41.9679 103.718 42.183 103.718 42.2681C103.718 42.3532 103.685 42.5087 103.645 42.6136C103.502 42.9851 104.014 42.81 104.301 42.3891C104.764 41.7083 104.465 41.1631 103.972 41.7901ZM101.022 41.8699C100.982 42.019 100.948 42.3447 100.947 42.5933C100.946 42.9597 100.99 43.0454 101.178 43.0454C101.363 43.0454 101.431 42.9192 101.518 42.4124C101.577 42.0642 101.605 41.7388 101.58 41.689C101.478 41.4877 101.091 41.6132 101.022 41.8699ZM67.1437 41.812C66.9899 41.966 67.1043 42.0679 67.6331 42.2481C68.2665 42.4641 68.6218 42.3734 68.3728 42.0594C68.2231 41.8707 67.2757 41.68 67.1437 41.812ZM89.9272 42.1849C89.8918 42.2422 90.0416 42.4959 90.2601 42.7487C90.5439 43.0769 90.7171 43.1854 90.8664 43.1281C91.0506 43.0574 91.0294 42.9907 90.6869 42.5644C90.3103 42.0956 90.0597 41.9704 89.9272 42.1849ZM105.435 42.2316C105.294 42.4088 104.923 43.1244 104.923 43.2203C104.923 43.2568 104.994 43.2866 105.081 43.2866C105.306 43.2866 106.008 42.5295 106.008 42.2861C106.008 42.0454 105.614 42.0079 105.435 42.2316ZM67.0758 43.2784C67.0758 43.4566 67.7506 43.8894 68.0285 43.8894C68.4321 43.8894 68.3249 43.5337 67.8632 43.3407C67.3834 43.1402 67.0758 43.1158 67.0758 43.2784ZM106.198 43.67C105.569 44.4056 105.679 44.6081 106.452 44.1366C106.943 43.8372 107.186 43.4197 106.955 43.2731C106.7 43.1116 106.657 43.1342 106.198 43.67ZM86.8433 44.1281C86.8433 44.1931 86.9306 44.4644 87.0373 44.731C87.1731 45.0706 87.3033 45.2157 87.4722 45.2157C87.7261 45.2157 87.7213 45.0355 87.4481 44.3167C87.3354 44.0203 86.8433 43.8669 86.8433 44.1281ZM43.4512 44.3383C43.3518 44.3757 43.1425 44.4537 42.9861 44.5115C42.7514 44.5985 42.7277 44.648 42.8503 44.7957C43.0694 45.0598 43.2812 45.0161 43.7205 44.6163C44.0552 44.3118 44.0781 44.2591 43.8731 44.2641C43.7405 44.2675 43.5507 44.3008 43.4512 44.3383ZM85.4002 44.4621C85.402 44.5781 85.5614 44.863 85.7543 45.0951C86.0306 45.4274 86.1368 45.4858 86.2533 45.3703C86.4954 45.1305 86.0449 44.2511 85.68 44.2511C85.4895 44.2511 85.398 44.3202 85.4002 44.4621ZM66.4732 44.4686C66.4732 44.6784 67.2839 45.3362 67.5424 45.3362C67.9685 45.3362 67.8134 44.9643 67.2557 44.6483C66.7576 44.3661 66.4732 44.3008 66.4732 44.4686ZM83.8839 44.8643C83.7808 45.0311 84.5353 45.8185 84.7979 45.8185C85.1797 45.8185 85.1564 45.6482 84.712 45.1931C84.2527 44.7226 84.0268 44.6329 83.8839 44.8643ZM106.682 45.1044C106.389 45.452 106.287 45.6979 106.434 45.6979C106.668 45.6979 107.696 45.0577 107.696 44.9122C107.696 44.5715 107.023 44.699 106.682 45.1044ZM65.3884 45.3082C65.3884 45.3591 65.5259 45.6033 65.694 45.8508C65.9081 46.1658 66.0888 46.3008 66.2967 46.3008C66.7483 46.3008 66.6607 45.9891 66.0935 45.5781C65.591 45.214 65.3884 45.1364 65.3884 45.3082ZM43.4516 45.7886C42.9389 46.0449 42.8125 46.4213 43.2391 46.4213C43.4974 46.4213 44.1744 45.8711 44.1744 45.6612C44.1744 45.5185 43.8919 45.5683 43.4516 45.7886ZM64.1835 45.9089C64.1842 46.2698 64.6436 46.9036 64.9044 46.9036C65.2464 46.9036 65.2067 46.669 64.7769 46.1474C64.3731 45.6574 64.1828 45.5809 64.1835 45.9089ZM62.8572 46.0518C62.8572 46.3739 63.0836 46.9401 63.2565 47.05C63.6868 47.3238 63.7765 46.8487 63.4014 46.2818C63.0666 45.7758 62.8572 45.6873 62.8572 46.0518ZM82.6247 46.0303C82.6247 46.1575 83.6804 46.783 83.8952 46.783C84.1588 46.783 84.1092 46.6235 83.733 46.263C83.4157 45.959 82.6247 45.7929 82.6247 46.0303ZM106.882 46.434C106.106 46.8862 106.063 47.0753 106.762 46.9629C107.215 46.8899 107.816 46.6197 107.816 46.4887C107.816 46.3571 107.66 46.06 107.592 46.0623C107.55 46.0637 107.23 46.231 106.882 46.434ZM44.0216 47.0888C43.5307 47.4225 43.4063 47.8681 43.804 47.8681C44.0169 47.8681 44.7771 47.0931 44.7771 46.8761C44.7771 46.698 44.4688 46.7848 44.0216 47.0888ZM82.1444 47.3557C82.1489 47.5764 82.3705 47.7536 82.8557 47.9249C83.4893 48.1485 83.5894 48.153 83.5875 47.9586C83.5853 47.7411 82.8018 47.2653 82.4456 47.2653C82.2789 47.2653 82.1434 47.3059 82.1444 47.3557ZM106.279 47.8719C105.86 48.0406 105.959 48.2299 106.466 48.2299C106.895 48.2299 107.214 48.0654 107.214 47.844C107.214 47.7166 106.622 47.7342 106.279 47.8719ZM44.9213 48.2658C44.4617 48.7401 44.4066 49.1092 44.804 49.0521C45.0382 49.0184 45.6125 48.2477 45.6189 47.9586C45.6235 47.7454 45.2781 47.8976 44.9213 48.2658ZM59.6027 48.1118C59.6027 48.3856 60.2495 49.2032 60.4156 49.1395C60.5098 49.1034 60.6094 49.0738 60.6372 49.0738C60.8277 49.0738 60.6171 48.6752 60.2614 48.363C59.8244 47.9791 59.6027 47.8946 59.6027 48.1118ZM49.0404 48.8333C48.9724 49.1652 48.9436 49.4636 48.9764 49.4964C49.1249 49.6451 49.478 49.5387 49.4792 49.3451C49.48 49.2291 49.5142 48.9307 49.5553 48.682C49.6201 48.2896 49.5992 48.2299 49.3969 48.2299C49.2141 48.2299 49.1373 48.3598 49.0404 48.8333ZM46.4384 48.5614C45.8815 49.2001 45.8776 49.9311 46.433 49.5782C46.663 49.4322 46.9623 48.3504 46.7728 48.3504C46.6901 48.3504 46.5397 48.4454 46.4384 48.5614ZM47.7004 48.9834C47.4375 49.6688 47.4496 49.7972 47.7768 49.7972C47.9342 49.7972 48.027 49.637 48.1313 49.1852C48.3101 48.4106 48.3084 48.3504 48.1079 48.3504C48.0174 48.3504 47.834 48.6352 47.7004 48.9834ZM82.1581 48.8743C81.9512 49.1236 82.2417 49.3095 82.9735 49.3962C83.959 49.5129 83.7049 49.1536 82.5408 48.7841C82.3954 48.7379 82.241 48.7743 82.1581 48.8743ZM52.7537 49.4234C52.4199 50.0173 52.5283 50.4437 52.9454 50.1787C53.0927 50.0853 53.335 49.4173 53.335 49.1048C53.335 48.7913 53.0081 48.9705 52.7537 49.4234ZM105.667 49.0437C105.69 49.0935 105.787 49.3376 105.882 49.5862C106.065 50.0597 106.293 50.1712 106.417 49.8476C106.568 49.4531 106.488 49.1874 106.181 49.0708C105.812 48.9303 105.611 48.9197 105.667 49.0437ZM107.343 49.5233C106.933 50.0204 106.906 50.1038 107.115 50.2328C107.28 50.3347 108.212 49.3476 108.109 49.1805C107.975 48.964 107.704 49.0855 107.343 49.5233ZM58.9469 49.4657C59.1093 49.9921 59.3775 50.4149 59.5195 50.3681C59.7804 50.2823 59.7533 49.7845 59.4711 49.484C59.1168 49.1066 58.8331 49.0967 58.9469 49.4657ZM108.67 49.7626C108.46 50.0174 108.347 50.2555 108.407 50.3154C108.601 50.51 109.745 49.758 109.745 49.4355C109.745 49.3692 109.586 49.315 109.392 49.315C109.131 49.315 108.943 49.4322 108.67 49.7626ZM53.8106 50.3699C53.744 50.5524 53.6672 50.7654 53.6399 50.8434C53.6127 50.9214 53.6685 51.0502 53.764 51.1294C54.0388 51.3575 54.2993 51.054 54.2993 50.5059C54.2993 49.9414 53.9978 49.8575 53.8106 50.3699ZM57.9497 50.7673C58.0401 51.2248 58.118 51.3666 58.2639 51.3388C58.5704 51.2805 58.5715 50.7741 58.2658 50.4485C57.8714 50.0286 57.815 50.0856 57.9497 50.7673ZM82.4674 50.2929C81.9577 50.5894 82.9899 50.9379 83.6393 50.6886C83.9648 50.5637 83.8517 50.4342 83.2945 50.2939C82.6638 50.1349 82.7386 50.1351 82.4674 50.2929ZM109.956 50.4139C109.773 50.5501 109.624 50.7381 109.624 50.8321C109.624 51.046 109.631 51.0456 110.255 50.8002C110.745 50.6071 110.944 50.4489 110.948 50.2494C110.952 50.0633 110.275 50.1757 109.956 50.4139ZM32.6032 50.5304C30.4874 50.7044 27.6402 51.1794 23.2485 52.0914C18.3988 53.0984 18.3323 53.1147 17.0544 53.6036C15.3845 54.2425 14.0696 54.4397 11.5098 54.4351C9.58188 54.4318 9.14457 54.3945 8.27998 54.1599C7.06922 53.8314 6.16306 53.4402 5.18987 52.8258C4.09108 52.1323 3.43176 51.8219 3.22516 51.9013C2.88502 52.0318 3.37391 52.3887 5.10068 53.2706C8.34171 54.9256 10.452 55.5031 13.2575 55.5026C14.3849 55.5025 15.2452 55.4361 15.849 55.3025C16.8971 55.0705 17.1638 55.0581 17.5928 55.2212C17.8976 55.3372 17.9009 55.3499 17.7187 55.7024C17.6158 55.9015 17.3022 56.1841 17.0217 56.3303C16.3315 56.6905 14.4582 56.7754 13.2802 56.4999C12.1801 56.2427 12.0045 56.249 12.3674 56.5325C13.2163 57.1957 14.6225 57.5887 15.726 57.4714C16.092 57.4324 17.422 57.1772 18.6816 56.9041C19.9411 56.6311 21.2491 56.3784 21.588 56.3426C22.3112 56.2663 22.5574 56.4677 21.9672 56.6527C21.7512 56.7205 20.9235 56.9791 20.128 57.2275C18.3271 57.7898 18.5771 57.8969 20.5039 57.3884C21.5037 57.1246 22.2214 57.009 22.8818 57.0051C23.7434 57.0001 23.9034 57.0393 24.6797 57.4449C26.3546 58.3201 27.0019 58.2536 29.8309 56.9166C32.9442 55.4454 35.1344 54.5196 35.1344 54.6751C35.1344 54.696 33.8049 55.4367 32.1801 56.3208C30.5552 57.2049 29.2414 57.9749 29.2603 58.0318C29.2792 58.0887 29.5783 58.2312 29.9247 58.3485C30.7037 58.6123 31.0007 58.8726 31.1534 59.4258C31.2447 59.7564 31.231 59.9174 31.0941 60.1264C30.8348 60.5222 29.5468 61.3616 28.7622 61.6462C27.7991 61.9953 26.3177 61.988 25.1445 61.6281C23.9503 61.2618 23.7894 61.4592 24.8743 61.9594C26.0907 62.5202 27.4145 62.7389 29.168 62.6686C31.3721 62.5802 32.557 62.1281 34.8624 60.496C36.7855 59.1343 39.0254 58.1231 40.4982 57.9515C41.0756 57.8842 41.06 57.8957 40.1233 58.226C38.7207 58.7207 36.8913 59.6924 35.4013 60.7341C34.691 61.2307 34.0873 61.6587 34.0596 61.6852C33.8775 61.8602 34.4 61.7888 36.5268 61.3479C38.6689 60.9038 39.1219 60.8484 40.679 60.8393C41.6402 60.8338 42.6302 60.8724 42.8787 60.9251C43.7195 61.1035 43.3502 61.4592 42.0939 61.6808C41.4277 61.7983 41.4404 61.9406 42.1252 62.0349C43.3138 62.1984 44.3545 61.9635 48.2726 60.6478C51.7993 59.4633 52.6948 59.2753 54.4675 59.3478C56.7662 59.4417 58.2618 60.1176 60.9706 62.2866C63.3724 64.2101 63.3395 64.8814 60.8684 64.371C60.2717 64.2478 59.1055 64.1128 58.2769 64.0709C56.6227 63.9876 53.3869 64.1955 52.8737 64.4182C52.5988 64.5375 52.7722 64.5686 54.0582 64.6302C55.7137 64.7096 56.951 64.9435 56.951 65.1772C56.951 65.2903 56.499 65.3271 55.1129 65.3266C52.6384 65.3258 50.8103 65.7221 49.9601 66.4434C49.7115 66.6544 49.7009 66.685 49.8998 66.6176C50.0324 66.5727 50.6098 66.3777 51.1832 66.1844C51.7908 65.9794 52.4693 65.8351 52.8104 65.8383C53.3799 65.8436 53.3602 65.8556 52.0608 66.2905C50.1155 66.9414 49.5507 67.3261 47.4742 69.4136C45.7698 71.1272 45.2346 71.8612 45.69 71.8612C46.1371 71.8612 46.4853 71.5555 47.113 70.6118C48.4412 68.6151 50.1816 67.4586 52.8888 66.7738C53.7389 66.5588 54.0342 66.5386 55.0215 66.6278C55.6519 66.6847 57.0896 66.7267 58.2166 66.7209C60.0013 66.7117 60.5119 66.6616 62.1746 66.3319C65.2599 65.7201 65.8466 65.7783 68.4992 66.9599C71.4101 68.2563 73.8143 68.8276 76.7923 68.9304C80.9836 69.075 84.4636 68.2497 88.9177 66.0549C90.1076 65.4685 91.1347 64.9888 91.1999 64.9888C91.2651 64.9888 91.193 65.2148 91.0396 65.491C90.7055 66.0926 89.8449 66.6761 87.6871 67.764C86.329 68.4487 86.0734 68.6318 85.0956 69.6197C84.1655 70.5595 83.1542 71.9817 83.4161 71.9817C83.462 71.9817 83.6962 71.8039 83.9367 71.5866C84.177 71.3694 84.7914 70.9312 85.3018 70.6131C86.3161 69.9807 86.7554 69.917 86.8227 70.3927C86.8535 70.6102 86.5825 70.9584 85.6031 71.96C84.4047 73.1854 82.9863 74.9583 82.9863 75.2307C82.9863 75.5257 83.362 75.3208 83.6929 74.8452C84.1326 74.2135 84.8524 73.5269 85.8791 72.7605C87.5204 71.5353 88.671 70.41 89.3915 69.3255C89.5003 69.1618 89.6203 69.0575 89.6583 69.0937C89.6961 69.13 89.46 69.5615 89.1335 70.0527C88.807 70.5439 88.5623 70.9683 88.5899 70.9959C88.6175 71.0235 88.8188 70.9416 89.0374 70.8139C89.7058 70.4236 90.5226 69.2721 91.1911 67.778C92.6722 64.4675 93.2719 63.5372 94.5933 62.5002C95.0709 62.1253 95.7434 61.5465 96.0882 61.2136C96.629 60.6913 96.741 60.6304 96.9068 60.7681C97.1677 60.9846 97.3979 60.7629 97.2367 60.4503C97.09 60.1657 97.1513 59.9915 97.633 59.3221C98.6349 57.9304 99.1436 56.4527 99.1527 54.9069C99.1621 53.3282 98.5665 52.4779 97.2612 52.2069C95.3849 51.8172 92.3352 52.8809 88.1116 55.3981C87.3837 55.8319 86.6176 56.2188 86.409 56.2579C86.149 56.3067 85.6839 56.2104 84.9305 55.9516C83.588 55.4905 82.2736 55.3268 81.0353 55.4666C79.9107 55.5934 79.4698 55.7048 77.675 56.3157C76.6096 56.6784 76.084 56.7925 75.4451 56.7997C74.5829 56.8095 74.6658 56.9203 75.6599 57.0864C76.0811 57.1568 76.1037 57.1826 76.0366 57.5183C75.9706 57.8479 75.9918 57.8752 76.3117 57.8738C76.5023 57.8731 76.9566 57.7923 77.3212 57.6944C77.6858 57.5965 78.2485 57.5158 78.5714 57.515C79.0758 57.5138 79.1379 57.5387 79.011 57.6917C78.6407 58.138 77.5915 58.4936 76.2189 58.6381L74.8503 58.7821L75.4174 59.0602C76.685 59.6819 77.9715 59.4914 80.2185 58.3494C80.8548 58.026 81.7243 57.6842 82.1507 57.5897C83.1132 57.3765 84.7622 57.2435 84.8419 57.3727C84.9169 57.4938 82.6016 59.2465 81.4796 59.9181C79.0012 61.4015 75.4865 62.6797 72.319 63.2496C70.8396 63.5157 67.8359 63.6103 66.6009 63.4297C63.7189 63.0082 63.2426 62.7723 55.7457 58.0534C48.6394 53.5803 45.3088 52.0175 40.7392 51.0118C38.5413 50.5282 35.1042 50.3248 32.6032 50.5304ZM55.143 51.1235C55.143 51.6785 55.1841 51.8469 55.3196 51.8469C55.6243 51.8469 55.7425 51.4535 55.6032 50.9039C55.4046 50.1214 55.143 50.2461 55.143 51.1235ZM56.5894 51.0533C56.5894 51.7413 56.6821 51.9675 56.9639 51.9675C57.2321 51.9675 57.2356 51.9333 57.0508 51.1327C56.8705 50.3511 56.5894 50.3028 56.5894 51.0533ZM110.92 51.491C110.136 51.9092 110.465 52.1176 111.47 51.8386C111.8 51.7468 111.918 51.6539 111.89 51.5076C111.835 51.2178 111.445 51.2111 110.92 51.491ZM111.402 52.8475C111.22 52.9196 111.071 53.0223 111.071 53.0758C111.071 53.2481 112.356 53.1858 112.505 53.0064C112.764 52.6952 112.048 52.5922 111.402 52.8475ZM111.321 54.2434C111.16 54.2884 111.006 54.3915 110.979 54.4726C110.944 54.5787 111.152 54.62 111.724 54.62C112.517 54.62 112.644 54.554 112.372 54.2824C112.217 54.1271 111.793 54.1114 111.321 54.2434ZM110.347 55.5565C110.347 55.8734 111.467 56.281 111.781 56.0787C112.092 55.879 111.833 55.5846 111.346 55.5828C111.095 55.582 110.768 55.5484 110.619 55.5085C110.47 55.4685 110.347 55.4901 110.347 55.5565ZM109.383 56.6474C109.383 56.7963 110.285 57.2724 110.568 57.2724C110.86 57.2724 110.97 57.1376 110.843 56.9329C110.676 56.6619 109.383 56.4092 109.383 56.6474ZM108.178 57.243C108.178 57.4371 109.008 58.0162 109.225 57.974C109.54 57.913 109.544 57.666 109.234 57.4627C108.87 57.2246 108.178 57.0805 108.178 57.243ZM107.289 57.6643C107.163 58.1378 107.204 58.7195 107.364 58.7154C107.582 58.7099 107.937 58.4165 107.937 58.2423C107.937 58.0557 107.551 57.393 107.443 57.393C107.398 57.393 107.329 57.5152 107.289 57.6643ZM108.66 60.4652C108.66 60.5634 108.796 60.6719 108.961 60.7063C109.127 60.7407 109.403 60.7983 109.576 60.8344C109.975 60.9181 110.288 60.6866 110.093 60.4515C109.895 60.2127 108.66 60.2246 108.66 60.4652ZM108.78 61.7128C108.78 61.907 109.945 62.3656 110.218 62.2789C110.797 62.0949 110.132 61.6176 109.293 61.6147C109.011 61.6137 108.78 61.6579 108.78 61.7128ZM108.78 63.0454C108.78 63.2667 109.619 63.7831 109.978 63.7831C110.606 63.7831 110.404 63.3951 109.634 63.1235C109.042 62.9146 108.78 62.8907 108.78 63.0454ZM108.298 64.3623C108.298 64.5992 109.113 65.2299 109.419 65.2299C109.781 65.2299 109.8 65.1961 109.621 64.8616C109.407 64.4618 108.298 64.0433 108.298 64.3623ZM102.307 64.9933C102.188 65.3072 102.124 65.3483 101.859 65.2817C101.356 65.1555 101.476 65.5291 101.989 65.6864C102.734 65.9151 103.041 65.6061 102.734 64.9342C102.553 64.5363 102.475 64.547 102.307 64.9933ZM107.274 65.1096C107.14 65.3258 107.948 66.3151 108.259 66.3151C108.714 66.3151 108.601 65.899 108.015 65.4189C107.446 64.9526 107.386 64.9277 107.274 65.1096ZM103.423 65.792C103.47 66.1129 103.531 66.4161 103.56 66.4658C103.667 66.6525 104.066 66.5468 104.141 66.3118C104.237 66.0084 103.848 65.307 103.552 65.25C103.362 65.2134 103.348 65.2743 103.423 65.792ZM105.888 65.5353C105.888 65.7444 106.512 66.7797 106.675 66.8425C107.271 67.0711 107.247 66.5146 106.636 65.9175C106.232 65.5234 105.888 65.3474 105.888 65.5353ZM104.738 66.0438C104.84 66.6008 105.11 67.0385 105.352 67.0385C105.677 67.0385 105.678 66.6907 105.353 66.1356C104.946 65.4414 104.619 65.3926 104.738 66.0438ZM101.602 66.446C101.495 66.6197 102.259 67.4002 102.536 67.4002C102.926 67.4002 102.777 66.9654 102.274 66.6325C101.729 66.2719 101.713 66.2672 101.602 66.446ZM93.9634 68.0509C93.6562 68.4976 93.6255 68.6032 93.7691 68.7223C94.0332 68.9416 94.407 68.6734 94.5477 68.1636C94.7712 67.354 94.4812 67.2979 93.9634 68.0509ZM101.311 67.792C101.319 68.0872 101.984 68.9079 102.247 68.9458C102.668 69.0068 102.577 68.5969 102.056 68.0878C101.591 67.6338 101.304 67.5199 101.311 67.792ZM94.69 69.1553C94.3607 69.7135 94.3534 70.1732 94.6738 70.1732C94.9591 70.1732 95.1255 69.8901 95.232 69.2238C95.3354 68.5765 95.0524 68.5409 94.69 69.1553ZM100.705 68.9496C100.705 69.236 101.002 69.8969 101.214 70.0828C101.525 70.3556 101.635 70.3489 101.73 70.0508C101.784 69.8818 101.691 69.6618 101.426 69.3274C101.08 68.89 100.705 68.6935 100.705 68.9496ZM95.7088 70.1544C95.5115 70.7485 95.5524 71.1378 95.8119 71.1378C96.1028 71.1378 96.245 70.8327 96.245 70.2094C96.245 69.3729 95.9774 69.3454 95.7088 70.1544ZM99.6948 69.7879C99.6123 69.9212 99.8442 70.9121 100.003 71.1029C100.074 71.1884 100.203 71.2583 100.289 71.2583C100.581 71.2583 100.596 70.8077 100.323 70.2456C100.073 69.7294 99.837 69.5577 99.6948 69.7879ZM97.0345 70.7173C96.9417 71.3369 97.0317 71.7406 97.2629 71.7406C97.5827 71.7406 97.7046 71.416 97.6212 70.787C97.5583 70.3127 97.4917 70.1732 97.328 70.1732C97.1691 70.1732 97.0957 70.3096 97.0345 70.7173ZM98.5351 71.0209C98.5351 71.5589 98.5826 71.7664 98.7175 71.8181C98.937 71.9024 99.2629 71.6592 99.1968 71.4605C99.1709 71.3825 99.0907 71.0881 99.0186 70.8062C98.9394 70.497 98.8175 70.2938 98.7112 70.2938C98.5762 70.2938 98.5351 70.4636 98.5351 71.0209Z" fill="#FF9236"/>
<path fill-rule="evenodd" clip-rule="evenodd" d="M28.0807 77.8079C27.0645 78.8244 27.7289 80.4208 29.1681 80.4208C30.6072 80.4208 31.2716 78.8244 30.2554 77.8079C29.8956 77.448 29.7854 77.4075 29.1681 77.4075C28.5507 77.4075 28.4405 77.448 28.0807 77.8079ZM28.2869 82.2333C27.7938 82.534 27.4928 83.202 27.5979 83.7621C27.831 85.0053 29.4954 85.4758 30.3351 84.5357C31.2489 83.5126 30.5511 81.9899 29.1681 81.9899C28.8966 81.9899 28.5115 82.0962 28.2869 82.2333ZM49.4639 88.8591C45.5064 89.2418 42.2073 90.7328 39.6436 93.2971C38.6214 94.3197 37.4532 95.9272 36.8277 97.1721C34.3789 102.046 34.3789 108.471 36.8277 113.345C38.6016 116.876 41.7884 119.613 45.5859 120.866C49.5768 122.184 54.5143 122.001 57.8282 120.412C59.0474 119.827 60.6895 118.721 60.6843 118.488C60.6825 118.407 60.5246 118.152 60.3334 117.921L59.9855 117.501L59.4025 117.988C57.4374 119.631 55.668 120.323 52.7468 120.593C48.2699 121.007 44.699 119.436 42.1049 115.91C40.8716 114.234 39.7479 111.463 39.2766 108.936C38.9332 107.094 38.9653 103.016 39.3369 101.28C40.4404 96.1254 42.9394 92.5506 46.6307 90.8466C50.3721 89.1194 55.7518 89.771 59.1694 92.3653L60.0014 92.9969L60.3413 92.587C60.5281 92.3615 60.6825 92.1141 60.6843 92.0372C60.6883 91.8648 59.4941 91.1015 58.2115 90.4568C55.6205 89.1543 52.4327 88.5721 49.4639 88.8591ZM0.501165 89.5447C0.456929 89.5888 0.420776 96.6963 0.420776 105.339V121.053H2.34931H4.27785V113.698V106.344L6.59812 106.346L8.91839 106.348L13.9609 113.701L19.0033 121.053H21.4121H23.8207L23.545 120.661C21.551 117.827 13.7262 106.974 13.6069 106.876C13.519 106.804 12.8079 106.672 12.0265 106.582C10.6419 106.422 10.6212 106.415 11.2085 106.316C15.0284 105.674 16.8437 104.893 18.5623 103.151C20.8582 100.825 21.4165 97.694 20.0567 94.7719C18.7631 91.9926 15.6602 90.0834 11.6335 89.5895C10.5231 89.4533 0.632305 89.4134 0.501165 89.5447ZM27.2998 105.259V121.053H29.1681H31.0363V105.259V89.4643H29.1681H27.2998V105.259ZM63.942 105.259V121.053H65.8103H67.6786V113.396V105.739L76.3268 105.77L84.9751 105.801L85.0061 113.427L85.0372 121.053H86.905H88.7728L88.7423 105.289L88.7117 89.5246L86.8735 89.4913L85.0354 89.458V97.0569V104.656H76.357H67.6786V97.0601V89.4643H65.8103H63.942V105.259ZM92.7495 105.259V121.053H94.6178H96.4861V116.777V112.501L98.8454 109.603C100.143 108.01 101.247 106.706 101.299 106.706C101.35 106.706 102.007 107.614 102.759 108.725C108.533 117.261 112.257 122.141 115.817 125.837C119.967 130.145 123.696 132.587 127.213 133.297C128.82 133.621 130.918 133.5 132.424 132.995C134.412 132.329 136.342 131.018 138.085 129.151C138.865 128.315 138.918 128.227 138.721 128.082C138.603 127.996 138.435 127.925 138.347 127.925C138.26 127.925 137.717 128.332 137.141 128.828C135.885 129.91 134.311 130.743 133.008 131.016C128.981 131.859 124.074 129.214 118.67 123.289C115.828 120.172 113.291 116.882 108.723 110.383C107.278 108.327 105.903 106.407 105.668 106.115L105.24 105.585L103.625 105.658L102.01 105.731L102.421 105.224C102.647 104.944 105.533 101.379 108.835 97.3012C112.137 93.223 114.921 89.7914 115.022 89.6753C115.195 89.4773 115.161 89.4643 114.473 89.4643H113.741L105.143 100.007L96.5464 110.549L96.5156 100.007L96.4848 89.4643H94.6172H92.7495V105.259ZM134.657 89.7898C134.349 90.394 120.834 120.89 120.834 120.979C120.834 121.027 121.109 121.049 121.445 121.029L122.057 120.993L127.972 107.64C131.225 100.296 133.92 94.2887 133.96 94.2909C134 94.2929 136.701 100.302 139.962 107.644L145.892 120.993L147.947 121.026C149.078 121.044 150.002 121.017 150 120.966C149.998 120.914 146.862 113.819 143.03 105.198L136.063 89.5246L135.445 89.4884C134.875 89.4549 134.815 89.4774 134.657 89.7898ZM10.3045 90.7216C14.0289 91.396 16.5101 93.9786 16.7636 97.4443C16.9716 100.29 15.4076 102.998 12.8234 104.265C11.1211 105.1 10.7448 105.166 7.32132 105.226L4.27785 105.28V97.9147V90.5494L6.83918 90.5536C8.45421 90.5563 9.73452 90.6182 10.3045 90.7216Z" fill="#278780"/>
</svg>
