<svg width="150" height="150" fill="none" xmlns="http://www.w3.org/2000/svg"><g clip-path="url(#clip0_282_8100)" fill="#463A3A"><path d="M144.049 79.862c-2.176.587-6.758 7.704-7.72 9.648a3.66 3.66 0 011.005-.488c.37-.121.77-.2 1.156-.212.402-.014.754.06 1.089.21.336.15.634.403.856.747.231.358.328.722.286 1.124-.041.396-.126.81-.216 1.23-.093.435-.168.872-.233 1.317-.068.455.005.913.203 1.386.272.651.62 1.161 1.074 1.536.451.372 1.006.56 1.727.56a3.95 3.95 0 001.993-.51 5.442 5.442 0 001.54-1.272 7.552 7.552 0 001.053-1.69c.273-.605.409-1.189.501-1.743.025-.15.1-.226.251-.226.268 0 .47.125.57.371 0-.02.034.064.034.261.001.633-.208 1.365-.583 2.2-.377.838-.939 1.622-1.606 2.378a9.167 9.167 0 01-2.361 1.917 5.906 5.906 0 01-2.998.787c-.955.001-1.816-.186-2.648-.594-.794-.39-1.371-.96-1.661-1.68-.315-.781-.354-1.482-.12-2.12a7.354 7.354 0 01.919-1.784c.389-.545.634-.874.978-1.329.341-.45.488-.88.418-1.276-.099-.553-.538-.848-1.309-.897-.77-.05-1.591.303-2.529 1.053-.601 1.271-.934 2.385-1.193 3.689-.074.373-.125.82-.199 1.331-.075.514-.154 1.004-.199 1.482-.054.562-.096 1.13-.166 1.688-.013.106-.25.2-.636.282a5.55 5.55 0 01-1.173.132c-.318 0-.571-.025-.804-.09-.22-.06-.356-.158-.42-.28-.02-.039-.039-.074-.05-.116-.006-.024.016-.04.033-.04 0-.045.017-.231.033-.563.016-.32.041-.738.066-1.25.024-.513.049-1.09.081-1.728.033-.638.11-1.29.149-1.964.026-.452.09-1.14.181-2.065.091-.923.132-1.893.215-2.903.082-1.014.102-5.058.093-5.942-.01-.889-.102-1.507-.237-1.853-.1-.256-.235-.397-.403-.436a2.87 2.87 0 00-.62-.055c-.285 0-.499-.15-.604-.446-.08-.227-.034-.341.218-.342.167 0 .502.014 1.055.04.537.023.989.038 1.358.038.368 0 .72-.009.972-.022.251-.012.469-.02.703-.02.269 0 .427.078.487.225.092.23.151.818.119 1.778-.032.964-.111 5.51-.276 7.459-.028.344-.103 1.07 0 1.328 1.592-3.135 5.646-8.828 8.542-10.968.705-.52 1.322-.853 1.808-.96.536-.12.956-.168 1.207-.168.838-.001 1.523.122 2.095.369.585.253 1.035.565 1.342.937.313.38.486.763.504 1.18.017.407-.114.78-.384 1.105-.249.299-.519.448-.787.448s-.551-.088-.805-.24a5.656 5.656 0 01-.872-.636 11.55 11.55 0 00-.923-.748 3.87 3.87 0 00-1.006-.541 1.916 1.916 0 00-1.173-.038zm-127.151-9.46c-1.216.104-2.474.16-3.768.176-.869.01-1.736-.008-2.608-.07a22.59 22.59 0 01-2.614-.345c-3.425-.655-6.215-3.987-5.48-7.056.15-.623.45-1.37.82-1.912.877-1.278 3.54-2.39 5.298-2.054.692.133 1.192.352 1.502.66.31.306.524.627.642.962.118.336.207.646.266.93.06.286.185.472.377.561.23.044.478.02.736-.08s.498-.243.727-.427c.228-.185.428-.394.597-.629.17-.234.28-.46.332-.672.098-.41.04-.819-.173-1.231a3.86 3.86 0 00-.938-1.15 6.477 6.477 0 00-1.447-.923 7.13 7.13 0 00-1.71-.562 6.756 6.756 0 00-2.827.044 7.723 7.723 0 00-2.554 1.094 8.352 8.352 0 00-2.034 1.915 7.856 7.856 0 00-1.283 2.51c-.343 1.431-.36 2.744-.048 3.93a8.84 8.84 0 001.533 3.166 10.31 10.31 0 002.525 2.347c.974.642 1.95 1.13 2.935 1.461.367.123.745.234 1.133.335.387.1.778.188 1.171.263.627.12 1.254.216 1.88.286-.226 5.6-.379 9.81-.606 15.88-.08 2.11-.157 4.222-.23 6.333-.013.392-.074.727-.118 1.004a1.208 1.208 0 01-.36.686c-.185.179-.44.316-.743.42-.303.104-.723.142-1.272.182a.162.162 0 00-.155.168c.004.078.023.15.058.218.052.067.087.135.122.203.036.067.102.097.296.09.065-.003.259-.013.582-.037.338-.025.71-.046 1.13-.062.421-.016.858-.038 1.261-.067.452-.032.824-.05 1.148-.063a43.636 43.636 0 011.78-.032c.502 0 1.004 0 1.474-.006a66.872 66.872 0 011.57-.01 43.36 43.36 0 001.959-.044c3.25-.126 5.903-.583 7.926-1.384 2.022-.801 3.581-1.798 4.618-2.964 2.079-2.337 2.23-5.332.917-8.054-1.475-3.06-4.077-5.488-8.165-6.856-1.866-.625-6.64-1.406-8.278-.38-.397.248-.563.531-.503.78.078.317.235.614.54.872.317.266.65.453.996.564.36.115.718.121 1.054.024.305-.089.552-.335.714-.732.046-.043.054.026-.126-.022-.197-.052-.394-.109-.64-.164a2.621 2.621 0 01-.658-.246c-.218-.11-.298-.233-.242-.373.277-.697 3.412-.129 4.13.036 2.474.57 3.546.918 5.33 2.705a9.558 9.558 0 012.823 6.851 8.18 8.18 0 01-1.056 4.074c-1.636 2.905-5.299 3.837-8.452 3.96-1.083.04-2.006.07-2.734.086-.744.017-1.361.004-1.849-.048-.488-.052-.846-.142-1.08-.252a1.117 1.117 0 01-.541-.54 1.52 1.52 0 01-.177-.722c.012-7.201-.393-14.913.601-21.681l.036-.245a35 35 0 003.575-.195 88.743 88.743 0 003.756-.485c1.259-.189 2.524-.376 3.797-.569 1.623-.244 6.498-1.146 7.758-1.126 1.684.026 4.894.062 6.916 1.473.708.494.54 1.26 1.4 1.628.2.085.433-.002.648-.13.215-.128.365-.367.448-.715a1.77 1.77 0 00-.298-1.51c-.33-.46-.792-.868-1.395-1.225a10.403 10.403 0 00-2.072-.918 18.823 18.823 0 00-2.284-.594 27.134 27.134 0 00-2.469-.356 45.711 45.711 0 00-2.554-.177 92.508 92.508 0 00-2.673-.07c-4.384-.058-8.272.911-12.623 1.287zm32.434 34.883c-.018.005-.058.004-.067-.029.01.033.05.034.067.029zm25.82 9.034a4.88 4.88 0 01-.574-.441l-.572.167c.2.157.414.311.644.461 1 .654 1.962 1.11 2.917 1.397.94.283 1.827.417 2.665.404a6.152 6.152 0 002.261-.445c.685-.282 1.251-.654 1.691-1.122.497-.528.86-1.14 1.037-1.865.174-.718.131-1.492-.104-2.3-.236-.813-.7-1.661-1.41-2.524-.716-.869-1.712-1.716-2.986-2.548-3.455-2.256-8.014-3.24-12.505-3.088a8.271 8.271 0 00-1.041-2.128c-.49-.73-1.15-1.364-1.93-1.947-.763-.57-1.693-1.002-2.75-1.272a17.18 17.18 0 002.192-2.775c.652-1.026 1.201-2.06 1.588-3.131.381-1.055.643-2.105.734-3.13a6.095 6.095 0 00-.39-2.772 3.236 3.236 0 00-1.208-1.535c-.538-.37-1.274-.561-2.195-.56-.821.001-1.596.292-2.345.882a11.882 11.882 0 00-2.042 2.087 20.406 20.406 0 00-1.605 2.418c-.466.82-.839 1.451-1.07 1.93-.12.245-.185.462-.167.637.017.176.065.309.167.377a.427.427 0 00.403.02.787.787 0 00.418-.438c.332-.76.657-1.52 1.086-2.211.441-.71.861-1.306 1.322-1.855.442-.527.87-.965 1.305-1.277.436-.312.821-.469 1.14-.469.25 0 .554.081.888.26.32.172.575.434.721.788.257.62.388 1.38.422 2.264.035.89-.024 1.825-.198 2.793-.175.98-.434 1.949-.817 2.909a12.871 12.871 0 01-1.37 2.563c-.772-.024-1.493.053-2.095.229a5.355 5.355 0 00-1.49.674c-.406.272-.667.586-.82.9-.164.334-.176.642-.05.94.16.375.554.562 1.157.561.268 0 .54-.07.871-.227a5.52 5.52 0 00.888-.549c.286-.209.6-.445.887-.71.282-.258.57-.502.837-.728.452.05.872.325 1.274.822a7.395 7.395 0 011.025 1.701c.277.636.504 1.285.69 1.948l.1.356c-3.408.572-10.203 2.701-11.269 6.739-.246.932-.264 1.713.12 2.416.354.647.939 1.142 1.745 1.459.837.329 1.878.383 3.2.187 2.933-.432 5.21-1.404 6.85-2.916 1.651-1.521 3.361-4.304 2.997-6.629 5.22-.377 10.24.267 14.008 4.696 2.602 3.059.154 6.448-3.073 6.707a6.55 6.55 0 01-2.062-.153c-.704-.166-1.422-.49-2.112-.947zm-10.363-9.918a12.541 12.541 0 01-.471 2.649 11.42 11.42 0 01-1.17 2.754 6.926 6.926 0 01-1.874 2.066c-.765.56-1.624.897-2.63 1.053-.62.097-1.203.039-1.658-.153-.483-.204-.843-.489-1.057-.893-.29-.545-.395-1.209-.321-1.983.391-4.081 6.023-4.941 9.18-5.493zM82.064 87.7c.094-1.196.123-2.2.063-3.019-.06-.809-.19-1.399-.337-1.772-.039-.099-.043-.187-.05-.246-.01-.067.1-.117.234-.151.167-.042.435-.06.804-.061l1.609-.002c.2 0 .402.026.536.059.167.042.253.11.285.206.052.156.101.407.085.768-.017.362-.05.924-.115 1.688-.066.758-.115 1.758-.215 2.998a317.15 317.15 0 00-.345 4.667c-.058.874-.066 1.547-.032 2.024.034.472.083.84.186 1.084.116.277.234.43.386.467.183.044.302.055.486.055.47-.001.954-.244 1.49-.71.552-.48.956-1.166 1.339-2.026a.252.252 0 01.234-.156c.251 0 .479.126.57.376.027.072.017.125.017.155-.066.272-.242.705-.518 1.292a8.713 8.713 0 01-1.12 1.764 8.122 8.122 0 01-1.624 1.534c-.592.424-1.239.66-1.943.66-.62.001-1.105-.135-1.458-.41-.351-.272-.608-.64-.789-1.089a5.108 5.108 0 01-.355-2.073c.025-.794.032-1.582.115-2.381-.05 0-.067-.015-.1-.04-.051-.05-.102-.075-.118-.075-.034 0-.067.015-.067.035-.05.23-.224.528-.485.904-.258.373-.596.77-.97 1.217-.363.433-.79.88-1.289 1.333-.49.443-.97.86-1.49 1.222-.519.362-1.04.651-1.523.88-.47.224-.955.339-1.374.34-.604 0-1.072-.13-1.425-.41-.335-.267-.592-.636-.772-1.085-.24-.6-.362-1.295-.355-2.084.008-.783.016-1.58.081-2.376.132-1.6.24-2.954.33-4.068.09-1.11.174-2.034.215-2.773.04-.738.04-1.32.014-1.742-.026-.427-.073-.737-.152-.934-.089-.224-.234-.37-.386-.417a2.075 2.075 0 00-.62-.074.64.64 0 01-.402-.13c-.107-.078-.161-.2-.218-.317-.111-.229-.017-.341.234-.341.067 0 .184.007.385.02.201.011.436.019.654.018.218 0 .469.006.704.02a16.762 16.762 0 001.608-.002c.268-.016.503-.021.737-.021.101 0 .235.006.302.02.084.016.172.078.218.205.055.15.093.411.102.788.008.372-.033.933-.099 1.683-.066.752-.132 1.738-.23 2.943-.1 1.216-.222 2.734-.364 4.556a11.302 11.302 0 00-.014 1.818c.042.483.12.884.236 1.18.236.602.638.899 1.157.898.587-.001 1.22-.267 1.876-.776.667-.517 1.273-1.186 1.84-2.021a14.026 14.026 0 001.489-2.85 11.5 11.5 0 00.733-3.245zm-32.045-4.49c.04-.099.078-.197.15-.282.079-.09.185-.154.403-.191.201-.034.469-.064.787-.092.335-.028.804-.04 1.374-.042.402 0 .635.06.688.186.031.076-.007.171-.084.301-.073.122-.15.276-.234.452-.117.246-.26.66-.451 1.236-.193.58-.417 1.231-.634 1.97-.217.739-.441 1.52-.634 2.361-.19.833-.35 1.663-.45 2.472-.1.813-.173 1.567-.18 2.27-.008.693.089 1.276.27 1.722.256.633.688.934 1.307.933.436 0 .904-.244 1.39-.71.501-.479.929-1.165 1.288-2.066.042-.104.134-.146.235-.146.268 0 .462.126.586.407.01.022-.016.04-.033.04s0 .015 0 .04c0 .01.017.025.017.035-.05.271-.215.701-.501 1.291a10.157 10.157 0 01-1.087 1.785c-.46.597-.95 1.135-1.556 1.594-.617.467-1.24.719-1.96.73-.603.01-1.118-.2-1.526-.596-.414-.401-.715-.9-.973-1.495a7.277 7.277 0 01-.522-1.968c-.094-.714-.136-1.366-.104-1.969 0-.025-.033-.045-.083-.075-.118-.07-.151-.11-.168-.11-.017 0-.072.022-.117.11-.122.24-.348.706-.702 1.332-.365.645-.845 1.3-1.439 1.966a10.152 10.152 0 01-2.092 1.785 4.706 4.706 0 01-2.63.772c-.922.001-1.709-.215-2.28-.615a3.711 3.711 0 01-1.343-1.7c-.31-.77-.462-1.668-.439-2.682.024-1.01.198-2.05.516-3.115.316-1.06.747-2.107 1.32-3.125a13.976 13.976 0 012.007-2.76 9.726 9.726 0 012.612-1.972 6.561 6.561 0 013.082-.752c.67-.001 1.241.066 1.693.204.437.132.806.298 1.09.485.286.19.509.378.654.582.14.197.252.361.352.487.117-.362.256-.721.401-1.085zm-8.194 13.495c.788-.001 1.49-.25 2.16-.751a8.86 8.86 0 001.825-1.856c.54-.73.988-1.532 1.371-2.382a24.27 24.27 0 00.902-2.286c.36-1.078.584-2.01.634-2.809.049-.798-.03-1.464-.238-1.988-.38-.957-1.124-1.42-2.247-1.419a3.926 3.926 0 00-2.16.656 6.997 6.997 0 00-1.825 1.725 12.897 12.897 0 00-1.421 2.422 14.12 14.12 0 00-.885 2.699c-.2.899-.3 1.752-.315 2.566-.016.814.091 1.511.32 2.08.175.43.423.759.723.993.304.237.687.35 1.156.35zm49.445-3.843c.135.823.386 1.486.723 1.987.335.498.723.871 1.107 1.124.37.243.705.404 1.04.466.319.058.536.07.67.014.52 0 .995-.232 1.407-.71a7.63 7.63 0 001.154-1.86c.34-.76.66-1.63.968-2.603.31-.976.634-2.26.985-3.285.35-1.025.718-2.02 1.119-2.995a15.17 15.17 0 011.404-2.628c.184-.101.247-.174.268-.207.029-.043.084-.055.151-.055.084 0 .285.008.553.034.285.028.754.04 1.441.039.218 0 .386.013.586.054.185.038.26.11.252.206-.058.727-.207 1.59-.432 2.607a39.608 39.608 0 00-.566 3.26 34.4 34.4 0 00-.297 3.918c-.015 1.26.101 2.507.39 3.731.064.272.168.429.353.467.201.041.335.055.519.054.453 0 .966-.249 1.491-.715.546-.484.968-1.157 1.354-2.025.048-.107.101-.151.218-.151.268 0 .436.125.537.376.05.125.06.349-.05.678a5.777 5.777 0 01-.518 1.085 9.811 9.811 0 01-.836 1.237c-.343.424-.721.813-1.121 1.181a5.425 5.425 0 01-1.273.886 3.042 3.042 0 01-1.357.339c-.636 0-1.118-.15-1.441-.416a2.631 2.631 0 01-.806-1.084c-.293-.745-.479-1.687-.556-2.812a25.014 25.014 0 01-.005-3.54c.091-1.236.223-2.741.431-3.953.207-1.21.416-2.271.633-3.17-.301.377-.61 1.013-.903 1.914-.291.897-1.007 3.5-1.374 4.615-.367 1.11-.394.942-.812 2.133a18.164 18.164 0 01-1.471 3.191c-.553.94-1.19 1.67-1.907 2.213-.707.534-1.541.694-2.497.505-.687-.136-1.19-.296-1.492-.5-.318-.217-.563-.545-.738-.994-.246-.63-.337-1.39-.288-2.305.05-.914.384-1.683.986-2.306zm29.987-5.211c.078-1.196.124-2.2.064-3.019-.06-.809-.163-1.403-.321-1.772a.582.582 0 01-.05-.246c0-.068.067-.113.217-.151.169-.043.419-.06.805-.061l1.592-.002c.217 0 .402.018.569.06.135.033.236.108.269.205.052.156.093.401.068.768-.025.361-.041.924-.099 1.688-.057.758-.123 1.758-.214 2.999-.09 1.236-.256 2.787-.38 4.666a15.16 15.16 0 00-.014 2.024c.034.472.1.84.203 1.084.116.277.235.427.402.467.151.035.319.055.47.055.469-.001.953-.244 1.49-.71.551-.48.954-1.169 1.338-2.026.051-.114.134-.156.234-.156.252 0 .437.135.537.376.034.08.034.125.034.156-.05.271-.218.707-.484 1.291a8.698 8.698 0 01-1.104 1.764 7.81 7.81 0 01-1.64 1.534c-.617.436-1.256.66-1.96.66-.637.001-1.123-.134-1.458-.41a2.685 2.685 0 01-.773-1.088c-.242-.602-.37-1.286-.354-2.074.016-.789.015-1.582.097-2.381-.033 0-.05-.015-.067-.04-.084-.05-.134-.075-.167-.075a.11.11 0 00-.067.035c-.033.231-.178.531-.435.905-.262.38-.625.774-1.004 1.216-.374.438-.793.873-1.288 1.333-.475.44-.971.86-1.49 1.222a9.769 9.769 0 01-1.524.88c-.487.224-.955.338-1.357.34-.62 0-1.084-.14-1.425-.411a2.577 2.577 0 01-.789-1.084 5.28 5.28 0 01-.371-2.084 38.32 38.32 0 01.115-2.375c.132-1.603.247-2.954.33-4.069.082-1.11.156-2.034.197-2.772.041-.739.049-1.322.032-1.743-.018-.427-.082-.74-.152-.934a.666.666 0 00-.403-.417 2.204 2.204 0 00-.637-.074.6.6 0 01-.352-.13c-.117-.091-.221-.195-.268-.317-.088-.224-.018-.341.234-.341.067 0 .218.008.402.02.218.013.436.019.653.019.218 0 .453.007.704.019.251.012.469.02.671.02.368-.001.686-.007.938-.022.268-.016.503-.021.737-.021.101 0 .234.006.302.02.083.016.165.08.218.205.064.152.101.412.102.789 0 .371-.025.933-.082 1.682-.058.753-.166 1.733-.265 2.944a416.96 416.96 0 00-.346 4.555c-.052.728-.066 1.332-.014 1.819.05.482.129.88.252 1.18.247.6.622.898 1.141.897.587 0 1.22-.267 1.876-.776.666-.517 1.287-1.182 1.857-2.021a13.565 13.565 0 001.471-2.85c.4-1.06.663-2.145.733-3.245z"/><path fill-rule="evenodd" clip-rule="evenodd" d="M67.386 63.89c.134.025.288.057.46.096.174.039.355.07.541.096.294.078.44.258.44.54a.61.61 0 01-.18.425.559.559 0 01-.42.194l-.2-.039c-.747-.18-1.548-.27-2.402-.27-.828 0-1.615.09-2.362.27l-.16.038c-.214 0-.374-.064-.481-.193a.65.65 0 01-.16-.424c0-.283.133-.463.4-.54.214-.052.414-.103.6-.155.188-.051.334-.077.441-.077V50.572a533.544 533.544 0 01-3.063 5.443 355.519 355.519 0 00-3.063 5.481v2.393c.16.052.32.084.48.097.16.013.32.032.481.058.32.077.48.27.48.579a.581.581 0 01-.2.424.623.623 0 01-.44.194l-.16-.039a10.24 10.24 0 00-2.402-.27c-.4 0-.794.019-1.182.058a7.306 7.306 0 00-1.26.25c-.241 0-.428-.064-.561-.193a.581.581 0 01-.2-.424c0-.309.16-.502.48-.579.187-.026.367-.051.54-.077.174-.026.314-.052.42-.078V41.27a7.084 7.084 0 01-.92-.192c-.347 0-.52-.194-.52-.58 0-.386.267-.578.8-.578.774.18 1.575.27 2.403.27.827 0 1.668-.09 2.522-.27.454 0 .68.192.68.578 0 .386-.16.58-.48.58a2.25 2.25 0 01-.42.115c-.147.026-.327.052-.54.078v12.892a697.167 697.167 0 013.062-5.307 690.047 690.047 0 003.063-5.308v-2.239a2.614 2.614 0 01-.96-.231c-.321 0-.481-.194-.481-.58 0-.386.267-.578.8-.578.748.18 1.535.27 2.363.27.854 0 1.655-.09 2.402-.27h.2c.4 0 .6.192.6.578 0 .386-.16.58-.48.58a4.34 4.34 0 01-.96.231V63.89zm18.104 0l1 .192c.295.078.441.258.441.54a.61.61 0 01-.18.425.558.558 0 01-.42.194l-.2-.039c-.748-.18-1.549-.27-2.403-.27-.8 0-1.588.09-2.362.27l-.16.038c-.214 0-.374-.064-.48-.193a.65.65 0 01-.16-.424c0-.283.133-.463.4-.54.213-.052.413-.103.6-.155a1.8 1.8 0 01.44-.077V52.464h-6.125v11.425l1 .193c.294.078.441.258.441.54a.65.65 0 01-.16.425c-.107.13-.267.194-.48.194l-.2-.039a9.549 9.549 0 00-2.323-.27c-.827 0-1.628.09-2.402.27l-.16.038c-.214 0-.374-.064-.48-.193a.65.65 0 01-.16-.424c0-.283.133-.463.4-.54.213-.052.413-.103.6-.155a1.8 1.8 0 01.44-.077V41.308a2.614 2.614 0 01-.96-.231c-.32 0-.48-.194-.48-.58 0-.386.266-.578.8-.578.774.18 1.575.27 2.402.27.828 0 1.602-.09 2.322-.27h.24c.401 0 .601.192.601.578 0 .386-.16.58-.48.58-.267.102-.588.18-.961.231v7.72h6.126v-7.72a2.614 2.614 0 01-.961-.231c-.32 0-.48-.194-.48-.58 0-.386.266-.578.8-.578.774.18 1.561.27 2.362.27.855 0 1.655-.09 2.403-.27h.2c.4 0 .6.192.6.578 0 .386-.16.58-.48.58a4.34 4.34 0 01-.961.231v22.581zm16.622-20.034c0 .308-.053.733-.16 1.274a9.01 9.01 0 01-.54 1.717c-.254.605-.588 1.21-1.001 1.814a6.554 6.554 0 01-1.502 1.564c1.361 1.338 2.376 2.863 3.043 4.574.667 1.711 1.028 3.545 1.081 5.5a4.49 4.49 0 01-.38 1.854 4.583 4.583 0 01-1.061 1.486 5.112 5.112 0 01-1.582 1.003c-.6.245-1.234.367-1.902.367h-7.607c-.027.077-.04.206-.04.386-.08.386-.28.579-.6.579a.622.622 0 01-.441-.193c-.134-.129-.2-.322-.2-.579.107-.386.16-.837.16-1.351a8.785 8.785 0 00-.56-3.088c-.054-.052-.074-.09-.06-.116a.26.26 0 00.02-.116c0-.206.066-.354.2-.444a.84.84 0 01.48-.135c.294 0 .494.129.6.386 0 .103.014.2.04.29.027.09.054.186.08.29.054.128.087.237.1.327.014.09.047.213.1.367h7.568c.427 0 .747-.122.961-.367.214-.244.334-.56.36-.945a10.152 10.152 0 00-.22-2.394 12.32 12.32 0 00-.76-2.431 8.705 8.705 0 00-1.262-2.085c-.507-.617-1.094-1.068-1.761-1.35-.641 0-1.282-.007-1.922-.02-.64-.013-1.281-.02-1.922-.02l.04.04c0 .05-.027.153-.08.308a11.69 11.69 0 00-.16.502c-.134.308-.347.463-.64.463-.161 0-.301-.064-.421-.193s-.18-.258-.18-.386l.04-.154c.24-.618.36-1.48.36-2.587a11.049 11.049 0 00-.08-1.35l-.04-.194c0-.206.067-.354.2-.444a.771.771 0 01.44-.135c.347 0 .547.168.6.502.028.103.048.167.061.193.013.026.007.09-.02.193h3.403c.454-.103.895-.341 1.322-.714.427-.373.8-.804 1.12-1.293.32-.49.581-.997.781-1.525.2-.528.3-.984.3-1.37 0-.206-.146-.31-.44-.31h-6.927a3.386 3.386 0 01-.08.368c-.026.09-.066.186-.12.29a7.191 7.191 0 01-.08.289c-.026.09-.053.186-.08.289-.107.257-.32.386-.64.386-.4 0-.601-.193-.601-.579 0-.128.013-.206.04-.231a9.05 9.05 0 00.52-3.05c0-.257-.006-.508-.02-.753a5.084 5.084 0 00-.1-.752c0-.206.06-.36.18-.464a.626.626 0 01.421-.154c.347 0 .56.167.64.502l.04.424h6.807a4.2 4.2 0 011.542.29c.493.193.927.45 1.301.772.374.322.674.714.901 1.177.227.463.34.965.34 1.506zM49.032 63.58c.16.032.368.072.624.12s.528.104.816.168c.32.096.48.32.48.672a.902.902 0 01-.168.529c-.112.16-.296.24-.552.24l-.192-.048a11.638 11.638 0 00-2.832-.337c-.449 0-.897.016-1.345.049a8.4 8.4 0 00-1.296.192c0 .096-.032.144-.096.144h-.384a.66.66 0 01-.504-.24.773.773 0 01-.216-.529c0-.384.208-.624.624-.72a.992.992 0 01.168-.048c.016 0 .104-.016.264-.048a219.95 219.95 0 00-1.848-3.528l-1.753-3.265a556.437 556.437 0 01-1.752-3.288 322.19 322.19 0 01-1.848-3.553v13.586c.16.064.328.096.504.096s.376.016.6.048c.384.096.576.336.576.72a.827.827 0 01-.192.529c-.128.16-.32.24-.576.24l-.24-.048a11.06 11.06 0 00-2.784-.337c-.992 0-1.953.112-2.88.337l-.193.048c-.256 0-.44-.08-.552-.24a.902.902 0 01-.168-.529c0-.384.16-.624.48-.72.224-.032.424-.056.6-.072.176-.016.376-.056.6-.12V35.496c-.352 0-.736-.08-1.152-.24-.352 0-.528-.24-.528-.72 0-.256.064-.44.192-.552.128-.112.368-.168.72-.168.928.224 1.889.336 2.88.336.993 0 1.921-.112 2.785-.336h.288c.48 0 .72.24.72.72s-.192.72-.576.72c-.32.096-.688.176-1.104.24v5.57c.288.48.528.92.72 1.32.192.4.432.871.72 1.416.832-1.44 1.665-2.857 2.496-4.249a334.04 334.04 0 002.497-4.249c-.064-.032-.096-.04-.096-.024 0 .017-.032.008-.096-.024-.448-.064-.672-.304-.672-.72 0-.48.32-.72.96-.72.928.224 1.888.336 2.88.336.928 0 1.937-.112 3.025-.336.544 0 .816.24.816.72s-.208.72-.624.72c-.32.128-.784.224-1.392.288a460.35 460.35 0 00-3.745 6.29 464.232 464.232 0 01-3.744 6.288l8.065 15.458zm60.97-19.917a5.196 5.196 0 012.443 2.026c.614.94 1.134 2.052 1.561 3.339h-4.004v-5.365zm-3.523 20.226c-.16.052-.314.084-.461.097-.146.013-.3.032-.46.058-.32.077-.48.27-.48.579 0 .154.073.302.22.444a.546.546 0 00.54.135c.748-.18 1.548-.27 2.403-.27.373 0 .767.019 1.181.058.413.038.821.109 1.221.212l.16.038c.214 0 .367-.064.46-.193a.704.704 0 00.141-.424c0-.31-.134-.502-.401-.58a10.003 10.003 0 00-.5-.057 2.864 2.864 0 01-.501-.097V52.464h4.965c.08.283.154.572.22.868.067.296.141.586.221.869.4 1.724.827 3.435 1.281 5.133a18.581 18.581 0 001.962 4.71h-.281c-.293.077-.44.27-.44.579 0 .154.053.296.16.424a.543.543 0 00.441.193l.2-.038c.72-.18 1.495-.27 2.322-.27.854 0 1.655.09 2.402.27l.16.038c.214 0 .374-.064.481-.193a.649.649 0 00.16-.424c0-.31-.147-.502-.44-.58a1.81 1.81 0 01-.321-.038 4.56 4.56 0 00-.38-.058 3.485 3.485 0 01-.28-.038c-.067-.013-.06-.02.02-.02a10.69 10.69 0 01-1.422-2.142 21.67 21.67 0 01-1.101-2.567c-.32-.9-.594-1.84-.821-2.818a424.82 424.82 0 01-.66-2.895 137.11 137.11 0 00-1.261-4.94c-.441-1.596-1.028-3.025-1.762-4.285a9.303 9.303 0 00-2.883-3.088c-1.188-.798-2.716-1.249-4.584-1.352h.04a3.014 3.014 0 00-.481-.038c-.16 0-.32-.013-.48-.039a14.539 14.539 0 01-.781-.096c-.253-.039-.554-.084-.901-.135a.692.692 0 00-.46.193c-.147.128-.22.257-.22.386 0 .334.173.54.52.617h-.04c.32.078.627.142.921.193V63.89z"/><path d="M134.173 52.24c.044-.666.071-1.226.038-1.682-.033-.451-.09-.782-.178-.988a.333.333 0 01-.028-.137c0-.038.038-.063.122-.084a1.96 1.96 0 01.448-.034h.888c.121 0 .224.01.317.034.075.018.132.06.149.114.03.088.052.224.038.429-.014.201-.023.514-.056.94-.033.423-.07.98-.122 1.672-.051.69-.144 1.554-.214 2.601a8.475 8.475 0 00-.01 1.128c.019.264.055.468.112.605.065.154.131.238.225.26.084.02.177.031.261.031.262 0 .532-.135.831-.394.308-.267.533-.651.748-1.129a.133.133 0 01.131-.087c.14 0 .243.076.298.21.019.045.019.07.019.087-.028.151-.122.395-.271.72-.15.327-.361.663-.616.983a4.359 4.359 0 01-.916.853c-.344.243-.7.367-1.093.367-.355 0-.626-.075-.812-.23a1.493 1.493 0 01-.43-.607 2.882 2.882 0 01-.196-1.156c.009-.44.009-.882.056-1.327-.019 0-.028-.009-.038-.023-.046-.028-.074-.042-.093-.042a.06.06 0 00-.037.02c-.019.129-.1.296-.243.504-.147.212-.349.43-.561.677a8.844 8.844 0 01-.719.742 7.852 7.852 0 01-.831.68c-.29.202-.571.363-.85.49a1.87 1.87 0 01-.757.188c-.346 0-.605-.079-.794-.23a1.429 1.429 0 01-.439-.604 2.94 2.94 0 01-.206-1.162c.01-.437.028-.88.066-1.324.075-.894.14-1.647.186-2.268.047-.619.089-1.134.113-1.546.023-.411.028-.736.018-.971a1.802 1.802 0 00-.084-.521.37.37 0 00-.224-.232 1.223 1.223 0 00-.355-.042.335.335 0 01-.196-.073.453.453 0 01-.15-.177c-.048-.125-.009-.19.131-.19.038 0 .122.005.224.011.122.008.243.011.365.011.121 0 .252.005.392.012s.262.01.374.01c.205 0 .383-.002.523-.01.149-.009.28-.012.411-.012.056 0 .13.004.168.012.047.009.092.045.122.114.035.085.056.23.056.44 0 .207-.014.52-.047.938-.033.42-.094.966-.15 1.64-.056.675-.122 1.524-.196 2.54a6.084 6.084 0 00-.009 1.014c.028.268.072.49.14.658.137.334.346.5.635.5.327 0 .68-.147 1.046-.43a4.863 4.863 0 001.037-1.126 7.57 7.57 0 00.822-1.587 6.25 6.25 0 00.411-1.81z"/></g><defs><clipPath id="clip0_282_8100"><rect width="150" height="150" rx="30" fill="#fff"/></clipPath></defs></svg>