<svg width="150" height="150" fill="none" xmlns="http://www.w3.org/2000/svg"><g clip-path="url(#clip0_282_8089)"><g clip-path="url(#clip1_282_8089)"><path d="M18.359 91.111c9.525 0 17.247-7.71 17.247-17.222S27.884 56.667 18.36 56.667c-9.526 0-17.248 7.71-17.248 17.222 0 9.511 7.722 17.222 17.248 17.222z" fill="#282525"/><path d="M28.88 76.31a3.213 3.213 0 01-5.307-1.998 3.2 3.2 0 011.044-2.796 3.212 3.212 0 014.264-.015l.626-.722a4.16 4.16 0 10-4.455 6.93 4.155 4.155 0 004.455-.646l-.626-.754zm-8.635-3.68a2.779 2.779 0 00-2.769-2.765H7.845v8.015H8.8v-2.516h2.8v-.954H8.8v-3.623h4.816v7.093h.955v-2.516h2.945c.172 0 .344-.016.514-.049l1.107 2.565h1.012l-1.252-2.901a2.758 2.758 0 001.348-2.348zm-2.769 1.812h-2.945V70.82h2.945a1.816 1.816 0 011.814 1.81 1.81 1.81 0 01-1.814 1.812z" fill="#fff"/><path d="M24.144 67.38l-.87-.394-2.265 4.984.87.394 2.265-4.984z" fill="#DB0A88"/><path d="M125.938 76.333a7.06 7.06 0 01-5.809-3.013 7.036 7.036 0 011.066-9.268 7.06 7.06 0 019.342-.084l1.373-1.603a9.169 9.169 0 00-13.7 1.969 9.133 9.133 0 000 9.886 9.158 9.158 0 009.006 4.108 9.167 9.167 0 004.694-2.139l-1.373-1.603a7.02 7.02 0 01-4.599 1.747zm-14.896-1.81L100.608 60.44h-2.094v17.695h2.094V64.064l10.434 14.072h2.095V60.441h-2.095v14.081zm-67.9 3.613h2.104V70.34h9.286v-2.092H45.27v-5.706h10.89v-2.1H43.168l-.024 17.695zm37.434 0h12.986v-2.091H82.695v-5.706h9.286v-2.092h-9.286v-5.706h10.89v-2.1H80.6l-.024 17.695zm66.992-17.695v7.806h-9.848v-7.806h-2.094v17.695h2.094V70.34h9.848v7.797h2.095V60.441h-2.095zm-72.474 6.083a6.086 6.086 0 00-1.786-4.299 6.104 6.104 0 00-4.306-1.784h-8.908v17.695h2.094v-5.53h6.838a5.905 5.905 0 001.14-.12l2.408 5.61h2.215l-2.753-6.41a6.063 6.063 0 003.082-5.162h-.024zm-6.092 4.007h-6.838v-7.958h6.838a4.017 4.017 0 014.135 2.337 4.002 4.002 0 01-.996 4.638 4.014 4.014 0 01-3.139.983zm13.813 12.574a2.412 2.412 0 00-2.301 1.656c-.105.321-.142.66-.107.997a2.354 2.354 0 002.352 2.572c1.477 0 2.408-1.041 2.408-2.66a2.329 2.329 0 00-1.396-2.373 2.337 2.337 0 00-.956-.192zm0 4.264c-.803 0-1.204-.802-1.204-1.603 0-.802.313-1.667 1.204-1.667.89 0 1.204.85 1.204 1.603-.032 1.026-.506 1.675-1.236 1.675l.032-.008zm-5 .89h1.124v-5.066h-1.132l.008 5.065zm-26.317-1.147l-.088-.336a1.498 1.498 0 00-.53-.906 1.42 1.42 0 00.28-2.284 2.347 2.347 0 00-1.564-.417 7.594 7.594 0 00-1.357.112h-.104v4.977h1.108v-1.947h.313c.4 0 .602.12.746.745.073.397.183.786.329 1.162v.072h1.188l-.096-.184a8.003 8.003 0 01-.225-.994zm-1.838-1.715h-.417v-1.282c.139-.01.278-.01.417 0 .37 0 .803.112.803.641s-.297.633-.803.633v.008zm25.298-.168c-.659-.257-.803-.4-.803-.673s.177-.45.666-.45c.315-.002.626.07.907.21l.145.08.272-.962-.088-.048a2.618 2.618 0 00-1.212-.257c-1.083 0-1.838.617-1.838 1.515 0 .681.458 1.178 1.389 1.514.642.233.802.425.802.682 0 .256-.28.529-.746.529a2.411 2.411 0 01-1.132-.257l-.144-.088-.265.978.08.056c.426.215.896.324 1.373.32 1.444 0 1.95-.849 1.95-1.602 0-.754-.441-1.218-1.388-1.555l.032.008zm-19.616-2.124a2.412 2.412 0 00-2.3 1.656 2.4 2.4 0 00-.108.997 2.352 2.352 0 001.399 2.372c.3.133.625.2.953.2 1.477 0 2.408-1.041 2.408-2.66a2.33 2.33 0 00-2.352-2.565zm0 4.264c-.802 0-1.204-.802-1.204-1.603 0-.802.313-1.667 1.204-1.667s1.204.85 1.204 1.603c-.032 1.026-.505 1.675-1.236 1.675l.032-.008zm9.631-1.25h1.814v-.962h-1.814v-.986h1.918v-.978h-3.05v5.065h3.163v-.977h-2.03v-1.163zm-5.738 2.14h1.132v-2.052h1.717v-.97H60.31V84.17h1.91v-.978h-3.04l.056 5.065zm11.108-3.046c-.658-.257-.843-.4-.843-.673s.177-.45.666-.45c.315-.002.626.07.907.21l.145.08.272-.962-.088-.048a2.62 2.62 0 00-1.292-.265c-1.084 0-1.838.617-1.838 1.515 0 .681.457 1.178 1.388 1.514.65.233.803.425.803.682 0 .256-.28.529-.746.529a2.41 2.41 0 01-1.1-.289l-.144-.088-.265.978.08.056c.425.215.896.324 1.373.32 1.444 0 1.95-.85 1.95-1.603s-.418-1.161-1.333-1.498l.065-.008zm-25.635-2.06a7.559 7.559 0 00-1.364.104h-.113v4.985h1.132V86.44c.099.009.198.009.297 0a2.249 2.249 0 001.605-.553 1.6 1.6 0 00.45-1.178 1.48 1.48 0 00-.522-1.162 2.282 2.282 0 00-1.55-.385l.065-.008zm-.048 2.404h-.297v-1.41h.377c.393 0 .85.12.85.681s-.36.681-.994.681l.064.049zm45.05-.536v1.338a20.934 20.934 0 00-.546-1.018l-1.285-2.124h-1.204v5.065h1.068v-3.334c.176.353.377.73.626 1.146l1.292 2.188h1.116v-5.065h-1.068v1.804zm9.438-1.804h-1.132v5.065h3.114v-1.01h-2.046l.064-4.055zm-4.118 0h-1.308l-1.605 4.897-.048.168h1.172l.417-1.362h1.332l.41 1.274v.088h1.195l-1.605-4.977.04-.088zm-1.115 2.781l.32-1.026c0-.136.073-.288.113-.432l.12.44.33 1.018h-.883zm50.29-1.875a2.21 2.21 0 01.891.168l.137.064.248-.945-.088-.048a2.804 2.804 0 00-1.22-.225 2.552 2.552 0 00-1.958.725 2.542 2.542 0 00-.755 1.944 2.416 2.416 0 00.714 1.865 2.411 2.411 0 001.879.683c.444.015.886-.062 1.3-.224h.088l-.184-.946-.153.064a2.55 2.55 0 01-.907.16 1.457 1.457 0 01-1.479-.976 1.446 1.446 0 01-.07-.626 1.467 1.467 0 011.493-1.7l.064.017zm-5.345 4.16h1.075v-5.066h-1.139l.064 5.065zm-5.169-4.08h1.373v4.08h1.131v-4.08h1.333v-.986h-3.893l.056.986zm15.057 1.034c-.666-.256-.843-.4-.843-.673s.177-.449.666-.449a1.99 1.99 0 01.907.208l.137.08.281-.961-.097-.048a2.553 2.553 0 00-1.204-.257c-1.083 0-1.837.617-1.837 1.515 0 .681.457 1.178 1.388 1.515.642.232.803.424.803.68 0 .257-.281.53-.747.53a2.338 2.338 0 01-1.099-.289l-.145-.088-.265.978.073.056a3.02 3.02 0 001.38.32c1.437 0 1.95-.85 1.95-1.602 0-.754-.529-1.194-1.412-1.531l.064.016zm-39.383-1.114c.305-.006.609.051.891.168l.136.064.249-.945-.088-.048a2.806 2.806 0 00-1.22-.225 2.55 2.55 0 00-2.544 1.616 2.524 2.524 0 00-.169 1.053 2.4 2.4 0 001.579 2.41c.324.119.669.166 1.013.138a3.21 3.21 0 001.3-.224h.097l-.193-.946-.152.064a2.55 2.55 0 01-.907.16 1.455 1.455 0 01-1.549-1.602 1.467 1.467 0 011.493-1.7l.064.017zm4.671-.994a2.415 2.415 0 00-1.797.79 2.402 2.402 0 00-.611 1.863 2.354 2.354 0 002.344 2.572c1.476 0 2.407-1.041 2.407-2.66a2.32 2.32 0 00-.61-1.845 2.33 2.33 0 00-1.797-.744l.064.024zm0 4.264c-.803 0-1.212-.802-1.212-1.603 0-.802.321-1.667 1.212-1.667s1.196.85 1.196 1.603c-.089 1.002-.554 1.65-1.284 1.65l.088.017zm5.706-2.156c-.666-.256-.842-.4-.842-.673s.176-.449.666-.449c.314-.003.625.068.907.208l.136.08.281-.961-.096-.048a2.558 2.558 0 00-1.204-.257c-1.084 0-1.838.617-1.838 1.515 0 .681.457 1.178 1.388 1.515.642.232.803.424.803.68 0 .257-.281.53-.746.53a2.338 2.338 0 01-1.1-.289l-.145-.088-.264.978.08.056a2.99 2.99 0 001.372.32c1.445 0 1.951-.85 1.951-1.602 0-.754-.53-1.194-1.437-1.531l.088.016zm10.835.906h1.814v-.962h-1.814v-.986h1.918v-.978h-3.049v5.065h3.162v-.977h-2.031v-1.163zm-3.026-2.926h-1.356l-.69 2.012a20.25 20.25 0 00-.369 1.226c-.097-.4-.209-.801-.329-1.218l-.634-1.931v-.089h-1.365l-.329 4.929v.136h1.084l.112-2.06c0-.344 0-.737.056-1.153.088.336.185.68.281 1.01l.674 2.14h.859l.73-2.165c.129-.344.249-.713.354-1.073 0 .352-.001.705.048 1.033l.104 2.268h1.116l-.289-4.944-.057-.12z" fill="#282525"/></g></g><defs><clipPath id="clip0_282_8089"><rect width="150" height="150" rx="30" fill="#fff"/></clipPath><clipPath id="clip1_282_8089"><path fill="#fff" transform="translate(1.111 56.667)" d="M0 0h148.889v34.444H0z"/></clipPath></defs></svg>