<svg width="150" height="150" fill="none" xmlns="http://www.w3.org/2000/svg"><path d="M108.519 46.033h10.201l-7.481 27.541h-9.86l7.14-27.54zM39.158 76.294h10.2l-7.14 26.861h-9.86l6.8-26.86z" fill="#3E3B46"/><path d="M129.259 57.253h10.201l-9.52 35.021h-9.861l9.18-35.02zM15.696 76.294h10.2l-4.42 15.98h-9.86l4.08-15.98zm124.103-13.26H150l-6.46 23.46h-9.861l6.12-23.46zm-132.602 0h10.2l-6.46 23.46h-9.86l6.12-23.46zm111.524-10.881h10.2l-12.24 45.222h-9.86l11.9-45.222zM27.256 76.294h10.2l-5.44 21.42h-10.2l5.44-21.42z" fill="#5A585C"/><path d="M51.398 75.954h59.162l-4.42 16.66H47.318l4.08-16.66z" fill="#D81D16"/><path d="M47.772 96.452l-.245 1.225h2.151l-.178.86h-2.138l-.338 1.688h-1.079l.927-4.633h3.501l-.178.86h-2.423zm3.393-.86h1.08l-.927 4.633h-1.08l.927-4.633zm3.019.874h-1.482l.178-.874h4.038l-.179.874h-1.476l-.754 3.759h-1.072l.747-3.76zm7.626-.874l-.926 4.633h-.88l-1.728-2.899-.583 2.899h-1.058l.926-4.633h.887l1.728 2.906.575-2.906h1.06zm2.056.86l-.198 1.006h2.15l-.165.834h-2.157l-.212 1.073h2.528l-.178.86h-3.588l.927-4.633h3.501l-.178.86h-2.43zm4.302 3.853c-.366 0-.717-.049-1.052-.146-.336-.097-.605-.22-.808-.37l.437-.828c.212.154.45.273.715.357.265.084.536.126.814.126.296 0 .53-.049.701-.146.172-.097.259-.229.259-.397 0-.136-.069-.24-.206-.31a3.329 3.329 0 00-.655-.24 7.247 7.247 0 01-.735-.25 1.398 1.398 0 01-.496-.371c-.137-.163-.205-.38-.205-.649 0-.313.086-.589.258-.827.177-.239.424-.422.741-.55a3.015 3.015 0 011.119-.191c.313 0 .609.035.887.105.278.067.516.164.715.292l-.404.82a1.844 1.844 0 00-.583-.264 2.444 2.444 0 00-.675-.093c-.304 0-.545.053-.721.159-.177.106-.265.242-.265.41a.34.34 0 00.113.258c.075.066.17.122.284.166.115.04.276.088.483.145.296.08.539.161.729.245.19.08.35.199.483.358.136.154.205.36.205.615 0 .318-.088.596-.265.834a1.74 1.74 0 01-.748.55 3.035 3.035 0 01-1.125.192zm4.287 0c-.366 0-.717-.049-1.052-.146-.336-.097-.605-.22-.808-.37l.437-.828c.212.154.45.273.715.357.264.084.536.126.814.126.295 0 .53-.049.701-.146.172-.097.259-.229.259-.397 0-.136-.069-.24-.206-.31a3.329 3.329 0 00-.655-.24 7.247 7.247 0 01-.735-.25 1.398 1.398 0 01-.496-.371c-.137-.163-.205-.38-.205-.649 0-.313.086-.589.258-.827.177-.239.424-.422.741-.55a3.015 3.015 0 011.119-.191c.313 0 .609.035.887.105.278.067.516.164.715.292l-.404.82a1.844 1.844 0 00-.583-.264 2.444 2.444 0 00-.675-.093c-.304 0-.545.053-.721.159-.177.106-.265.242-.265.41a.34.34 0 00.113.258c.075.066.17.122.284.166.115.04.276.088.483.145.296.08.539.161.728.245.19.08.351.199.484.358.136.154.205.36.205.615 0 .318-.088.596-.265.834a1.74 1.74 0 01-.748.55 3.035 3.035 0 01-1.125.192zm7.048 0c-.463 0-.869-.084-1.218-.252a1.856 1.856 0 01-.794-.708 1.984 1.984 0 01-.278-1.053c0-.525.12-.997.358-1.416a2.61 2.61 0 011.019-1c.437-.242.938-.364 1.502-.364.415 0 .782.071 1.1.212.317.141.557.344.72.61l-.774.635c-.247-.362-.62-.543-1.118-.543-.34 0-.64.08-.9.238-.26.159-.464.375-.61.649a1.962 1.962 0 00-.211.913c0 .358.112.642.337.854.23.207.55.311.96.311.49 0 .9-.179 1.231-.536l.636.649c-.46.534-1.112.801-1.96.801zm3.412-4.713h1.079l-.755 3.76h2.323l-.178.873h-3.396l.927-4.633zm5.26 4.713c-.583 0-1.04-.144-1.37-.43-.331-.292-.497-.69-.497-1.192 0-.146.018-.311.053-.497l.517-2.594h1.079l-.517 2.575c-.026.145-.04.275-.04.39 0 .278.075.488.225.629.155.137.378.205.669.205.327 0 .587-.097.781-.291.194-.194.335-.505.424-.933l.516-2.575h1.052l-.523 2.64c-.282 1.382-1.072 2.073-2.37 2.073zm6.99-2.469a.954.954 0 01.622.927c0 .48-.19.844-.57 1.091-.379.248-.884.371-1.515.371h-2.429l.927-4.633h2.237c.499 0 .882.093 1.152.278.269.18.403.441.403.78 0 .283-.075.526-.225.729-.145.198-.346.35-.602.457zM93.1 96.399l-.218 1.093h1.092c.282 0 .5-.056.655-.166a.568.568 0 00.238-.49c0-.291-.227-.437-.682-.437H93.1zm.668 3.019c.3 0 .534-.058.702-.172a.565.565 0 00.252-.497c0-.318-.232-.477-.695-.477h-1.298l-.225 1.146h1.264z" fill="#fff"/><path d="M26.793 58.376c1.936 0 3.436.422 4.5 1.265 1.065.843 1.598 2.026 1.598 3.547 0 1.216-.304 2.288-.913 3.214-.594.927-1.452 1.646-2.572 2.157-1.106.512-2.392.768-3.857.768h-2.51l-.705 3.567h-4.895l2.904-14.518h6.45zm-.996 7.176c.678 0 1.203-.166 1.577-.498.373-.345.56-.822.56-1.43 0-.983-.609-1.473-1.826-1.473H24.47l-.684 3.401h2.011zm14.398 7.674c-1.48 0-2.78-.27-3.9-.809-1.106-.553-1.963-1.32-2.571-2.302-.595-.982-.892-2.109-.892-3.38 0-1.688.387-3.188 1.161-4.502a8.149 8.149 0 013.257-3.09c1.396-.733 2.972-1.1 4.728-1.1 1.48 0 2.773.278 3.879.83 1.12.54 1.977 1.3 2.572 2.282.608.982.912 2.109.912 3.38 0 1.688-.394 3.195-1.182 4.522-.774 1.314-1.86 2.337-3.256 3.07-1.383.733-2.952 1.1-4.708 1.1zm.415-3.961c.774 0 1.444-.2 2.011-.602a3.823 3.823 0 001.328-1.618 5.357 5.357 0 00.456-2.219c0-.857-.256-1.542-.767-2.053-.498-.512-1.19-.768-2.074-.768-.775 0-1.452.2-2.033.602a3.882 3.882 0 00-1.307 1.618 5.357 5.357 0 00-.456 2.219c0 .857.249 1.542.747 2.053.511.512 1.21.768 2.095.768zm34.165-10.889l-7.55 14.518h-5.247l-.83-7.653-3.982 7.653H51.92l-1.742-14.518h4.832l.933 8.275 4.315-8.275h4.5l.83 8.4 4.376-8.4h4.812zm4.322 3.692l-.331 1.7h6.139l-.706 3.526h-6.16l-.373 1.908h7.28l-.746 3.692H72.127l2.904-14.518h11.802l-.747 3.692h-6.99zm21.609 1.078c0 1.286-.346 2.413-1.037 3.38-.678.955-1.639 1.667-2.883 2.137l2.427 4.231H94.13l-2.053-3.65h-1.203l-.726 3.65h-4.895l2.904-14.518h6.513c1.908 0 3.387.422 4.438 1.265 1.065.83 1.597 1.998 1.597 3.505zm-4.957.477c0-.982-.608-1.472-1.825-1.472h-1.639l-.684 3.401h2.012c.677 0 1.203-.166 1.576-.498.373-.345.56-.822.56-1.43z" fill="#D81D16"/><path d="M62.918 83.941h4.251l-1.244 6.264c-.774.553-1.666.981-2.676 1.286-.995.29-2.067.435-3.214.435-1.48 0-2.786-.27-3.92-.809-1.12-.553-1.992-1.32-2.614-2.302-.608-.982-.912-2.108-.912-3.38 0-1.688.394-3.188 1.182-4.501.788-1.314 1.887-2.337 3.298-3.07 1.41-.746 3.028-1.12 4.853-1.12 3.014 0 5.213.947 6.596 2.842l-3.506 2.717c-.456-.581-.947-.989-1.472-1.224-.526-.249-1.141-.373-1.846-.373-.844 0-1.583.186-2.22.56a3.814 3.814 0 00-1.451 1.576c-.332.664-.498 1.424-.498 2.281 0 .858.284 1.549.85 2.074.567.512 1.349.768 2.344.768.498 0 .975-.07 1.431-.208l.768-3.816zm14.675 2.385l-1.037 5.268H71.66l1.058-5.33-3.63-9.188h4.915l1.97 5.02 4.045-5.02h4.916l-7.342 9.25zm25.551-9.25l-2.862 14.518h-4.46l1.287-6.616-4.086 5.31h-2.157l-2.24-5.227-1.307 6.533H82.86l2.904-14.518h3.982l3.152 7.716 6.077-7.716h4.169z" fill="#fff"/></svg>