<svg width="150" height="150" fill="none" xmlns="http://www.w3.org/2000/svg"><path fill-rule="evenodd" clip-rule="evenodd" d="M102.401 51.98c-5.475 5.975-5.869 6.126-9.326 3.569-4.582-3.388-5.596-3.45-8.916-.552-1.676 1.464-3.303 2.663-3.613 2.663-.31.002-1.973 1.207-3.696 2.68-6.366 5.44-6.977 5.491-11.586.97-3.981-3.909-4.109-3.96-4.109-1.67 0 2.417 3.11 7.202 4.68 7.202.48 0 .196-1.033-.631-2.296-2.784-4.248-.708-2.344 5.402 4.957 3.34 3.988 7.304 8.13 8.81 9.203l2.74 1.95-1.425-2.857c-1.115-2.237-1.203-3.348-.405-5.1.935-2.054.872-2.161-.749-1.293-2.957 1.582-5.44 1.072-7.099-1.46-1.508-2.301-1.499-2.466.209-3.73.981-.73 2.853-1.544 4.158-1.811 1.426-.292 3.954-2.468 6.336-5.453 2.18-2.732 4.456-4.967 5.058-4.967.602 0 2.209 2.047 3.57 4.55 1.836 3.372 2.864 4.402 3.971 3.976 1.641-.63 1.13.712-1.386 3.643-.76.883-1.006 1.594-.549 1.577 1.065-.036 5.882-4.257 5.882-5.154 0-.373 1.714-3.564 3.809-7.09l3.8-5.95 3.708 3.95c1.372 1.54 10.818 13.463 10.818 13.463s-8.494-11.915-8.859-12.46c-1.797-2.686-5.724-6.934-6.276-6.934-.151 0-2.098 1.99-4.326 4.423zm-48.593 6.64c-5.623 4.951-6.64 5.123-11.31 1.91l-3.999-2.751-2.78 2.782c-2.446 2.444-3.008 2.64-4.652 1.613-1.681-1.05-2.39-.67-7.083 3.817-2.868 2.741-6.526 5.456-8.13 6.032-1.602.577-5.6 2.333-8.883 3.902l-5.97 2.854 4.92.001c4.133.001 5.202-.36 6.697-2.26.98-1.244 3.181-2.525 4.894-2.847 1.713-.321 3.832-1.376 4.707-2.343.876-.968 3.115-2.003 4.976-2.301 2.642-.422 4.162-1.525 6.944-5.037 1.958-2.473 3.859-4.497 4.221-4.497.987 0 5.346 5.963 5.346 7.312 0 .737.716.98 1.942.66l1.942-.508-1.942 2.067c-3.02 3.214-2.297 3.557 1.665.792 1.982-1.384 3.828-3.343 4.101-4.353.852-3.16 6.157-8.887 7.688-8.3 1.155.444 1.195.295.234-.863-.638-.77-1.213-1.381-1.277-1.36-.066.022-1.978 1.677-4.25 3.678zm56.042-2.68c-.021 1.48 2.434 4.162 3.153 3.443.206-.206-.415-1.401-1.379-2.657-1.307-1.7-1.759-1.902-1.774-.787zm26.612 9.644c0 .494 1.498 2.322 3.33 4.063 2.01 1.91 2.953 2.436 2.38 1.328-1.206-2.333-5.71-6.586-5.71-5.39zm-33.33 1.554c-.273.71-2.425 2.873-4.782 4.804-3.767 3.088-4.51 3.372-6.136 2.357-2.537-1.585-3.01-.775-.745 1.275 1.81 1.638 1.954 1.61 5.747-1.137 4.149-3.004 7.773-7.231 6.926-8.079-.283-.282-.738.068-1.01.78zm27.754 1.162c-.782.943-2.245 1.336-4.146 1.114l-4.878-2.464 5.267 6.18 3.326 4.059.705-3.392c.387-1.865 1.134-4.193 1.658-5.173 1.148-2.145-.228-2.377-1.932-.324zM46.49 72.782c-2.247 2.29-3.654 4.163-3.128 4.163 1.65 0 7.986-6.004 7.59-7.192-.224-.672-2.041.563-4.462 3.03zm96.563 1.351c.608 1.943 4.961 4.938 6.401 4.404.88-.326.707-.666-.593-1.164-1.011-.386-2.824-1.57-4.029-2.632-1.398-1.23-2.043-1.45-1.779-.608zm-123.322 3.07c-1.316 1.12-3.176 2.554-4.133 3.185-1.63 1.076-1.602 1.134.447.919 1.202-.127 3.218-1.572 4.48-3.215 2.681-3.487 2.5-3.692-.794-.888z" fill="url(#paint0_linear_282_8056)"/><path d="M11.176 99.058c-.635 0-1.206-.113-1.715-.339a2.8 2.8 0 01-1.2-1.017c-.292-.448-.437-1-.437-1.657 0-.565.104-1.033.313-1.402.208-.37.493-.666.854-.887a4.31 4.31 0 011.22-.503A9.924 9.924 0 0111.626 93a55.56 55.56 0 001.429-.163c.365-.052.63-.13.796-.235.17-.109.254-.276.254-.502v-.04c0-.49-.146-.871-.437-1.14-.291-.27-.711-.405-1.259-.405-.578 0-1.037.126-1.376.378-.335.252-.561.55-.679.894l-2.204-.313c.174-.609.46-1.118.86-1.527.4-.413.89-.721 1.468-.926a5.614 5.614 0 011.918-.313c.483 0 .963.057 1.441.17.479.113.916.3 1.312.56.395.257.713.607.952 1.05.243.444.365.999.365 1.664v6.705h-2.27V97.48h-.078a2.89 2.89 0 01-.607.783 2.91 2.91 0 01-.972.58c-.387.144-.841.215-1.363.215zm.613-1.735c.474 0 .885-.093 1.233-.28.348-.191.615-.444.802-.757a1.92 1.92 0 00.287-1.024v-1.18c-.074.06-.2.117-.378.17-.174.052-.37.097-.587.136-.217.04-.433.074-.646.105l-.554.078a4.127 4.127 0 00-.946.235c-.278.109-.498.26-.659.456-.16.192-.241.44-.241.744 0 .435.159.763.476.985.318.222.722.332 1.213.332zm10.857-1.611l-.007-2.85h.379l3.6-4.024h2.76l-4.43 4.93h-.489l-1.813 1.944zm-2.153 3.144V85.498h2.362v13.358h-2.362zm6.288 0l-3.261-4.559 1.591-1.663 4.494 6.222h-2.824zM41.66 88.838l-3.567 10.018h-2.61l-3.567-10.018h2.517l2.303 7.442h.104l2.31-7.442h2.51zm5.883 10.22c-.635 0-1.206-.113-1.715-.339a2.8 2.8 0 01-1.2-1.017c-.292-.448-.437-1-.437-1.657 0-.565.104-1.033.313-1.402.209-.37.493-.666.854-.887a4.31 4.31 0 011.22-.503A9.924 9.924 0 0147.993 93c.587-.06 1.063-.115 1.429-.163.365-.052.63-.13.796-.235.17-.109.254-.276.254-.502v-.04c0-.49-.146-.871-.437-1.14-.291-.27-.711-.405-1.259-.405-.578 0-1.037.126-1.376.378-.335.252-.561.55-.679.894l-2.204-.313c.174-.609.46-1.118.86-1.527.4-.413.89-.721 1.468-.926a5.614 5.614 0 011.918-.313c.483 0 .963.057 1.442.17.478.113.915.3 1.31.56.396.257.714.607.953 1.05.243.444.365.999.365 1.664v6.705h-2.27V97.48h-.078a2.87 2.87 0 01-.607.783c-.256.239-.58.432-.971.58-.387.144-.842.215-1.364.215zm.613-1.735c.474 0 .885-.093 1.233-.28.348-.191.615-.444.802-.757a1.92 1.92 0 00.287-1.024v-1.18c-.074.06-.2.117-.378.17a5.34 5.34 0 01-.587.136c-.217.04-.433.074-.646.105l-.554.078a4.126 4.126 0 00-.946.235c-.278.109-.498.26-.659.456-.16.192-.24.44-.24.744 0 .435.158.763.475.985.318.222.722.332 1.213.332zm14.777-5.003v1.944h-6.014v-1.943h6.014zm6.289 3.392l-.007-2.85h.379l3.6-4.024h2.76l-4.43 4.93h-.489l-1.813 1.944zm-2.152 3.144V85.498h2.36v13.358h-2.36zm6.287 0l-3.261-4.559 1.591-1.663 4.495 6.222h-2.825zm8.706.202c-.635 0-1.207-.113-1.716-.339a2.799 2.799 0 01-1.2-1.017c-.291-.448-.437-1-.437-1.657 0-.565.105-1.033.313-1.402.209-.37.494-.666.855-.887a4.31 4.31 0 011.22-.503A9.924 9.924 0 0182.513 93c.587-.06 1.063-.115 1.428-.163.366-.052.63-.13.796-.235.17-.109.255-.276.255-.502v-.04c0-.49-.146-.871-.438-1.14-.29-.27-.71-.405-1.258-.405-.579 0-1.038.126-1.377.378-.334.252-.56.55-.678.894l-2.205-.313c.174-.609.461-1.118.861-1.527.4-.413.89-.721 1.468-.926a5.615 5.615 0 011.918-.313c.482 0 .963.057 1.441.17.478.113.915.3 1.311.56.396.257.713.607.952 1.05.244.444.366.999.366 1.664v6.705h-2.27V97.48h-.079c-.143.278-.345.54-.606.783a2.92 2.92 0 01-.972.58c-.387.144-.841.215-1.363.215zm.613-1.735c.474 0 .885-.093 1.233-.28.348-.191.615-.444.802-.757.191-.313.287-.654.287-1.024v-1.18c-.074.06-.2.117-.378.17a5.34 5.34 0 01-.587.136c-.218.04-.433.074-.646.105l-.555.078a4.127 4.127 0 00-.945.235 1.57 1.57 0 00-.659.456c-.16.192-.241.44-.241.744 0 .435.158.763.476.985.317.222.722.332 1.213.332zm8.704 1.533V88.838h2.29v1.67h.104c.182-.579.495-1.025.939-1.338a2.585 2.585 0 011.533-.476c.13 0 .276.007.437.02.165.008.302.024.41.045v2.172a2.48 2.48 0 00-.475-.091 4.387 4.387 0 00-.62-.046 2.4 2.4 0 00-1.161.28c-.34.183-.607.438-.802.764a2.151 2.151 0 00-.294 1.128v5.89H91.38zm8.935 3.757V88.838h2.323v1.656h.136c.122-.243.294-.502.516-.776a2.74 2.74 0 01.9-.71c.378-.2.861-.3 1.448-.3.774 0 1.472.197 2.094.593.626.391 1.122.972 1.487 1.741.369.766.554 1.705.554 2.818 0 1.1-.18 2.035-.541 2.805-.361.77-.852 1.356-1.474 1.76-.622.405-1.327.607-2.114.607-.574 0-1.05-.095-1.428-.287a2.903 2.903 0 01-.913-.691 4.54 4.54 0 01-.529-.776h-.097v5.335h-2.362zm2.316-8.766c0 .648.091 1.215.274 1.702.187.487.454.868.802 1.142.352.27.779.404 1.279.404.521 0 .958-.139 1.311-.417.352-.283.617-.668.795-1.155.183-.491.274-1.05.274-1.676 0-.622-.089-1.174-.267-1.657-.178-.483-.444-.86-.796-1.135-.352-.274-.791-.41-1.317-.41-.505 0-.933.132-1.285.397-.353.266-.62.637-.803 1.116-.178.478-.267 1.041-.267 1.689zm13.7 5.211c-.635 0-1.206-.113-1.715-.339a2.792 2.792 0 01-1.2-1.017c-.292-.448-.437-1-.437-1.657 0-.565.104-1.033.313-1.402.208-.37.493-.666.854-.887.361-.222.768-.39 1.22-.503a9.928 9.928 0 011.415-.254c.587-.06 1.064-.115 1.429-.163.365-.052.63-.13.796-.235.169-.109.254-.276.254-.502v-.04c0-.49-.146-.871-.437-1.14-.291-.27-.711-.405-1.259-.405-.578 0-1.037.126-1.376.378-.335.252-.561.55-.679.894l-2.204-.313c.174-.609.461-1.118.861-1.527.4-.413.889-.721 1.467-.926a5.62 5.62 0 011.918-.313c.483 0 .963.057 1.441.17.479.113.916.3 1.312.56.395.257.713.607.952 1.05.243.444.365.999.365 1.664v6.705h-2.27V97.48h-.078a2.89 2.89 0 01-.607.783 2.91 2.91 0 01-.972.58c-.387.144-.841.215-1.363.215zm.613-1.735c.474 0 .885-.093 1.233-.28.348-.191.615-.444.802-.757a1.92 1.92 0 00.287-1.024v-1.18c-.073.06-.2.117-.378.17a5.313 5.313 0 01-.587.136c-.217.04-.433.074-.646.105l-.554.078a4.128 4.128 0 00-.946.235c-.278.109-.498.26-.659.456-.161.192-.241.44-.241.744 0 .435.159.763.476.985.318.222.722.332 1.213.332zm13.707-8.485v1.826h-5.759v-1.826h5.759zm-4.337-2.4h2.361v9.405c0 .317.048.56.143.73.1.166.231.279.392.34.161.06.339.09.535.09.147 0 .282-.01.404-.032.126-.022.222-.041.287-.058l.398 1.845a5.244 5.244 0 01-.542.144c-.23.052-.513.083-.847.091a3.854 3.854 0 01-1.599-.267 2.49 2.49 0 01-1.128-.926c-.274-.418-.409-.94-.404-1.566v-9.797zm9.433 16.175a4.8 4.8 0 01-.894-.078 3.261 3.261 0 01-.646-.17l.548-1.839c.344.1.65.148.92.144.269-.005.506-.09.711-.255.209-.161.385-.43.528-.809l.202-.541-3.633-10.227h2.505l2.309 7.566h.104l2.316-7.566h2.511l-4.011 11.231a4.501 4.501 0 01-.744 1.364 3.03 3.03 0 01-1.135.874c-.443.204-.974.306-1.591.306z" fill="#006792"/><defs><linearGradient id="paint0_linear_282_8056" x1="75.501" y1="47.556" x2="75.501" y2="81.407" gradientUnits="userSpaceOnUse"><stop stop-color="#1D7291"/><stop offset="1" stop-color="#024771"/></linearGradient></defs></svg>