<svg width="150" height="150" fill="none" xmlns="http://www.w3.org/2000/svg"><g clip-path="url(#clip0_282_8015)"><path d="M75.858 71.663c0 3.748-5.86 3.957-7.98 3.957-3.36 0-8.532-.552-8.532-4.508h2.615c0 2.13 4.295 2.263 5.841 2.263.802 0 5.498.038 5.498-1.636 0-1.35-2.386-1.54-5.002-1.826l-1.775-.19c-3.245-.343-7.005-.8-7.005-3.767 0-3.538 5.535-4.033 8.036-4.033 2.577 0 7.903.552 7.883 4.261h-2.805c0-1.845-3.99-2.016-5.536-2.016-.668 0-5.02.038-5.02 1.693 0 1.218 1.622 1.332 4.39 1.655l2.882.343c2.29.266 6.51.627 6.51 3.804z" fill="url(#paint0_radial_282_8015)"/><path d="M82.176 70.027l1.87-3.728c.86-1.732 1.146-2.093 2.139-2.093.992 0 1.374.495 2.157 2.093l1.863 3.728h-8.029zm10.728 5.403h2.863L90.5 65.31c-1.184-2.284-2.004-3.387-4.257-3.387-2.252 0-3.073 1.103-4.257 3.386l-5.268 10.12h2.749l1.641-3.271H91.27l1.635 3.272z" fill="url(#paint1_radial_282_8015)"/><path d="M56.653 64.396v-2.283H42.337V75.43h14.316v-2.283H44.742v-3.348h10.544v-2.13H44.742v-3.273h11.911z" fill="url(#paint2_radial_282_8015)"/><path d="M75.865 83.075c-1.132-1.454-2.226-2.946-4.664-2.946-2.437 0-3.512 1.53-4.663 2.984-1.056 1.338-1.536 2.18-2.821 2.18-1.286 0-1.766-.86-2.822-2.218-1.152-1.435-2.226-2.946-4.664-2.946-2.437 0-3.512 1.53-4.663 2.984-1.056 1.338-1.535 2.18-2.821 2.18v2.295c2.341 0 3.589-1.625 4.663-3.079 1.113-1.492 1.574-2.085 2.822-2.085 1.247 0 1.708.593 2.82 2.085 1.075 1.454 2.323 3.08 4.665 3.08 2.34 0 3.588-1.626 4.663-3.08 1.113-1.492 1.574-2.085 2.821-2.085 1.248 0 1.709.593 2.822 2.085 1.074 1.454 2.322 3.08 4.663 3.08v-2.296c-1.286 0-1.766-.86-2.82-2.218z" fill="url(#paint3_radial_282_8015)"/><path d="M44.12 83.151c-1.035-1.434-2.206-3.022-4.778-3.022-2.572 0-3.723 1.607-4.779 3.022-.825 1.129-1.593 2.142-2.898 2.142v2.295c2.534 0 3.685-1.625 4.76-3.06 1.094-1.453 1.631-2.104 2.917-2.104 1.267 0 1.804.65 2.879 2.104 1.094 1.435 2.245 3.06 4.798 3.06v-2.295c-1.305 0-2.073-1.014-2.898-2.142z" fill="url(#paint4_radial_282_8015)"/><path d="M86.234 86.349c-.259 0-.477-.196-.477-.571 0-.376.218-.571.477-.571.26 0 .478.195.478.57 0 .376-.218.572-.478.572zm0-1.486c-.545 0-.92.364-.92.915 0 .55.375.914.92.914.544 0 .921-.363.921-.914 0-.552-.377-.915-.92-.915z" fill="url(#paint5_radial_282_8015)"/><path d="M88.023 86.31h-.174v-1.066h.174c.309 0 .588.066.588.532 0 .468-.28.534-.588.534zm-.007-1.417h-.585v1.768h.585c.58 0 1.038-.21 1.038-.885 0-.674-.458-.883-1.038-.883z" fill="url(#paint6_radial_282_8015)"/><path d="M90.122 85.595l-.242-.049c-.123-.027-.206-.09-.206-.178 0-.11.12-.17.281-.17.18 0 .309.075.35.207h.414c-.061-.39-.392-.542-.739-.542-.348 0-.737.168-.737.53 0 .316.262.453.55.514l.217.044c.193.041.33.097.33.212 0 .146-.162.193-.304.193-.218 0-.364-.086-.41-.27h-.417c.063.38.362.606.818.606.369 0 .744-.21.744-.58s-.363-.459-.65-.517z" fill="url(#paint7_radial_282_8015)"/><path d="M37.411 86.349c-.259 0-.477-.196-.477-.571 0-.376.218-.571.477-.571.26 0 .478.195.478.57 0 .376-.218.572-.478.572zm0-1.486c-.545 0-.92.364-.92.915 0 .55.375.914.92.914.544 0 .92-.363.92-.914 0-.552-.376-.915-.92-.915z" fill="url(#paint8_radial_282_8015)"/><path d="M39.2 86.31h-.173v-1.066h.174c.309 0 .588.066.588.532 0 .468-.28.534-.588.534zm-.006-1.417h-.585v1.768h.585c.58 0 1.037-.21 1.037-.885 0-.674-.457-.883-1.037-.883z" fill="url(#paint9_radial_282_8015)"/><path d="M41.298 85.595l-.243-.049c-.122-.027-.205-.09-.205-.178 0-.11.12-.17.281-.17.18 0 .309.075.35.207h.414c-.061-.39-.392-.542-.74-.542-.347 0-.736.168-.736.53 0 .316.262.453.55.514l.216.044c.194.041.33.097.33.212 0 .146-.16.193-.303.193-.218 0-.364-.086-.411-.27h-.416c.064.38.362.606.818.606.369 0 .743-.21.743-.58s-.362-.459-.648-.517z" fill="url(#paint10_radial_282_8015)"/><path d="M27.117 83.075c-1.132-1.454-2.226-2.946-4.664-2.946-2.437 0-3.512 1.53-4.663 2.984-1.056 1.338-1.536 2.18-2.821 2.18-1.286 0-1.766-.86-2.822-2.218-1.151-1.435-2.226-2.946-4.663-2.946-2.438 0-3.513 1.53-4.664 2.984-1.056 1.338-1.535 2.18-2.821 2.18v2.295c2.341 0 3.589-1.625 4.663-3.079 1.113-1.492 1.574-2.085 2.822-2.085 1.247 0 1.708.593 2.82 2.085 1.076 1.454 2.323 3.08 4.665 3.08 2.341 0 3.588-1.626 4.663-3.08 1.113-1.492 1.574-2.085 2.821-2.085 1.248 0 1.708.593 2.822 2.085 1.075 1.454 2.322 3.08 4.663 3.08v-2.296c-1.286 0-1.766-.86-2.821-2.218z" fill="url(#paint11_radial_282_8015)"/><path d="M92.869 83.151c-1.037-1.434-2.207-3.022-4.78-3.022-2.571 0-3.722 1.607-4.778 3.022-.825 1.129-1.593 2.142-2.898 2.142v2.295c2.533 0 3.685-1.625 4.76-3.06 1.094-1.453 1.631-2.104 2.917-2.104 1.267 0 1.804.65 2.879 2.104 1.094 1.435 2.245 3.06 4.798 3.06v-2.295c-1.305 0-2.073-1.014-2.898-2.142z" fill="url(#paint12_radial_282_8015)"/><path d="M30.16 73.147h-5.078v-8.751h5.078c4.562 0 6.93 1.503 6.93 4.375 0 2.873-2.368 4.376-6.93 4.376zm.19-11.034h-7.673V75.43h7.674c5.936 0 9.296-2.435 9.296-6.659 0-4.223-3.36-6.658-9.296-6.658z" fill="url(#paint13_radial_282_8015)"/><path d="M9.944 75.62c6.318 0 9.945-2.492 9.945-6.848s-3.627-6.849-9.945-6.849c-6.319 0-9.946 2.493-9.946 6.849s3.627 6.848 9.946 6.848zm0-2.244c-5.02 0-7.388-1.598-7.388-4.604 0-3.006 2.367-4.604 7.388-4.604 5.02 0 7.387 1.598 7.387 4.604 0 3.006-2.367 4.604-7.387 4.604z" fill="url(#paint14_radial_282_8015)"/><path d="M100.429 66.948h.711v-4.906h-.711v4.906z" fill="url(#paint15_radial_282_8015)"/><path d="M106.371 64.307c-.216-.507-.844-.848-1.688-.848-.784 0-1.185.217-1.52.595v-.497h-.663v3.391h.663v-1.612c0-.903.502-1.314 1.401-1.314.844 0 1.263.362 1.263 1.133v1.793h.655v-1.834c0-.278 0-.542-.111-.807z" fill="url(#paint16_radial_282_8015)"/><path d="M108.63 64.1h1.109v-.543h-1.088v-.966h-.656v.966h-.592v.542h.579v1.814c0 .716.292 1.084.941 1.084.272 0 .537-.02.802-.048v-.584a3.81 3.81 0 01-.621.049c-.411 0-.474-.16-.474-.591v-1.724z" fill="url(#paint17_radial_282_8015)"/><path d="M111.162 65.33h3.494v-.098c0-.625-.572-1.786-2.106-1.786-.865 0-2.072.438-2.072 1.8 0 1.175.984 1.807 2.086 1.807.69 0 1.618-.215 2.022-1.091l-.635-.174c-.223.508-.774.737-1.297.737-.976 0-1.464-.619-1.492-1.196zm2.748-.494h-2.727c.223-.605.795-.896 1.409-.896.76 0 1.143.403 1.318.896z" fill="url(#paint18_radial_282_8015)"/><path d="M117.579 63.501c-.602 0-.995.264-1.248.56v-.504h-.663v3.391h.663v-1.89c0-.91.892-.973 1.15-.973.265 0 .426.021.551.049v-.577c-.097-.02-.223-.056-.453-.056z" fill="url(#paint19_radial_282_8015)"/><path d="M122.668 64.307c-.216-.507-.844-.848-1.687-.848-.785 0-1.186.217-1.521.595v-.497h-.662v3.391h.662v-1.612c0-.903.502-1.314 1.402-1.314.844 0 1.262.362 1.262 1.133v1.793h.656v-1.834c0-.278 0-.542-.112-.807z" fill="url(#paint20_radial_282_8015)"/><path d="M128.193 66.948v-.507s-.161.035-.272.035c-.3 0-.356-.125-.356-.486v-1.258c0-1.008-.879-1.28-1.785-1.28-.914 0-1.646.167-1.841.862l.669.063c.14-.327.656-.41 1.137-.41 1.158 0 1.199.41 1.199.688v.18h-.969c-.802 0-1.332.015-1.66.16a.964.964 0 00-.6.911c0 .472.3 1.168 1.597 1.168 1.019 0 1.514-.418 1.639-.668.028.25.077.577.656.577.258 0 .446-.014.586-.035zm-2.49-1.605h1.248c0 .855-.69 1.223-1.59 1.223-.676 0-.983-.333-.983-.667 0-.556.655-.556 1.325-.556z" fill="url(#paint21_radial_282_8015)"/><path d="M129.866 64.1h1.109v-.543h-1.088v-.966h-.656v.966h-.593v.542h.579v1.814c0 .716.293 1.084.942 1.084.272 0 .537-.02.802-.048v-.584a3.82 3.82 0 01-.621.049c-.412 0-.474-.16-.474-.591v-1.724z" fill="url(#paint22_radial_282_8015)"/><path d="M132 62.987h.711v-.681H132v.68zm.027 3.961h.663v-3.391h-.663v3.391z" fill="url(#paint23_radial_282_8015)"/><path d="M138.145 65.267c0-1.32-1.158-1.793-2.232-1.793-.913 0-2.21.459-2.21 1.849 0 1.077.941 1.73 2.231 1.73 1.409 0 2.211-.806 2.211-1.786zm-.663-.014c0 .904-.85 1.251-1.513 1.251-.962 0-1.597-.514-1.597-1.223 0-.834.767-1.265 1.527-1.265.684 0 1.583.306 1.583 1.237z" fill="url(#paint24_radial_282_8015)"/><path d="M143.027 64.307c-.216-.507-.843-.848-1.687-.848-.785 0-1.186.217-1.521.595v-.497h-.662v3.391h.662v-1.612c0-.903.503-1.314 1.402-1.314.844 0 1.262.362 1.262 1.133v1.793h.656v-1.834c0-.278 0-.542-.112-.807z" fill="url(#paint25_radial_282_8015)"/><path d="M148.55 66.948v-.507s-.16.035-.272.035c-.299 0-.355-.125-.355-.486v-1.258c0-1.008-.879-1.28-1.785-1.28-.914 0-1.646.167-1.842.862l.67.063c.139-.327.655-.41 1.137-.41 1.157 0 1.199.41 1.199.688v.18h-.969c-.802 0-1.332.015-1.66.16a.964.964 0 00-.6.911c0 .472.3 1.168 1.597 1.168 1.019 0 1.514-.418 1.639-.668.028.25.077.577.656.577.258 0 .446-.014.585-.035zm-2.489-1.605h1.248c0 .855-.69 1.223-1.59 1.223-.676 0-.983-.333-.983-.667 0-.556.655-.556 1.325-.556z" fill="url(#paint26_radial_282_8015)"/><path d="M149.344 66.948H150v-4.906h-.656v4.906z" fill="url(#paint27_radial_282_8015)"/><path d="M104.91 75.419h.809l-2.525-4.907h-.746l-2.552 4.907h.788l.6-1.21h3.026l.6 1.21zm-2.106-4.205l1.206 2.433h-2.434l1.228-2.433z" fill="url(#paint28_radial_282_8015)"/><path d="M106.382 71.457h.711v-.68h-.711v.68zm.028 3.962h.662v-3.392h-.662v3.392z" fill="url(#paint29_radial_282_8015)"/><path d="M110.238 71.972c-.602 0-.995.264-1.249.56v-.505h-.662v3.392h.662v-1.89c0-.91.893-.974 1.151-.974.265 0 .425.021.551.05v-.578c-.098-.02-.223-.055-.453-.055z" fill="url(#paint30_radial_282_8015)"/><path d="M113.55 74.954c-.649 0-1.465-.306-1.465-1.21 0-.716.467-1.279 1.437-1.279.907 0 1.43.542 1.43 1.21 0 .75-.552 1.279-1.402 1.279zm.042-3.01c-.593 0-1.153.204-1.472.608v-.525h-.662v4.747h.662v-1.873c.187.211.608.58 1.604.58 1.318 0 1.946-.882 1.946-1.785 0-.946-.753-1.752-2.078-1.752z" fill="url(#paint31_radial_282_8015)"/><path d="M120.881 73.737c0-1.32-1.158-1.793-2.232-1.793-.914 0-2.211.46-2.211 1.85 0 1.076.941 1.73 2.232 1.73 1.408 0 2.211-.806 2.211-1.787zm-.663-.013c0 .903-.851 1.25-1.513 1.25-.963 0-1.598-.514-1.598-1.223 0-.834.768-1.264 1.528-1.264.683 0 1.583.305 1.583 1.237z" fill="url(#paint32_radial_282_8015)"/><path d="M123.802 71.972c-.602 0-.995.264-1.248.56v-.505h-.663v3.392h.663v-1.89c0-.91.892-.974 1.15-.974.265 0 .426.021.551.05v-.578c-.097-.02-.223-.055-.453-.055z" fill="url(#paint33_radial_282_8015)"/><path d="M125.95 72.57h1.109v-.542h-1.088v-.967h-.656v.966h-.593v.543h.579v1.814c0 .715.293 1.084.942 1.084.272 0 .537-.021.802-.049v-.584a3.82 3.82 0 01-.621.049c-.412 0-.474-.16-.474-.59V72.57z" fill="url(#paint34_radial_282_8015)"/></g><defs><radialGradient id="paint0_radial_282_8015" cx="0" cy="0" r="1" gradientUnits="userSpaceOnUse" gradientTransform="rotate(-140.041 51.391 24.124) scale(20.5324 19.4215)"><stop stop-color="#0654F2"/><stop offset="1" stop-color="#103C96"/></radialGradient><radialGradient id="paint1_radial_282_8015" cx="0" cy="0" r="1" gradientUnits="userSpaceOnUse" gradientTransform="rotate(-144.392 59.668 22.443) scale(22.3337 20.3139)"><stop stop-color="#0654F2"/><stop offset="1" stop-color="#103C96"/></radialGradient><radialGradient id="paint2_radial_282_8015" cx="0" cy="0" r="1" gradientUnits="userSpaceOnUse" gradientTransform="rotate(-136.785 43.019 26.593) scale(18.7233 17.9531)"><stop stop-color="#0654F2"/><stop offset="1" stop-color="#103C96"/></radialGradient><radialGradient id="paint3_radial_282_8015" cx="0" cy="0" r="1" gradientUnits="userSpaceOnUse" gradientTransform="matrix(-28.5362 -7.18157 3.26585 -12.97696 77.657 87.588)"><stop stop-color="#0654F2"/><stop offset="1" stop-color="#103C96"/></radialGradient><radialGradient id="paint4_radial_282_8015" cx="0" cy="0" r="1" gradientUnits="userSpaceOnUse" gradientTransform="matrix(-14.63404 -7.1815 5.4574 -11.12078 46.491 87.588)"><stop stop-color="#0654F2"/><stop offset="1" stop-color="#103C96"/></radialGradient><radialGradient id="paint5_radial_282_8015" cx="0" cy="0" r="1" gradientUnits="userSpaceOnUse" gradientTransform="rotate(-134.884 61.552 25.257) scale(2.48597 2.38833)"><stop stop-color="#0654F2"/><stop offset="1" stop-color="#103C96"/></radialGradient><radialGradient id="paint6_radial_282_8015" cx="0" cy="0" r="1" gradientUnits="userSpaceOnUse" gradientTransform="matrix(-1.54651 -1.70252 1.62814 -1.47895 88.998 86.661)"><stop stop-color="#0654F2"/><stop offset="1" stop-color="#103C96"/></radialGradient><radialGradient id="paint7_radial_282_8015" cx="0" cy="0" r="1" gradientUnits="userSpaceOnUse" gradientTransform="rotate(-130.199 65.48 22.291) scale(2.30607 2.18447)"><stop stop-color="#0654F2"/><stop offset="1" stop-color="#103C96"/></radialGradient><radialGradient id="paint8_radial_282_8015" cx="0" cy="0" r="1" gradientUnits="userSpaceOnUse" gradientTransform="rotate(-134.883 37.14 35.398) scale(2.48595 2.38831)"><stop stop-color="#0654F2"/><stop offset="1" stop-color="#103C96"/></radialGradient><radialGradient id="paint9_radial_282_8015" cx="0" cy="0" r="1" gradientUnits="userSpaceOnUse" gradientTransform="rotate(-132.248 39.268 34.439) scale(2.29993 2.19942)"><stop stop-color="#0654F2"/><stop offset="1" stop-color="#103C96"/></radialGradient><radialGradient id="paint10_radial_282_8015" cx="0" cy="0" r="1" gradientUnits="userSpaceOnUse" gradientTransform="rotate(-130.202 41.066 33.624) scale(2.30619 2.18462)"><stop stop-color="#0654F2"/><stop offset="1" stop-color="#103C96"/></radialGradient><radialGradient id="paint11_radial_282_8015" cx="0" cy="0" r="1" gradientUnits="userSpaceOnUse" gradientTransform="matrix(-28.5362 -7.18157 3.26585 -12.97696 28.91 87.588)"><stop stop-color="#0654F2"/><stop offset="1" stop-color="#103C96"/></radialGradient><radialGradient id="paint12_radial_282_8015" cx="0" cy="0" r="1" gradientUnits="userSpaceOnUse" gradientTransform="matrix(-14.63404 -7.1815 5.4574 -11.12078 95.239 87.588)"><stop stop-color="#0654F2"/><stop offset="1" stop-color="#103C96"/></radialGradient><radialGradient id="paint13_radial_282_8015" cx="0" cy="0" r="1" gradientUnits="userSpaceOnUse" gradientTransform="matrix(-16.17428 -12.8205 11.99179 -15.12878 39.064 75.43)"><stop stop-color="#0654F2"/><stop offset="1" stop-color="#103C96"/></radialGradient><radialGradient id="paint14_radial_282_8015" cx="0" cy="0" r="1" gradientUnits="userSpaceOnUse" gradientTransform="matrix(-18.9579 -13.18688 11.8778 -17.07592 19.205 75.62)"><stop stop-color="#0654F2"/><stop offset="1" stop-color="#103C96"/></radialGradient><radialGradient id="paint15_radial_282_8015" cx="0" cy="0" r="1" gradientUnits="userSpaceOnUse" gradientTransform="matrix(-.67807 -4.724 1.27659 -.18324 101.116 66.948)"><stop stop-color="#0654F2"/><stop offset="1" stop-color="#103C96"/></radialGradient><radialGradient id="paint16_radial_282_8015" cx="0" cy="0" r="1" gradientUnits="userSpaceOnUse" gradientTransform="rotate(-138.491 65.858 13.324) scale(5.0684 4.83325)"><stop stop-color="#0654F2"/><stop offset="1" stop-color="#103C96"/></radialGradient><radialGradient id="paint17_radial_282_8015" cx="0" cy="0" r="1" gradientUnits="userSpaceOnUse" gradientTransform="matrix(-2.2269 -4.24234 3.35454 -1.76088 109.659 66.997)"><stop stop-color="#0654F2"/><stop offset="1" stop-color="#103C96"/></radialGradient><radialGradient id="paint18_radial_282_8015" cx="0" cy="0" r="1" gradientUnits="userSpaceOnUse" gradientTransform="rotate(-138.903 69.823 12.064) scale(5.28335 5.02885)"><stop stop-color="#0654F2"/><stop offset="1" stop-color="#103C96"/></radialGradient><radialGradient id="paint19_radial_282_8015" cx="0" cy="0" r="1" gradientUnits="userSpaceOnUse" gradientTransform="rotate(-124.175 76.709 2.232) scale(4.0114 3.58198)"><stop stop-color="#0654F2"/><stop offset="1" stop-color="#103C96"/></radialGradient><radialGradient id="paint20_radial_282_8015" cx="0" cy="0" r="1" gradientUnits="userSpaceOnUse" gradientTransform="rotate(-138.491 74.007 10.236) scale(5.06839 4.83324)"><stop stop-color="#0654F2"/><stop offset="1" stop-color="#103C96"/></radialGradient><radialGradient id="paint21_radial_282_8015" cx="0" cy="0" r="1" gradientUnits="userSpaceOnUse" gradientTransform="matrix(-4.2673 -3.48629 3.28208 -4.01735 128.039 67.074)"><stop stop-color="#0654F2"/><stop offset="1" stop-color="#103C96"/></radialGradient><radialGradient id="paint22_radial_282_8015" cx="0" cy="0" r="1" gradientUnits="userSpaceOnUse" gradientTransform="matrix(-2.2269 -4.24234 3.35454 -1.76088 130.894 66.997)"><stop stop-color="#0654F2"/><stop offset="1" stop-color="#103C96"/></radialGradient><radialGradient id="paint23_radial_282_8015" cx="0" cy="0" r="1" gradientUnits="userSpaceOnUse" gradientTransform="matrix(-.6779 -4.4697 1.27325 -.1931 132.687 66.948)"><stop stop-color="#0654F2"/><stop offset="1" stop-color="#103C96"/></radialGradient><radialGradient id="paint24_radial_282_8015" cx="0" cy="0" r="1" gradientUnits="userSpaceOnUse" gradientTransform="rotate(-140.86 80.915 8.999) scale(5.45934 5.13559)"><stop stop-color="#0654F2"/><stop offset="1" stop-color="#103C96"/></radialGradient><radialGradient id="paint25_radial_282_8015" cx="0" cy="0" r="1" gradientUnits="userSpaceOnUse" gradientTransform="rotate(-138.491 84.186 6.379) scale(5.0684 4.83325)"><stop stop-color="#0654F2"/><stop offset="1" stop-color="#103C96"/></radialGradient><radialGradient id="paint26_radial_282_8015" cx="0" cy="0" r="1" gradientUnits="userSpaceOnUse" gradientTransform="rotate(-140.752 86.156 7.08) scale(5.51037 5.18761)"><stop stop-color="#0654F2"/><stop offset="1" stop-color="#103C96"/></radialGradient><radialGradient id="paint27_radial_282_8015" cx="0" cy="0" r="1" gradientUnits="userSpaceOnUse" gradientTransform="matrix(-.62467 -4.724 1.17965 -.15599 149.977 66.948)"><stop stop-color="#0654F2"/><stop offset="1" stop-color="#103C96"/></radialGradient><radialGradient id="paint28_radial_282_8015" cx="0" cy="0" r="1" gradientUnits="userSpaceOnUse" gradientTransform="matrix(-5.5503 -4.724 4.48016 -5.2638 105.519 75.419)"><stop stop-color="#0654F2"/><stop offset="1" stop-color="#103C96"/></radialGradient><radialGradient id="paint29_radial_282_8015" cx="0" cy="0" r="1" gradientUnits="userSpaceOnUse" gradientTransform="rotate(-98.624 85.956 -8.318) scale(4.52088 1.28779)"><stop stop-color="#0654F2"/><stop offset="1" stop-color="#103C96"/></radialGradient><radialGradient id="paint30_radial_282_8015" cx="0" cy="0" r="1" gradientUnits="userSpaceOnUse" gradientTransform="matrix(-2.2533 -3.31886 2.96356 -2.01207 110.61 75.419)"><stop stop-color="#0654F2"/><stop offset="1" stop-color="#103C96"/></radialGradient><radialGradient id="paint31_radial_282_8015" cx="0" cy="0" r="1" gradientUnits="userSpaceOnUse" gradientTransform="rotate(-130.805 75.336 11.945) scale(6.14357 5.83914)"><stop stop-color="#0654F2"/><stop offset="1" stop-color="#103C96"/></radialGradient><radialGradient id="paint32_radial_282_8015" cx="0" cy="0" r="1" gradientUnits="userSpaceOnUse" gradientTransform="rotate(-140.861 73.788 16.303) scale(5.45932 5.13554)"><stop stop-color="#0654F2"/><stop offset="1" stop-color="#103C96"/></radialGradient><radialGradient id="paint33_radial_282_8015" cx="0" cy="0" r="1" gradientUnits="userSpaceOnUse" gradientTransform="matrix(-2.25347 -3.31888 2.96366 -2.01229 124.174 75.419)"><stop stop-color="#0654F2"/><stop offset="1" stop-color="#103C96"/></radialGradient><radialGradient id="paint34_radial_282_8015" cx="0" cy="0" r="1" gradientUnits="userSpaceOnUse" gradientTransform="rotate(-117.696 86.298 -.644) scale(4.79118 3.78859)"><stop stop-color="#0654F2"/><stop offset="1" stop-color="#103C96"/></radialGradient><clipPath id="clip0_282_8015"><rect width="150" height="150" rx="30" fill="#fff"/></clipPath></defs></svg>