<svg width="150" height="150" viewBox="0 0 150 150" fill="none" xmlns="http://www.w3.org/2000/svg">
<path fill-rule="evenodd" clip-rule="evenodd" d="M102.401 51.9793C96.9262 57.9552 96.5322 58.1058 93.0745 55.549C88.4928 52.1611 87.4789 52.0987 84.1589 54.9971C82.4829 56.461 80.8564 57.6595 80.546 57.6604C80.2365 57.6622 78.5733 58.8672 76.8505 60.3393C70.4843 65.7807 69.8726 65.8312 65.2642 61.3091C61.283 57.4014 61.1554 57.3491 61.1554 59.6395C61.1554 62.0567 64.2641 66.8424 65.8354 66.8424C66.3148 66.8424 66.0311 65.8092 65.2036 64.5464C62.42 60.298 64.4955 62.2018 70.6064 69.5029C73.9456 73.4914 77.9103 77.6324 79.4164 78.706L82.1569 80.6566L80.7306 77.7986C79.6157 75.5624 79.5275 74.4511 80.3256 72.6989C81.2614 70.6454 81.1981 70.5379 79.5771 71.4058C76.62 72.9881 74.1367 72.4775 72.4781 69.9456C70.9701 67.645 70.9793 67.4797 72.6865 66.2151C73.6683 65.4868 75.5399 64.6722 76.845 64.405C78.2712 64.1129 80.7986 61.9373 83.1809 58.9516C85.3611 56.2204 87.6368 53.985 88.2393 53.985C88.8408 53.985 90.448 56.0321 91.8099 58.5347C93.6449 61.907 94.6725 62.9365 95.7801 62.5113C97.4212 61.8813 96.9106 63.223 94.3943 66.1536C93.6348 67.037 93.3877 67.7479 93.8451 67.7313C94.9104 67.6946 99.7273 63.4737 99.7273 62.5774C99.7273 62.2036 101.441 59.0132 103.536 55.4866L107.336 49.5368L111.044 53.4874C112.416 55.0262 121.862 66.9497 121.862 66.9497C121.862 66.9497 113.368 55.0354 113.003 54.4902C111.206 51.8039 107.279 47.5564 106.727 47.5564C106.576 47.5564 104.629 49.5465 102.401 51.9793ZM53.8084 58.6201C48.1851 63.5711 47.1676 63.7428 42.4976 60.5303L38.499 57.7789L35.7181 60.5606C33.2734 63.0054 32.7114 63.2001 31.0675 62.1742C29.3859 61.1236 28.6778 61.5047 23.984 65.991C21.1159 68.7324 17.458 71.4471 15.8545 72.0229C14.252 72.5997 10.2543 74.3556 6.97105 75.9251L1.00159 78.7794L5.92042 78.7804C10.054 78.7813 11.123 78.4204 12.6182 76.5193C13.5971 75.2758 15.7994 73.9947 17.5122 73.6733C19.225 73.3518 21.3437 72.2975 22.2189 71.3296C23.095 70.3616 25.334 69.3266 27.1947 69.029C29.8368 68.6066 31.3568 67.5036 34.1394 63.9917C36.0974 61.5185 37.9976 59.4953 38.3603 59.4953C39.3466 59.4953 43.7062 65.4584 43.7062 66.8065C43.7062 67.544 44.4225 67.7874 45.6476 67.4669L47.59 66.959L45.6476 69.0263C42.6289 72.2397 43.3508 72.5831 47.3127 69.8179C49.2954 68.4339 51.1414 66.475 51.4141 65.4648C52.2664 62.3046 57.571 56.5776 59.1019 57.1654C60.2572 57.609 60.2967 57.4602 59.3361 56.3021C58.6978 55.5325 58.1229 54.9209 58.0586 54.9429C57.9934 54.964 56.0813 56.619 53.8084 58.6201ZM109.85 55.9394C109.829 57.4207 112.284 60.1015 113.003 59.3833C113.209 59.1766 112.588 57.9818 111.624 56.7264C110.317 55.0256 109.865 54.8244 109.85 55.9394ZM136.462 65.5842C136.462 66.0783 137.96 67.9058 139.792 69.6471C141.802 71.5573 142.745 72.0835 142.172 70.9751C140.966 68.6424 136.462 64.3894 136.462 65.5842ZM103.132 67.1381C102.859 67.8489 100.707 70.0108 98.3497 71.9421C94.5825 75.0297 93.8405 75.3144 92.214 74.2987C89.6766 72.7145 89.2036 73.5236 91.4692 75.5743C93.2794 77.2118 93.4226 77.1833 97.2155 74.4373C101.365 71.4333 104.989 67.206 104.142 66.3584C103.859 66.0764 103.404 66.4263 103.132 67.1381ZM130.886 68.2998C130.104 69.243 128.641 69.6361 126.74 69.4138L121.862 66.9497L127.129 73.1296L130.455 77.1888L131.16 73.7972C131.547 71.932 132.294 69.6039 132.818 68.624C133.966 66.4787 132.59 66.2472 130.886 68.2998ZM46.4898 72.7824C44.2434 75.0719 42.8356 76.9445 43.3618 76.9445C45.0121 76.9445 51.348 70.9411 50.9522 69.7527C50.7281 69.0814 48.9106 70.3157 46.4898 72.7824ZM143.053 74.1334C143.661 76.0757 148.014 79.0706 149.454 78.537C150.334 78.211 150.161 77.8712 148.861 77.3734C147.85 76.9868 146.037 75.803 144.832 74.7413C143.434 73.5116 142.789 73.2912 143.053 74.1334ZM19.731 77.2035C18.415 78.3239 16.5552 79.7566 15.5983 80.3884C13.9682 81.4639 13.9957 81.5217 16.0446 81.3068C17.2468 81.1801 19.2626 79.7346 20.5245 78.0925C23.2061 74.6045 23.0243 74.3997 19.731 77.2035Z" fill="url(#paint0_linear_282_8056)"/>
<path d="M11.1762 99.0585C10.5413 99.0585 9.96954 98.9454 9.46077 98.7193C8.95636 98.4888 8.55631 98.1497 8.26062 97.7018C7.96928 97.2539 7.82361 96.7017 7.82361 96.0451C7.82361 95.4798 7.92797 95.0123 8.13669 94.6427C8.34541 94.2731 8.63023 93.9774 8.99115 93.7556C9.35207 93.5339 9.75864 93.3664 10.2109 93.2534C10.6675 93.136 11.1393 93.0512 11.6263 92.999C12.2133 92.9381 12.6894 92.8838 13.0547 92.8359C13.42 92.7838 13.6852 92.7055 13.8505 92.6011C14.0201 92.4924 14.1048 92.325 14.1048 92.0989V92.0598C14.1048 91.5684 13.9592 91.1879 13.6678 90.9183C13.3765 90.6487 12.9569 90.5139 12.409 90.5139C11.8306 90.5139 11.3719 90.64 11.0327 90.8922C10.6979 91.1444 10.4718 91.4423 10.3544 91.7858L8.14974 91.4727C8.32367 90.864 8.61067 90.3552 9.01072 89.9464C9.41077 89.5333 9.89996 89.2246 10.4783 89.0202C11.0566 88.8115 11.6958 88.7072 12.3959 88.7072C12.8786 88.7072 13.3591 88.7637 13.8374 88.8767C14.3157 88.9898 14.7528 89.1768 15.1485 89.4377C15.5442 89.6942 15.8616 90.0443 16.1008 90.4878C16.3443 90.9314 16.466 91.4858 16.466 92.1511V98.8563H14.1962V97.48H14.1179C13.9744 97.7583 13.7722 98.0192 13.5113 98.2627C13.2547 98.5019 12.9308 98.6954 12.5394 98.8432C12.1524 98.9867 11.698 99.0585 11.1762 99.0585ZM11.7893 97.3235C12.2633 97.3235 12.6742 97.23 13.0221 97.043C13.37 96.8517 13.6374 96.5995 13.8244 96.2864C14.0157 95.9733 14.1114 95.632 14.1114 95.2623V94.0818C14.0374 94.1426 13.9113 94.1992 13.7331 94.2513C13.5591 94.3035 13.3634 94.3492 13.146 94.3883C12.9286 94.4275 12.7134 94.4622 12.5003 94.4927C12.2872 94.5231 12.1024 94.5492 11.9459 94.5709C11.5937 94.6188 11.2784 94.6971 11.0001 94.8058C10.7218 94.9145 10.5022 95.0667 10.3413 95.2623C10.1804 95.4537 10.1 95.7015 10.1 96.0059C10.1 96.4408 10.2587 96.7691 10.5761 96.9908C10.8936 97.2126 11.298 97.3235 11.7893 97.3235Z" fill="#006792"/>
<path d="M22.6458 95.7124L22.6392 92.862H23.0176L26.618 88.8376H29.3771L24.9482 93.7687H24.459L22.6458 95.7124ZM20.4933 98.8563V85.498H22.8545V98.8563H20.4933ZM26.7811 98.8563L23.5198 94.297L25.1113 92.6337L29.6054 98.8563H26.7811Z" fill="#006792"/>
<path d="M41.6603 88.8376L38.0925 98.8563H35.4834L31.9156 88.8376H34.4333L36.7358 96.2799H36.8401L39.1491 88.8376H41.6603Z" fill="#006792"/>
<path d="M47.5433 99.0585C46.9084 99.0585 46.3366 98.9454 45.8279 98.7193C45.3234 98.4888 44.9234 98.1497 44.6277 97.7018C44.3364 97.2539 44.1907 96.7017 44.1907 96.0451C44.1907 95.4798 44.295 95.0123 44.5038 94.6427C44.7125 94.2731 44.9973 93.9774 45.3582 93.7556C45.7191 93.5339 46.1257 93.3664 46.5779 93.2534C47.0345 93.136 47.5063 93.0512 47.9933 92.999C48.5804 92.9381 49.0565 92.8838 49.4218 92.8359C49.7871 92.7838 50.0523 92.7055 50.2175 92.6011C50.3871 92.4924 50.4719 92.325 50.4719 92.0989V92.0598C50.4719 91.5684 50.3263 91.1879 50.0349 90.9183C49.7436 90.6487 49.324 90.5139 48.7761 90.5139C48.1977 90.5139 47.739 90.64 47.3998 90.8922C47.065 91.1444 46.8388 91.4423 46.7214 91.7858L44.5168 91.4727C44.6908 90.864 44.9777 90.3552 45.3778 89.9464C45.7778 89.5333 46.267 89.2246 46.8454 89.0202C47.4237 88.8115 48.0629 88.7072 48.763 88.7072C49.2457 88.7072 49.7262 88.7637 50.2045 88.8767C50.6828 88.9898 51.1198 89.1768 51.5155 89.4377C51.9112 89.6942 52.2287 90.0443 52.4678 90.4878C52.7113 90.9314 52.8331 91.4858 52.8331 92.1511V98.8563H50.5632V97.48H50.485C50.3415 97.7583 50.1393 98.0192 49.8784 98.2627C49.6218 98.5019 49.2979 98.6954 48.9065 98.8432C48.5195 98.9867 48.0651 99.0585 47.5433 99.0585ZM48.1564 97.3235C48.6304 97.3235 49.0413 97.23 49.3892 97.043C49.737 96.8517 50.0045 96.5995 50.1915 96.2864C50.3828 95.9733 50.4784 95.632 50.4784 95.2623V94.0818C50.4045 94.1426 50.2784 94.1992 50.1001 94.2513C49.9262 94.3035 49.7305 94.3492 49.5131 94.3883C49.2957 94.4275 49.0804 94.4622 48.8674 94.4927C48.6543 94.5231 48.4695 94.5492 48.313 94.5709C47.9607 94.6188 47.6455 94.6971 47.3672 94.8058C47.0889 94.9145 46.8693 95.0667 46.7084 95.2623C46.5475 95.4537 46.4671 95.7015 46.4671 96.0059C46.4671 96.4408 46.6258 96.7691 46.9432 96.9908C47.2606 97.2126 47.665 97.3235 48.1564 97.3235Z" fill="#006792"/>
<path d="M62.9329 92.3207V94.2644H56.9191V92.3207H62.9329Z" fill="#006792"/>
<path d="M69.2219 95.7124L69.2154 92.862H69.5937L73.1942 88.8376H75.9532L71.5244 93.7687H71.0352L69.2219 95.7124ZM67.0695 98.8563V85.498H69.4306V98.8563H67.0695ZM73.3572 98.8563L70.0959 94.297L71.6874 92.6337L76.1815 98.8563H73.3572Z" fill="#006792"/>
<path d="M82.0628 99.0585C81.428 99.0585 80.8562 98.9454 80.3474 98.7193C79.843 98.4888 79.4429 98.1497 79.1473 97.7018C78.8559 97.2539 78.7102 96.7017 78.7102 96.0451C78.7102 95.4798 78.8146 95.0123 79.0233 94.6427C79.232 94.2731 79.5169 93.9774 79.8778 93.7556C80.2387 93.5339 80.6453 93.3664 81.0975 93.2534C81.5541 93.136 82.0259 93.0512 82.5129 92.999C83.0999 92.9381 83.5761 92.8838 83.9413 92.8359C84.3066 92.7838 84.5719 92.7055 84.7371 92.6011C84.9067 92.4924 84.9915 92.325 84.9915 92.0989V92.0598C84.9915 91.5684 84.8458 91.1879 84.5545 90.9183C84.2631 90.6487 83.8435 90.5139 83.2956 90.5139C82.7173 90.5139 82.2585 90.64 81.9193 90.8922C81.5845 91.1444 81.3584 91.4423 81.241 91.7858L79.0364 91.4727C79.2103 90.864 79.4973 90.3552 79.8973 89.9464C80.2974 89.5333 80.7866 89.2246 81.3649 89.0202C81.9433 88.8115 82.5825 88.7072 83.2826 88.7072C83.7652 88.7072 84.2457 88.7637 84.7241 88.8767C85.2024 88.9898 85.6394 89.1768 86.0351 89.4377C86.4308 89.6942 86.7482 90.0443 86.9874 90.4878C87.2309 90.9314 87.3527 91.4858 87.3527 92.1511V98.8563H85.0828V97.48H85.0045C84.861 97.7583 84.6588 98.0192 84.3979 98.2627C84.1414 98.5019 83.8174 98.6954 83.4261 98.8432C83.0391 98.9867 82.5846 99.0585 82.0628 99.0585ZM82.676 97.3235C83.1499 97.3235 83.5609 97.23 83.9087 97.043C84.2566 96.8517 84.524 96.5995 84.711 96.2864C84.9023 95.9733 84.998 95.632 84.998 95.2623V94.0818C84.9241 94.1426 84.798 94.1992 84.6197 94.2513C84.4458 94.3035 84.2501 94.3492 84.0327 94.3883C83.8152 94.4275 83.6 94.4622 83.3869 94.4927C83.1739 94.5231 82.9891 94.5492 82.8325 94.5709C82.4803 94.6188 82.165 94.6971 81.8867 94.8058C81.6084 94.9145 81.3888 95.0667 81.228 95.2623C81.0671 95.4537 80.9866 95.7015 80.9866 96.0059C80.9866 96.4408 81.1453 96.7691 81.4628 96.9908C81.7802 97.2126 82.1846 97.3235 82.676 97.3235Z" fill="#006792"/>
<path d="M91.3799 98.8563V88.8376H93.6694V90.5074H93.7737C93.9564 89.929 94.2694 89.4833 94.713 89.1703C95.1609 88.8528 95.6718 88.6941 96.2458 88.6941C96.3762 88.6941 96.5219 88.7006 96.6828 88.7137C96.848 88.7224 96.985 88.7376 97.0937 88.7593V90.9314C96.9937 90.8966 96.835 90.8661 96.6176 90.84C96.4045 90.8096 96.198 90.7944 95.9979 90.7944C95.5674 90.7944 95.1804 90.8879 94.8369 91.0748C94.4977 91.2575 94.2303 91.5119 94.0346 91.838C93.839 92.1641 93.7411 92.5403 93.7411 92.9664V98.8563H91.3799Z" fill="#006792"/>
<path d="M100.315 102.613V88.8376H102.638V90.4943H102.774C102.896 90.2508 103.068 89.9921 103.29 89.7182C103.512 89.4399 103.812 89.2029 104.19 89.0072C104.568 88.8072 105.051 88.7072 105.638 88.7072C106.412 88.7072 107.11 88.905 107.732 89.3007C108.358 89.6921 108.854 90.2726 109.219 91.0422C109.588 91.8076 109.773 92.7468 109.773 93.86C109.773 94.9601 109.593 95.895 109.232 96.6647C108.871 97.4344 108.38 98.0214 107.758 98.4258C107.136 98.8302 106.431 99.0324 105.644 99.0324C105.07 99.0324 104.594 98.9367 104.216 98.7454C103.838 98.5541 103.533 98.3236 103.303 98.054C103.077 97.7801 102.901 97.5213 102.774 97.2778H102.677V102.613H100.315ZM102.631 93.8469C102.631 94.4949 102.722 95.0623 102.905 95.5493C103.092 96.0364 103.359 96.4168 103.707 96.6908C104.059 96.9604 104.486 97.0952 104.986 97.0952C105.507 97.0952 105.944 96.956 106.297 96.6777C106.649 96.3951 106.914 96.0103 107.092 95.5232C107.275 95.0319 107.366 94.4731 107.366 93.8469C107.366 93.2251 107.277 92.6729 107.099 92.1902C106.921 91.7075 106.655 91.3292 106.303 91.0553C105.951 90.7813 105.512 90.6444 104.986 90.6444C104.481 90.6444 104.053 90.777 103.701 91.0422C103.348 91.3075 103.081 91.6793 102.898 92.1576C102.72 92.6359 102.631 93.199 102.631 93.8469Z" fill="#006792"/>
<path d="M116.331 99.0585C115.696 99.0585 115.125 98.9454 114.616 98.7193C114.111 98.4888 113.711 98.1497 113.416 97.7018C113.124 97.2539 112.979 96.7017 112.979 96.0451C112.979 95.4798 113.083 95.0123 113.292 94.6427C113.5 94.2731 113.785 93.9774 114.146 93.7556C114.507 93.5339 114.914 93.3664 115.366 93.2534C115.823 93.136 116.294 93.0512 116.781 92.999C117.368 92.9381 117.845 92.8838 118.21 92.8359C118.575 92.7838 118.84 92.7055 119.006 92.6011C119.175 92.4924 119.26 92.325 119.26 92.0989V92.0598C119.26 91.5684 119.114 91.1879 118.823 90.9183C118.532 90.6487 118.112 90.5139 117.564 90.5139C116.986 90.5139 116.527 90.64 116.188 90.8922C115.853 91.1444 115.627 91.4423 115.509 91.7858L113.305 91.4727C113.479 90.864 113.766 90.3552 114.166 89.9464C114.566 89.5333 115.055 89.2246 115.633 89.0202C116.212 88.8115 116.851 88.7072 117.551 88.7072C118.034 88.7072 118.514 88.7637 118.992 88.8767C119.471 88.9898 119.908 89.1768 120.304 89.4377C120.699 89.6942 121.017 90.0443 121.256 90.4878C121.499 90.9314 121.621 91.4858 121.621 92.1511V98.8563H119.351V97.48H119.273C119.129 97.7583 118.927 98.0192 118.666 98.2627C118.41 98.5019 118.086 98.6954 117.694 98.8432C117.307 98.9867 116.853 99.0585 116.331 99.0585ZM116.944 97.3235C117.418 97.3235 117.829 97.23 118.177 97.043C118.525 96.8517 118.792 96.5995 118.979 96.2864C119.171 95.9733 119.266 95.632 119.266 95.2623V94.0818C119.193 94.1426 119.066 94.1992 118.888 94.2513C118.714 94.3035 118.519 94.3492 118.301 94.3883C118.084 94.4275 117.868 94.4622 117.655 94.4927C117.442 94.5231 117.257 94.5492 117.101 94.5709C116.749 94.6188 116.433 94.6971 116.155 94.8058C115.877 94.9145 115.657 95.0667 115.496 95.2623C115.335 95.4537 115.255 95.7015 115.255 96.0059C115.255 96.4408 115.414 96.7691 115.731 96.9908C116.049 97.2126 116.453 97.3235 116.944 97.3235Z" fill="#006792"/>
<path d="M130.651 88.8376V90.6639H124.892V88.8376H130.651ZM126.314 86.4373H128.675V95.8429C128.675 96.1603 128.723 96.4038 128.818 96.5734C128.918 96.7386 129.049 96.8517 129.21 96.9126C129.371 96.9734 129.549 97.0039 129.745 97.0039C129.892 97.0039 130.027 96.993 130.149 96.9713C130.275 96.9495 130.371 96.9299 130.436 96.9126L130.834 98.7584C130.708 98.8019 130.527 98.8498 130.292 98.9019C130.062 98.9541 129.779 98.9846 129.445 98.9933C128.853 99.0106 128.32 98.9215 127.846 98.7258C127.373 98.5258 126.996 98.2171 126.718 97.7996C126.444 97.3822 126.309 96.8604 126.314 96.2342V86.4373Z" fill="#006792"/>
<path d="M135.747 102.613C135.425 102.613 135.127 102.587 134.853 102.535C134.583 102.487 134.368 102.431 134.207 102.365L134.755 100.526C135.099 100.626 135.405 100.674 135.675 100.67C135.944 100.665 136.181 100.58 136.386 100.415C136.595 100.254 136.771 99.9847 136.914 99.6064L137.116 99.065L133.483 88.8376H135.988L138.297 96.4038H138.401L140.717 88.8376H143.228L139.217 100.069C139.03 100.6 138.782 101.054 138.473 101.433C138.164 101.815 137.786 102.107 137.338 102.307C136.895 102.511 136.364 102.613 135.747 102.613Z" fill="#006792"/>
<defs>
<linearGradient id="paint0_linear_282_8056" x1="75.5008" y1="47.5564" x2="75.5008" y2="81.4069" gradientUnits="userSpaceOnUse">
<stop stop-color="#1D7291"/>
<stop offset="1" stop-color="#024771"/>
</linearGradient>
</defs>
</svg>
