<svg width="150" height="150" viewBox="0 0 150 150" fill="none" xmlns="http://www.w3.org/2000/svg">
<g clip-path="url(#clip0_282_8100)">
<path d="M144.049 79.8625C141.873 80.4488 137.291 87.566 136.329 89.5104C136.613 89.3095 136.933 89.1531 137.334 89.0222C137.704 88.9009 138.104 88.8225 138.49 88.8099C138.892 88.7962 139.244 88.8691 139.579 89.0193C139.915 89.1697 140.213 89.4227 140.435 89.7666C140.666 90.1251 140.763 90.4886 140.721 90.8913C140.68 91.2873 140.595 91.7015 140.505 92.1219C140.412 92.5557 140.337 92.9933 140.272 93.4384C140.204 93.8929 140.277 94.3508 140.475 94.8241C140.747 95.4752 141.095 95.985 141.549 96.3597C142 96.7323 142.555 96.9208 143.276 96.9202C144.013 96.919 144.666 96.7522 145.269 96.4102C145.855 96.0779 146.388 95.6534 146.809 95.1376C147.225 94.6278 147.584 94.0692 147.862 93.4489C148.135 92.8429 148.271 92.2593 148.363 91.7054C148.388 91.5558 148.463 91.4793 148.614 91.479C148.882 91.4786 149.084 91.604 149.184 91.85C149.184 91.8299 149.218 91.9144 149.218 92.1113C149.219 92.7442 149.01 93.476 148.635 94.3117C148.258 95.1494 147.696 95.9333 147.029 96.6893C146.374 97.4316 145.592 98.0811 144.668 98.6058C143.75 99.1282 142.776 99.3916 141.67 99.3928C140.715 99.3943 139.854 99.2066 139.022 98.7986C138.228 98.4099 137.651 97.8392 137.361 97.1182C137.046 96.338 137.007 95.637 137.241 94.999C137.474 94.3607 137.763 93.7708 138.16 93.2147C138.549 92.6699 138.794 92.3412 139.138 91.8864C139.479 91.4364 139.626 91.0063 139.556 90.6103C139.457 90.0573 139.018 89.762 138.247 89.7126C137.477 89.6635 136.656 90.0163 135.718 90.7657C135.117 92.037 134.784 93.1506 134.525 94.4548C134.451 94.8283 134.4 95.2748 134.326 95.786C134.251 96.2997 134.172 96.7905 134.127 97.268C134.073 97.8299 134.031 98.3985 133.961 98.9556C133.948 99.0618 133.711 99.1553 133.325 99.2376C132.907 99.327 132.538 99.3692 132.152 99.3698C131.834 99.3703 131.581 99.3448 131.348 99.2803C131.128 99.2198 130.992 99.122 130.928 98.9995C130.908 98.961 130.889 98.9263 130.878 98.8841C130.872 98.8598 130.894 98.8439 130.911 98.8439C130.911 98.7988 130.928 98.6128 130.944 98.2814C130.96 97.9601 130.985 97.5428 131.01 97.0307C131.034 96.518 131.059 95.9408 131.091 95.3027C131.124 94.665 131.201 94.0127 131.24 93.339C131.266 92.8874 131.33 92.1995 131.421 91.2744C131.512 90.3511 131.553 89.3807 131.636 88.3715C131.718 87.3567 131.738 83.3131 131.729 82.4292C131.719 81.5402 131.627 80.9222 131.492 80.5765C131.392 80.3199 131.257 80.1792 131.089 80.1399C130.939 80.1045 130.72 80.0851 130.469 80.0855C130.184 80.0857 129.97 79.9341 129.865 79.6392C129.785 79.4119 129.831 79.2976 130.083 79.2972C130.25 79.297 130.585 79.3113 131.138 79.3361C131.675 79.3599 132.127 79.3752 132.496 79.3746C132.864 79.3742 133.216 79.3663 133.468 79.3533C133.719 79.3407 133.937 79.3328 134.171 79.3324C134.44 79.3322 134.598 79.4106 134.658 79.5577C134.75 79.7874 134.809 80.3764 134.777 81.3356C134.745 82.2997 134.666 86.8458 134.501 88.7948C134.473 89.1386 134.398 89.8657 134.501 90.1226C136.093 86.9884 140.147 81.2952 143.043 79.1553C143.748 78.635 144.365 78.3021 144.851 78.1941C145.387 78.0747 145.807 78.0269 146.058 78.0265C146.896 78.0257 147.581 78.1486 148.153 78.3956C148.738 78.6488 149.188 78.961 149.495 79.3332C149.808 79.7135 149.981 80.0961 149.999 80.5127C150.016 80.9197 149.885 81.2936 149.615 81.6182C149.366 81.9167 149.096 82.0659 148.828 82.0663C148.56 82.0665 148.277 81.9778 148.023 81.8263C147.74 81.6573 147.439 81.4473 147.151 81.1895C146.851 80.9207 146.549 80.6756 146.228 80.4422C145.895 80.1991 145.574 80.0261 145.222 79.901C144.871 79.776 144.484 79.7452 144.049 79.8625ZM16.8979 70.4011C15.6815 70.5062 14.4244 70.5611 13.1305 70.5776C12.2613 70.5886 11.3938 70.5704 10.5217 70.5075C9.65009 70.4446 8.77595 70.3287 7.90823 70.1628C4.48307 69.5076 1.6935 66.1763 2.42881 63.1066C2.57777 62.4843 2.87778 61.7361 3.24853 61.1953C4.12474 59.9173 6.78851 58.8042 8.54568 59.1408C9.23754 59.2735 9.73844 59.4932 10.0482 59.8002C10.3577 60.107 10.5716 60.4279 10.6899 60.7633C10.8083 61.0987 10.897 61.4086 10.9564 61.6935C11.016 61.9786 11.1414 62.1654 11.333 62.2542C11.5635 62.2985 11.8107 62.2741 12.0689 62.1739C12.3273 62.0736 12.5671 61.9308 12.7957 61.7467C13.0243 61.5623 13.2236 61.3532 13.3933 61.1185C13.5629 60.8843 13.6738 60.658 13.7245 60.4463C13.823 60.0355 13.765 59.627 13.5515 59.2149C13.3382 58.8028 13.026 58.4173 12.6139 58.0646C12.2017 57.712 11.7215 57.4052 11.1675 57.1424C10.613 56.8799 10.0407 56.6922 9.45726 56.5803C8.49375 56.3955 7.55362 56.4108 6.62962 56.6244C5.70583 56.8379 4.85218 57.202 4.07591 57.7176C3.29964 58.233 2.62164 58.8715 2.04171 59.633C1.46178 60.3946 1.03433 61.2309 0.75937 62.1421C0.41613 63.5742 0.399577 64.8867 0.711368 66.0731C1.02295 67.2594 1.53626 68.3154 2.24426 69.2392C2.95267 70.1628 3.79432 70.9432 4.76859 71.5858C5.74287 72.2284 6.7188 72.7151 7.70362 73.0471C8.07148 73.1696 8.44927 73.2811 8.83679 73.3815C9.2243 73.482 9.61491 73.5697 10.0082 73.6453C10.6345 73.7653 11.262 73.8613 11.8881 73.9306C11.6624 79.5308 11.5091 83.7401 11.2817 89.8102C11.2026 91.9212 11.1253 94.0334 11.0522 96.1443C11.0388 96.536 10.9784 96.8714 10.9335 97.1476C10.8886 97.4225 10.7619 97.6528 10.5741 97.8339C10.3889 98.0126 10.1342 98.15 9.83092 98.2536C9.52761 98.3579 9.10802 98.3958 8.55912 98.4365C8.46209 98.4436 8.40106 98.521 8.40417 98.6037C8.40789 98.6817 8.42713 98.7543 8.4623 98.8224C8.51382 98.8894 8.54941 98.9571 8.58437 99.0247C8.61975 99.0924 8.68616 99.122 8.87981 99.1145C8.94457 99.1123 9.13864 99.1019 9.46161 99.0783C9.8005 99.0531 10.1721 99.0324 10.5927 99.0161C11.0131 98.9997 11.4497 98.9776 11.8531 98.9488C12.3054 98.917 12.6774 98.8985 13.0006 98.8861C13.68 98.8596 14.2626 98.8528 14.7807 98.854C15.283 98.8549 15.7854 98.8549 16.2546 98.8476C16.7568 98.8402 17.3071 98.8329 17.8256 98.8377C18.3765 98.8423 19.0076 98.8238 19.7838 98.7941C23.0338 98.6681 25.6872 98.211 27.7098 97.4101C29.7322 96.609 31.2912 95.6124 32.3283 94.4463C34.4068 92.1088 34.5579 89.1144 33.2449 86.3917C31.7695 83.3321 29.1678 80.9038 25.0804 79.5356C23.214 78.911 18.4392 78.1301 16.8016 79.1557C16.405 79.4044 16.2387 79.6872 16.2991 79.9353C16.3767 80.2535 16.5337 80.5504 16.8387 80.8076C17.1556 81.0741 17.4883 81.2611 17.8351 81.372C18.1947 81.4868 18.5534 81.4932 18.889 81.3958C19.1936 81.3072 19.4414 81.0614 19.6028 80.6638C19.6494 80.6205 19.6566 80.6903 19.4766 80.6425C19.2803 80.5899 19.0829 80.5332 18.8379 80.4782C18.5762 80.4196 18.391 80.3394 18.1794 80.2322C17.9609 80.1217 17.8812 79.9988 17.9365 79.8594C18.2139 79.1617 21.349 79.7303 22.0661 79.895C24.5406 80.4641 25.6127 80.813 27.3978 82.5999C28.1741 83.3772 28.7921 84.242 29.2595 85.207C29.912 86.5558 30.2209 87.9734 30.2195 89.4513C30.2182 90.924 29.8634 92.282 29.1637 93.5246C27.5277 96.4299 23.8653 97.3625 20.7116 97.4842C19.6287 97.5258 18.7057 97.5545 17.9781 97.5713C17.2338 97.5885 16.6169 97.575 16.1292 97.5231C15.6412 97.4707 15.2832 97.3807 15.0492 97.2705C14.7877 97.1472 14.6334 96.9721 14.5078 96.7301C14.369 96.463 14.3309 96.2205 14.3311 96.0092C14.3433 88.8078 13.9382 81.0958 14.9323 74.328L14.9677 74.083C16.1472 74.0785 17.3406 74.0156 18.5429 73.8875C19.7878 73.7551 21.0405 73.5911 22.2991 73.4026C23.5576 73.2141 24.823 73.0268 26.0964 72.8344C27.7187 72.5897 32.5938 71.688 33.8544 71.7079C35.5379 71.7344 38.7479 71.7697 40.7695 73.1806C41.4783 73.6748 41.3105 74.4412 42.17 74.8086C42.3709 74.8943 42.603 74.807 42.8182 74.6787C43.0335 74.5508 43.1829 74.3123 43.2663 73.9637C43.3979 73.4156 43.2979 72.9147 42.9684 72.4542C42.6388 71.9938 42.176 71.586 41.5731 71.2293C40.9702 70.8729 40.2779 70.5644 39.5014 70.3113C38.7247 70.0581 37.9631 69.8601 37.2171 69.7169C36.4029 69.5609 35.5801 69.4424 34.748 69.3611C33.9163 69.2793 33.0647 69.2206 32.1937 69.184C31.3224 69.1471 30.4332 69.1267 29.521 69.1145C25.1369 69.0563 21.2493 70.0252 16.8979 70.4011ZM49.3323 105.285C49.3141 105.29 49.2743 105.289 49.2654 105.256C49.2743 105.289 49.3141 105.29 49.3323 105.285ZM75.1518 114.319C74.9416 114.18 74.7506 114.033 74.5783 113.878L74.0062 114.045C74.2061 114.202 74.4204 114.356 74.6495 114.506C75.6502 115.16 76.6121 115.616 77.5667 115.903C78.5062 116.186 79.394 116.32 80.2315 116.307C81.0692 116.293 81.8211 116.139 82.4931 115.862C83.1777 115.58 83.744 115.208 84.1843 114.74C84.6812 114.212 85.0447 113.6 85.2208 112.875C85.395 112.157 85.3524 111.383 85.1174 110.575C84.8813 109.762 84.4176 108.914 83.7067 108.051C82.9913 107.182 81.9953 106.335 80.7208 105.503C77.2661 103.247 72.7069 102.263 68.2163 102.415C67.9808 101.667 67.6245 100.956 67.1745 100.287C66.6846 99.5563 66.0252 98.9229 65.2452 98.3403C64.482 97.7697 63.5518 97.3379 62.4958 97.0679C63.299 96.2432 64.0349 95.318 64.6874 94.2928C65.3394 93.2675 65.8885 92.2324 66.2752 91.1619C66.6565 90.1067 66.9176 89.0573 67.0086 88.032C67.0992 87.013 66.9397 86.083 66.6199 85.2602C66.3683 84.6124 65.9634 84.103 65.4114 83.7246C64.8732 83.3557 64.1371 83.1639 63.2156 83.1649C62.3946 83.166 61.6196 83.4575 60.8706 84.0469C60.13 84.6296 59.4466 85.3334 58.8288 86.1337C58.2087 86.9369 57.6778 87.7491 57.2235 88.5515C56.7584 89.3724 56.3853 90.0031 56.1534 90.4814C56.0342 90.7266 55.9695 90.9436 55.9867 91.1193C56.0036 91.2951 56.0524 91.4277 56.1544 91.496C56.2705 91.5732 56.4211 91.572 56.5569 91.5155C56.7226 91.4462 56.8724 91.3131 56.9752 91.0779C57.3069 90.3182 57.6325 89.5586 58.0614 88.8668C58.5023 88.1563 58.9221 87.5613 59.383 87.0118C59.8254 86.4852 60.2533 86.0466 60.6884 85.7346C61.1239 85.4226 61.5091 85.2664 61.8275 85.266C62.0787 85.2656 62.3824 85.3473 62.7157 85.526C63.0362 85.698 63.2911 85.9601 63.4374 86.3139C63.6944 86.9344 63.8247 87.6943 63.859 88.5784C63.8936 89.4672 63.8348 90.4028 63.6614 91.3711C63.4856 92.3519 63.2272 93.32 62.844 94.28C62.459 95.2445 61.9918 96.0943 61.4733 96.8434C60.7022 96.819 59.9806 96.8958 59.3787 97.0718C58.7913 97.2438 58.3031 97.4691 57.8882 97.7465C57.4827 98.0178 57.2224 98.3318 57.0683 98.6467C56.9051 98.9803 56.8929 99.2883 57.0193 99.5858C57.1786 99.9614 57.5729 100.148 58.1762 100.147C58.4444 100.147 58.7154 100.077 59.0473 99.92C59.3516 99.7754 59.6353 99.5902 59.9346 99.3713C60.221 99.1625 60.5348 98.9261 60.822 98.6618C61.104 98.4028 61.3912 98.1593 61.6589 97.9328C62.1112 97.9824 62.5306 98.2584 62.9334 98.7547C63.336 99.2515 63.6807 99.8221 63.9575 100.456C64.2354 101.092 64.4619 101.741 64.6471 102.404C64.6808 102.525 64.7146 102.645 64.7483 102.76C61.3405 103.332 54.5454 105.461 53.4791 109.499C53.2331 110.431 53.2145 111.212 53.5997 111.915C53.9533 112.562 54.5378 113.057 55.3438 113.374C56.1807 113.703 57.2218 113.757 58.5449 113.561C61.477 113.129 63.7531 112.157 65.3946 110.645C67.045 109.124 68.755 106.341 68.3907 104.016C73.6119 103.639 78.6316 104.283 82.3988 108.712C85.0015 111.771 82.5529 115.16 79.3255 115.419C78.6546 115.473 77.9853 115.435 77.2642 115.266C76.5604 115.1 75.8418 114.776 75.1518 114.319ZM64.7888 104.401C64.7063 105.421 64.5921 106.053 64.3177 107.05C64.0417 108.052 63.6354 108.976 63.1483 109.804C62.6655 110.624 62.0154 111.328 61.2739 111.87C60.5086 112.43 59.6499 112.767 58.6446 112.923C58.0248 113.02 57.4413 112.962 56.9855 112.77C56.5027 112.566 56.1431 112.281 55.9287 111.877C55.6393 111.332 55.5336 110.668 55.6078 109.894C55.9991 105.813 61.6314 104.953 64.7888 104.401ZM82.0638 87.6999C82.1583 86.504 82.1871 85.4993 82.1273 84.6813C82.0679 83.8721 81.9361 83.2823 81.7899 82.9088C81.7512 82.8103 81.7474 82.7224 81.7394 82.6628C81.7305 82.596 81.8393 82.5455 81.9738 82.5118C82.1408 82.47 82.4093 82.4512 82.778 82.4505C83.1802 82.4499 83.6995 82.4493 84.3866 82.4487C84.5877 82.4483 84.7886 82.4747 84.9229 82.508C85.09 82.5496 85.1757 82.6171 85.2082 82.7137C85.2603 82.8701 85.3092 83.1205 85.2926 83.4819C85.2765 83.8436 85.2438 84.4063 85.1776 85.1696C85.1118 85.9282 85.0627 86.9276 84.9634 88.1683C84.8647 89.4039 84.7406 90.9618 84.6175 92.8346C84.5598 93.709 84.5523 94.3816 84.5863 94.8587C84.6202 95.3308 84.6694 95.6981 84.772 95.9432C84.8879 96.2201 85.0063 96.3736 85.1579 96.4098C85.3414 96.4536 85.4598 96.4648 85.6441 96.4646C86.1132 96.464 86.5977 96.2209 87.1346 95.7543C87.6858 95.2754 88.0896 94.5887 88.4726 93.7288C88.5239 93.6138 88.623 93.573 88.707 93.5728C88.9582 93.5724 89.1858 93.699 89.2772 93.9488C89.3037 94.0212 89.294 94.0744 89.294 94.1044C89.2276 94.3758 89.0525 94.8092 88.7763 95.3958C88.5009 95.9803 88.137 96.5637 87.6558 97.16C87.1834 97.7453 86.6625 98.2425 86.0323 98.6939C85.4401 99.1181 84.7932 99.3535 84.0893 99.3543C83.4694 99.3552 82.9845 99.2186 82.6309 98.9443C82.28 98.672 82.0226 98.3039 81.842 97.8554C81.6024 97.2597 81.4636 96.5648 81.4874 95.7817C81.5118 94.9878 81.519 94.1995 81.6018 93.4009C81.5517 93.4009 81.5348 93.3858 81.5014 93.3608C81.451 93.3105 81.4005 93.2857 81.3837 93.2857C81.3504 93.2857 81.3169 93.3008 81.3169 93.3208C81.2668 93.5519 81.0928 93.8486 80.8321 94.2254C80.5743 94.5978 80.2357 94.9952 79.8618 95.4421C79.4993 95.8754 79.0714 96.3227 78.573 96.7745C78.0839 97.2181 77.6021 97.6346 77.0834 97.9969C76.5643 98.3592 76.0437 98.648 75.5596 98.8778C75.0891 99.1011 74.6046 99.2155 74.1858 99.2161C73.5825 99.2167 73.1137 99.0864 72.7609 98.8061C72.426 98.5396 72.1686 98.1709 71.9888 97.7219C71.7484 97.1217 71.6269 96.4268 71.6344 95.6381C71.6416 94.8548 71.6495 94.0578 71.7153 93.2625C71.8475 91.6615 71.9542 90.3082 72.0453 89.1941C72.1359 88.0831 72.2187 87.1601 72.2596 86.4213C72.3006 85.6833 72.2998 85.1011 72.2743 84.6786C72.2484 84.2522 72.2011 83.9425 72.1222 83.7445C72.0331 83.5206 71.8878 83.3758 71.7364 83.3282C71.5694 83.2758 71.3677 83.2533 71.1161 83.2537C70.9655 83.2539 70.8424 83.2169 70.7139 83.1236C70.6071 83.0462 70.5527 82.9247 70.4956 82.8074C70.3845 82.5784 70.4785 82.4658 70.7298 82.4656C70.7967 82.4656 70.9144 82.4729 71.1151 82.4851C71.3164 82.4973 71.551 82.5047 71.7687 82.5043C71.9865 82.5043 72.2379 82.5099 72.4727 82.5236C72.7405 82.5393 72.9585 82.543 73.1429 82.5428C73.5115 82.5426 73.83 82.5364 74.0811 82.5215C74.3493 82.5058 74.5839 82.501 74.8185 82.5006C74.9191 82.5004 75.0529 82.507 75.1202 82.5205C75.2035 82.5368 75.2919 82.5991 75.3382 82.7261C75.3929 82.8753 75.4309 83.1374 75.4398 83.5144C75.4485 83.886 75.4073 84.4469 75.3413 85.1971C75.2751 85.9491 75.2091 86.9348 75.1104 88.1404C75.0111 89.3559 74.8891 90.8737 74.7473 92.6962C74.6913 93.4204 74.6902 94.028 74.7328 94.5142C74.7753 94.9971 74.8526 95.3977 74.9689 95.6943C75.2054 96.2962 75.607 96.5927 76.1263 96.5919C76.7128 96.591 77.3462 96.325 78.0022 95.8162C78.6686 95.299 79.2755 94.6299 79.8428 93.7948C80.4128 92.9561 80.9211 92.0085 81.3306 90.9453C81.7398 89.8831 81.9769 88.7993 82.0638 87.6999ZM50.0194 83.2096C50.0585 83.1114 50.0965 83.0135 50.1698 82.9283C50.2476 82.8372 50.3541 82.7735 50.5716 82.7367C50.7731 82.7027 51.041 82.6727 51.3592 82.6454C51.6944 82.6167 52.1634 82.6043 52.7332 82.6034C53.1352 82.603 53.3682 82.6636 53.4205 82.7886C53.4522 82.8645 53.4145 82.9603 53.3369 83.0901C53.2639 83.2119 53.1865 83.3665 53.1029 83.5423C52.9861 83.7885 52.8431 84.2029 52.6519 84.7783C52.4591 85.3587 52.2346 86.0093 52.0176 86.748C51.8007 87.4866 51.5765 88.2684 51.3838 89.1093C51.1933 89.9416 51.0338 90.7721 50.9347 91.5808C50.8347 92.3944 50.7607 93.1481 50.7532 93.8511C50.7456 94.5444 50.8426 95.1266 51.0234 95.5735C51.2796 96.2062 51.7116 96.5068 52.3314 96.506C52.7674 96.5056 53.2347 96.2623 53.7216 95.7961C54.222 95.317 54.6497 94.6313 55.0093 93.7303C55.0509 93.626 55.1431 93.5844 55.2437 93.5844C55.5118 93.584 55.7055 93.7102 55.8304 93.9906C55.8408 94.0133 55.8139 94.0307 55.7971 94.0307C55.7804 94.0307 55.7971 94.0458 55.7971 94.0708C55.7971 94.0808 55.8139 94.0959 55.8139 94.106C55.764 94.3773 55.5991 94.8072 55.3128 95.3972C55.031 95.9784 54.6867 96.5825 54.226 97.1817C53.7665 97.7792 53.2751 98.317 52.6695 98.7756C52.0532 99.2426 51.4304 99.4946 50.71 99.5064C50.1067 99.5161 49.5921 99.3065 49.1841 98.9105C48.7701 98.5089 48.4687 98.0099 48.2105 97.4151C47.9477 96.8101 47.7812 96.1541 47.6887 95.4471C47.595 94.7331 47.553 94.0812 47.5854 93.4785C47.5854 93.4533 47.5519 93.4334 47.5017 93.4032C47.3843 93.333 47.3508 93.2929 47.3341 93.2929C47.3173 93.2929 47.2621 93.3155 47.2168 93.4036C47.0947 93.6421 46.869 94.1089 46.5146 94.7354C46.15 95.3805 45.6698 96.0343 45.076 96.7011C44.465 97.387 43.7707 97.9785 42.9839 98.4864C42.1803 99.0049 41.3258 99.2571 40.3538 99.2581C39.4321 99.2594 38.6453 99.0432 38.074 98.6432C37.4711 98.221 37.0253 97.6685 36.7315 96.9423C36.4201 96.1729 36.2685 95.2754 36.2925 94.2608C36.3163 93.2511 36.4903 92.2113 36.808 91.1464C37.1244 90.0862 37.5554 89.0387 38.1278 88.0208C38.709 86.9882 39.376 86.0646 40.1353 85.261C40.9156 84.4355 41.7926 83.7827 42.747 83.2889C43.7184 82.7861 44.7233 82.5381 45.8293 82.5368C46.4997 82.5358 47.0701 82.6032 47.5219 82.7406C47.9585 82.8732 48.328 83.0394 48.6117 83.2264C48.898 83.4151 49.1206 83.6036 49.2661 83.8082C49.4059 84.0049 49.5176 84.1694 49.6184 84.295C49.7353 83.9331 49.8745 83.5736 50.0194 83.2096ZM41.8253 96.705C42.6127 96.704 43.3151 96.4553 43.9859 95.9538C44.6544 95.4543 45.2624 94.8403 45.8103 94.0984C46.3497 93.3676 46.7978 92.5657 47.1812 91.7162C47.5664 90.8623 47.8592 90.1007 48.0832 89.4298C48.4434 88.3522 48.6673 87.42 48.7165 86.6213C48.7658 85.8227 48.6878 85.1574 48.4794 84.6329C48.0994 83.6764 47.355 83.213 46.2324 83.2142C45.4782 83.2152 44.7555 83.4281 44.0715 83.8698C43.3993 84.3039 42.7782 84.8778 42.2471 85.5949C41.7243 86.3005 41.2315 87.1076 40.8258 88.0173C40.4293 88.9067 40.1416 89.8115 39.9411 90.7156C39.7416 91.615 39.6415 92.4684 39.6258 93.2824C39.61 94.0959 39.7174 94.7933 39.9469 95.3612C40.1211 95.7924 40.3691 96.121 40.6687 96.3548C40.9729 96.5925 41.356 96.7056 41.8253 96.705ZM91.2698 92.8615C91.4051 93.685 91.6561 94.3483 91.9929 94.8494C92.3275 95.347 92.7158 95.7202 93.1002 95.973C93.4706 96.2165 93.8049 96.3775 94.1397 96.4388C94.4585 96.4973 94.6762 96.5085 94.81 96.453C95.3297 96.4524 95.8046 96.2211 96.2169 95.7432C96.6245 95.2708 97.0267 94.6503 97.3708 93.8834C97.7117 93.1226 98.0312 92.253 98.3392 91.2804C98.6486 90.3039 98.9732 89.0197 99.3237 87.9947C99.6743 86.97 100.042 85.9746 100.443 85.0001C100.844 84.0254 101.329 83.1507 101.847 82.3717C102.031 82.2707 102.094 82.1975 102.115 82.1652C102.144 82.122 102.199 82.11 102.266 82.1098C102.35 82.1098 102.551 82.1183 102.819 82.1443C103.104 82.1723 103.573 82.1836 104.26 82.1828C104.478 82.1824 104.646 82.1956 104.846 82.2372C105.031 82.2753 105.106 82.3465 105.098 82.4429C105.04 83.1703 104.891 84.0337 104.666 85.05C104.442 86.058 104.258 87.144 104.1 88.3102C103.943 89.4693 103.818 90.9622 103.803 92.228C103.788 93.4884 103.904 94.735 104.193 95.9592C104.257 96.231 104.361 96.3879 104.546 96.4259C104.747 96.4673 104.881 96.4805 105.065 96.4803C105.518 96.4797 106.031 96.2312 106.556 95.7655C107.102 95.2808 107.524 94.6079 107.91 93.7398C107.958 93.633 108.011 93.589 108.128 93.5888C108.396 93.5884 108.564 93.7137 108.665 93.9647C108.715 94.0903 108.725 94.3139 108.615 94.6429C108.508 94.9673 108.333 95.3267 108.097 95.7283C107.864 96.1259 107.604 96.5397 107.261 96.9649C106.918 97.3892 106.54 97.778 106.14 98.1465C105.754 98.5021 105.336 98.7998 104.867 99.0322C104.432 99.248 103.98 99.3698 103.51 99.3705C102.874 99.3711 102.392 99.2209 102.069 98.9552C101.721 98.6691 101.44 98.3213 101.263 97.8713C100.97 97.1265 100.784 96.1839 100.707 95.0594C100.63 93.9341 100.612 92.7585 100.702 91.5188C100.793 90.2826 100.925 88.7776 101.133 87.5656C101.34 86.3565 101.549 85.2949 101.766 84.3956C101.465 84.7727 101.156 85.4087 100.863 86.3102C100.572 87.2069 99.8564 89.8094 99.4885 90.9246C99.1223 92.035 99.095 91.8668 98.6767 93.0581C98.2604 94.2434 97.7568 95.3137 97.2059 96.2492C96.6532 97.1883 96.0152 97.9191 95.2985 98.4616C94.5924 98.9956 93.7579 99.1555 92.8023 98.9668C92.1152 98.8311 91.6124 98.6714 91.3104 98.4665C90.992 98.2503 90.7468 97.922 90.5718 97.473C90.3264 96.8428 90.2349 96.0821 90.2842 95.1678C90.3332 94.2537 90.6676 93.4849 91.2698 92.8615ZM121.257 87.6509C121.335 86.4552 121.381 85.4505 121.321 84.6325C121.261 83.8233 121.158 83.2287 121 82.86C120.956 82.7567 120.95 82.6812 120.95 82.6138C120.95 82.5465 121.017 82.501 121.167 82.463C121.336 82.4201 121.586 82.4021 121.972 82.4017C122.357 82.4011 122.893 82.4007 123.564 82.3996C123.781 82.3994 123.966 82.4176 124.133 82.4592C124.268 82.4925 124.369 82.5683 124.402 82.6649C124.454 82.8211 124.495 83.066 124.47 83.4331C124.445 83.7945 124.429 84.3567 124.371 85.1209C124.314 85.8786 124.248 86.8793 124.157 88.1195C124.067 89.3557 123.901 90.9066 123.777 92.7858C123.72 93.6541 123.729 94.3328 123.763 94.8099C123.797 95.2818 123.863 95.6492 123.966 95.8944C124.082 96.171 124.201 96.3214 124.368 96.361C124.519 96.3965 124.687 96.4158 124.838 96.4156C125.307 96.415 125.791 96.1721 126.328 95.7055C126.879 95.2266 127.282 94.537 127.666 93.6798C127.717 93.566 127.8 93.524 127.9 93.524C128.152 93.5236 128.337 93.6591 128.437 93.8999C128.471 93.9802 128.471 94.0255 128.471 94.0557C128.421 94.327 128.253 94.7635 127.987 95.347C127.718 95.9343 127.34 96.5372 126.883 97.1112C126.403 97.7139 125.865 98.2058 125.243 98.6451C124.626 99.0812 123.987 99.3045 123.283 99.3055C122.646 99.3061 122.16 99.1712 121.825 98.8954C121.489 98.6196 121.231 98.2495 121.052 97.8065C120.81 97.2051 120.682 96.5213 120.698 95.7326C120.714 94.9441 120.713 94.1507 120.795 93.3519C120.762 93.3519 120.745 93.337 120.728 93.3119C120.644 93.2619 120.594 93.2366 120.561 93.2366C120.544 93.2366 120.511 93.2519 120.494 93.272C120.461 93.5031 120.316 93.8035 120.059 94.1766C119.797 94.5574 119.434 94.9506 119.055 95.3933C118.681 95.8307 118.262 96.2662 117.767 96.7257C117.292 97.1664 116.796 97.5858 116.277 97.9481C115.758 98.3103 115.254 98.5992 114.753 98.8288C114.266 99.0525 113.798 99.1665 113.396 99.1671C112.776 99.1679 112.312 99.0272 111.971 98.757C111.624 98.4806 111.362 98.1218 111.182 97.6731C110.942 97.0727 110.795 96.3779 110.811 95.5894C110.827 94.8057 110.86 94.0123 110.926 93.2137C111.058 91.6113 111.173 90.26 111.256 89.1451C111.338 88.0349 111.412 87.1113 111.453 86.3725C111.494 85.6345 111.502 85.0514 111.485 84.6296C111.467 84.2027 111.403 83.8905 111.333 83.6956C111.251 83.4689 111.082 83.3269 110.93 83.2794C110.763 83.227 110.544 83.2045 110.293 83.2047C110.176 83.2049 110.042 83.1538 109.941 83.0745C109.824 82.9835 109.72 82.8803 109.673 82.7584C109.585 82.5339 109.655 82.417 109.907 82.4168C109.974 82.4166 110.125 82.4249 110.309 82.4363C110.527 82.4495 110.745 82.4559 110.962 82.4557C111.18 82.4553 111.415 82.4625 111.666 82.4747C111.917 82.4872 112.135 82.4944 112.337 82.4942C112.705 82.4936 113.023 82.4876 113.275 82.4729C113.543 82.457 113.778 82.452 114.012 82.4518C114.113 82.4516 114.246 82.4582 114.314 82.4714C114.397 82.488 114.479 82.5527 114.532 82.6771C114.596 82.8287 114.633 83.0888 114.634 83.4656C114.634 83.8372 114.609 84.3991 114.552 85.148C114.494 85.9009 114.386 86.8812 114.287 88.0918C114.188 89.3021 114.07 90.824 113.941 92.6474C113.889 93.3755 113.875 93.9786 113.927 94.4656C113.977 94.9477 114.056 95.3463 114.179 95.6453C114.426 96.2451 114.801 96.5437 115.32 96.543C115.907 96.5422 116.54 96.2763 117.196 95.7672C117.862 95.2501 118.483 94.5845 119.053 93.746C119.621 92.9106 120.122 91.9626 120.524 90.8964C120.924 89.8369 121.187 88.7505 121.257 87.6509Z" fill="#463A3A"/>
<path fill-rule="evenodd" clip-rule="evenodd" d="M67.3865 63.8894C67.52 63.9151 67.6735 63.9474 67.8469 63.9861C68.0205 64.0245 68.2007 64.0568 68.3875 64.0825C68.6811 64.1596 68.8278 64.3399 68.8278 64.6229C68.8278 64.7772 68.7678 64.9187 68.6478 65.0474C68.5276 65.1761 68.3875 65.2405 68.2272 65.2405L68.0271 65.202C67.2796 65.0218 66.4789 64.9318 65.6248 64.9318C64.7972 64.9318 64.0098 65.0218 63.2625 65.202L63.1023 65.2405C62.8888 65.2405 62.7287 65.1761 62.6219 65.0474C62.5152 64.9187 62.4618 64.7772 62.4618 64.6229C62.4618 64.3399 62.5952 64.1596 62.8621 64.0825C63.0757 64.031 63.2759 63.9796 63.4627 63.9281C63.6496 63.8766 63.7963 63.851 63.903 63.851V50.5722C62.8888 52.3993 61.8678 54.2136 60.8401 56.015C59.8125 57.8162 58.7915 59.6433 57.7773 61.4963V63.8894C57.9374 63.941 58.0975 63.973 58.2577 63.9861C58.4178 63.9989 58.5779 64.0181 58.7381 64.044C59.0584 64.1212 59.2187 64.314 59.2187 64.6229C59.2187 64.7772 59.1519 64.9187 59.0184 65.0474C58.885 65.1761 58.7381 65.2405 58.5779 65.2405L58.4178 65.202C57.6705 65.0218 56.8696 64.9318 56.0155 64.9318C55.6152 64.9318 55.2215 64.951 54.8344 64.9897C54.4473 65.0282 54.0271 65.1118 53.5731 65.2405C53.3329 65.2405 53.1461 65.1761 53.0127 65.0474C52.8792 64.9187 52.8124 64.7772 52.8124 64.6229C52.8124 64.314 52.9725 64.1212 53.2928 64.044C53.4798 64.0181 53.66 63.9925 53.8334 63.9666C54.007 63.941 54.1471 63.9151 54.2538 63.8894V41.2695C53.9069 41.218 53.5998 41.1537 53.3329 41.0765C52.986 41.0765 52.8124 40.8835 52.8124 40.4974C52.8124 40.1113 53.0795 39.9185 53.6133 39.9185C54.3873 40.0985 55.1882 40.1885 56.0155 40.1885C56.8429 40.1885 57.6837 40.0985 58.538 39.9185C58.9917 39.9185 59.2187 40.1113 59.2187 40.4974C59.2187 40.8835 59.0584 41.0765 58.7381 41.0765C58.6046 41.1278 58.4646 41.1665 58.3177 41.1922C58.171 41.218 57.9908 41.2437 57.7773 41.2695V54.162C58.7915 52.3865 59.8125 50.6173 60.8401 48.8545C61.8678 47.0918 62.8888 45.3224 63.903 43.5468V41.308C63.5294 41.2824 63.2091 41.2052 62.9422 41.0765C62.6219 41.0765 62.4618 40.8835 62.4618 40.4974C62.4618 40.1113 62.7287 39.9185 63.2625 39.9185C64.0098 40.0985 64.7972 40.1885 65.6248 40.1885C66.4789 40.1885 67.2796 40.0985 68.0271 39.9185H68.2272C68.6277 39.9185 68.8278 40.1113 68.8278 40.4974C68.8278 40.8835 68.6676 41.0765 68.3473 41.0765C68.0805 41.1793 67.7602 41.2565 67.3865 41.308V63.8894ZM85.4899 63.8894C85.757 63.941 86.0905 64.0053 86.4909 64.0825C86.7847 64.1596 86.9314 64.3399 86.9314 64.6229C86.9314 64.7772 86.8713 64.9187 86.7511 65.0474C86.6311 65.1761 86.4909 65.2405 86.3307 65.2405L86.1307 65.202C85.3834 65.0218 84.5825 64.9318 83.7284 64.9318C82.9275 64.9318 82.1401 65.0218 81.3661 65.202L81.2059 65.2405C80.9924 65.2405 80.8323 65.1761 80.7255 65.0474C80.6188 64.9187 80.5654 64.7772 80.5654 64.6229C80.5654 64.3399 80.6988 64.1596 80.9657 64.0825C81.1792 64.031 81.3795 63.9796 81.5663 63.9281C81.7532 63.8766 81.8999 63.851 82.0066 63.851V52.4636H75.8808V63.8894C76.1477 63.941 76.4812 64.0053 76.8818 64.0825C77.1754 64.1596 77.3221 64.3399 77.3221 64.6229C77.3221 64.7772 77.2687 64.9187 77.1619 65.0474C77.0552 65.1761 76.895 65.2405 76.6815 65.2405L76.4812 65.202C75.7606 65.0218 74.9866 64.9318 74.1593 64.9318C73.3317 64.9318 72.531 65.0218 71.7568 65.202L71.5967 65.2405C71.3831 65.2405 71.223 65.1761 71.1162 65.0474C71.0095 64.9187 70.9561 64.7772 70.9561 64.6229C70.9561 64.3399 71.0896 64.1596 71.3564 64.0825C71.57 64.031 71.7702 63.9796 71.9571 63.9281C72.1439 63.8766 72.2908 63.851 72.3973 63.851V41.308C72.0237 41.2824 71.7034 41.2052 71.4365 41.0765C71.1162 41.0765 70.9561 40.8835 70.9561 40.4974C70.9561 40.1113 71.223 39.9185 71.7568 39.9185C72.531 40.0985 73.3317 40.1885 74.1593 40.1885C74.9866 40.1885 75.7606 40.0985 76.4812 39.9185H76.7217C77.122 39.9185 77.3221 40.1113 77.3221 40.4974C77.3221 40.8835 77.1619 41.0765 76.8417 41.0765C76.5748 41.1793 76.2545 41.2565 75.8808 41.308V49.0281H82.0066V41.308C81.633 41.2824 81.3127 41.2052 81.0458 41.0765C80.7255 41.0765 80.5654 40.8835 80.5654 40.4974C80.5654 40.1113 80.8323 39.9185 81.3661 39.9185C82.1401 40.0985 82.9275 40.1885 83.7284 40.1885C84.5825 40.1885 85.3834 40.0985 86.1307 39.9185H86.3307C86.7313 39.9185 86.9314 40.1113 86.9314 40.4974C86.9314 40.8835 86.7712 41.0765 86.4509 41.0765C86.184 41.1793 85.8638 41.2565 85.4899 41.308V63.8894ZM102.112 43.8557C102.112 44.1644 102.059 44.5892 101.952 45.1296C101.845 45.67 101.665 46.2425 101.412 46.8472C101.158 47.452 100.824 48.0567 100.411 48.6615C99.9968 49.2663 99.4963 49.7874 98.9092 50.2248C100.27 51.563 101.285 53.0876 101.952 54.7991C102.619 56.5103 102.98 58.3438 103.033 60.2996C103.033 60.9687 102.906 61.5863 102.653 62.1526C102.399 62.7186 102.046 63.2139 101.592 63.6385C101.138 64.0632 100.611 64.3978 100.01 64.6421C99.4096 64.8867 98.7757 65.009 98.1083 65.009H90.5009C90.4742 65.0861 90.461 65.2148 90.461 65.3948C90.3809 65.7809 90.1806 65.9739 89.8604 65.9739C89.7002 65.9739 89.5533 65.9096 89.4199 65.7809C89.2864 65.6522 89.2198 65.4592 89.2198 65.202C89.3266 64.8159 89.38 64.3655 89.38 63.851C89.38 62.7958 89.1931 61.7665 88.8195 60.7628C88.7661 60.7113 88.746 60.6728 88.7593 60.647C88.7727 60.6213 88.7793 60.5826 88.7793 60.5313C88.7793 60.3253 88.8462 60.1773 88.9794 60.0873C89.1131 59.9973 89.2732 59.9522 89.46 59.9522C89.7536 59.9522 89.9539 60.0809 90.0606 60.3383C90.0606 60.4411 90.0739 60.5377 90.1006 60.6277C90.1273 60.7177 90.154 60.8144 90.1806 60.9172C90.234 61.0459 90.2673 61.1553 90.2808 61.2453C90.294 61.3353 90.3275 61.4576 90.3809 61.6119H97.9481C98.3752 61.6119 98.6954 61.4899 98.9092 61.2453C99.1227 61.0008 99.2427 60.6857 99.2694 60.2996C99.2961 59.5533 99.2228 58.7555 99.0492 57.9064C98.8757 57.0571 98.6222 56.2465 98.2885 55.4746C97.9548 54.7024 97.5343 54.0077 97.0272 53.3901C96.5201 52.7725 95.933 52.3221 95.2655 52.0391C94.625 52.0391 93.9844 52.0327 93.3437 52.0198C92.7031 52.0068 92.0626 52.0004 91.4218 52.0004L91.4619 52.0391C91.4619 52.0906 91.4353 52.1934 91.3819 52.3478C91.3285 52.5023 91.2751 52.6695 91.2218 52.8497C91.0883 53.1584 90.8748 53.3129 90.5812 53.3129C90.4209 53.3129 90.2808 53.2486 90.1608 53.1199C90.0406 52.9912 89.9806 52.8625 89.9806 52.7338L90.0205 52.5795C90.2607 51.9619 90.3809 51.0998 90.3809 49.9933C90.3809 49.7616 90.3743 49.5365 90.3609 49.3178C90.3476 49.0989 90.3275 48.8738 90.3008 48.6423L90.2607 48.4492C90.2607 48.2434 90.3275 48.0952 90.461 48.0052C90.5944 47.9152 90.7413 47.8701 90.9015 47.8701C91.2484 47.8701 91.4485 48.0375 91.5019 48.3721C91.5286 48.4749 91.5486 48.5392 91.5621 48.5649C91.5753 48.5907 91.5687 48.6551 91.542 48.7579H94.9452C95.399 48.6551 95.8395 48.417 96.2665 48.0439C96.6935 47.6707 97.0674 47.2397 97.3876 46.7508C97.7079 46.2617 97.9682 45.7536 98.1683 45.226C98.3686 44.6984 98.4687 44.2418 98.4687 43.8557C98.4687 43.6499 98.3218 43.5468 98.0282 43.5468H91.1015C91.0748 43.7012 91.0482 43.8235 91.0215 43.9137C90.9948 44.0037 90.9548 44.1001 90.9015 44.2031C90.8748 44.3059 90.8481 44.4026 90.8212 44.4926C90.7947 44.5828 90.7678 44.6792 90.7413 44.782C90.6344 45.0394 90.4208 45.1681 90.1006 45.1681C89.7002 45.1681 89.5 44.975 89.5 44.5892C89.5 44.4605 89.5134 44.3833 89.5401 44.3575C89.8871 43.3797 90.0606 42.3632 90.0606 41.308C90.0606 41.0506 90.054 40.7997 90.0406 40.5553C90.0271 40.3108 89.9938 40.06 89.9404 39.8026C89.9404 39.5968 90.0004 39.4422 90.1206 39.3394C90.2408 39.2364 90.3809 39.1851 90.5411 39.1851C90.888 39.1851 91.1015 39.3522 91.1816 39.6868L91.2218 40.1113H98.0282C98.562 40.1113 99.0759 40.208 99.5698 40.401C100.063 40.594 100.497 40.8512 100.871 41.1729C101.245 41.4946 101.545 41.8871 101.772 42.3504C101.999 42.8134 102.112 43.3153 102.112 43.8557Z" fill="#463A3A"/>
<path fill-rule="evenodd" clip-rule="evenodd" d="M49.0317 63.5802C49.1916 63.6122 49.3997 63.6524 49.6557 63.7004C49.9118 63.7484 50.1839 63.8042 50.4719 63.8684C50.7919 63.9644 50.9519 64.1884 50.9519 64.5404C50.9519 64.7324 50.8958 64.9085 50.7839 65.0686C50.6719 65.2285 50.4878 65.3086 50.2319 65.3086L50.0399 65.2606C49.1436 65.0365 48.1995 64.9244 47.2075 64.9244C46.7593 64.9244 46.3112 64.9405 45.8633 64.9726C45.4151 65.0044 44.9831 65.0686 44.5671 65.1646C44.5671 65.2606 44.535 65.3086 44.4711 65.3086C44.4069 65.3086 44.2791 65.3086 44.0871 65.3086C43.8949 65.3086 43.7269 65.2285 43.5829 65.0686C43.4389 64.9085 43.3669 64.7324 43.3669 64.5404C43.3669 64.1564 43.575 63.9164 43.9909 63.8204C44.0871 63.7883 44.1429 63.7724 44.1591 63.7724C44.175 63.7724 44.2629 63.7562 44.4231 63.7244C43.7829 62.4762 43.1668 61.3 42.5749 60.1958C41.9827 59.0916 41.3987 58.0035 40.8225 56.9314C40.2465 55.8592 39.6624 54.7631 39.0703 53.643C38.4781 52.5228 37.8622 51.3386 37.2221 50.0904V63.6764C37.382 63.7403 37.55 63.7724 37.7261 63.7724C37.9021 63.7724 38.1022 63.7883 38.3263 63.8204C38.7103 63.9164 38.9023 64.1564 38.9023 64.5404C38.9023 64.7324 38.8383 64.9085 38.7103 65.0686C38.5822 65.2285 38.3902 65.3086 38.1341 65.3086L37.8941 65.2606C37.0301 65.0365 36.1019 64.9244 35.1097 64.9244C34.1176 64.9244 33.1574 65.0365 32.2293 65.2606L32.0373 65.3086C31.7813 65.3086 31.5972 65.2285 31.4853 65.0686C31.3733 64.9085 31.3173 64.7324 31.3173 64.5404C31.3173 64.1564 31.4772 63.9164 31.7973 63.8204C32.0213 63.7883 32.2214 63.7643 32.3973 63.7484C32.5733 63.7323 32.7734 63.6923 32.9975 63.6284V35.4964C32.6453 35.4964 32.2613 35.4165 31.8453 35.2564C31.4931 35.2564 31.3173 35.0164 31.3173 34.5364C31.3173 34.2802 31.3812 34.0963 31.5093 33.9842C31.6373 33.8722 31.8773 33.8162 32.2293 33.8162C33.1574 34.0402 34.1176 34.1522 35.1097 34.1522C36.1019 34.1522 37.0301 34.0402 37.8941 33.8162H38.1823C38.6623 33.8162 38.9023 34.0562 38.9023 34.5364C38.9023 35.0164 38.7103 35.2564 38.3263 35.2564C38.0062 35.3524 37.6381 35.4324 37.2221 35.4964V41.0652C37.5101 41.5452 37.7501 41.9852 37.9421 42.3854C38.1341 42.7855 38.3743 43.2574 38.6623 43.8016C39.4944 42.3614 40.3265 40.9452 41.1585 39.553C41.9906 38.1608 42.8227 36.7446 43.6549 35.3044C43.5909 35.2723 43.5589 35.2644 43.5589 35.2804C43.5589 35.2965 43.5268 35.2884 43.4629 35.2564C43.0149 35.1924 42.7909 34.9524 42.7909 34.5364C42.7909 34.0562 43.1109 33.8162 43.7509 33.8162C44.679 34.0402 45.6392 34.1522 46.6313 34.1522C47.5594 34.1522 48.5676 34.0402 49.6557 33.8162C50.1998 33.8162 50.4719 34.0562 50.4719 34.5364C50.4719 35.0164 50.2637 35.2564 49.8479 35.2564C49.5278 35.3844 49.0637 35.4804 48.4557 35.5444C47.1754 37.6568 45.9272 39.753 44.7111 41.8334C43.4949 43.9135 42.2467 46.0098 40.9665 48.1222L49.0317 63.5802Z" fill="#463A3A"/>
<path fill-rule="evenodd" clip-rule="evenodd" d="M110.002 43.6626C111.017 44.0743 111.831 44.7498 112.445 45.6891C113.059 46.6284 113.579 47.7413 114.006 49.028H110.002V43.6626ZM106.479 63.8893C106.319 63.9409 106.165 63.9729 106.018 63.986C105.872 63.9988 105.718 64.018 105.558 64.0439C105.238 64.1211 105.078 64.3139 105.078 64.6228C105.078 64.7771 105.151 64.9253 105.298 65.0668C105.445 65.2083 105.625 65.2532 105.838 65.2019C106.586 65.0217 107.386 64.9317 108.241 64.9317C108.614 64.9317 109.008 64.9509 109.422 64.9896C109.835 65.0281 110.243 65.0989 110.643 65.2019L110.803 65.2404C111.017 65.2404 111.17 65.176 111.263 65.0473C111.357 64.9186 111.404 64.7771 111.404 64.6228C111.404 64.3139 111.27 64.1211 111.003 64.0439C110.816 64.018 110.65 63.9988 110.503 63.986C110.356 63.9729 110.189 63.9409 110.002 63.8893V52.4635H114.967C115.047 52.7466 115.121 53.0362 115.187 53.3321C115.254 53.6279 115.328 53.9176 115.408 54.2006C115.808 55.9247 116.235 57.6361 116.689 59.3345C117.143 61.0329 117.796 62.6027 118.651 64.0439H118.37C118.077 64.1211 117.93 64.3139 117.93 64.6228C117.93 64.7771 117.983 64.9186 118.09 65.0473C118.197 65.176 118.344 65.2404 118.531 65.2404L118.731 65.2019C119.451 65.0217 120.226 64.9317 121.053 64.9317C121.907 64.9317 122.708 65.0217 123.455 65.2019L123.615 65.2404C123.829 65.2404 123.989 65.176 124.096 65.0473C124.203 64.9186 124.256 64.7771 124.256 64.6228C124.256 64.3139 124.109 64.1211 123.816 64.0439C123.736 64.0439 123.629 64.0308 123.495 64.0052C123.362 63.9795 123.235 63.9601 123.115 63.9473C122.995 63.9344 122.901 63.9216 122.835 63.9086C122.768 63.8957 122.775 63.8893 122.855 63.8893C122.321 63.2718 121.847 62.5575 121.433 61.7469C121.02 60.9363 120.653 60.0808 120.332 59.18C120.012 58.2794 119.738 57.3401 119.511 56.3623C119.285 55.3843 119.064 54.4193 118.851 53.4672C118.45 51.7688 118.03 50.1219 117.59 48.5263C117.149 46.9307 116.562 45.5025 115.828 44.2417C115.094 42.9807 114.133 41.9514 112.945 41.1536C111.757 40.3558 110.229 39.9054 108.361 39.8025H108.401C108.241 39.7767 108.081 39.7639 107.92 39.7639C107.76 39.7639 107.6 39.751 107.44 39.7254C107.173 39.6995 106.913 39.6674 106.659 39.6288C106.406 39.5903 106.105 39.5452 105.758 39.4937C105.598 39.4937 105.445 39.558 105.298 39.6867C105.151 39.8154 105.078 39.9441 105.078 40.0728C105.078 40.4073 105.251 40.6132 105.598 40.6903H105.558C105.878 40.7675 106.185 40.8319 106.479 40.8834V63.8893Z" fill="#463A3A"/>
<path d="M134.173 52.2409C134.217 51.5742 134.244 51.0142 134.211 50.5582C134.178 50.1069 134.121 49.7755 134.033 49.5698C134.009 49.5121 134.005 49.4701 134.005 49.4327C134.005 49.395 134.043 49.3698 134.127 49.3487C134.221 49.3249 134.36 49.3149 134.575 49.3149C134.79 49.3149 135.089 49.3149 135.463 49.3149C135.584 49.3149 135.687 49.3253 135.78 49.3487C135.855 49.3673 135.912 49.4095 135.929 49.4633C135.959 49.5506 135.981 49.6869 135.967 49.8918C135.953 50.0931 135.944 50.4065 135.911 50.8325C135.878 51.255 135.841 51.8128 135.789 52.504C135.738 53.1932 135.645 54.0576 135.575 55.1051C135.542 55.5891 135.547 55.9675 135.565 56.2333C135.584 56.4965 135.62 56.7013 135.677 56.8381C135.742 56.9924 135.808 57.0764 135.902 57.0986C135.986 57.1184 136.079 57.1294 136.163 57.1294C136.425 57.1294 136.695 56.9943 136.994 56.7346C137.302 56.468 137.527 56.0837 137.742 55.6062C137.77 55.5427 137.817 55.5193 137.873 55.5193C138.013 55.5193 138.116 55.5951 138.171 55.7293C138.19 55.7742 138.19 55.7995 138.19 55.8162C138.162 55.9675 138.068 56.2108 137.919 56.5358C137.769 56.8631 137.558 57.1989 137.303 57.5186C137.035 57.8541 136.734 58.1279 136.387 58.3724C136.043 58.6151 135.687 58.7392 135.294 58.7392C134.939 58.7392 134.668 58.6635 134.482 58.5096C134.295 58.3557 134.151 58.149 134.052 57.9021C133.917 57.5666 133.846 57.1853 133.856 56.7458C133.865 56.3062 133.865 55.8638 133.912 55.4186C133.893 55.4186 133.884 55.4103 133.874 55.3962C133.828 55.3683 133.8 55.3542 133.781 55.3542C133.772 55.3542 133.753 55.3627 133.744 55.3739C133.725 55.5026 133.644 55.67 133.501 55.8779C133.354 56.0899 133.152 56.3088 132.94 56.5553C132.731 56.7988 132.498 57.0415 132.221 57.2974C131.956 57.5426 131.679 57.7762 131.39 57.9777C131.1 58.1792 130.819 58.3399 130.54 58.4676C130.268 58.5919 130.007 58.6553 129.783 58.6553C129.437 58.6553 129.178 58.5764 128.989 58.4256C128.795 58.2713 128.65 58.0712 128.55 57.8208C128.416 57.4861 128.335 57.0986 128.344 56.6589C128.354 56.2222 128.372 55.7798 128.41 55.3346C128.485 54.4414 128.55 53.6883 128.596 53.0668C128.643 52.448 128.685 51.933 128.709 51.5213C128.732 51.11 128.737 50.7849 128.727 50.5497C128.718 50.3118 128.682 50.1376 128.643 50.0289C128.598 49.9025 128.504 49.8233 128.419 49.7966C128.326 49.7672 128.204 49.7546 128.064 49.7546C127.999 49.7546 127.924 49.726 127.868 49.6818C127.803 49.6309 127.745 49.5734 127.718 49.5053C127.67 49.3801 127.709 49.3149 127.849 49.3149C127.887 49.3149 127.971 49.3197 128.073 49.3261C128.195 49.3338 128.316 49.3373 128.438 49.3373C128.559 49.3373 128.69 49.3416 128.83 49.3487C128.97 49.3555 129.092 49.3598 129.204 49.3598C129.409 49.3598 129.587 49.3567 129.727 49.3487C129.876 49.34 130.007 49.3373 130.138 49.3373C130.194 49.3373 130.268 49.341 130.306 49.3487C130.353 49.358 130.398 49.394 130.428 49.4633C130.463 49.5479 130.484 49.6929 130.484 49.9029C130.484 50.1102 130.47 50.4233 130.437 50.841C130.404 51.2606 130.343 51.8068 130.287 52.4817C130.231 53.1564 130.165 54.0046 130.091 55.0211C130.062 55.4269 130.054 55.7631 130.082 56.0345C130.11 56.3033 130.154 56.5257 130.222 56.6926C130.359 57.027 130.568 57.1937 130.857 57.1937C131.184 57.1937 131.537 57.0458 131.903 56.7626C132.275 56.4748 132.622 56.1042 132.94 55.6371C133.257 55.1717 133.537 54.6435 133.762 54.0495C133.986 53.4591 134.133 52.8537 134.173 52.2409Z" fill="#463A3A"/>
</g>
<defs>
<clipPath id="clip0_282_8100">
<rect width="150" height="150" rx="30" fill="white"/>
</clipPath>
</defs>
</svg>
