<svg width="150" height="150" fill="none" xmlns="http://www.w3.org/2000/svg"><path fill-rule="evenodd" clip-rule="evenodd" d="M66.972 16.189c-.31.497-1.253 1.403-2.488 2.39a39.525 39.525 0 00-2.216 1.978c-1.26 1.214-1.363 1.237-.564.123.364-.507.4-.61.227-.646-.243-.052-1.325 1.101-1.795 1.912-.173.298-.716 1.403-1.207 2.455-1.023 2.195-1.686 3.19-2.67 4.01-.382.32-1.025.89-1.43 1.27s-.88.727-1.055.771c-.243.062-.319.156-.32.399 0 .182-.184.549-.426.854-.535.674-1.212 2.035-1.443 2.9-.096.365-.176 1.1-.177 1.635-.002 1.258.347 2.034 1.113 2.473.442.253.662.293 1.597.287 2.255-.013 4.091-.757 9.081-3.679.856-.5.903-.513 1.447-.39.309.07.882.246 1.275.391 1.874.694 3.723.61 6.387-.288 1.438-.486 1.746-.549 2.68-.549 1.393 0 1.202-.223-.34-.397-.946-.107-1.064-.143-.747-.226a.737.737 0 00.529-.465c.197-.476.089-.568-.304-.259-.287.226-.728.348-2.027.562-.428.07-.459.056-.422-.196.033-.23.214-.324 1.184-.615.63-.188 1.486-.376 1.903-.416.416-.04.784-.117.817-.17.112-.181-1.191-.47-2.117-.47-1.143 0-1.877.212-2.934.85-1.246.752-1.988.97-3.514 1.035l-1.326.057.542-.493c2.343-2.127 8.132-4.866 9.87-4.67.43.049.626.004.97-.223.628-.415 1.854-.7 2.593-.6.335.044.745.07.91.058.95-.071 3.231-.007 4.22.118 2.364.3 2.713.465 7.053 3.358 4.311 2.874 6.87 4.401 9.64 5.757 3.645 1.784 6.447 2.737 9.784 3.33 1.299.23 1.96.274 4.138.27 3.512-.006 6.44-.4 11.571-1.553 1.293-.29 3.001-.646 3.797-.79.795-.144 1.63-.367 1.854-.495.979-.56 4.362-1.185 6.417-1.186 2.422-.001 4.362.516 6.253 1.666 1.435.873 1.894 1.069 2.078.885.166-.166.258-.093-1.071-.846-4.171-2.363-7.781-3.127-11.677-2.472-1.353.227-1.865.171-1.865-.206 0-.388.519-.805 1.277-1.026.558-.162.981-.188 2.092-.131.765.04 1.554.105 1.753.145l.362.074-.301-.248c-1.025-.842-3.505-1.045-5.424-.445-2.236.7-4.46 1.04-4.46.683 0-.05.651-.27 1.446-.486.796-.217 1.447-.442 1.447-.501 0-.15-.088-.14-1.287.151-.585.142-1.471.262-1.968.267-.822.009-1.005-.037-2.027-.511-1.057-.49-1.175-.519-1.989-.474-.79.043-1.05.135-2.975 1.052-2.902 1.382-5.051 2.326-5.192 2.279-.064-.022 1.214-.769 2.841-1.66 1.627-.891 2.941-1.672 2.92-1.735-.021-.064-.305-.183-.631-.266-.774-.196-1.264-.722-1.262-1.352.001-.247.042-.512.091-.588.176-.275 2.148-1.383 2.796-1.571.628-.183.749-.18 2.272.075.886.147 1.637.24 1.67.207.091-.091-.472-.43-1.131-.681-1.452-.552-4.761-.64-6.001-.16-.517.2-1.798.9-3.599 1.97l-.465.277.184-.357c.102-.197.518-.591.925-.877.407-.285.716-.543.687-.572-.078-.078-5.013 1.038-5.506 1.245-.338.141-.554.151-1.085.05a29.71 29.71 0 00-1.804-.256c-.627-.07-1.165-.153-1.196-.183-.162-.162.931-.654 1.456-.656.112 0 .233-.048.269-.106.108-.175-1.137-.244-2.1-.116-.507.067-2.174.534-3.797 1.063-4.186 1.364-5.252 1.614-6.87 1.61-1.99-.004-2.698-.322-6.283-2.823-1.456-1.015-1.731-1.258-1.899-1.676-.107-.27-.195-.537-.195-.594 0-.212.773-.207 1.788.01 1.413.304 4.043.404 6.096.231.922-.078 1.735-.18 1.808-.226.072-.047-.79-.194-1.916-.327-1.788-.211-2.053-.27-2.09-.465-.04-.209.028-.218 1.082-.14 1.223.091 3.088-.072 4.236-.37.835-.216 2.08-.748 1.981-.846-.037-.038-.865.158-1.84.435-1.221.347-1.809.464-1.895.378-.086-.086-.017-.149.224-.202 1.489-.33 2.335-.691 3.604-1.536.88-.586 4.446-4.189 4.295-4.34-.059-.058-.289-.088-.512-.067-.36.034-.483.154-1.095 1.064-1.199 1.784-2.754 2.968-4.965 3.782-1.073.395-.858.384-6.16.303-1.895-.029-2.194-.002-3.959.353-2.707.545-4.416.508-5.033-.11-.13-.13-.412-.267-.625-.304-.214-.038-1.5-.438-2.86-.89-3.589-1.192-4.011-1.267-7.11-1.26-2.352.005-2.736.036-4.14.334-2.442.52-4.694 1.326-7.158 2.562-1.208.607-2.224 1.076-2.257 1.042-.034-.033.05-.26.188-.504.3-.536 1.69-1.5 3.043-2.112 2.03-.918 3.538-2.241 4.65-4.077.152-.252.248-.487.212-.523-.035-.036-.546.345-1.134.845-1.185 1.008-1.975 1.436-2.373 1.285-.158-.06-.238-.18-.213-.32.04-.226.152-.355 2.095-2.412.966-1.021 1.386-1.63 1.595-2.305.125-.403-.117-.33-.398.12zm-15.64 3.316c.035.116.127.468.204.783.17.696.415.743.518.099.106-.665-.079-1.093-.472-1.093-.241 0-.298.048-.25.21zm1.648.203c-.193.232-.006 1.213.23 1.213.207 0 .41-.716.312-1.104-.08-.319-.327-.368-.542-.109zm-2.957.422c-.082.256.464 1.454.662 1.454.25 0 .015-1.406-.264-1.583-.24-.152-.317-.127-.398.13zm4.42.032c-.079.08-.144.405-.144.723 0 .757.267.775.549.037.167-.438.177-.575.055-.723-.182-.22-.27-.227-.46-.037zm-5.568 1.08c0 .32.552 1.066.79 1.066.222 0 .22-.14-.011-.693-.27-.648-.779-.892-.779-.374zm6.645.023c-.195.234-.323 1.284-.157 1.284.195 0 .78-1.06.7-1.267-.086-.224-.365-.233-.544-.017zm-7.489 1.213c0 .336.91 1.14 1.087.96.17-.169-.561-1.25-.846-1.25-.174 0-.24.08-.24.29zm8.212.112c-.227.274-.312.924-.12.921.223-.002.704-.71.625-.917-.081-.211-.33-.213-.505-.004zm45.667 1.158c-.479.255-1.165.94-.815.814.115-.042.685-.221 1.266-.4 1.212-.372 1.23-.382.992-.533-.286-.18-.988-.123-1.443.12zm-54.12.292c0 .234.946.833 1.176.744.154-.059.114-.151-.215-.49-.408-.422-.96-.568-.96-.254zm-2.83.31c-.087.276.483 1.213.737 1.213.198 0 .2-.044.034-.663-.186-.694-.626-1.007-.771-.55zm-1.505.218c.003.23.768 1.116.962 1.116.18 0 .146-.18-.146-.78-.2-.413-.333-.547-.542-.547-.185 0-.277.07-.274.211zm2.978.302c-.073.208.415 1.188.566 1.138.116-.039.108-1.006-.01-1.198-.092-.148-.5-.104-.556.06zm-4.394.174c-.091.24.862 1.121 1.213 1.122.19 0 .163-.082-.181-.56-.459-.636-.909-.882-1.032-.562zm5.745.717c-.066.175-.092.347-.057.382.035.035.34-.065.676-.223.493-.23.57-.304.392-.374-.5-.196-.886-.114-1.01.215zm-6.984.346c0 .1.176.292.391.425.939.58 1.513.385.677-.23-.55-.404-1.069-.5-1.069-.195zm58.712.123c-.358.166-.62.334-.581.372.133.133 2.135-.097 2.135-.245 0-.498-.644-.55-1.554-.127zm-59.196 1.38c.07.131.222.29.338.35.339.182 1.11.296 1.11.165 0-.207-.905-.753-1.246-.753-.291 0-.315.028-.202.238zm-.12 1.513c0 .225.478.419 1.033.419.53 0 .527-.143-.012-.4s-1.02-.266-1.02-.02zm.332 1.225c-.116.03-.21.133-.21.227 0 .13.177.172.723.172.397 0 .723-.03.723-.066 0-.079-.795-.422-.93-.402-.052.008-.19.039-.306.07zm.874 1.545c0 .195.321.231.95.105.601-.12.435-.286-.287-.286-.509 0-.663.042-.663.18zm1.473.73c-.328.23-.337.423-.037.794.285.351.328.31.435-.409.091-.615.024-.68-.398-.385zm-1.781.709c-.221.163-.202.187.344.43.757.337.918.264.47-.215-.408-.438-.485-.458-.814-.215zm-1.299.63c-.285.286.289.644 1.03.644.44 0 .345-.17-.27-.484-.504-.258-.634-.285-.76-.16zm-1.004 1.194c-.106.276.063.38.773.474.84.11.866-.161.044-.453-.717-.255-.727-.256-.817-.02zm-.643 1.41c0 .373.33.5.853.327.605-.2.718-.358.254-.358a4.5 4.5 0 01-.73-.076c-.289-.057-.377-.032-.377.106zm96.766.978c-1.129.19-1.191.362-.098.273.497-.04 1.907-.107 3.134-.15 1.226-.042 2.311-.123 2.41-.179.27-.152-4.506-.103-5.446.056zm-95.922.383c-.1.021-.385.072-.633.112-.635.104-.616.425.024.425.562 0 1.09-.214 1.09-.442 0-.156-.1-.175-.481-.095zm104.02.013c0 .099.915.896 1.254 1.092.35.203.756.19.839-.026.051-.133-.188-.31-.889-.663-.938-.472-1.204-.561-1.204-.403zM39.282 39.3c-.49.118-.652.226-.652.437 0 .245.41.215.969-.07.763-.39.595-.584-.317-.366zm27.08-.006c-.227.04-.435.145-.464.232-.04.119.104.148.592.12.5-.029.653-.084.684-.248.043-.225-.068-.239-.812-.104zm27.029.087c-.121.315.118 1.065.353 1.11.175.033.21-.05.21-.487 0-.683-.38-1.102-.563-.623zm1.528.59c0 .583.03.663.241.663.212 0 .241-.08.241-.663 0-.583-.029-.663-.24-.663-.213 0-.242.08-.242.663zm-2.955-.057c-.14.225.316 1.202.56 1.202.274 0 .276-.049.033-.762-.181-.534-.424-.714-.593-.44zm4.43.147c-.068.083-.143.409-.167.724-.036.471-.008.573.156.573.263 0 .605-.96.445-1.246-.135-.24-.269-.256-.435-.05zm-56.31.423c-.541.274-.617.512-.164.512.21 0 .511-.141.764-.357.41-.35.412-.357.116-.362-.166-.002-.488.09-.716.207zm26.992.21c.395.226.897.226 1.085 0 .13-.157.051-.18-.618-.176-.727.004-.752.013-.467.176zm23.757.171c-.14.088-.111.206.156.662.178.304.403.554.5.554.23 0 .222-.113-.061-.774-.246-.573-.311-.621-.595-.442zm-49.533.373c-.562.407-.634.602-.223.602.251 0 1.048-.67 1.048-.88 0-.185-.35-.067-.825.278zm56.044.173c-.17.673-.17.67.037.67.246 0 .672-.584.672-.92 0-.22-.066-.286-.287-.286-.239 0-.31.09-.422.536zm5.129.037c-.123.208-.217 1.356-.111 1.356.307 0 .805-.931.677-1.265-.072-.187-.47-.252-.566-.091zm1.499.342c-.14.178-.254.393-.254.478a1.2 1.2 0 01-.073.346c-.143.371.369.196.656-.225.463-.68.164-1.226-.329-.599zm-2.95.08a3.57 3.57 0 00-.075.723c-.001.367.043.452.231.452.185 0 .253-.126.34-.633.059-.348.087-.673.062-.723-.102-.201-.489-.076-.558.18zm-33.878-.058c-.154.154-.04.256.49.436.632.216.988.125.739-.189-.15-.188-1.097-.379-1.23-.247zm22.783.373c-.035.057.115.31.333.564.284.328.457.436.606.38.185-.072.163-.138-.18-.565-.376-.468-.626-.594-.759-.38zm15.508.047c-.141.177-.512.892-.512.988 0 .037.071.067.158.067.225 0 .927-.758.927-1s-.394-.28-.573-.055zm-38.36 1.046c0 .179.676.611.953.611.404 0 .297-.355-.165-.548-.48-.2-.787-.225-.787-.063zm39.123.392c-.629.736-.519.938.254.467.491-.3.734-.717.503-.864-.255-.161-.298-.139-.757.397zm-19.355.458c0 .065.088.336.194.603.136.34.266.485.435.485.254 0 .25-.18-.024-.9-.113-.296-.605-.45-.605-.188zm-43.392.21l-.465.173c-.235.087-.258.137-.136.285.22.264.431.22.87-.18.335-.304.358-.357.153-.352a1.56 1.56 0 00-.422.074zm41.95.124c.001.116.16.401.353.633.277.332.383.39.5.275.241-.24-.21-1.119-.574-1.119-.19 0-.282.07-.28.211zm-18.928.007c0 .21.81.867 1.07.867.425 0 .27-.372-.287-.688-.498-.282-.783-.347-.783-.18zm17.41.395c-.102.167.652.955.915.955.382 0 .358-.17-.086-.626-.46-.47-.685-.56-.828-.329zm22.799.24c-.293.348-.395.594-.248.594.234 0 1.262-.64 1.262-.786 0-.34-.673-.213-1.014.192zm-41.294.204c0 .051.138.295.306.543.214.315.395.45.603.45.451 0 .364-.312-.203-.723-.503-.364-.706-.442-.706-.27zm-21.936.48c-.513.257-.64.633-.213.633.258 0 .935-.55.935-.76 0-.142-.282-.093-.722.128zm20.731.12c.001.362.46.996.721.996.342 0 .303-.235-.127-.757-.404-.49-.594-.566-.594-.238zm-1.326.144c0 .322.227.888.4.998.43.274.52-.201.144-.768-.334-.506-.544-.595-.544-.23zm19.768-.022c0 .127 1.055.753 1.27.753.264 0 .214-.16-.162-.52-.317-.304-1.108-.47-1.108-.233zm24.257.404c-.776.452-.819.641-.12.529.453-.073 1.054-.343 1.054-.474 0-.132-.156-.429-.224-.427-.042.002-.362.169-.71.372zm-62.86.655c-.491.334-.616.78-.218.78.213 0 .973-.776.973-.993 0-.178-.308-.091-.755.213zm38.122.267c.005.22.227.398.712.569.633.224.733.228.732.034-.003-.218-.786-.694-1.142-.694-.167 0-.303.04-.302.09zm24.135.516c-.419.169-.32.358.187.358.429 0 .748-.165.748-.386 0-.127-.592-.11-.935.028zm-61.358.394c-.46.474-.514.843-.117.786.234-.034.808-.804.815-1.093.005-.214-.34-.061-.698.307zm14.682-.154c0 .274.646 1.091.813 1.027a1.07 1.07 0 01.221-.065c.19 0-.02-.399-.376-.711-.437-.384-.658-.468-.658-.251zm-10.563.721c-.068.332-.096.63-.064.663.149.15.502.043.503-.15.001-.117.035-.415.076-.664.065-.392.044-.452-.158-.452-.183 0-.26.13-.357.603zm-2.602-.272c-.556.64-.56 1.37-.005 1.017.23-.146.53-1.228.34-1.228-.083 0-.233.095-.335.211zm1.262.422c-.263.686-.25.814.077.814.157 0 .25-.16.354-.612.18-.774.177-.835-.023-.835-.09 0-.274.285-.408.633zm34.458-.109c-.207.25.084.435.816.522.985.117.73-.242-.433-.612-.146-.046-.3-.01-.383.09zm-29.404.55c-.334.593-.226 1.02.191.755.148-.094.39-.762.39-1.074 0-.314-.327-.134-.581.318zm52.913-.38c.023.05.12.294.215.542.183.474.411.585.535.262.151-.395.071-.66-.236-.777-.369-.14-.57-.151-.514-.027zm1.676.48c-.41.496-.437.58-.228.709.165.102 1.097-.885.994-1.052-.134-.217-.405-.095-.766.342zm-48.396-.058c.162.526.43.949.572.902.261-.086.234-.584-.048-.884-.354-.377-.638-.387-.524-.018zm49.723.297c-.21.254-.323.492-.263.552.194.195 1.338-.557 1.338-.88 0-.066-.159-.12-.353-.12-.261 0-.449.117-.722.448zm-54.86.607l-.17.473c-.027.078.029.207.124.286.275.229.535-.075.535-.623 0-.565-.301-.648-.488-.136zm4.14.397c.09.458.168.6.314.572.306-.058.307-.565.002-.89-.395-.42-.451-.363-.316.318zm24.517-.474c-.51.296.523.645 1.172.396.326-.125.213-.255-.344-.395-.631-.16-.556-.159-.828-.001zm27.489.12c-.183.137-.332.325-.332.42 0 .213.007.213.631-.033.49-.193.689-.351.693-.55.004-.187-.673-.074-.992.164zm-77.353.117c-2.116.174-4.963.65-9.355 1.561-4.85 1.007-4.916 1.024-6.194 1.513-1.67.639-2.984.836-5.544.831-1.928-.003-2.365-.04-3.23-.275-1.21-.329-2.117-.72-3.09-1.334-1.099-.694-1.758-1.004-1.965-.925-.34.13.149.488 1.876 1.37 3.24 1.655 5.351 2.232 8.156 2.232 1.128 0 1.988-.067 2.592-.2 1.048-.232 1.315-.245 1.744-.082.305.116.308.129.126.481-.103.2-.417.482-.697.628-.69.36-2.564.445-3.742.17-1.1-.257-1.275-.251-.913.032.85.664 2.255 1.057 3.359.94.366-.04 1.696-.295 2.956-.568 1.26-.273 2.567-.526 2.906-.561.723-.077.97.125.38.31l-1.84.575c-1.8.562-1.55.669.376.16 1-.263 1.717-.379 2.378-.383.861-.005 1.021.034 1.798.44 1.675.875 2.322.809 5.15-.528 3.114-1.472 5.304-2.397 5.304-2.242 0 .021-1.33.762-2.954 1.646-1.625.884-2.939 1.654-2.92 1.71.02.058.318.2.665.318.779.263 1.076.524 1.228 1.077.092.33.078.491-.059.7-.26.396-1.547 1.236-2.332 1.52-.963.35-2.444.342-3.617-.018-1.195-.366-1.356-.169-.27.331 1.216.561 2.54.78 4.293.71 2.204-.089 3.389-.54 5.694-2.173 1.923-1.362 4.163-2.373 5.636-2.544.578-.068.562-.056-.375.274-1.402.495-3.232 1.466-4.722 2.508a68.75 68.75 0 00-1.341.951c-.183.175.34.104 2.467-.337 2.142-.444 2.595-.5 4.152-.509.961-.005 1.951.033 2.2.086.84.178.471.534-.785.756-.666.117-.654.26.031.354 1.189.163 2.23-.071 6.148-1.387 3.526-1.185 4.422-1.373 6.194-1.3 2.3.094 3.795.77 6.504 2.939 2.401 1.923 2.369 2.594-.103 2.084-.596-.123-1.763-.258-2.591-.3-1.654-.083-4.89.124-5.403.347-.275.12-.102.15 1.184.212 1.656.08 2.893.314 2.893.547 0 .113-.452.15-1.838.15-2.475-.001-4.303.395-5.153 1.116-.248.211-.26.242-.06.175l1.283-.434c.608-.205 1.286-.349 1.627-.346.57.006.55.018-.75.453-1.945.65-2.51 1.035-4.586 3.123-1.704 1.713-2.24 2.447-1.784 2.447.447 0 .795-.306 1.423-1.25 1.328-1.996 3.069-3.152 5.776-3.837.85-.215 1.145-.235 2.133-.146.63.057 2.068.099 3.195.093 1.784-.01 2.295-.06 3.958-.39 3.085-.61 3.672-.553 6.324.629 2.911 1.296 5.315 1.868 8.293 1.97 4.192.145 7.672-.68 12.126-2.875 1.19-.587 2.217-1.066 2.282-1.066.065 0-.007.226-.16.502-.335.602-1.195 1.185-3.353 2.273-1.358.685-1.614.868-2.591 1.856-.93.94-1.942 2.362-1.68 2.362.046 0 .28-.178.52-.395.241-.218.855-.656 1.366-.974 1.014-.632 1.453-.696 1.52-.22.031.217-.24.565-1.219 1.567-1.198 1.225-2.617 2.998-2.617 3.27 0 .296.376.09.707-.385.44-.632 1.16-1.318 2.186-2.085 1.641-1.225 2.792-2.35 3.512-3.434.11-.164.23-.268.267-.232.038.036-.198.468-.525.959-.326.49-.57.915-.543.943.028.028.229-.054.447-.182.669-.39 1.486-1.542 2.154-3.036 1.481-3.31 2.08-4.24 3.402-5.278a23.57 23.57 0 001.495-1.286c.541-.523.653-.584.819-.446.26.217.49-.005.33-.318-.147-.284-.086-.459.396-1.128 1.002-1.392 1.51-2.87 1.52-4.415.01-1.579-.587-2.43-1.892-2.7-1.876-.39-4.926.674-9.15 3.191-.727.434-1.493.82-1.702.86-.26.049-.725-.048-1.479-.306-1.342-.462-2.656-.625-3.895-.485-1.124.126-1.565.238-3.36.849-1.065.362-1.591.476-2.23.484-.862.01-.78.12.215.286.421.07.444.097.377.432-.066.33-.045.357.275.356.19 0 .645-.082 1.01-.18a5.906 5.906 0 011.25-.179c.504-.001.566.024.439.177-.37.446-1.42.802-2.792.946l-1.369.144.567.278c1.268.622 2.555.431 4.802-.71.636-.324 1.505-.666 1.932-.76.962-.214 2.611-.347 2.69-.217.076.12-2.24 1.873-3.361 2.545-2.479 1.483-5.993 2.762-9.161 3.332-1.48.266-4.483.36-5.718.18-2.882-.422-3.358-.658-10.855-5.377-7.107-4.473-10.437-6.035-15.007-7.041-2.198-.484-5.635-.687-8.136-.482zm22.54.593c0 .556.041.724.177.724.304 0 .422-.394.283-.943-.198-.783-.46-.658-.46.22zm1.446-.07c0 .688.093.915.375.915.268 0 .272-.035.087-.835-.18-.782-.462-.83-.462-.08zm54.331.438c-.784.418-.455.627.55.348.33-.092.448-.185.42-.331-.055-.29-.445-.297-.97-.017zm.482 1.356c-.182.073-.331.175-.331.229 0 .172 1.285.11 1.434-.07.259-.31-.457-.414-1.103-.159zm-.081 1.396c-.161.045-.315.148-.342.23-.035.106.173.147.745.147.793 0 .92-.066.648-.338-.155-.155-.579-.17-1.051-.039zm-.974 1.313c0 .317 1.12.725 1.434.523.311-.2.052-.494-.435-.496a3.588 3.588 0 01-.727-.075c-.149-.04-.272-.018-.272.048zm-.964 1.091c0 .15.902.625 1.185.625.292 0 .402-.134.275-.34-.167-.27-1.46-.523-1.46-.285zm-1.205.596c0 .194.83.773 1.047.731.315-.061.319-.308.009-.511-.364-.238-1.056-.383-1.056-.22zm-.889.421c-.126.474-.085 1.055.075 1.051.218-.005.573-.299.573-.473 0-.186-.386-.849-.494-.849-.045 0-.114.122-.154.271zm1.371 2.801c0 .098.136.207.301.241l.615.128c.399.084.712-.147.517-.383-.198-.238-1.433-.226-1.433.014zm.12 1.248c0 .194 1.165.653 1.438.566.579-.184-.086-.661-.925-.664-.282-.001-.513.043-.513.098zm0 1.332c0 .222.839.738 1.198.738.628 0 .426-.388-.344-.66-.592-.208-.854-.232-.854-.078zm-.482 1.317c0 .237.815.868 1.121.868.362 0 .381-.034.202-.368-.214-.4-1.323-.819-1.323-.5zm-5.991.631c-.119.314-.183.355-.448.289-.503-.126-.383.247.13.404.745.23 1.052-.08.745-.752-.181-.398-.259-.387-.427.06zm4.967.117c-.134.216.674 1.205.985 1.205.455 0 .342-.416-.244-.896-.569-.466-.629-.491-.741-.31zm-3.851.682c.047.32.108.624.137.674.107.187.506.08.581-.154.096-.304-.293-1.005-.589-1.062-.19-.037-.204.024-.129.542zm2.465-.257c0 .21.624 1.245.787 1.308.596.228.572-.328-.039-.925-.404-.395-.748-.57-.748-.383zm-1.15.509c.102.557.372.995.614.995.325 0 .326-.348.001-.903-.407-.695-.734-.743-.615-.092zm-3.136.402c-.107.174.657.954.934.954.39 0 .241-.435-.262-.768-.545-.36-.561-.365-.672-.186zm-7.639 1.605c-.307.447-.337.552-.194.671.264.22.638-.049.779-.558.223-.81-.067-.866-.585-.113zm7.348-.259c.008.295.673 1.116.936 1.154.421.06.33-.35-.191-.858-.465-.454-.752-.568-.745-.296zm-6.621 1.363c-.33.558-.337 1.018-.016 1.018.285 0 .451-.283.558-.95.103-.647-.18-.682-.542-.068zm6.015-.205c0 .286.297.947.509 1.133.311.273.421.266.516-.032.054-.17-.039-.39-.304-.724-.346-.437-.721-.633-.721-.377zm-4.996 1.204c-.198.595-.157.984.103.984.29 0 .433-.305.433-.929 0-.836-.268-.864-.536-.055zm3.986-.366c-.083.133.15 1.124.308 1.315.071.085.2.155.286.155.292 0 .307-.45.034-1.012-.25-.517-.486-.688-.628-.458zm-2.66.93c-.093.619-.003 1.023.228 1.023.32 0 .442-.325.358-.954-.063-.474-.13-.614-.293-.614-.159 0-.232.137-.294.544zm1.5.303c0 .538.048.745.183.797.219.084.545-.159.479-.358a16.117 16.117 0 01-.178-.654c-.08-.309-.202-.512-.308-.512-.135 0-.176.17-.176.727z" fill="#FF9236"/><path fill-rule="evenodd" clip-rule="evenodd" d="M28.08 77.808c-1.015 1.016-.351 2.613 1.088 2.613 1.44 0 2.104-1.597 1.087-2.613-.36-.36-.47-.4-1.087-.4s-.727.04-1.087.4zm.207 4.425c-.493.301-.794.969-.69 1.53.234 1.242 1.898 1.713 2.738.773.914-1.023.216-2.546-1.167-2.546-.271 0-.656.106-.881.243zm21.177 6.626c-3.958.383-7.257 1.874-9.82 4.438-1.023 1.023-2.19 2.63-2.816 3.875-2.45 4.874-2.45 11.299 0 16.173 1.774 3.531 4.96 6.268 8.758 7.521 3.99 1.318 8.928 1.135 12.242-.454 1.22-.585 2.861-1.691 2.856-1.924-.002-.081-.16-.336-.35-.567l-.349-.42-.582.487c-1.966 1.643-3.735 2.335-6.656 2.605-4.477.414-8.048-1.157-10.642-4.683-1.233-1.676-2.357-4.447-2.828-6.974-.344-1.842-.312-5.92.06-7.656 1.103-5.155 3.602-8.73 7.294-10.433 3.741-1.728 9.12-1.076 12.538 1.518l.832.632.34-.41c.187-.225.341-.473.343-.55.004-.172-1.19-.936-2.472-1.58-2.592-1.303-5.78-1.885-8.748-1.598zM.5 89.545c-.044.044-.08 7.151-.08 15.794v15.714h3.857v-14.709l2.32.002 2.32.002 5.043 7.353 5.042 7.352h4.818l-.276-.392c-1.994-2.834-9.819-13.687-9.938-13.785-.088-.072-.8-.204-1.58-.294-1.385-.16-1.406-.167-.818-.266 3.82-.642 5.635-1.423 7.353-3.165 2.296-2.326 2.854-5.457 1.495-8.38-1.294-2.778-4.397-4.688-8.423-5.181-1.11-.137-11.002-.177-11.133-.045zm26.8 15.714v15.794h3.736V89.464H27.3v15.795zm36.642 0v15.794h3.737v-15.314l8.648.031 8.648.031.031 7.626.031 7.626h3.736l-.03-15.764-.031-15.764-1.838-.034-1.839-.033v15.198H67.68V89.464h-3.737v15.795zm28.807 0v15.794h3.737v-8.552l2.36-2.898c1.297-1.593 2.401-2.897 2.453-2.897.051 0 .708.908 1.46 2.019 5.774 8.536 9.498 13.416 13.058 17.112 4.15 4.308 7.879 6.75 11.396 7.46 1.607.324 3.705.203 5.211-.302 1.988-.666 3.918-1.977 5.661-3.844.78-.836.833-.924.636-1.069-.118-.086-.286-.157-.374-.157-.087 0-.63.407-1.206.903-1.256 1.082-2.83 1.915-4.133 2.188-4.027.843-8.934-1.802-14.338-7.727-2.842-3.117-5.379-6.407-9.947-12.906-1.445-2.056-2.82-3.976-3.055-4.268l-.428-.53-1.615.073-1.615.073.411-.507 6.414-7.923c3.302-4.078 6.086-7.51 6.187-7.626.173-.198.139-.21-.549-.21h-.732l-8.598 10.542-8.597 10.542-.03-10.542-.031-10.543h-3.736v15.795zm41.908-15.47c-.308.605-13.823 31.101-13.823 31.19 0 .048.275.07.611.05l.612-.036 5.915-13.353c3.253-7.344 5.948-13.351 5.988-13.35.04.003 2.741 6.012 6.002 13.354l5.93 13.349 2.055.033c1.131.018 2.055-.009 2.053-.06-.002-.052-3.138-7.147-6.97-15.768l-6.967-15.673-.618-.037c-.57-.033-.63-.01-.788.302zm-124.353.933c3.725.674 6.206 3.257 6.46 6.722.208 2.846-1.356 5.554-3.94 6.821-1.703.835-2.08.901-5.503.961l-3.043.054V90.549l2.561.005c1.615.002 2.896.064 3.466.168z" fill="#278780"/></svg>