<svg width="150" height="150" viewBox="0 0 150 150" fill="none" xmlns="http://www.w3.org/2000/svg">
<g clip-path="url(#clip0_282_8015)">
<path d="M75.8577 71.6632C75.8577 75.4108 69.9972 75.6201 67.8784 75.6201C64.5188 75.6201 59.3456 75.0684 59.3456 71.1117H61.9607C61.9607 73.2421 66.256 73.3754 67.802 73.3754C68.6039 73.3754 73.2998 73.4134 73.2998 71.7393C73.2998 70.3886 70.9135 70.1984 68.2984 69.9131L66.5232 69.7228C63.278 69.3804 59.5176 68.9239 59.5176 65.9562C59.5176 62.4176 65.0532 61.9232 67.5539 61.9232C70.131 61.9232 75.4567 62.475 75.4375 66.1845H72.6317C72.6317 64.3392 68.6419 64.168 67.0957 64.168C66.4276 64.168 62.0755 64.206 62.0755 65.8611C62.0755 67.0785 63.6981 67.1927 66.4658 67.5161L69.3483 67.8585C71.6388 68.1248 75.8577 68.4863 75.8577 71.6632Z" fill="url(#paint0_radial_282_8015)"/>
<path d="M82.1761 70.027L84.0469 66.2985C84.9058 64.5673 85.1921 64.2059 86.1846 64.2059C87.1775 64.2059 87.5591 64.7006 88.3418 66.2985L90.2047 70.027H82.1761ZM92.9042 75.4297H95.7673L90.4987 65.3092C89.3154 63.0262 88.4945 61.923 86.242 61.923C83.9897 61.923 83.1686 63.0262 81.9853 65.3092L76.7167 75.4297H79.4656L81.1072 72.1577H91.2693L92.9042 75.4297Z" fill="url(#paint1_radial_282_8015)"/>
<path d="M56.6533 64.3962V62.1132H42.3369V75.4297H56.6533V73.1469H44.7419V69.7986H55.2855V67.6682H44.7419V64.3962H56.6533Z" fill="url(#paint2_radial_282_8015)"/>
<path d="M75.8651 83.0746C74.7326 81.621 73.6387 80.1291 71.2014 80.1291C68.7641 80.1291 67.6892 81.6592 66.5377 83.1128C65.4821 84.4515 65.0024 85.2933 63.7165 85.2933C62.4305 85.2933 61.9508 84.4326 60.8952 83.0746C59.7435 81.6402 58.669 80.1291 56.2315 80.1291C53.7942 80.1291 52.7195 81.6592 51.5678 83.1128C50.5123 84.4515 50.0325 85.2933 48.7466 85.2933V87.5884C51.0882 87.5884 52.3355 85.9629 53.4103 84.5092C54.5234 83.0172 54.9842 82.4244 56.2315 82.4244C57.4792 82.4244 57.9396 83.0172 59.0529 84.5092C60.1275 85.9629 61.3748 87.5884 63.7165 87.5884C66.0579 87.5884 67.3052 85.9629 68.38 84.5092C69.4931 83.0172 69.9539 82.4244 71.2014 82.4244C72.4489 82.4244 72.9095 83.0172 74.0226 84.5092C75.0972 85.9629 76.3447 87.5884 78.6863 87.5884V85.2933C77.4002 85.2933 76.9205 84.4326 75.8651 83.0746Z" fill="url(#paint3_radial_282_8015)"/>
<path d="M44.1209 83.1511C43.0845 81.7167 41.9138 80.1291 39.342 80.1291C36.7705 80.1291 35.6188 81.7357 34.5633 83.1511C33.7381 84.2795 32.9704 85.2933 31.6652 85.2933V87.5884C34.1985 87.5884 35.3502 85.9629 36.4248 84.5281C37.5187 83.0746 38.0563 82.4244 39.342 82.4244C40.6087 82.4244 41.1461 83.0746 42.221 84.5281C43.3149 85.9629 44.4663 87.5884 47.0189 87.5884V85.2933C45.7138 85.2933 44.9462 84.2795 44.1209 83.1511Z" fill="url(#paint4_radial_282_8015)"/>
<path d="M86.2343 86.3485C85.9752 86.3485 85.7571 86.153 85.7571 85.7776C85.7571 85.4022 85.9752 85.2069 86.2343 85.2069C86.494 85.2069 86.7116 85.4022 86.7116 85.7776C86.7116 86.153 86.494 86.3485 86.2343 86.3485ZM86.2343 84.8628C85.6886 84.8628 85.3145 85.2265 85.3145 85.7776C85.3145 86.3288 85.6886 86.6924 86.2343 86.6924C86.7777 86.6924 87.155 86.3288 87.155 85.7776C87.155 85.2265 86.7777 84.8628 86.2343 84.8628Z" fill="url(#paint5_radial_282_8015)"/>
<path d="M88.023 86.3097H87.8492V85.2439H88.023C88.3316 85.2439 88.6107 85.3098 88.6107 85.7756C88.6107 86.2441 88.3316 86.3097 88.023 86.3097ZM88.0161 84.8928H87.431V86.6611H88.0161C88.5961 86.6611 89.0536 86.4514 89.0536 85.7756C89.0536 85.1024 88.5961 84.8928 88.0161 84.8928Z" fill="url(#paint6_radial_282_8015)"/>
<path d="M90.1219 85.5948L89.8796 85.546C89.7573 85.5192 89.674 85.4557 89.674 85.3679C89.674 85.2582 89.7939 85.1973 89.9555 85.1973C90.1344 85.1973 90.2639 85.2728 90.3054 85.4046H90.7193C90.658 85.0142 90.3274 84.8628 89.98 84.8628C89.6324 84.8628 89.2434 85.0311 89.2434 85.3922C89.2434 85.7092 89.5051 85.846 89.7939 85.9071L90.0097 85.9508C90.2027 85.9922 90.3401 86.0482 90.3401 86.1631C90.3401 86.3092 90.1781 86.3559 90.0362 86.3559C89.8183 86.3559 89.6718 86.2704 89.6251 86.0852H89.209C89.2725 86.4655 89.5712 86.6924 90.0267 86.6924C90.3959 86.6924 90.7706 86.4827 90.7706 86.1118C90.7706 85.7412 90.4084 85.6533 90.1219 85.5948Z" fill="url(#paint7_radial_282_8015)"/>
<path d="M37.4114 86.3485C37.1521 86.3485 36.9339 86.153 36.9339 85.7776C36.9339 85.4022 37.1521 85.2069 37.4114 85.2069C37.6709 85.2069 37.8887 85.4022 37.8887 85.7776C37.8887 86.153 37.6709 86.3485 37.4114 86.3485ZM37.4114 84.8628C36.8657 84.8628 36.4913 85.2265 36.4913 85.7776C36.4913 86.3288 36.8657 86.6924 37.4114 86.6924C37.9548 86.6924 38.3319 86.3288 38.3319 85.7776C38.3319 85.2265 37.9548 84.8628 37.4114 84.8628Z" fill="url(#paint8_radial_282_8015)"/>
<path d="M39.2009 86.3097H39.0273V85.2439H39.2009C39.5097 85.2439 39.7886 85.3098 39.7886 85.7756C39.7886 86.2441 39.5097 86.3097 39.2009 86.3097ZM39.194 84.8928H38.6091V86.6611H39.194C39.7738 86.6611 40.2315 86.4514 40.2315 85.7756C40.2315 85.1024 39.7738 84.8928 39.194 84.8928Z" fill="url(#paint9_radial_282_8015)"/>
<path d="M41.2977 85.5948L41.0554 85.546C40.9331 85.5192 40.85 85.4557 40.85 85.3679C40.85 85.2582 40.9697 85.1973 41.1314 85.1973C41.3102 85.1973 41.4396 85.2728 41.4812 85.4046H41.8951C41.8338 85.0142 41.5034 84.8628 41.1558 84.8628C40.8084 84.8628 40.4192 85.0311 40.4192 85.3922C40.4192 85.7092 40.6809 85.846 40.9697 85.9071L41.1853 85.9508C41.3785 85.9922 41.5159 86.0482 41.5159 86.1631C41.5159 86.3092 41.3541 86.3559 41.2122 86.3559C40.9941 86.3559 40.8476 86.2704 40.8009 86.0852H40.3846C40.4485 86.4655 40.7468 86.6924 41.2025 86.6924C41.5717 86.6924 41.9464 86.4827 41.9464 86.1118C41.9464 85.7412 41.5842 85.6533 41.2977 85.5948Z" fill="url(#paint10_radial_282_8015)"/>
<path d="M27.1169 83.0746C25.9847 81.621 24.8908 80.1291 22.4535 80.1291C20.0159 80.1291 18.9412 81.6592 17.7898 83.1128C16.7341 84.4515 16.2544 85.2933 14.9685 85.2933C13.6826 85.2933 13.2029 84.4326 12.1472 83.0746C10.9957 81.6402 9.92092 80.1291 7.48367 80.1291C5.04626 80.1291 3.97146 81.6592 2.81995 83.1128C1.76441 84.4515 1.28461 85.2933 -0.00128174 85.2933L-0.00128174 87.5884C2.34016 87.5884 3.58755 85.9629 4.66236 84.5092C5.77543 83.0172 6.23613 82.4244 7.48367 82.4244C8.73106 82.4244 9.19175 83.0172 10.3048 84.5092C11.3796 85.9629 12.627 87.5884 14.9685 87.5884C17.31 87.5884 18.5574 85.9629 19.6322 84.5092C20.7454 83.0172 21.2058 82.4244 22.4535 82.4244C23.7009 82.4244 24.1614 83.0172 25.2746 84.5092C26.3495 85.9629 27.5968 87.5884 29.9383 87.5884V85.2933C28.6524 85.2933 28.1724 84.4326 27.1169 83.0746Z" fill="url(#paint11_radial_282_8015)"/>
<path d="M92.8686 83.1511C91.8322 81.7167 90.6617 80.1291 88.0898 80.1291C85.518 80.1291 84.3667 81.7357 83.3113 83.1511C82.4858 84.2795 81.7182 85.2933 80.4131 85.2933V87.5884C82.9464 87.5884 84.0977 85.9629 85.1728 84.5281C86.2666 83.0746 86.8041 82.4244 88.0898 82.4244C89.3566 82.4244 89.8941 83.0746 90.9687 84.5281C92.0626 85.9629 93.2141 87.5884 95.7668 87.5884V85.2933C94.4617 85.2933 93.6939 84.2795 92.8686 83.1511Z" fill="url(#paint12_radial_282_8015)"/>
<path d="M30.1601 73.1469H25.0823V64.396H30.1601C34.7222 64.396 37.0893 65.8989 37.0893 68.7714C37.0893 71.6441 34.7222 73.1469 30.1601 73.1469ZM30.3509 62.1132H22.6772L22.6772 75.4297H30.3509C36.2874 75.4297 39.647 72.9947 39.647 68.7714C39.647 64.5481 36.2874 62.1132 30.3509 62.1132Z" fill="url(#paint13_radial_282_8015)"/>
<path d="M9.94363 75.6204C16.2621 75.6204 19.8888 73.1283 19.8888 68.7719C19.8888 64.4156 16.2621 61.9234 9.94363 61.9234C3.62536 61.9234 -0.00152588 64.4156 -0.00152588 68.7719C-0.00152588 73.1283 3.62536 75.6204 9.94363 75.6204ZM9.94363 73.3756C4.92339 73.3756 2.55643 71.7776 2.55643 68.7719C2.55643 65.7661 4.92339 64.1682 9.94363 64.1682C14.9641 64.1682 17.3311 65.7661 17.3311 68.7719C17.3311 71.7776 14.9641 73.3756 9.94363 73.3756Z" fill="url(#paint14_radial_282_8015)"/>
<path d="M100.429 66.9485H101.14V62.0417H100.429V66.9485Z" fill="url(#paint15_radial_282_8015)"/>
<path d="M106.371 64.3074C106.155 63.8 105.527 63.4595 104.683 63.4595C103.899 63.4595 103.498 63.6761 103.163 64.0539V63.5568H102.5V66.9485H103.163V65.3362C103.163 64.4327 103.665 64.0225 104.564 64.0225C105.408 64.0225 105.827 64.3839 105.827 65.1555V66.9485H106.482V65.1137C106.482 64.8357 106.482 64.5716 106.371 64.3074Z" fill="url(#paint16_radial_282_8015)"/>
<path d="M108.63 64.0992H109.739V63.5569H108.651V62.5908H107.995V63.5569H107.403V64.0992H107.982V65.9131C107.982 66.629 108.274 66.9973 108.923 66.9973C109.195 66.9973 109.46 66.9764 109.725 66.9486V66.3649C109.607 66.3858 109.376 66.4136 109.104 66.4136C108.693 66.4136 108.63 66.2536 108.63 65.8228V64.0992Z" fill="url(#paint17_radial_282_8015)"/>
<path d="M111.162 65.3295H114.656V65.2322C114.656 64.6067 114.084 63.4459 112.55 63.4459C111.685 63.4459 110.478 63.8838 110.478 65.246C110.478 66.4208 111.462 67.0532 112.564 67.0532C113.254 67.0532 114.182 66.8376 114.586 65.9619L113.951 65.7881C113.728 66.2955 113.177 66.5249 112.654 66.5249C111.678 66.5249 111.19 65.9065 111.162 65.3295ZM113.91 64.8361H111.183C111.406 64.2314 111.978 63.9395 112.592 63.9395C113.352 63.9395 113.735 64.3425 113.91 64.8361Z" fill="url(#paint18_radial_282_8015)"/>
<path d="M117.579 63.5014C116.977 63.5014 116.584 63.7653 116.331 64.0608V63.5568H115.668V66.9485H116.331V65.058C116.331 64.1476 117.223 64.0851 117.481 64.0851C117.746 64.0851 117.907 64.106 118.032 64.1338V63.5568C117.935 63.5361 117.809 63.5014 117.579 63.5014Z" fill="url(#paint19_radial_282_8015)"/>
<path d="M122.668 64.3074C122.452 63.8 121.824 63.4595 120.981 63.4595C120.196 63.4595 119.795 63.6761 119.46 64.0539V63.5568H118.798V66.9485H119.46V65.3362C119.46 64.4327 119.962 64.0225 120.862 64.0225C121.706 64.0225 122.124 64.3839 122.124 65.1555V66.9485H122.78V65.1137C122.78 64.8357 122.78 64.5716 122.668 64.3074Z" fill="url(#paint20_radial_282_8015)"/>
<path d="M128.193 66.9485V66.4413C128.193 66.4413 128.032 66.4758 127.921 66.4758C127.621 66.4758 127.565 66.3509 127.565 65.9895V64.7315C127.565 63.7237 126.686 63.4526 125.78 63.4526C124.866 63.4526 124.134 63.6193 123.939 64.3145L124.608 64.377C124.748 64.0503 125.264 63.9669 125.745 63.9669C126.903 63.9669 126.944 64.377 126.944 64.655V64.8357H125.975C125.173 64.8357 124.643 64.8495 124.315 64.9955C124.134 65.072 123.715 65.3222 123.715 65.9061C123.715 66.3785 124.015 67.0737 125.312 67.0737C126.331 67.0737 126.826 66.6565 126.951 66.4064C126.979 66.6565 127.028 66.9832 127.607 66.9832C127.865 66.9832 128.053 66.9694 128.193 66.9485ZM125.703 65.3431H126.951C126.951 66.1978 126.261 66.5663 125.361 66.5663C124.685 66.5663 124.378 66.2328 124.378 65.8992C124.378 65.3431 125.033 65.3431 125.703 65.3431Z" fill="url(#paint21_radial_282_8015)"/>
<path d="M129.866 64.0992H130.975V63.5569H129.887V62.5908H129.231V63.5569H128.638V64.0992H129.217V65.9131C129.217 66.629 129.51 66.9973 130.159 66.9973C130.431 66.9973 130.696 66.9764 130.961 66.9486V66.3649C130.842 66.3858 130.612 66.4136 130.34 66.4136C129.928 66.4136 129.866 66.2536 129.866 65.8228V64.0992Z" fill="url(#paint22_radial_282_8015)"/>
<path d="M132 62.9869H132.711V62.3059H132V62.9869ZM132.027 66.9485H132.69V63.5568H132.027V66.9485Z" fill="url(#paint23_radial_282_8015)"/>
<path d="M138.145 65.2671C138.145 63.9464 136.987 63.4739 135.913 63.4739C135 63.4739 133.703 63.9326 133.703 65.3226C133.703 66.3999 134.644 67.0532 135.934 67.0532C137.343 67.0532 138.145 66.247 138.145 65.2671ZM137.482 65.2531C137.482 66.1566 136.632 66.504 135.969 66.504C135.007 66.504 134.372 65.9899 134.372 65.2809C134.372 64.4469 135.139 64.016 135.899 64.016C136.583 64.016 137.482 64.3218 137.482 65.2531Z" fill="url(#paint24_radial_282_8015)"/>
<path d="M143.027 64.3074C142.811 63.8 142.184 63.4595 141.34 63.4595C140.555 63.4595 140.154 63.6761 139.819 64.0539V63.5568H139.157V66.9485H139.819V65.3362C139.819 64.4327 140.322 64.0225 141.221 64.0225C142.065 64.0225 142.483 64.3839 142.483 65.1555V66.9485H143.139V65.1137C143.139 64.8357 143.139 64.5716 143.027 64.3074Z" fill="url(#paint25_radial_282_8015)"/>
<path d="M148.55 66.9485V66.4413C148.55 66.4413 148.39 66.4758 148.278 66.4758C147.979 66.4758 147.923 66.3509 147.923 65.9895V64.7315C147.923 63.7237 147.044 63.4526 146.138 63.4526C145.224 63.4526 144.492 63.6193 144.296 64.3145L144.966 64.377C145.105 64.0503 145.621 63.9669 146.103 63.9669C147.26 63.9669 147.302 64.377 147.302 64.655V64.8357H146.333C145.531 64.8357 145.001 64.8495 144.673 64.9955C144.492 65.072 144.073 65.3222 144.073 65.9061C144.073 66.3785 144.373 67.0737 145.67 67.0737C146.689 67.0737 147.184 66.6565 147.309 66.4064C147.337 66.6565 147.386 66.9832 147.965 66.9832C148.223 66.9832 148.411 66.9694 148.55 66.9485ZM146.061 65.3431H147.309C147.309 66.1978 146.619 66.5663 145.719 66.5663C145.043 66.5663 144.736 66.2328 144.736 65.8992C144.736 65.3431 145.391 65.3431 146.061 65.3431Z" fill="url(#paint26_radial_282_8015)"/>
<path d="M149.344 66.9485H150V62.0417H149.344V66.9485Z" fill="url(#paint27_radial_282_8015)"/>
<path d="M104.91 75.4189H105.719L103.194 70.5122H102.448L99.8957 75.4189H100.684L101.284 74.2096H104.31L104.91 75.4189ZM102.804 71.214L104.01 73.6467H101.576L102.804 71.214Z" fill="url(#paint28_radial_282_8015)"/>
<path d="M106.382 71.4574H107.093V70.7763H106.382V71.4574ZM106.41 75.4189H107.072V72.0273H106.41V75.4189Z" fill="url(#paint29_radial_282_8015)"/>
<path d="M110.238 71.9717C109.636 71.9717 109.243 72.2357 108.989 72.5311V72.0273H108.327V75.4189H108.989V73.5285C108.989 72.6181 109.882 72.5555 110.14 72.5555C110.405 72.5555 110.565 72.5764 110.691 72.6041V72.0273C110.593 72.0064 110.468 71.9717 110.238 71.9717Z" fill="url(#paint30_radial_282_8015)"/>
<path d="M113.55 74.9535C112.901 74.9535 112.085 74.6477 112.085 73.7441C112.085 73.0284 112.552 72.4653 113.522 72.4653C114.429 72.4653 114.952 73.0074 114.952 73.6747C114.952 74.4253 114.4 74.9535 113.55 74.9535ZM113.592 71.9442C112.999 71.9442 112.439 72.1485 112.12 72.5522V72.0275H111.458V76.7744H112.12V74.9009C112.307 75.1123 112.728 75.4817 113.724 75.4817C115.042 75.4817 115.67 74.599 115.67 73.6955C115.67 72.7503 114.917 71.9442 113.592 71.9442Z" fill="url(#paint31_radial_282_8015)"/>
<path d="M120.881 73.7374C120.881 72.417 119.723 71.9444 118.649 71.9444C117.735 71.9444 116.438 72.4031 116.438 73.7931C116.438 74.8704 117.379 75.5237 118.67 75.5237C120.078 75.5237 120.881 74.7175 120.881 73.7374ZM120.218 73.7236C120.218 74.6271 119.367 74.9746 118.705 74.9746C117.742 74.9746 117.107 74.4603 117.107 73.7515C117.107 72.9174 117.875 72.4865 118.635 72.4865C119.318 72.4865 120.218 72.7922 120.218 73.7236Z" fill="url(#paint32_radial_282_8015)"/>
<path d="M123.802 71.9717C123.2 71.9717 122.807 72.2357 122.554 72.5311V72.0273H121.891V75.4189H122.554V73.5285C122.554 72.6181 123.446 72.5555 123.704 72.5555C123.969 72.5555 124.13 72.5764 124.255 72.6041V72.0273C124.158 72.0064 124.032 71.9717 123.802 71.9717Z" fill="url(#paint33_radial_282_8015)"/>
<path d="M125.95 72.5696H127.059V72.0275H125.971V71.0614H125.315V72.0275H124.722V72.5696H125.301V74.3835C125.301 75.0994 125.594 75.4678 126.243 75.4678C126.515 75.4678 126.78 75.447 127.045 75.4191V74.8353C126.926 74.8562 126.696 74.884 126.424 74.884C126.012 74.884 125.95 74.7242 125.95 74.2933V72.5696Z" fill="url(#paint34_radial_282_8015)"/>
</g>
<defs>
<radialGradient id="paint0_radial_282_8015" cx="0" cy="0" r="1" gradientUnits="userSpaceOnUse" gradientTransform="translate(75.2901 75.6201) rotate(-140.041) scale(20.5324 19.4215)">
<stop stop-color="#0654F2"/>
<stop offset="1" stop-color="#103C96"/>
</radialGradient>
<radialGradient id="paint1_radial_282_8015" cx="0" cy="0" r="1" gradientUnits="userSpaceOnUse" gradientTransform="translate(95.1124 75.4297) rotate(-144.392) scale(22.3337 20.3139)">
<stop stop-color="#0654F2"/>
<stop offset="1" stop-color="#103C96"/>
</radialGradient>
<radialGradient id="paint2_radial_282_8015" cx="0" cy="0" r="1" gradientUnits="userSpaceOnUse" gradientTransform="translate(56.1612 75.4297) rotate(-136.785) scale(18.7233 17.9531)">
<stop stop-color="#0654F2"/>
<stop offset="1" stop-color="#103C96"/>
</radialGradient>
<radialGradient id="paint3_radial_282_8015" cx="0" cy="0" r="1" gradientUnits="userSpaceOnUse" gradientTransform="translate(77.6571 87.5884) rotate(-165.874) scale(29.426 13.3816)">
<stop stop-color="#0654F2"/>
<stop offset="1" stop-color="#103C96"/>
</radialGradient>
<radialGradient id="paint4_radial_282_8015" cx="0" cy="0" r="1" gradientUnits="userSpaceOnUse" gradientTransform="translate(46.4911 87.5884) rotate(-153.861) scale(16.3012 12.3877)">
<stop stop-color="#0654F2"/>
<stop offset="1" stop-color="#103C96"/>
</radialGradient>
<radialGradient id="paint5_radial_282_8015" cx="0" cy="0" r="1" gradientUnits="userSpaceOnUse" gradientTransform="translate(87.0917 86.6924) rotate(-134.884) scale(2.48597 2.38833)">
<stop stop-color="#0654F2"/>
<stop offset="1" stop-color="#103C96"/>
</radialGradient>
<radialGradient id="paint6_radial_282_8015" cx="0" cy="0" r="1" gradientUnits="userSpaceOnUse" gradientTransform="translate(88.9978 86.6611) rotate(-132.251) scale(2.30006 2.19957)">
<stop stop-color="#0654F2"/>
<stop offset="1" stop-color="#103C96"/>
</radialGradient>
<radialGradient id="paint7_radial_282_8015" cx="0" cy="0" r="1" gradientUnits="userSpaceOnUse" gradientTransform="translate(90.7169 86.6924) rotate(-130.199) scale(2.30607 2.18447)">
<stop stop-color="#0654F2"/>
<stop offset="1" stop-color="#103C96"/>
</radialGradient>
<radialGradient id="paint8_radial_282_8015" cx="0" cy="0" r="1" gradientUnits="userSpaceOnUse" gradientTransform="translate(38.2686 86.6924) rotate(-134.883) scale(2.48595 2.38831)">
<stop stop-color="#0654F2"/>
<stop offset="1" stop-color="#103C96"/>
</radialGradient>
<radialGradient id="paint9_radial_282_8015" cx="0" cy="0" r="1" gradientUnits="userSpaceOnUse" gradientTransform="translate(40.1757 86.6611) rotate(-132.248) scale(2.29993 2.19942)">
<stop stop-color="#0654F2"/>
<stop offset="1" stop-color="#103C96"/>
</radialGradient>
<radialGradient id="paint10_radial_282_8015" cx="0" cy="0" r="1" gradientUnits="userSpaceOnUse" gradientTransform="translate(41.8927 86.6924) rotate(-130.202) scale(2.30619 2.18462)">
<stop stop-color="#0654F2"/>
<stop offset="1" stop-color="#103C96"/>
</radialGradient>
<radialGradient id="paint11_radial_282_8015" cx="0" cy="0" r="1" gradientUnits="userSpaceOnUse" gradientTransform="translate(28.9091 87.5884) rotate(-165.874) scale(29.426 13.3816)">
<stop stop-color="#0654F2"/>
<stop offset="1" stop-color="#103C96"/>
</radialGradient>
<radialGradient id="paint12_radial_282_8015" cx="0" cy="0" r="1" gradientUnits="userSpaceOnUse" gradientTransform="translate(95.239 87.5884) rotate(-153.861) scale(16.3012 12.3877)">
<stop stop-color="#0654F2"/>
<stop offset="1" stop-color="#103C96"/>
</radialGradient>
<radialGradient id="paint13_radial_282_8015" cx="0" cy="0" r="1" gradientUnits="userSpaceOnUse" gradientTransform="translate(39.0637 75.4297) rotate(-141.598) scale(20.6391 19.305)">
<stop stop-color="#0654F2"/>
<stop offset="1" stop-color="#103C96"/>
</radialGradient>
<radialGradient id="paint14_radial_282_8015" cx="0" cy="0" r="1" gradientUnits="userSpaceOnUse" gradientTransform="translate(19.2051 75.6204) rotate(-145.178) scale(23.0932 20.8007)">
<stop stop-color="#0654F2"/>
<stop offset="1" stop-color="#103C96"/>
</radialGradient>
<radialGradient id="paint15_radial_282_8015" cx="0" cy="0" r="1" gradientUnits="userSpaceOnUse" gradientTransform="translate(101.116 66.9485) rotate(-98.1683) scale(4.77242 1.28967)">
<stop stop-color="#0654F2"/>
<stop offset="1" stop-color="#103C96"/>
</radialGradient>
<radialGradient id="paint16_radial_282_8015" cx="0" cy="0" r="1" gradientUnits="userSpaceOnUse" gradientTransform="translate(106.345 66.9485) rotate(-138.491) scale(5.0684 4.83325)">
<stop stop-color="#0654F2"/>
<stop offset="1" stop-color="#103C96"/>
</radialGradient>
<radialGradient id="paint17_radial_282_8015" cx="0" cy="0" r="1" gradientUnits="userSpaceOnUse" gradientTransform="translate(109.659 66.9973) rotate(-117.696) scale(4.7913 3.78862)">
<stop stop-color="#0654F2"/>
<stop offset="1" stop-color="#103C96"/>
</radialGradient>
<radialGradient id="paint18_radial_282_8015" cx="0" cy="0" r="1" gradientUnits="userSpaceOnUse" gradientTransform="translate(114.512 67.0532) rotate(-138.903) scale(5.28335 5.02885)">
<stop stop-color="#0654F2"/>
<stop offset="1" stop-color="#103C96"/>
</radialGradient>
<radialGradient id="paint19_radial_282_8015" cx="0" cy="0" r="1" gradientUnits="userSpaceOnUse" gradientTransform="translate(117.951 66.9485) rotate(-124.175) scale(4.0114 3.58198)">
<stop stop-color="#0654F2"/>
<stop offset="1" stop-color="#103C96"/>
</radialGradient>
<radialGradient id="paint20_radial_282_8015" cx="0" cy="0" r="1" gradientUnits="userSpaceOnUse" gradientTransform="translate(122.643 66.9485) rotate(-138.491) scale(5.06839 4.83324)">
<stop stop-color="#0654F2"/>
<stop offset="1" stop-color="#103C96"/>
</radialGradient>
<radialGradient id="paint21_radial_282_8015" cx="0" cy="0" r="1" gradientUnits="userSpaceOnUse" gradientTransform="translate(128.039 67.0737) rotate(-140.752) scale(5.51036 5.1876)">
<stop stop-color="#0654F2"/>
<stop offset="1" stop-color="#103C96"/>
</radialGradient>
<radialGradient id="paint22_radial_282_8015" cx="0" cy="0" r="1" gradientUnits="userSpaceOnUse" gradientTransform="translate(130.894 66.9973) rotate(-117.696) scale(4.7913 3.78862)">
<stop stop-color="#0654F2"/>
<stop offset="1" stop-color="#103C96"/>
</radialGradient>
<radialGradient id="paint23_radial_282_8015" cx="0" cy="0" r="1" gradientUnits="userSpaceOnUse" gradientTransform="translate(132.687 66.9485) rotate(-98.624) scale(4.52081 1.28781)">
<stop stop-color="#0654F2"/>
<stop offset="1" stop-color="#103C96"/>
</radialGradient>
<radialGradient id="paint24_radial_282_8015" cx="0" cy="0" r="1" gradientUnits="userSpaceOnUse" gradientTransform="translate(137.992 67.0532) rotate(-140.86) scale(5.45934 5.13559)">
<stop stop-color="#0654F2"/>
<stop offset="1" stop-color="#103C96"/>
</radialGradient>
<radialGradient id="paint25_radial_282_8015" cx="0" cy="0" r="1" gradientUnits="userSpaceOnUse" gradientTransform="translate(143.002 66.9485) rotate(-138.491) scale(5.0684 4.83325)">
<stop stop-color="#0654F2"/>
<stop offset="1" stop-color="#103C96"/>
</radialGradient>
<radialGradient id="paint26_radial_282_8015" cx="0" cy="0" r="1" gradientUnits="userSpaceOnUse" gradientTransform="translate(148.397 67.0737) rotate(-140.752) scale(5.51037 5.18761)">
<stop stop-color="#0654F2"/>
<stop offset="1" stop-color="#103C96"/>
</radialGradient>
<radialGradient id="paint27_radial_282_8015" cx="0" cy="0" r="1" gradientUnits="userSpaceOnUse" gradientTransform="translate(149.977 66.9485) rotate(-97.5327) scale(4.76513 1.18992)">
<stop stop-color="#0654F2"/>
<stop offset="1" stop-color="#103C96"/>
</radialGradient>
<radialGradient id="paint28_radial_282_8015" cx="0" cy="0" r="1" gradientUnits="userSpaceOnUse" gradientTransform="translate(105.519 75.4189) rotate(-139.598) scale(7.28848 6.91226)">
<stop stop-color="#0654F2"/>
<stop offset="1" stop-color="#103C96"/>
</radialGradient>
<radialGradient id="paint29_radial_282_8015" cx="0" cy="0" r="1" gradientUnits="userSpaceOnUse" gradientTransform="translate(107.069 75.4189) rotate(-98.6237) scale(4.52088 1.28779)">
<stop stop-color="#0654F2"/>
<stop offset="1" stop-color="#103C96"/>
</radialGradient>
<radialGradient id="paint30_radial_282_8015" cx="0" cy="0" r="1" gradientUnits="userSpaceOnUse" gradientTransform="translate(110.61 75.4189) rotate(-124.174) scale(4.01151 3.58205)">
<stop stop-color="#0654F2"/>
<stop offset="1" stop-color="#103C96"/>
</radialGradient>
<radialGradient id="paint31_radial_282_8015" cx="0" cy="0" r="1" gradientUnits="userSpaceOnUse" gradientTransform="translate(115.525 76.7744) rotate(-130.805) scale(6.14357 5.83914)">
<stop stop-color="#0654F2"/>
<stop offset="1" stop-color="#103C96"/>
</radialGradient>
<radialGradient id="paint32_radial_282_8015" cx="0" cy="0" r="1" gradientUnits="userSpaceOnUse" gradientTransform="translate(120.728 75.5237) rotate(-140.861) scale(5.45932 5.13554)">
<stop stop-color="#0654F2"/>
<stop offset="1" stop-color="#103C96"/>
</radialGradient>
<radialGradient id="paint33_radial_282_8015" cx="0" cy="0" r="1" gradientUnits="userSpaceOnUse" gradientTransform="translate(124.174 75.4189) rotate(-124.176) scale(4.01162 3.58226)">
<stop stop-color="#0654F2"/>
<stop offset="1" stop-color="#103C96"/>
</radialGradient>
<radialGradient id="paint34_radial_282_8015" cx="0" cy="0" r="1" gradientUnits="userSpaceOnUse" gradientTransform="translate(126.978 75.4678) rotate(-117.696) scale(4.79118 3.78859)">
<stop stop-color="#0654F2"/>
<stop offset="1" stop-color="#103C96"/>
</radialGradient>
<clipPath id="clip0_282_8015">
<rect width="150" height="150" rx="30" fill="white"/>
</clipPath>
</defs>
</svg>
