<svg width="150" height="150" viewBox="0 0 150 150" fill="none" xmlns="http://www.w3.org/2000/svg">
<path d="M58.4617 78.1422C58.0607 78.2181 57.6979 78.306 57.3733 78.4054C56.9133 78.5464 56.5223 78.7656 56.2004 79.0631C55.8784 79.3605 55.6407 79.7519 55.4874 80.2374C55.3341 80.7227 55.2574 81.3724 55.2574 82.1866V89.0444C54.4601 89.0757 53.5478 89.1461 52.5205 89.2557C51.4933 89.3653 50.1517 89.6081 48.4958 89.9838C47.0851 90.3283 45.8202 90.6023 44.7009 90.8059C43.5816 91.0093 42.3321 91.1111 40.9522 91.1111C38.3456 91.1111 36.0763 90.6258 34.1444 89.6551C32.2125 88.6843 30.6027 87.4317 29.3147 85.8973C28.0267 84.363 27.0684 82.6407 26.4397 80.7305C26.296 80.2937 26.1688 79.8578 26.0579 79.4227L26.1376 79.3469L26.1256 79.3338L26.126 79.3333L26.142 79.3508C26.1639 79.33 26.1847 79.3084 26.2044 79.2863C26.2389 79.2524 26.2757 79.2156 26.3151 79.1754L26.3018 79.1618L26.303 79.1601L26.3188 79.1763L26.3222 79.1728L26.3229 79.172L26.3257 79.1691L26.3266 79.1681C26.3377 79.1566 26.3487 79.1449 26.3592 79.1329L26.4802 79.0034C26.5279 78.9528 26.499 78.9809 26.6418 78.8251C26.7935 78.6596 26.7846 78.6733 26.8205 78.6325C26.8347 78.6165 26.8898 78.552 26.9949 78.4285L26.9975 78.4309C27.0263 78.3971 27.0528 78.3621 27.077 78.3261L27.1287 78.2634L27.1309 78.2654L27.133 78.2627L27.135 78.2644C27.1528 78.2428 27.1695 78.2207 27.1856 78.1983L27.3098 78.0444L27.2874 78.0256L27.2875 78.0254L27.3131 78.047C27.3328 78.0227 27.3513 77.9978 27.3686 77.9723L27.3945 77.9395L27.3968 77.9413C27.4162 77.917 27.4342 77.892 27.4514 77.8665C27.491 77.8162 27.5279 77.7691 27.5609 77.7255L27.5638 77.7277C27.5835 77.7017 27.602 77.675 27.6191 77.6479C27.6861 77.5622 27.6978 77.5466 27.7082 77.5328L27.7592 77.4656L27.7601 77.4664L27.7694 77.4542L27.7711 77.4557C27.7887 77.4325 27.8052 77.409 27.8207 77.385L27.9604 77.1957L27.9626 77.1975L27.9635 77.1962L27.9649 77.1974C27.9776 77.1803 27.9896 77.163 28.0011 77.1454L28.0071 77.1373L28.0066 77.1369L28.0068 77.1364L28.0087 77.1379C28.0626 77.0649 28.107 76.9876 28.1418 76.9073C28.1589 76.872 28.1752 76.8351 28.191 76.7963C28.2319 76.6953 28.2619 76.5925 28.2812 76.4845L28.2389 76.4767V76.4764L28.2849 76.485C28.299 76.4062 28.305 76.3278 28.3035 76.2507C28.3045 76.1915 28.3022 76.1323 28.296 76.0733L28.287 76.0742L28.2869 76.0734L28.2985 76.0722C28.2909 76.0002 28.2773 75.9305 28.2578 75.8635C28.2432 75.808 28.2248 75.7517 28.2027 75.6949L28.2011 75.6904L28.2053 75.6887C28.1858 75.6391 28.1636 75.5918 28.1385 75.5464C28.0422 75.353 27.9078 75.1919 27.7356 75.0629C27.534 74.912 27.3049 74.8222 27.049 74.7906C26.9156 74.7746 26.7779 74.7792 26.635 74.8052L26.6343 74.8015L26.6264 74.803L26.6262 74.8021C26.6116 74.8049 26.597 74.808 26.5826 74.8113L26.5819 74.8014H26.5822L26.578 74.7578L26.5785 74.7577L26.5758 74.7365C26.569 74.6778 26.5593 74.6159 26.5472 74.5517L26.5364 74.5538L26.5357 74.5517L26.5487 74.5492C26.5437 74.5225 26.5377 74.4964 26.531 74.4706C26.5184 74.4152 26.5032 74.3587 26.4856 74.3017L26.4749 74.3052L26.4738 74.3025L26.4867 74.2984C26.4705 74.2456 26.4507 74.1948 26.4281 74.1461C26.4113 74.1025 26.3941 74.0625 26.3771 74.0262C26.3341 73.9356 26.29 73.8548 26.2452 73.7849L26.2432 73.7863L26.2427 73.7856L26.2459 73.7836C26.2257 73.7522 26.2043 73.7223 26.1819 73.6936C26.1265 73.6129 26.0705 73.5401 26.0142 73.4757C25.9274 73.3763 25.8309 73.2833 25.7258 73.1977L25.7271 73.196C25.6978 73.1723 25.6677 73.1502 25.6369 73.1298L25.5969 73.1005C25.7629 71.5205 26.1359 70.0321 26.7158 68.6355C27.5284 66.6783 28.6401 64.9717 30.0507 63.5156C31.4612 62.0596 33.1017 60.9244 34.9724 60.1102C36.8429 59.296 38.8515 58.8889 40.9981 58.8889C41.4887 58.8889 42.079 58.9203 42.769 58.9829C43.4589 59.0455 44.2255 59.2178 45.0689 59.4995C45.9122 59.7814 46.8398 60.2041 47.8517 60.7678C48.8637 61.3315 49.937 62.1143 51.0716 63.1164C51.4703 62.3648 51.7539 61.7463 51.9226 61.261C52.0913 60.7757 52.2216 60.3137 52.3136 59.8754H53.2795L53.4634 69.0347H52.5895C52.2828 67.97 51.9226 67.0462 51.5086 66.2634C51.0946 65.4806 50.6347 64.8073 50.1287 64.2437C49.6227 63.68 49.0936 63.2025 48.5417 62.811C47.9897 62.4196 47.4378 62.083 46.8858 61.8011C46.3032 61.488 45.7512 61.2531 45.2299 61.0966C44.7086 60.94 44.2333 60.8303 43.8039 60.7678C43.3746 60.7052 43.022 60.6738 42.746 60.6738C42.47 60.6738 42.2861 60.6738 42.194 60.6738C41.0594 60.6738 39.8712 60.8695 38.6292 61.261C37.3872 61.6525 36.2527 62.3805 35.2253 63.4451C34.1981 64.5098 33.3471 65.9502 32.6725 67.7664C31.9978 69.5828 31.6605 71.9312 31.6605 74.8121C31.6605 76.1273 31.7602 77.6304 31.9595 79.3213C32.1588 81.0123 32.6112 82.6251 33.3165 84.1594C34.0218 85.6938 35.0643 86.9854 36.4443 88.0345C37.8242 89.0835 39.6794 89.608 42.0101 89.608C43.8193 89.608 45.2529 89.3732 46.3109 88.9035C47.3688 88.4338 48.1661 87.8466 48.7027 87.1421C49.2394 86.4374 49.5843 85.6547 49.7377 84.7935C49.8442 84.1946 49.9139 83.6224 49.9463 83.0765C50.0407 83.0289 50.1176 82.9859 50.1778 82.9476C50.2364 82.9102 50.3095 82.858 50.3982 82.7902C50.4638 82.7398 50.53 82.6849 50.5964 82.6249L50.5972 82.6257L50.6111 82.6134L50.6133 82.6159C50.637 82.5942 50.6595 82.572 50.681 82.5489C50.724 82.508 50.7646 82.467 50.8029 82.4263C50.8579 82.3677 50.9179 82.2979 50.9818 82.2188C51.0283 82.161 51.0819 82.0876 51.1404 82.003L51.1452 82.0065C51.1614 81.983 51.1767 81.9592 51.1912 81.9349C51.2235 81.8862 51.2544 81.8374 51.2838 81.7893L51.2854 81.7903C51.3129 81.7452 51.337 81.6988 51.3579 81.6515C51.5908 81.1959 51.7233 80.6494 51.7547 80.0124C51.7731 79.6396 51.7569 79.2321 51.706 78.79C52.0694 78.5468 52.3913 78.3076 52.6711 78.0726C53.149 77.6715 53.5076 77.2732 53.7461 76.8789H58.7316C58.6486 77.2111 58.5749 77.5427 58.5096 77.8749L58.5093 77.8748C58.5056 77.8936 58.5025 77.9125 58.4997 77.9312C58.4862 78.0025 58.4735 78.0727 58.4617 78.1422ZM22.5388 74.6804C20.6877 76.144 18.8333 77.5076 14.8989 75.0288C14.8232 74.9812 14.7478 74.9343 14.6725 74.8883C12.4752 73.5442 10.4489 72.8981 8.46581 72.9362C6.41022 72.9757 4.41531 73.7482 2.33875 75.2378C2.2148 75.3268 2.18507 75.5017 2.27217 75.6282C2.35936 75.7548 2.53058 75.7852 2.65453 75.6962C2.77617 75.609 2.89744 75.5243 3.01843 75.4422C4.87314 74.1835 6.65479 73.5303 8.4744 73.4955C10.1289 73.4637 11.8253 73.9413 13.6469 74.937C13.9644 75.1106 14.2856 75.2997 14.6111 75.5048C17.9859 77.6311 19.9439 77.1418 21.6078 76.0591L21.5799 76.1213C21.4146 76.5023 21.3036 76.9002 21.2492 77.3102C21.1925 77.7178 21.1996 78.0939 21.2705 78.434C21.339 78.7717 21.4901 79.0683 21.7263 79.3239C21.8443 79.4493 21.9814 79.5554 22.1371 79.6374C22.293 79.7194 22.4702 79.7797 22.6662 79.8183C22.7819 79.84 22.8976 79.8496 23.0157 79.8447C23.1338 79.8423 23.2542 79.8255 23.3794 79.7966C23.5046 79.77 23.625 79.7314 23.7431 79.688C23.8612 79.6422 23.9745 79.5892 24.0856 79.5288C24.3075 79.4107 24.5413 79.2467 24.7917 79.0417C24.9144 78.9404 25.0324 78.8391 25.1435 78.7403C25.2546 78.639 25.3584 78.5401 25.4553 78.4412C25.552 78.3424 25.6513 78.2362 25.7552 78.1229C25.859 78.0095 25.9677 77.8866 26.0787 77.7564C26.1873 77.6237 26.2865 77.5055 26.3739 77.397C26.4613 77.2861 26.5392 77.1896 26.6029 77.1053C26.6691 77.0209 26.7375 76.9292 26.8108 76.8327C26.884 76.7387 26.9596 76.635 27.0398 76.5264C27.073 76.471 27.0942 76.4204 27.1036 76.3672C27.1107 76.3142 27.1059 76.2636 27.087 76.2153C27.054 76.1142 26.9785 76.0586 26.8604 76.0441C26.8013 76.0369 26.7493 76.0466 26.7021 76.0731C26.6573 76.0972 26.6171 76.1407 26.5841 76.2009C26.5368 76.2732 26.4872 76.3529 26.4282 76.4348C26.3692 76.5168 26.3031 76.6037 26.2298 76.6953C26.1566 76.7869 26.0787 76.8833 25.9912 76.9871C25.9063 77.0884 25.8142 77.1968 25.7173 77.3102C25.6206 77.4235 25.5237 77.5344 25.4221 77.643C25.323 77.7516 25.2191 77.8577 25.1151 77.9614C25.0112 78.0627 24.905 78.1639 24.7963 78.2628C24.6853 78.3616 24.5743 78.4581 24.4586 78.5546C24.3453 78.651 24.232 78.7354 24.1232 78.8078C24.0123 78.8825 23.906 78.9429 23.8022 78.9935C23.6982 79.0417 23.5967 79.0827 23.4951 79.114C23.3936 79.1454 23.2921 79.1671 23.1928 79.1767C22.9921 79.1985 22.8197 79.1406 22.6733 79.0079C22.3497 78.745 22.2458 78.229 22.3615 77.4598C22.3875 77.2934 22.4347 77.1076 22.5079 76.9075C22.5788 76.7049 22.6733 76.483 22.7913 76.2419C22.9684 75.8826 23.1456 75.5787 23.3228 75.3351C23.4998 75.0916 23.6769 74.9059 23.8564 74.7781C24.0856 74.6116 24.2815 74.573 24.4445 74.6624C24.774 74.8427 24.7224 75.3437 24.9995 75.381C25.0561 75.3882 25.1199 75.3665 25.1932 75.3159C25.264 75.2676 25.3159 75.2146 25.349 75.1615C25.3796 75.1085 25.3938 75.0506 25.3867 74.9903C25.3796 74.9034 25.3631 74.8191 25.3395 74.7419C25.3136 74.6624 25.2781 74.5876 25.2332 74.5176C25.1553 74.3946 25.0632 74.2885 24.9593 74.2041C24.8554 74.1174 24.7397 74.0522 24.6121 74.0016C24.4822 73.9533 24.3548 73.9219 24.2272 73.91C24.0974 73.9003 23.9674 73.9051 23.8352 73.9317C23.7053 73.9557 23.5777 73.9944 23.4526 74.0426C23.3274 74.0932 23.207 74.1583 23.0889 74.2354C22.9617 74.3162 22.8406 74.4068 22.7264 74.5055L22.5388 74.6804ZM93.4261 70.172C93.3837 70.2733 93.3317 70.4083 93.2656 70.5747C93.2018 70.7412 93.1238 70.9413 93.0389 71.1753C92.9514 71.4092 92.8546 71.6792 92.7483 71.9903C92.6421 72.3014 92.5264 72.6486 92.4012 73.0321C92.2784 73.418 92.1603 73.8014 92.0494 74.1825C91.936 74.5634 91.8321 74.9397 91.7306 75.3159C91.6313 75.6896 91.5416 76.0683 91.4661 76.4492C91.3881 76.8279 91.322 77.2113 91.2677 77.5972C91.1566 78.3665 91.1354 78.9886 91.2062 79.4614C91.2251 79.6036 91.2534 79.7386 91.2889 79.8641C91.322 79.9919 91.3716 80.127 91.433 80.2668C91.4967 80.4091 91.5794 80.5224 91.6833 80.6068C91.7352 80.6503 91.7896 80.6841 91.8486 80.708C91.9076 80.7322 91.969 80.7443 92.0352 80.7491C92.2501 80.7564 92.5193 80.6285 92.8452 80.3657C93.0081 80.2355 93.164 80.0956 93.3175 79.9485C93.4709 79.799 93.6198 79.6398 93.7639 79.4685C94.0543 79.131 94.3661 78.7282 94.699 78.2604C94.8643 78.0289 95.0084 77.8215 95.1312 77.6406C95.2517 77.4621 95.3532 77.3078 95.4311 77.1799C95.5115 77.0546 95.5893 76.9292 95.665 76.8087C95.7428 76.6881 95.8161 76.5699 95.8893 76.4517C95.9106 76.4179 95.9247 76.3842 95.9318 76.3529C95.9388 76.3215 95.9412 76.2949 95.9365 76.2685C95.9294 76.2153 95.9058 76.1768 95.861 76.1527C95.8161 76.1261 95.7547 76.1142 95.6744 76.1142C95.5846 76.1093 95.5091 76.1238 95.4477 76.1551C95.3862 76.1865 95.339 76.2347 95.3084 76.2974C95.2966 76.3142 95.2705 76.3552 95.2303 76.4179C95.1879 76.4806 95.1312 76.565 95.058 76.6711C94.9847 76.7773 94.9116 76.8834 94.836 76.9895C94.7604 77.098 94.6849 77.2041 94.6093 77.315C94.4558 77.5344 94.2763 77.7877 94.0685 78.077C93.9646 78.2219 93.8654 78.3616 93.7685 78.4967C93.6694 78.6294 93.5749 78.7596 93.4805 78.8826C93.3884 79.0056 93.2963 79.1261 93.2042 79.2443C93.1143 79.3601 93.0247 79.4734 92.935 79.5819C92.8452 79.6928 92.7625 79.7917 92.6846 79.8785C92.609 79.9654 92.5358 80.0425 92.4721 80.1052C92.4059 80.1679 92.3492 80.2162 92.2996 80.2475C92.2524 80.2812 92.2146 80.2958 92.1863 80.2958C92.1603 80.2958 92.1367 80.2812 92.1154 80.2548C92.0966 80.2258 92.0801 80.1824 92.0706 80.127C92.0588 80.0691 92.0516 80.0087 92.0494 79.9413C92.0446 79.8737 92.0422 79.8013 92.0422 79.7242C92.0422 79.647 92.0422 79.5868 92.0422 79.5482C92.0422 79.5096 92.0422 79.4878 92.0422 79.4831C92.1249 78.3472 92.4508 76.8617 93.0176 75.0337C93.301 74.1174 93.5868 73.2684 93.8748 72.4822C94.1606 71.6985 94.4488 70.9775 94.7415 70.3192C94.9824 70.3432 95.2375 70.3577 95.5091 70.3649C95.7783 70.3722 96.1113 70.3649 96.5056 70.3432C96.7016 70.3335 96.893 70.3167 97.0819 70.295C97.2685 70.2758 97.4526 70.2491 97.6321 70.2154C97.8116 70.1841 97.9934 70.143 98.1777 70.0901C98.3618 70.0369 98.5484 69.9743 98.7397 69.8995C99.1199 69.7499 99.4529 69.5667 99.7364 69.3473C99.878 69.2387 100.008 69.1133 100.131 68.971C100.251 68.8288 100.362 68.6697 100.461 68.4935C100.563 68.3175 100.643 68.1271 100.702 67.9269C100.761 67.7267 100.801 67.5144 100.823 67.2927C100.832 67.2323 100.83 67.1792 100.816 67.1334C100.801 67.0876 100.773 67.049 100.733 67.0177C100.69 66.9839 100.646 66.9646 100.598 66.9574C100.551 66.9502 100.501 66.9574 100.449 66.9742C100.398 66.9911 100.353 67.0201 100.32 67.0587C100.284 67.0997 100.258 67.1503 100.242 67.2154C100.228 67.4131 100.194 67.5988 100.142 67.7749C100.091 67.9509 100.02 68.115 99.9299 68.2669C99.8402 68.4188 99.7387 68.5562 99.6301 68.6793C99.519 68.8022 99.4009 68.9108 99.271 69.0024C99.1436 69.0941 99.0066 69.176 98.8578 69.2507C98.709 69.3255 98.5484 69.393 98.3808 69.4534C98.0407 69.574 97.7147 69.6584 97.403 69.709C97.0937 69.7572 96.7678 69.7862 96.4277 69.7934C96.2601 69.7959 96.1042 69.7983 95.9672 69.7983C95.8303 69.7958 95.7099 69.7934 95.606 69.7862C95.502 69.7789 95.4005 69.7717 95.306 69.7621C95.2091 69.7548 95.117 69.7452 95.032 69.7356C95.1383 69.5209 95.2469 69.3111 95.358 69.1109C95.4689 68.9108 95.5799 68.7178 95.6956 68.5346C95.7405 68.4719 95.7617 68.4043 95.7571 68.3367C95.7547 68.2692 95.7263 68.1994 95.6744 68.1246C95.6224 68.0499 95.561 67.992 95.4878 67.9486C95.417 67.9051 95.3366 67.8762 95.2446 67.8642C95.1549 67.8497 95.0651 67.8569 94.9706 67.8835C94.8785 67.9123 94.7864 67.963 94.692 68.033C94.5455 68.1752 94.4086 68.344 94.2763 68.5418C94.1464 68.7395 94.0496 68.9011 93.9858 69.0289C93.9551 69.0916 93.915 69.1736 93.8678 69.2725C93.8182 69.3738 93.7615 69.492 93.6954 69.6294C93.5442 69.6221 93.2466 69.586 92.8027 69.5234C92.5808 69.492 92.3729 69.4654 92.1769 69.4436C91.9808 69.4221 91.7966 69.4051 91.6266 69.3907C91.4566 69.3762 91.2747 69.3689 91.0788 69.3689C90.8827 69.3689 90.6725 69.3738 90.4505 69.3834C90.0089 69.4051 89.5861 69.4968 89.1847 69.6584C88.9839 69.7403 88.7951 69.8368 88.6155 69.9525C88.4337 70.0659 88.2661 70.1961 88.1055 70.3457C88.0771 70.3649 88.0535 70.389 88.0347 70.4155C88.0133 70.4397 87.9993 70.4686 87.9875 70.4999C87.9614 70.5699 87.9543 70.6374 87.9661 70.7001C87.9803 70.7628 88.0133 70.8207 88.0653 70.8737C88.1173 70.9268 88.1692 70.9534 88.2236 70.9485C88.2802 70.9462 88.3346 70.9148 88.389 70.8545C88.4905 70.7508 88.6015 70.6568 88.7266 70.5747C88.8517 70.4903 88.9887 70.4155 89.1374 70.3529C89.2863 70.2878 89.4327 70.2348 89.5767 70.1938C89.7208 70.1504 89.8625 70.119 90.0019 70.0972C90.2782 70.0563 90.604 70.0345 90.9771 70.0345C91.1637 70.0345 91.3338 70.037 91.4873 70.0442C91.6384 70.049 91.7754 70.0587 91.8959 70.0683C92.0187 70.0803 92.1509 70.0924 92.2973 70.1093C92.4413 70.1262 92.5996 70.143 92.7696 70.1647C92.9373 70.1864 93.0766 70.2034 93.183 70.2178C93.2915 70.2298 93.3671 70.2395 93.4119 70.242L93.4261 70.172ZM130.94 76.4734C130.801 76.6205 130.65 76.7604 130.484 76.8931C130.319 77.0232 130.135 77.156 129.934 77.2885C129.733 77.4235 129.514 77.5635 129.275 77.7033C129.178 77.2765 129.101 76.8955 129.044 76.5602C128.99 76.2251 128.952 75.938 128.935 75.6968C128.928 75.6052 128.928 75.5064 128.935 75.4003C128.938 75.3472 128.945 75.2917 128.949 75.2363C128.957 75.1784 128.966 75.1181 128.975 75.053C128.997 74.9275 129.039 74.8215 129.101 74.7371C129.164 74.6503 129.24 74.6093 129.33 74.6093C129.353 74.6093 129.372 74.614 129.389 74.6237C129.403 74.6334 129.412 74.6478 129.419 74.6647C129.434 74.701 129.434 74.7515 129.419 74.8143C129.412 74.8456 129.405 74.8769 129.398 74.9083C129.391 74.9421 129.382 74.9735 129.372 75.0048C129.351 75.0675 129.33 75.1254 129.308 75.1736C129.299 75.2 129.292 75.2194 129.287 75.2314C129.282 75.246 129.28 75.2556 129.28 75.258C129.278 75.2917 129.28 75.3231 129.285 75.3544C129.292 75.3857 129.301 75.4171 129.315 75.4509C129.33 75.4823 129.346 75.5112 129.363 75.5353C129.382 75.5618 129.403 75.5835 129.426 75.6052C129.476 75.6486 129.537 75.6558 129.613 75.6269C129.651 75.6125 129.689 75.5884 129.726 75.5522C129.767 75.5161 129.804 75.4677 129.842 75.4075L129.889 75.4437C129.977 75.3207 130.038 75.1953 130.076 75.0675C130.114 74.9397 130.128 74.8071 130.118 74.6743C130.109 74.5393 130.078 74.4212 130.031 74.3175C129.981 74.2162 129.915 74.127 129.828 74.0522C129.724 73.9606 129.599 73.8979 129.455 73.8616C129.382 73.8424 129.306 73.8352 129.23 73.8352C129.155 73.8352 129.079 73.8473 129.004 73.8689C128.928 73.8882 128.85 73.9172 128.777 73.9533C128.701 73.9895 128.626 74.0354 128.553 74.086C128.409 74.1921 128.283 74.3489 128.18 74.5538C128.128 74.655 128.083 74.7661 128.045 74.8866C128.009 75.0073 127.979 75.1374 127.958 75.2749C127.927 75.5039 127.943 75.873 128.005 76.3818C128.068 76.8906 128.18 77.5393 128.34 78.3255C128.196 78.4243 128.054 78.5305 127.915 78.6438C127.773 78.7571 127.634 78.8778 127.495 79.0032C127.355 79.131 127.218 79.2708 127.086 79.4227C126.952 79.5746 126.819 79.7386 126.692 79.9147C126.564 80.0931 126.463 80.262 126.387 80.4236C126.312 80.5875 126.264 80.7418 126.243 80.8914C126.227 81.0144 126.222 81.1301 126.227 81.241C126.234 81.352 126.253 81.4557 126.286 81.5545C126.316 81.6534 126.356 81.7427 126.404 81.8199C126.453 81.8971 126.512 81.9646 126.581 82.02C126.649 82.0778 126.725 82.1261 126.805 82.1695C126.883 82.2129 126.968 82.2491 127.058 82.2828C127.237 82.3456 127.433 82.3673 127.639 82.3456C127.743 82.336 127.847 82.3165 127.948 82.2926C128.047 82.2684 128.149 82.237 128.248 82.196C128.35 82.1575 128.446 82.1092 128.541 82.049C128.635 81.9887 128.727 81.9186 128.817 81.8367C128.907 81.7571 128.99 81.668 129.068 81.5714C129.143 81.4774 129.214 81.3737 129.28 81.2652C129.632 80.6357 129.682 79.647 129.426 78.299C130.128 77.8766 130.707 77.3883 131.25 76.8667C131.504 76.6227 131.751 76.378 132.001 76.1437C133.049 75.1632 134.151 74.3673 136.037 74.5817C137.153 74.7084 138.346 75.137 139.572 75.7731C140.206 76.1022 140.849 76.4868 141.494 76.9138C142.71 77.7173 144.037 77.9311 145.404 77.6938C146.888 77.4362 148.416 76.6436 149.892 75.4986C150.012 75.4053 150.036 75.2299 149.944 75.1069C149.853 74.9841 149.681 74.96 149.561 75.0532C149.452 75.1376 149.343 75.2199 149.234 75.2999C147.931 76.2587 146.599 76.918 145.314 77.1411C144.078 77.3555 142.882 77.1649 141.793 76.4444C141.405 76.1877 141.017 75.9458 140.631 75.7212C139.067 74.8114 137.53 74.1872 136.098 74.0245C133.362 73.7138 132.517 74.7522 130.94 76.4734ZM103.32 76.3119C103.265 76.3576 103.209 76.4252 103.15 76.512C103.091 76.5988 103.029 76.7074 102.968 76.8351C102.906 76.9606 102.847 77.098 102.791 77.2427C102.734 77.3874 102.68 77.5417 102.63 77.7033C102.526 78.0289 102.455 78.369 102.422 78.7211C102.403 78.897 102.396 79.0683 102.396 79.2298C102.396 79.3915 102.403 79.5434 102.422 79.6904C102.439 79.8351 102.474 79.9677 102.526 80.0859C102.578 80.2065 102.647 80.3102 102.732 80.4042C102.819 80.4959 102.921 80.5634 103.039 80.6093C103.157 80.6551 103.289 80.6743 103.438 80.6719C103.681 80.6647 104.13 80.3608 104.786 79.7603C105.445 79.1599 106.066 78.5232 106.654 77.8528C107.242 77.1799 107.589 76.7217 107.693 76.4734C107.703 76.4492 107.712 76.4252 107.719 76.401C107.726 76.3769 107.731 76.3552 107.734 76.3335C107.745 76.2589 107.734 76.2009 107.703 76.1623C107.67 76.1238 107.618 76.1021 107.54 76.0996C107.462 76.0972 107.386 76.1093 107.318 76.1406C107.249 76.1719 107.186 76.2202 107.127 76.2828C107.004 76.4566 106.791 76.7243 106.484 77.0836C106.175 77.4429 105.776 77.8986 105.285 78.446C104.793 78.9935 104.401 79.4058 104.109 79.6808C103.816 79.9557 103.622 80.0932 103.528 80.0932C103.495 80.0932 103.464 80.086 103.44 80.0714C103.416 80.057 103.398 80.0329 103.383 80.0015C103.369 79.9702 103.36 79.9316 103.355 79.8857C103.353 79.84 103.35 79.787 103.355 79.7265C103.362 79.606 103.376 79.4782 103.398 79.3431C103.416 79.2105 103.452 79.0538 103.499 78.8778C103.525 78.7885 103.549 78.7041 103.572 78.6221C103.596 78.5401 103.622 78.4606 103.646 78.3834C103.669 78.3063 103.695 78.2242 103.723 78.1422C103.752 78.0601 103.78 77.9757 103.811 77.8889C103.844 77.7998 103.872 77.7202 103.898 77.6479C103.927 77.5778 103.95 77.5129 103.971 77.4573L104.101 77.11C104.123 77.0546 104.139 77.0088 104.149 76.9775C104.16 76.9461 104.168 76.9268 104.172 76.9195C104.203 76.8231 104.219 76.7387 104.224 76.6615C104.229 76.5843 104.219 76.5168 104.198 76.4614C104.179 76.4035 104.149 76.3552 104.111 76.3119C104.075 76.2708 104.03 76.2371 103.979 76.2129C103.927 76.1888 103.87 76.1719 103.813 76.1647C103.754 76.1575 103.695 76.1551 103.631 76.1623C103.57 76.1695 103.511 76.1841 103.454 76.2057C103.398 76.2251 103.343 76.2515 103.294 76.2828L103.32 76.3119ZM104.255 75.6415C104.264 75.6366 104.276 75.6318 104.29 75.6245C104.302 75.6197 104.316 75.6125 104.33 75.6052C104.484 75.5233 104.593 75.4293 104.661 75.3231C104.73 75.2169 104.756 75.0989 104.739 74.9686C104.725 74.8673 104.692 74.7781 104.64 74.7034C104.586 74.6286 104.515 74.5707 104.42 74.5224C104.191 74.4042 103.971 74.4452 103.757 74.6503C103.683 74.7153 103.629 74.7878 103.591 74.8697C103.551 74.9517 103.532 75.0434 103.528 75.1446C103.525 75.2483 103.539 75.3376 103.57 75.4171C103.603 75.4943 103.653 75.5618 103.721 75.6197C103.792 75.6752 103.87 75.7065 103.96 75.7089C104.049 75.7113 104.151 75.6849 104.262 75.6342L104.255 75.6415ZM118.411 75.282C118.449 75.34 118.496 75.3737 118.55 75.381C118.607 75.3882 118.671 75.3665 118.744 75.3159C118.815 75.2676 118.867 75.2146 118.9 75.1615C118.931 75.1085 118.945 75.0506 118.938 74.9903C118.931 74.9034 118.914 74.8191 118.89 74.7419C118.865 74.6624 118.829 74.5876 118.784 74.5176C118.706 74.3946 118.614 74.2885 118.51 74.2041C118.406 74.1174 118.291 74.0522 118.163 74.0016C118.033 73.9533 117.906 73.9219 117.778 73.91C117.648 73.9003 117.518 73.9051 117.386 73.9317C117.256 73.9557 117.129 73.9944 117.004 74.0426C116.878 74.0932 116.758 74.1583 116.64 74.2354C116.484 74.3343 116.333 74.4501 116.189 74.5852C116.045 74.7177 115.908 74.8697 115.776 75.041C115.511 75.3786 115.299 75.7402 115.131 76.1213C114.966 76.5023 114.855 76.9002 114.8 77.3102C114.744 77.7178 114.751 78.0939 114.822 78.434C114.89 78.7717 115.041 79.0683 115.277 79.3239C115.395 79.4493 115.532 79.5554 115.688 79.6374C115.844 79.7194 116.021 79.7797 116.217 79.8183C116.333 79.84 116.449 79.8496 116.567 79.8447C116.685 79.8423 116.805 79.8255 116.93 79.7966C117.056 79.77 117.176 79.7314 117.294 79.688C117.412 79.6422 117.526 79.5892 117.636 79.5288C117.859 79.4107 118.092 79.2467 118.343 79.0417C118.465 78.9404 118.583 78.8391 118.694 78.7403C118.806 78.639 118.909 78.5401 119.006 78.4412C119.103 78.3424 119.202 78.2362 119.306 78.1229C119.41 78.0095 119.519 77.8866 119.63 77.7564C119.738 77.6237 119.838 77.5055 119.925 77.397C120.012 77.2861 120.09 77.1896 120.154 77.1053C120.22 77.0209 120.289 76.9292 120.362 76.8327C120.435 76.7387 120.511 76.635 120.591 76.5264C120.624 76.471 120.645 76.4204 120.655 76.3672C120.662 76.3142 120.657 76.2636 120.638 76.2153C120.605 76.1142 120.53 76.0586 120.411 76.0441C120.352 76.0369 120.3 76.0466 120.253 76.0731C120.208 76.0972 120.168 76.1407 120.135 76.2009C120.088 76.2732 120.038 76.3529 119.979 76.4348C119.92 76.5168 119.854 76.6037 119.781 76.6953C119.708 76.7869 119.63 76.8833 119.542 76.9871C119.457 77.0884 119.365 77.1968 119.268 77.3102C119.172 77.4235 119.075 77.5344 118.973 77.643C118.874 77.7516 118.77 77.8577 118.666 77.9614C118.562 78.0627 118.456 78.1639 118.347 78.2628C118.236 78.3616 118.125 78.4581 118.01 78.5546C117.896 78.651 117.783 78.7354 117.674 78.8078C117.563 78.8825 117.457 78.9429 117.353 78.9935C117.249 79.0417 117.148 79.0827 117.046 79.114C116.945 79.1454 116.843 79.1671 116.744 79.1767C116.543 79.1985 116.371 79.1406 116.224 79.0079C115.901 78.745 115.797 78.229 115.913 77.4598C115.939 77.2934 115.986 77.1076 116.059 76.9075C116.13 76.7049 116.224 76.483 116.342 76.2419C116.519 75.8826 116.697 75.5787 116.874 75.3351C117.051 75.0916 117.228 74.9059 117.407 74.7781C117.636 74.6116 117.833 74.573 117.996 74.6624C118.158 74.7515 118.291 74.9661 118.39 75.3086L118.411 75.282ZM128.409 78.9188C128.411 78.9332 128.418 78.9718 128.423 79.032C128.43 79.0923 128.439 79.1767 128.449 79.2878C128.461 79.3962 128.468 79.4855 128.475 79.5578C128.482 79.6278 128.484 79.6784 128.484 79.7097V80.057C128.484 80.2186 128.47 80.3608 128.444 80.4814C128.43 80.5417 128.413 80.6021 128.395 80.6599C128.378 80.7202 128.357 80.7805 128.333 80.8408C128.314 80.8938 128.295 80.9444 128.274 80.9903C128.255 81.0361 128.231 81.082 128.208 81.1229C128.007 81.4701 127.75 81.6462 127.438 81.6534C127.315 81.6583 127.207 81.6342 127.112 81.5835C127.018 81.5328 126.94 81.4557 126.878 81.3496C126.798 81.2049 126.772 81.0457 126.796 80.8721C126.819 80.6984 126.895 80.508 127.025 80.3054C127.169 80.0714 127.358 79.84 127.592 79.6109C127.823 79.3793 128.099 79.1527 128.423 78.926L128.409 78.9188ZM36.1729 74.3705C35.84 74.4405 35.5425 74.6166 35.2804 74.8987C35.1481 75.0409 35.0276 75.1904 34.9214 75.352C34.8151 75.5112 34.723 75.68 34.6427 75.8609C34.4727 76.2251 34.3545 76.5963 34.2909 76.9726C34.2247 77.3487 34.2129 77.7323 34.2554 78.1205C34.2837 78.352 34.3357 78.5618 34.416 78.7499C34.4962 78.9404 34.6001 79.1092 34.7324 79.2587C34.9946 79.5554 35.3558 79.7169 35.8117 79.746C36.2037 79.7749 36.5816 79.6688 36.9499 79.43C37.316 79.1889 37.6702 78.8175 38.0126 78.311C38.2134 78.3496 38.4141 78.3641 38.6149 78.3544C38.8156 78.3448 39.0187 78.3086 39.2242 78.2483C39.6303 78.1277 39.9917 77.9517 40.3034 77.7178C40.4569 77.602 40.6009 77.4863 40.7332 77.3681C40.8654 77.25 40.9883 77.1318 41.0993 77.0113C41.2079 76.8931 41.3071 76.7749 41.3945 76.6591C41.4795 76.5433 41.5551 76.43 41.6164 76.3191C41.6378 76.2732 41.6472 76.2322 41.6472 76.1961C41.6472 76.1599 41.6378 76.1285 41.6164 76.1021C41.5976 76.0731 41.5692 76.0514 41.5386 76.0369C41.5055 76.0224 41.4677 76.0128 41.4228 76.008C41.378 76.0056 41.3378 76.0103 41.2976 76.0248C41.2599 76.0369 41.2268 76.0587 41.1961 76.0875C40.6623 76.7121 40.1594 77.1631 39.6871 77.4381C39.2124 77.7129 38.7707 77.8142 38.3575 77.7395C38.5724 77.3367 38.7471 76.9533 38.877 76.5843C39.0093 76.2153 39.1013 75.8633 39.1533 75.5281C39.2856 74.5249 39.0707 73.84 38.511 73.4734C38.2937 73.336 38.0694 73.2564 37.8402 73.2346C37.6112 73.213 37.375 73.2492 37.1341 73.3456C36.8933 73.4397 36.6879 73.5723 36.5225 73.7435C36.3549 73.9148 36.2273 74.1221 36.1376 74.3705H36.1729ZM37.7647 77.5996C37.6347 77.5658 37.5167 77.5201 37.4058 77.4549C37.2971 77.3922 37.1956 77.3126 37.1058 77.2162C37.0161 77.1222 36.9382 77.0184 36.8744 76.9099C36.8082 76.8014 36.7563 76.688 36.7185 76.5674C36.6807 76.4469 36.6477 76.3215 36.6217 76.1913C36.5957 76.061 36.5744 75.9284 36.5603 75.7909C36.5462 75.6511 36.5414 75.5185 36.5462 75.3882C36.5485 75.258 36.5626 75.1327 36.5887 75.012C36.6193 74.8046 36.6808 74.619 36.7705 74.4549C36.8602 74.2933 36.983 74.1512 37.1341 74.0305C37.4389 73.7893 37.7647 73.7893 38.1095 74.0305C38.5039 74.2981 38.648 74.7997 38.544 75.5353C38.4921 75.8296 38.4023 76.1478 38.2701 76.4952C38.1402 76.8399 37.9702 77.209 37.7647 77.6069V77.5996ZM37.3964 78.1712C37.3277 78.2772 37.2593 78.3762 37.1885 78.4678C37.1554 78.5136 37.113 78.5618 37.0657 78.6149C37.0185 78.6679 36.9641 78.7257 36.9051 78.7861C36.7894 78.9066 36.6784 78.9983 36.5744 79.061C36.5225 79.0923 36.4658 79.1165 36.4091 79.1333C36.3501 79.1502 36.2911 79.1599 36.2274 79.1599C36.1659 79.1599 36.1069 79.1454 36.0525 79.1165C35.9983 79.0899 35.9486 79.0466 35.9038 78.991C35.7007 78.7571 35.585 78.4243 35.5495 77.9951C35.5307 77.7781 35.5284 77.5658 35.5401 77.3585C35.5519 77.151 35.578 76.9461 35.618 76.7435C35.7007 76.3408 35.8117 76.0031 35.951 75.7259C35.9676 76.0103 36.01 76.2757 36.0761 76.5264C36.1423 76.7749 36.2344 77.0088 36.3525 77.2234C36.5887 77.6551 36.9405 77.959 37.4104 78.135L37.3964 78.1712ZM50.8677 75.4437C50.9552 75.3207 51.0166 75.1953 51.0543 75.0675C51.092 74.9397 51.1063 74.8071 51.0968 74.6743C51.0874 74.5393 51.0567 74.4212 51.0094 74.3175C50.9598 74.2162 50.8937 74.127 50.8063 74.0522C50.7024 73.9606 50.5773 73.8979 50.4332 73.8616C50.36 73.8424 50.2844 73.8352 50.2089 73.8352C50.1332 73.8352 50.0578 73.8473 49.9821 73.8689C49.9065 73.8882 49.8286 73.9172 49.7554 73.9533C49.6798 73.9895 49.6043 74.0354 49.5311 74.086C49.387 74.1921 49.2618 74.3489 49.158 74.5538C49.106 74.655 49.0611 74.7661 49.0233 74.8866C48.9879 75.0073 48.9572 75.1374 48.936 75.2749C48.9052 75.5039 48.9218 75.873 48.9833 76.3818C49.0469 76.8906 49.158 77.5393 49.3185 78.3255C49.1744 78.4243 49.0328 78.5305 48.8934 78.6438C48.7517 78.7571 48.6124 78.8778 48.4731 79.0032C48.3338 79.131 48.1968 79.2708 48.0644 79.4227C47.93 79.5746 47.7977 79.7386 47.6702 79.9147C47.5427 80.0931 47.441 80.262 47.3655 80.4236C47.2899 80.5875 47.2427 80.7418 47.2215 80.8914C47.2049 81.0144 47.2002 81.1301 47.2049 81.241C47.212 81.352 47.2309 81.4557 47.2639 81.5545C47.2947 81.6534 47.3348 81.7427 47.382 81.8199C47.4316 81.8971 47.4907 81.9646 47.5591 82.02C47.6276 82.0778 47.7032 82.1261 47.7835 82.1695C47.8614 82.2129 47.9464 82.2491 48.0362 82.2828C48.2157 82.3456 48.4117 82.3673 48.6171 82.3456C48.721 82.336 48.8249 82.3165 48.9264 82.2926C49.0256 82.2684 49.1272 82.237 49.2264 82.196C49.3279 82.1575 49.4247 82.1092 49.5192 82.049C49.6137 81.9887 49.7058 81.9186 49.7956 81.8367C49.8852 81.7571 49.9679 81.668 50.046 81.5714C50.1214 81.4774 50.1923 81.3737 50.2585 81.2652C50.6103 80.6357 50.66 79.647 50.4049 78.299C51.614 77.5707 52.3886 76.9195 52.7287 76.348C52.776 76.2275 52.776 76.1357 52.7287 76.0731C52.7051 76.0394 52.6744 76.0152 52.6365 75.9935C52.5988 75.9742 52.5562 75.9597 52.5067 75.9525C52.4595 75.9454 52.4146 75.9454 52.3791 75.9525C52.3413 75.9597 52.3106 75.9766 52.2847 76.0007C52.1784 76.1671 52.0557 76.3238 51.9186 76.4734C51.7793 76.6205 51.6282 76.7604 51.4629 76.8931C51.2976 77.0232 51.1133 77.156 50.9126 77.2885C50.7119 77.4235 50.4923 77.5635 50.2537 77.7033C50.1569 77.2765 50.0789 76.8955 50.0223 76.5602C49.9679 76.2251 49.9301 75.938 49.9137 75.6968C49.9065 75.6052 49.9065 75.5064 49.9137 75.4003C49.916 75.3472 49.9231 75.2917 49.9278 75.2363C49.9349 75.1784 49.9444 75.1181 49.9538 75.053C49.9751 74.9275 50.0175 74.8215 50.0789 74.7371C50.1427 74.6503 50.2183 74.6093 50.3081 74.6093C50.3317 74.6093 50.3506 74.614 50.3671 74.6237C50.3812 74.6334 50.3908 74.6478 50.3978 74.6647C50.412 74.701 50.412 74.7515 50.3978 74.8143C50.3908 74.8456 50.3836 74.8769 50.3765 74.9083C50.3694 74.9421 50.36 74.9735 50.3506 75.0048C50.3293 75.0675 50.3081 75.1254 50.2867 75.1736C50.2773 75.2 50.2703 75.2194 50.2655 75.2314C50.2608 75.246 50.2585 75.2556 50.2585 75.258C50.2561 75.2917 50.2585 75.3231 50.2631 75.3544C50.2703 75.3857 50.2797 75.4171 50.2939 75.4509C50.3081 75.4823 50.3245 75.5112 50.3411 75.5353C50.36 75.5618 50.3812 75.5835 50.4049 75.6052C50.4545 75.6486 50.5159 75.6558 50.5914 75.6269C50.6292 75.6125 50.667 75.5884 50.7048 75.5522C50.745 75.5161 50.7827 75.4677 50.8205 75.4075L50.8677 75.4437ZM49.387 78.9188C49.3894 78.9332 49.3965 78.9718 49.4012 79.032C49.4083 79.0923 49.4177 79.1767 49.4271 79.2878C49.439 79.3962 49.446 79.4855 49.4532 79.5578C49.4602 79.6278 49.4626 79.6784 49.4626 79.7097V80.057C49.4626 80.2186 49.4484 80.3608 49.4224 80.4814C49.4083 80.5417 49.3918 80.6021 49.3729 80.6599C49.3563 80.7202 49.335 80.7805 49.3115 80.8408C49.2925 80.8938 49.2736 80.9444 49.2524 80.9903C49.2335 81.0361 49.2098 81.082 49.1863 81.1229C48.9855 81.4701 48.7281 81.6462 48.4164 81.6534C48.2936 81.6583 48.185 81.6342 48.0905 81.5835C47.996 81.5328 47.9181 81.4557 47.8567 81.3496C47.7765 81.2049 47.7504 81.0457 47.7741 80.8721C47.7977 80.6984 47.8732 80.508 48.0031 80.3054C48.1471 80.0714 48.3361 79.84 48.5699 79.6109C48.8013 79.3793 49.0776 79.1527 49.4012 78.926L49.387 78.9188ZM61.4462 76.0345C61.465 75.9815 61.4674 75.9332 61.458 75.8874C61.4462 75.844 61.4226 75.803 61.3848 75.7668C61.3234 75.7017 61.2384 75.6535 61.1297 75.6294C61.0234 75.6028 60.8935 75.5981 60.7424 75.6125C60.4448 75.6415 60.263 75.733 60.2016 75.8874C59.9654 76.5023 59.7599 77.2716 59.5782 78.1977C59.3987 79.1237 59.3775 79.8109 59.5168 80.2548C59.5332 80.3078 59.564 80.3535 59.6041 80.3898C59.6443 80.4259 59.6962 80.4549 59.76 80.4742C59.8828 80.5176 60.0151 80.5176 60.152 80.4742C60.2229 80.4525 60.2819 80.4211 60.3315 80.3802C60.3788 80.3367 60.419 80.2837 60.4496 80.221C60.4944 80.1462 60.5535 80.04 60.6219 79.9027C60.6928 79.7652 60.7755 79.594 60.8723 79.3938C60.9691 79.1913 61.0588 79.0176 61.1369 78.8681C61.2171 78.7186 61.288 78.5956 61.3494 78.4967C61.4013 78.3978 61.4721 78.2676 61.5619 78.1084C61.654 77.9469 61.7626 77.7564 61.8902 77.5344C62.3152 76.7845 62.6742 76.1816 62.9694 75.7259C63.2623 75.27 63.4912 74.9589 63.6543 74.795C63.7582 74.684 63.8172 74.6624 63.8314 74.725C63.8455 74.7901 63.8172 74.9397 63.744 75.176C63.7369 75.1953 63.6826 75.3786 63.5787 75.7259C63.4748 76.0707 63.3992 76.3334 63.3496 76.5096C63.3259 76.5988 63.2953 76.7097 63.2599 76.8472C63.2244 76.9846 63.1842 77.1462 63.1347 77.3295C63.0875 77.5129 63.0474 77.6816 63.0143 77.8336C62.9835 77.9855 62.9576 78.1205 62.9411 78.2411C62.908 78.4822 62.8726 78.7499 62.8372 79.0466C62.8206 79.1961 62.8112 79.3335 62.8112 79.4614C62.8112 79.5868 62.8159 79.705 62.83 79.8109C62.8443 79.9147 62.8632 80.0111 62.8891 80.1005C62.9127 80.1872 62.9459 80.2644 62.9835 80.3319C63.0167 80.3994 63.0639 80.4501 63.1229 80.4839C63.182 80.52 63.2529 80.5369 63.3355 80.5369C63.4181 80.5369 63.489 80.5224 63.5504 80.4935C63.6094 80.4646 63.6566 80.4211 63.6943 80.3609C63.7062 80.3464 63.7345 80.2909 63.7842 80.1968C63.8337 80.1005 63.9023 79.9654 63.9919 79.787C64.1667 79.4421 64.3037 79.1671 64.4077 78.9622C65.0334 77.7346 65.5223 76.8882 65.8742 76.4228C66.2261 75.9574 66.441 75.8706 66.5164 76.1623C66.5377 76.2371 66.5472 76.3359 66.5449 76.4589C66.5425 76.5843 66.5283 76.7314 66.5047 76.9051C66.4811 77.0787 66.455 77.2547 66.4268 77.4332C66.3984 77.6141 66.3701 77.795 66.3394 77.9806C66.2757 78.3472 66.2355 78.7137 66.2142 79.0827C66.193 79.4493 66.2425 79.7676 66.3606 80.0377C66.4763 80.3054 66.6772 80.4742 66.9605 80.5441C67.1022 80.5827 67.2463 80.5851 67.3927 80.5513C67.5368 80.5152 67.6832 80.4453 67.8319 80.3392C67.9949 80.2234 68.1743 80.0642 68.3727 79.8617C68.5688 79.6616 68.7836 79.4155 69.0151 79.1237C69.2465 78.8343 69.4614 78.557 69.6574 78.2869C69.8559 78.0193 70.0329 77.7636 70.1911 77.5201C70.3517 77.2765 70.4887 77.0618 70.602 76.8785C70.7155 76.6953 70.8051 76.541 70.869 76.4179C70.8878 76.3818 70.9019 76.348 70.9114 76.3166C70.9209 76.2853 70.9256 76.2539 70.9256 76.2275C70.9209 76.1695 70.9019 76.1261 70.869 76.0924C70.8335 76.061 70.7839 76.0394 70.7178 76.0298C70.6374 76.0176 70.562 76.0297 70.4911 76.061C70.4179 76.0947 70.3517 76.1478 70.2879 76.2275C70.2644 76.2588 70.2195 76.3191 70.1557 76.4132C70.0896 76.5048 70.0046 76.6254 69.9007 76.7773C69.7968 76.9292 69.6905 77.0859 69.5795 77.25C69.4685 77.4115 69.3552 77.5755 69.237 77.7467C69.119 77.9155 68.9986 78.0868 68.8758 78.2555C68.7506 78.4268 68.6254 78.598 68.498 78.7717C68.368 78.9452 68.2452 79.1044 68.1295 79.2467C68.0114 79.3915 67.9028 79.5216 67.7989 79.6325C67.695 79.746 67.6052 79.8327 67.5343 79.893C67.4635 79.9509 67.4068 79.9847 67.369 79.9871C67.3147 79.9894 67.2699 79.975 67.2392 79.9413C67.2061 79.905 67.1849 79.8519 67.1754 79.7821C67.1659 79.7122 67.1636 79.6277 67.1706 79.5312C67.1778 79.4348 67.1919 79.3263 67.2179 79.2034C67.2392 79.078 67.2651 78.9525 67.2935 78.8198C67.3218 78.6897 67.3548 78.5546 67.388 78.4172C67.4234 78.2796 67.4564 78.1349 67.4871 77.983C67.5201 77.8311 67.5509 77.672 67.5816 77.5056C67.643 77.1728 67.6784 76.8834 67.6855 76.6373C67.6997 76.1357 67.5816 75.774 67.3336 75.5571C67.2085 75.4462 67.0714 75.3761 66.9227 75.3448C66.7739 75.3134 66.6109 75.3207 66.4338 75.3665C66.3559 75.3857 66.2757 75.4148 66.1953 75.4509C66.1174 75.4871 66.0371 75.5305 65.9568 75.5835C65.8765 75.6366 65.8009 75.6968 65.723 75.7644C65.6474 75.832 65.5743 75.9091 65.501 75.9935C65.4278 76.0779 65.3593 76.1599 65.2979 76.2371C65.2342 76.3142 65.1752 76.389 65.1208 76.4589C65.0099 76.6012 64.8846 76.7918 64.7476 77.0329C64.6768 77.1534 64.6178 77.2547 64.5706 77.3416C64.521 77.426 64.4831 77.4959 64.4572 77.5489C64.4289 77.602 64.3934 77.6696 64.3509 77.7492C64.3084 77.8311 64.2588 77.9276 64.1998 78.0361C64.3675 77.4742 64.5068 76.9557 64.6202 76.483C64.7335 76.0103 64.8185 75.5812 64.8776 75.1953C64.9366 74.8119 64.9106 74.5153 64.7949 74.3078C64.6816 74.1004 64.4831 73.9823 64.1998 73.9533C64.1407 73.946 64.0794 73.9486 64.0156 73.9582C63.9495 73.9702 63.8833 73.9895 63.8125 74.016C63.744 74.045 63.6755 74.0836 63.6047 74.1317C63.5338 74.18 63.463 74.2403 63.3922 74.3055C63.3189 74.3729 63.2481 74.4429 63.1772 74.5128C63.1088 74.5828 63.0379 74.6527 62.9694 74.7226C62.9009 74.7925 62.8277 74.8745 62.7545 74.9661C62.6813 75.0579 62.6057 75.1616 62.5254 75.2749C62.3672 75.4991 62.2278 75.6968 62.1121 75.8656C62.0531 75.9501 61.9894 76.049 61.9232 76.1575C61.8595 76.266 61.7887 76.3866 61.7178 76.5168C61.5713 76.7773 61.4603 76.975 61.3848 77.11C61.347 77.1776 61.3021 77.2596 61.2501 77.3537C61.2005 77.4477 61.1439 77.5562 61.0802 77.6768C61.0187 77.795 60.9691 77.8914 60.9314 77.9614C60.8935 78.0337 60.8699 78.0795 60.8581 78.0988C60.8393 78.1422 60.7897 78.2411 60.7141 78.3978C60.7755 78.1398 60.8463 77.8746 60.9267 77.6069C61.0046 77.3391 61.0896 77.0642 61.1841 76.7845L61.4462 76.0345ZM79.2014 77.3512C79.218 77.3487 79.2392 77.344 79.2676 77.3367C79.2959 77.3295 79.329 77.3248 79.3668 77.3175C79.5084 77.2813 79.6407 77.2451 79.7682 77.2113C79.8934 77.1776 80.0115 77.1438 80.1201 77.1124C80.2311 77.0786 80.3468 77.0426 80.4648 76.9991C80.583 76.9581 80.7058 76.9099 80.8333 76.8568C80.9631 76.8038 81.0837 76.7411 81.197 76.6711C81.3127 76.6036 81.419 76.524 81.5205 76.4396C81.6197 76.3552 81.7095 76.2636 81.7898 76.1647C81.87 76.0683 81.9386 75.9622 81.9976 75.8536C82.0873 75.6776 82.1415 75.5087 82.1582 75.3496C82.177 75.1904 82.1605 75.0409 82.1085 74.8987C82.0519 74.7467 81.974 74.6165 81.8747 74.508C81.7755 74.3995 81.6552 74.3127 81.5135 74.2499C81.3718 74.1849 81.2229 74.1439 81.0718 74.1221C80.9207 74.1005 80.7648 74.1005 80.6065 74.1221C80.446 74.1439 80.2949 74.18 80.1532 74.2331C80.0115 74.2861 79.8745 74.3512 79.7469 74.4333C79.5037 74.5852 79.2794 74.7708 79.0693 74.9878C78.8567 75.2073 78.6654 75.4581 78.4883 75.7402C78.1364 76.3046 77.9144 76.8859 77.8246 77.4791C77.8105 77.602 77.801 77.725 77.794 77.8504C77.7868 77.9733 77.7868 78.0965 77.7892 78.2219C77.794 78.3448 77.8057 78.4653 77.8294 78.5811C77.853 78.6993 77.886 78.8151 77.9285 78.9284C78.0112 79.1526 78.1151 79.3504 78.2379 79.5216C78.3017 79.606 78.3749 79.6832 78.4622 79.7532C78.5473 79.8231 78.6441 79.8833 78.7504 79.9388C78.8589 79.9894 78.9724 80.0304 79.0928 80.0546C79.2132 80.0811 79.3431 80.0932 79.4778 80.0932C79.7186 80.0932 79.9689 80.0498 80.224 79.9654C80.3539 79.9244 80.4766 79.8737 80.5995 79.8183C80.7199 79.7628 80.8381 79.7 80.9514 79.635C81.067 79.5675 81.1829 79.4902 81.3009 79.4058C81.419 79.3191 81.5394 79.225 81.6646 79.119C81.9149 78.9066 82.1345 78.7017 82.3282 78.504C82.5218 78.3063 82.7297 78.0795 82.9516 77.8264C83.0626 77.6985 83.1618 77.5803 83.2539 77.4694C83.3437 77.3609 83.4264 77.2596 83.4972 77.168C83.5703 77.0762 83.6459 76.9799 83.7262 76.8762C83.8066 76.7724 83.8892 76.6615 83.9766 76.5458C84.0144 76.4854 84.038 76.43 84.0474 76.3745C84.0592 76.3215 84.0545 76.2708 84.038 76.2202C84.0025 76.1213 83.927 76.0659 83.8089 76.0514C83.7498 76.0441 83.6979 76.0537 83.6483 76.0779C83.601 76.102 83.5609 76.1431 83.5255 76.2009C83.2917 76.5747 82.9659 76.9991 82.5502 77.4717C82.1345 77.9445 81.6646 78.3834 81.1379 78.7861C80.8758 78.9886 80.635 79.1382 80.4176 79.2419C80.2004 79.3431 80.0067 79.3938 79.8368 79.3938C79.7328 79.3938 79.6383 79.3745 79.5533 79.3359C79.4659 79.2974 79.3903 79.2395 79.3243 79.1599C79.2581 79.0827 79.2061 78.9983 79.1637 78.9042C79.1235 78.8126 79.0928 78.7113 79.0763 78.6029C79.0574 78.4919 79.0479 78.3834 79.0432 78.2749C79.0385 78.1639 79.0409 78.0554 79.0479 77.9445C79.062 77.725 79.0975 77.5344 79.1519 77.3729L79.2014 77.3512ZM79.3668 76.7097C79.5462 76.2105 79.7541 75.8103 79.9903 75.5111C80.2264 75.2098 80.4909 75.0096 80.7861 74.9059C80.8663 74.8745 80.9396 74.8577 81.008 74.8528C81.0765 74.848 81.1379 74.8577 81.1947 74.8794C81.249 74.8987 81.2986 74.9276 81.3387 74.9613C81.3812 74.9975 81.4166 75.0361 81.4427 75.0843C81.4709 75.1302 81.4874 75.1808 81.4946 75.2387C81.5017 75.2942 81.4946 75.3593 81.478 75.4292C81.4615 75.4991 81.4308 75.5714 81.3907 75.6415C81.3482 75.7114 81.2938 75.7789 81.23 75.8464C81.1569 75.9284 81.0718 76.0031 80.9749 76.0755C80.8781 76.1455 80.7718 76.2105 80.6538 76.2708C80.5357 76.3311 80.4271 76.3818 80.3255 76.4252C80.224 76.4662 80.132 76.5 80.0445 76.5241C79.9595 76.5506 79.858 76.5771 79.7446 76.6084C79.6289 76.6398 79.5013 76.6736 79.3596 76.7097H79.3668ZM47.5915 78.2064C47.0991 78.0972 46.496 78.0305 45.7819 78.0062V76.8789H47.9652C47.9896 77.046 48.0155 77.2085 48.0426 77.3661C48.0622 77.4794 48.0849 77.6043 48.1106 77.7411C48.0632 77.7796 48.0278 77.8091 48.0028 77.8304C47.9014 77.9174 47.827 77.9827 47.7712 78.0329L47.8717 78.1494L47.8714 78.1502L47.7699 78.0327C47.7485 78.0519 47.7281 78.0719 47.7084 78.0924C47.6722 78.1267 47.6332 78.1648 47.5915 78.2064ZM87.8238 67.6255C87.6092 65.9972 87.2412 64.7446 86.7199 63.8678C86.1985 62.9911 85.6159 62.3413 84.972 61.9186C84.3279 61.4959 83.661 61.2453 82.971 61.167C82.2811 61.0888 81.6754 61.0495 81.1541 61.0495H76.8763V76.6089C76.8237 76.8052 76.7819 77.005 76.7513 77.2079L76.7468 77.2074C76.7415 77.2429 76.7378 77.2785 76.7356 77.3137C76.7286 77.3786 76.7235 77.4315 76.7199 77.4749C76.7188 77.4885 76.7145 77.5653 76.7076 77.689H76.7073L76.7071 77.6914L76.7046 77.6912C76.7027 77.7264 76.7023 77.7612 76.7034 77.7957C76.7025 77.8358 76.7018 77.8818 76.7013 77.9331C76.7006 78.0083 76.7012 78.0789 76.7025 78.1472L76.7675 78.1462L76.7689 78.1501L76.6981 78.1515C76.699 78.1947 76.7021 78.2374 76.7075 78.2793C76.7108 78.3388 76.715 78.3925 76.72 78.4391L76.7204 78.439L76.7205 78.4398L76.718 78.4401C76.7215 78.4732 76.7265 78.5058 76.7326 78.5378C76.7414 78.6002 76.7522 78.663 76.765 78.7258L76.766 78.7256L76.766 78.7264L76.7623 78.7272C76.77 78.7651 76.7795 78.802 76.7906 78.8382C76.8024 78.888 76.8156 78.938 76.8299 78.9881C76.8465 79.0465 76.8619 79.0983 76.8763 79.1433V84.7699C76.8763 85.4276 76.9223 86.0225 77.0144 86.5549C77.1064 87.0873 77.3133 87.557 77.6353 87.9641C77.9573 88.3712 78.4249 88.6843 79.0382 88.9035C79.6515 89.1227 80.4641 89.2635 81.4762 89.3262V90.5475H66.9408V89.3262C67.9221 89.2635 68.7194 89.1305 69.3327 88.927C69.946 88.7235 70.4136 88.4259 70.7356 88.0345C71.0577 87.6431 71.2723 87.1734 71.3796 86.6254C71.4869 86.0774 71.5406 85.459 71.5406 84.7699V77.5401L71.623 77.4071C71.7009 77.281 71.7579 77.187 71.7929 77.1268C71.8407 77.0442 71.8865 76.9613 71.9299 76.8778L71.9301 76.8779L71.9339 76.8708L71.9359 76.8719C71.9554 76.8344 71.9725 76.7962 71.9876 76.7577L71.9987 76.7316L72.0012 76.7327C72.0222 76.6828 72.0394 76.6322 72.053 76.5813L72.0563 76.5706L72.0576 76.5709L72.0582 76.569L72.06 76.5696C72.0778 76.5109 72.0908 76.4519 72.0994 76.3931L72.1039 76.3655C72.1184 76.2754 72.1254 76.1973 72.1254 76.1345C72.1254 76.0701 72.1203 76.0069 72.1105 75.9453C72.0928 75.8232 72.0607 75.7074 72.0139 75.5963L72.0002 75.6023L71.9997 75.6013L72.0142 75.5949C71.9839 75.5234 71.9476 75.4564 71.9059 75.3943C71.8548 75.3115 71.7972 75.2377 71.7333 75.1724L71.7334 75.1723C71.6737 75.1114 71.609 75.0585 71.5406 75.0137V61.0495H67.9068C67.2015 61.0495 66.4502 61.0888 65.6529 61.167C64.8556 61.2453 64.1044 61.488 63.399 61.8951C62.6937 62.3022 62.088 62.9519 61.5821 63.8444C61.0761 64.7369 60.7465 65.9972 60.5931 67.6255H59.6272V59.4526H88.7898V67.6255H87.8238ZM115.974 90.5475V89.3262C116.894 89.2635 117.63 89.1227 118.182 88.9035C118.734 88.6843 119.156 88.379 119.447 87.9876C119.739 87.5961 119.93 87.1264 120.022 86.5784C120.114 86.0304 120.16 85.4276 120.16 84.7699V78.8608L120.193 78.8251C120.345 78.6596 120.336 78.6732 120.372 78.6325C120.386 78.6165 120.441 78.5519 120.546 78.4285L120.549 78.4309C120.577 78.3971 120.604 78.3621 120.628 78.3261L120.68 78.2634L120.682 78.2654L120.684 78.2627L120.686 78.2644C120.704 78.2428 120.721 78.2207 120.737 78.1983L120.861 78.0444L120.838 78.0256L120.839 78.0254L120.864 78.047C120.884 78.0227 120.902 77.9978 120.92 77.9723L120.946 77.9395L120.948 77.9413C120.967 77.917 120.985 77.892 121.002 77.8665C121.042 77.8162 121.079 77.7691 121.112 77.7255L121.115 77.7277C121.135 77.7015 121.153 77.6747 121.17 77.6475C121.237 77.5621 121.249 77.5466 121.259 77.5328L121.31 77.4656L121.311 77.4664L121.32 77.4542L121.322 77.4557C121.34 77.4325 121.356 77.409 121.372 77.385L121.511 77.1957L121.514 77.1975L121.515 77.1962L121.516 77.1974C121.529 77.1803 121.541 77.163 121.552 77.1454L121.558 77.1373L121.558 77.1369L121.558 77.1364L121.56 77.1379C121.613 77.0654 121.657 76.9887 121.692 76.909C121.71 76.873 121.726 76.8356 121.742 76.7963C121.782 76.6976 121.812 76.5936 121.832 76.4803L121.837 76.4811C121.85 76.4071 121.855 76.3335 121.855 76.2612C121.856 76.1983 121.854 76.1357 121.847 76.0733C121.834 75.9486 121.803 75.8231 121.754 75.697L121.752 75.6904L121.756 75.6887C121.737 75.6393 121.715 75.5921 121.69 75.5469C121.594 75.3533 121.459 75.1922 121.287 75.0629C121.085 74.9122 120.857 74.8222 120.6 74.7906C120.467 74.7746 120.329 74.7792 120.186 74.8052L120.185 74.8015L120.177 74.803L120.177 74.8021L120.16 74.8055V62.8815L115.757 73.3901C115.649 73.4748 115.555 73.5532 115.478 73.6245L115.478 73.624L115.47 73.632L115.468 73.6307C115.452 73.6459 115.437 73.6614 115.421 73.6774C115.345 73.7502 115.27 73.8328 115.193 73.9174C115.165 73.9487 115.138 73.9814 115.111 74.013C115.05 74.084 114.991 74.154 114.935 74.226L114.936 74.2264L114.931 74.2229C114.906 74.2554 114.883 74.289 114.861 74.3231C114.728 74.5014 114.606 74.6834 114.496 74.8688C114.361 75.0952 114.244 75.3227 114.144 75.5505L114.14 75.5489C114.13 75.5714 114.121 75.5942 114.113 75.617C114.022 75.8333 113.944 76.0591 113.879 76.2933L113.877 76.2929L113.877 76.2937L113.876 76.2935C113.871 76.311 113.867 76.3285 113.863 76.3459C113.803 76.5706 113.756 76.8082 113.723 77.0575L113.722 77.0574L113.722 77.0608L113.719 77.0604C113.716 77.0876 113.713 77.1146 113.712 77.1414C113.684 77.3688 113.672 77.5962 113.676 77.8228C113.679 77.9825 113.69 78.1356 113.708 78.282L108.569 90.5475H107.465L103.645 81.7384C103.679 81.7339 103.712 81.7278 103.745 81.7202C104.025 81.6684 104.324 81.5345 104.642 81.319C104.905 81.1418 105.224 80.8811 105.599 80.5376L105.601 80.5402L105.604 80.5375L105.605 80.5386C105.619 80.5261 105.632 80.5132 105.645 80.5001C105.961 80.2109 106.283 79.8979 106.611 79.5624C106.923 79.2435 107.239 78.9012 107.559 78.5371L107.562 78.5403C107.575 78.5251 107.588 78.5097 107.601 78.494L107.704 78.3749L109.811 83.267L119.838 59.4526H129.498V60.6738C128.578 60.7052 127.842 60.8382 127.29 61.073C126.738 61.308 126.324 61.6132 126.048 61.989C125.772 62.3648 125.588 62.8266 125.496 63.3746C125.404 63.9227 125.358 64.5411 125.358 65.23V79.9498C125.317 80.0464 125.283 80.1375 125.257 80.2227C125.216 80.3574 125.185 80.4932 125.166 80.6306L125.164 80.6304C125.158 80.671 125.154 80.7115 125.153 80.7514C125.147 80.8094 125.143 80.8682 125.14 80.9275C125.136 81.0188 125.136 81.1092 125.14 81.1983L125.219 81.1949L125.22 81.1956L125.136 81.1994C125.138 81.2417 125.142 81.2833 125.148 81.3243C125.155 81.3941 125.165 81.4623 125.178 81.5288L125.178 81.5286L125.179 81.5295L125.176 81.5301C125.183 81.5681 125.192 81.6052 125.202 81.6415C125.216 81.7008 125.232 81.7579 125.249 81.813L125.248 81.8135L125.256 81.8389L125.256 81.839C125.261 81.8541 125.266 81.8691 125.272 81.8838C125.293 81.9422 125.32 82.0078 125.352 82.08L125.35 82.0811L125.351 82.0851L125.35 82.086L125.358 82.1043V84.7699C125.358 85.4276 125.396 86.0225 125.473 86.5549C125.55 87.0873 125.726 87.5492 126.002 87.9406C126.278 88.3319 126.692 88.6451 127.244 88.88C127.796 89.1149 128.547 89.2635 129.498 89.3262V90.5475H115.974ZM101.64 77.114L98.9807 70.9813C99.052 70.9557 99.1256 70.9283 99.2012 70.8987V70.8942L99.2023 70.8937L99.2042 70.8988C99.2429 70.8836 99.2801 70.8666 99.3161 70.8478C99.5214 70.763 99.7062 70.6755 99.8702 70.5848L99.8741 70.5855L99.9026 70.5692C100.089 70.4638 100.28 70.3363 100.475 70.1859L100.475 70.1865L100.481 70.1827L100.483 70.1862C100.513 70.1628 100.542 70.138 100.569 70.1122C100.645 70.0507 100.715 69.9897 100.778 69.9289C100.878 69.8327 100.967 69.7404 101.044 69.6511L101.044 69.6517C101.07 69.6215 101.095 69.5903 101.117 69.5583C101.181 69.4794 101.24 69.401 101.294 69.3237L101.295 69.3249C101.321 69.2878 101.344 69.2495 101.365 69.2105C101.413 69.1371 101.458 69.0635 101.5 68.9898L101.5 68.9901L101.505 68.9817L101.509 68.9838C101.528 68.9504 101.545 68.9163 101.56 68.8819C101.609 68.7891 101.655 68.6915 101.698 68.5896C101.764 68.4355 101.815 68.2943 101.853 68.1674C101.892 68.0347 101.926 67.8934 101.954 67.745C101.976 67.6287 101.995 67.4959 102.01 67.3479L102.014 67.3133L102.017 67.3136C102.02 67.2812 102.022 67.249 102.022 67.217C102.025 67.1655 102.026 67.1146 102.023 67.0644H102.023L102.023 67.0613L102.027 67.0611C102.023 66.9852 102.013 66.9112 101.996 66.84C101.986 66.7891 101.973 66.7387 101.957 66.6887C101.913 66.5463 101.848 66.4144 101.762 66.2946L101.765 66.2924L101.762 66.2888L101.764 66.2878C101.729 66.2388 101.691 66.1933 101.65 66.1515C101.598 66.0962 101.542 66.0449 101.482 65.9977L101.483 65.9956C101.427 65.9516 101.368 65.9137 101.307 65.8819C101.265 65.8586 101.222 65.8369 101.177 65.817L101.178 65.8155L101.175 65.8142L101.177 65.8111C101.127 65.789 101.076 65.7709 101.025 65.7565C100.956 65.7344 100.889 65.7186 100.823 65.7084C100.696 65.6889 100.571 65.6882 100.446 65.7032L100.446 65.7021C100.422 65.7049 100.398 65.7087 100.375 65.713C100.301 65.7257 100.229 65.7437 100.159 65.7664C100.039 65.8054 99.9239 65.8602 99.8186 65.9285C99.7109 65.9983 99.6095 66.0887 99.517 66.1955L99.5149 66.1935L99.5139 66.1945L99.5132 66.1939C99.4735 66.2401 99.438 66.2884 99.4067 66.3386C99.3743 66.3888 99.3429 66.4438 99.3128 66.5038L99.3084 66.5015C99.2854 66.5474 99.2658 66.5942 99.2491 66.6414C99.2279 66.6985 99.2086 66.7605 99.1913 66.8275L99.1877 66.8266C99.1648 66.9162 99.1527 67.0061 99.1506 67.0948C99.1465 67.1415 99.1421 67.1782 99.1375 67.2048C99.1333 67.2283 99.1209 67.2749 99.1005 67.3437L99.1003 67.3436C99.0961 67.3576 99.0923 67.3716 99.0888 67.3856C99.0796 67.4125 99.0692 67.4394 99.0576 67.4665C99.0424 67.5016 99.0245 67.5366 99.0044 67.5708C98.972 67.6257 98.9463 67.6658 98.9271 67.6921C98.9062 67.7208 98.875 67.7586 98.8348 67.8042L98.8335 67.803C98.8224 67.8157 98.8115 67.8286 98.8011 67.8415C98.7826 67.8611 98.7673 67.8765 98.7558 67.8869C98.7325 67.908 98.7063 67.9288 98.6771 67.9495L98.675 67.9465C98.655 67.9605 98.6357 67.9753 98.6169 67.9904C98.5887 68.01 98.5663 68.0247 98.5495 68.0348C98.5012 68.0637 98.4549 68.0894 98.411 68.1114C98.3842 68.1247 98.3279 68.1498 98.246 68.1846C98.186 68.21 98.1218 68.235 98.0547 68.2592L98.0557 68.262L98.0553 68.2621L98.0536 68.2574C98.025 68.2677 97.9968 68.2792 97.9695 68.2915C97.9236 68.3069 97.8782 68.3214 97.8333 68.335L95.1834 62.2239V66.5964C95.1495 66.5966 95.1162 66.5979 95.0832 66.6002C94.9708 66.6085 94.8517 66.6308 94.7252 66.6664L94.7465 66.7464L94.7441 66.7479L94.721 66.6627C94.6643 66.6786 94.6097 66.6986 94.5576 66.7224C94.4876 66.7501 94.4196 66.7818 94.354 66.8172L94.3633 66.8352L94.3625 66.8357L94.3519 66.8153C94.3352 66.8243 94.3197 66.8368 94.3037 66.8465C94.2295 66.8894 94.1526 66.9368 94.0751 66.9942L94.0874 67.0114L94.0873 67.0116L94.074 66.9929C94.0017 67.0463 93.9375 67.1068 93.8813 67.1727C93.8082 67.249 93.7332 67.3344 93.6561 67.4288L93.6196 67.4742V66.2164C93.6196 65.3396 93.6119 64.5725 93.5966 63.9148C93.5812 63.2572 93.4585 62.6936 93.2286 62.2239C92.9985 61.7542 92.6229 61.3862 92.1016 61.1201C91.5803 60.8539 90.7984 60.7052 89.7557 60.6738V59.4526H99.5532L106.397 75.3407L106.358 75.3811L106.367 75.3908L106.367 75.391L106.355 75.3792C106.3 75.4382 106.251 75.5016 106.21 75.5684C106.172 75.6187 106.113 75.6931 106.033 75.7929C105.895 75.9651 105.775 76.1105 105.682 76.2203L105.679 76.2184L105.676 76.2224L105.675 76.2217C105.666 76.2322 105.658 76.2429 105.649 76.2537L105.423 76.515L105.422 76.5044C105.421 76.4402 105.416 76.3755 105.408 76.3108C105.403 76.2757 105.398 76.2412 105.391 76.2076C105.496 76.1073 105.588 75.9944 105.669 75.8699C105.78 75.6968 105.858 75.5126 105.901 75.318L105.904 75.3188C105.918 75.2573 105.926 75.1958 105.93 75.1348C105.944 75.0016 105.943 74.8664 105.926 74.7294L105.886 74.7344L105.885 74.7314L105.93 74.7256C105.924 74.6841 105.917 74.6433 105.907 74.6033C105.888 74.5032 105.861 74.4075 105.827 74.3167C105.778 74.1856 105.711 74.0579 105.625 73.9349L105.628 73.933C105.593 73.8818 105.554 73.8345 105.512 73.791C105.452 73.7222 105.386 73.6589 105.316 73.6006C105.221 73.5228 105.112 73.4531 104.988 73.3896L104.989 73.3876L104.986 73.3859L104.987 73.3833C104.95 73.3647 104.913 73.3482 104.876 73.3339C104.568 73.1999 104.252 73.1631 103.927 73.2253L103.927 73.2261L103.927 73.2262L103.926 73.2225C103.871 73.2331 103.817 73.2476 103.766 73.2657C103.499 73.3452 103.255 73.4909 103.032 73.7029L103.033 73.7037L103.032 73.705L103.029 73.7022C103.003 73.7269 102.979 73.7527 102.956 73.7792C102.903 73.8331 102.855 73.8894 102.811 73.948L102.826 73.9597L102.825 73.9616L102.807 73.9475C102.78 73.9834 102.755 74.0204 102.733 74.0583C102.688 74.1285 102.648 74.2018 102.612 74.2782L102.61 74.2769C102.589 74.3224 102.571 74.3685 102.556 74.4152C102.527 74.4929 102.504 74.57 102.486 74.6466C102.461 74.7592 102.447 74.8756 102.441 74.9957L102.438 74.9955C102.435 75.0561 102.437 75.116 102.443 75.1745C102.446 75.245 102.453 75.3134 102.463 75.3798C102.466 75.3986 102.469 75.4171 102.472 75.4353C102.408 75.5129 102.355 75.5982 102.313 75.6883L102.269 75.7519L102.282 75.7614L102.282 75.7622L102.264 75.7497C102.244 75.7802 102.225 75.8113 102.207 75.843C102.174 75.8949 102.144 75.9428 102.12 75.9862C102.097 76.0273 102.056 76.1074 101.998 76.2292L101.994 76.2271C101.979 76.2578 101.966 76.289 101.954 76.3205C101.92 76.3899 101.898 76.4383 101.885 76.468C101.862 76.5214 101.828 76.6054 101.785 76.7156C101.744 76.8195 101.709 76.9119 101.682 76.99C101.668 77.0305 101.654 77.0719 101.64 77.114ZM95.1834 72.2981V74.9372C95.1192 74.9602 95.0553 74.9879 94.992 75.0203C94.8482 75.0939 94.7222 75.1858 94.6153 75.2945L94.7428 75.4253L94.7425 75.426L94.6124 75.2927C94.5606 75.3455 94.5148 75.4018 94.475 75.4613C94.4605 75.4817 94.4462 75.5026 94.4324 75.5239L94.432 75.5236C94.4172 75.5447 94.4066 75.5652 94.3467 75.6592L94.3447 75.6579L94.3437 75.6592L94.3427 75.6586L94.327 75.6841L94.3266 75.6839C94.316 75.7002 94.3061 75.7168 94.2964 75.7336L94.1771 75.9065L94.1692 75.9179C94.0457 76.097 94.0199 76.139 93.9686 76.2111L93.9644 76.2079C93.9454 76.2345 93.9278 76.2617 93.9113 76.2892L93.8865 76.3246L93.84 76.3907C93.9359 76.0457 94.0439 75.6797 94.1638 75.2926C94.3037 74.8404 94.443 74.4081 94.5817 73.9955C94.7493 73.4969 94.8882 73.0975 94.9987 72.796C95.0618 72.6231 95.1233 72.457 95.1834 72.2981ZM95.1834 79.5184V83.7366C95.1834 84.5821 95.2064 85.3415 95.2524 86.0147C95.2985 86.688 95.4518 87.2595 95.7125 87.7292C95.973 88.1989 96.3871 88.5669 96.9543 88.833C97.5216 89.0992 98.3266 89.2635 99.3693 89.3262V90.5475H89.7557V89.3262C90.7676 89.2635 91.542 89.0992 92.0786 88.833C92.6153 88.5669 92.9985 88.1912 93.2286 87.7057C93.4585 87.2204 93.5812 86.6488 93.5966 85.9913C93.6119 85.3336 93.6196 84.5821 93.6196 83.7366V81.1826C93.6428 81.1634 93.6651 81.1435 93.6865 81.1228C93.759 81.0633 93.8253 81.0067 93.8866 80.9524C93.9876 80.8629 94.0757 80.7815 94.1541 80.7062C94.178 80.6833 94.2024 80.6619 94.2239 80.6375C94.2924 80.5692 94.36 80.4993 94.4263 80.428C94.5127 80.3354 94.599 80.238 94.6849 80.1359L94.6872 80.1379C94.7066 80.1148 94.7248 80.0912 94.7422 80.0672C94.8727 79.9126 95.0138 79.7375 95.1649 79.5423L95.1834 79.5184Z" fill="#B38C0A"/>
</svg>
