<svg width="150" height="150" fill="none" xmlns="http://www.w3.org/2000/svg"><path d="M58.462 78.142a10.23 10.23 0 00-1.089.263 2.99 2.99 0 00-1.173.658c-.322.297-.56.689-.713 1.174-.153.486-.23 1.135-.23 1.95v6.857a41.45 41.45 0 00-2.736.212c-1.028.11-2.37.352-4.025.728a65.89 65.89 0 01-3.795.822c-1.12.203-2.369.305-3.749.305-2.606 0-4.876-.485-6.808-1.456-1.931-.97-3.541-2.223-4.83-3.758a15.499 15.499 0 01-2.874-5.166 19.896 19.896 0 01-.382-1.308l.08-.076-.012-.013.016.017a1.08 1.08 0 00.062-.065l.111-.11-.013-.014.001-.002.016.016.003-.003v-.001l.004-.003a.984.984 0 00.033-.036l.121-.13c.048-.05.019-.022.162-.178.152-.165.143-.152.178-.193.015-.016.07-.08.175-.204l.002.003a.972.972 0 00.08-.105l.052-.063.002.002.002-.002.002.001a.816.816 0 00.05-.066l.125-.154-.023-.018.026.021c.02-.024.038-.05.056-.075l.026-.032.002.001a.79.79 0 00.054-.075l.11-.14.003.002c.02-.026.038-.053.055-.08l.09-.115.05-.067h.001l.01-.012.001.002c.018-.023.034-.047.05-.071l.14-.19.002.003v-.002l.002.001a.603.603 0 00.036-.052l.006-.008h.002a1.885 1.885 0 00.182-.342c.04-.1.07-.203.09-.31l-.042-.008.046.008c.014-.079.02-.157.018-.234a1.46 1.46 0 00-.007-.178l-.009.001.012-.002a1.56 1.56 0 00-.096-.377l-.002-.005.004-.001a1.203 1.203 0 00-.066-.143 1.345 1.345 0 00-.403-.483 1.414 1.414 0 00-1.101-.258v-.004l-.009.002-.043.008-.001-.01-.004-.043-.002-.021a2.65 2.65 0 00-.029-.185l-.01.002-.001-.002.013-.003a2.31 2.31 0 00-.063-.248l-.011.004-.001-.003.013-.004a1.194 1.194 0 00-.059-.152 2.188 2.188 0 00-.183-.361l-.002.001.003-.002a1.211 1.211 0 00-.064-.09 2.365 2.365 0 00-.456-.496l.001-.002a1.177 1.177 0 00-.09-.066l-.04-.03c.166-1.58.539-3.068 1.119-4.465.812-1.957 1.924-3.663 3.335-5.12a15.269 15.269 0 014.921-3.405c1.87-.814 3.88-1.221 6.026-1.221.49 0 1.081.031 1.771.094s1.456.235 2.3.517c.843.281 1.77.704 2.783 1.268 1.012.563 2.085 1.346 3.22 2.348.398-.751.682-1.37.85-1.855.17-.485.3-.947.392-1.386h.965l.184 9.16h-.873c-.307-1.065-.667-1.989-1.081-2.772a10.013 10.013 0 00-1.38-2.02 9.63 9.63 0 00-1.587-1.432 13.425 13.425 0 00-1.656-1.01 8.989 8.989 0 00-1.656-.704 10.029 10.029 0 00-1.426-.33 7.62 7.62 0 00-1.058-.093h-.552c-1.135 0-2.323.196-3.565.587-1.242.392-2.376 1.12-3.404 2.184-1.027 1.065-1.878 2.505-2.553 4.321-.674 1.817-1.011 4.165-1.011 7.046 0 1.315.1 2.818.298 4.51.2 1.69.652 3.303 1.357 4.837a10.117 10.117 0 003.128 3.875c1.38 1.05 3.235 1.574 5.566 1.574 1.81 0 3.243-.235 4.3-.705 1.059-.47 1.856-1.056 2.393-1.76a5.383 5.383 0 001.035-2.35c.106-.598.176-1.17.208-1.717.095-.047.172-.09.232-.128a3.33 3.33 0 00.418-.323h.001l.014-.012.002.003a1.19 1.19 0 00.068-.067 3.121 3.121 0 00.3-.33c.047-.058.1-.131.16-.216l.004.004a4.67 4.67 0 00.139-.217h.001c.028-.045.052-.091.073-.139.233-.455.365-1.002.397-1.639.018-.372.002-.78-.049-1.222.363-.243.685-.482.965-.717.478-.401.837-.8 1.075-1.194h4.986a19.76 19.76 0 00-.222.996 11.315 11.315 0 00-.048.267zM22.539 74.68c-1.851 1.464-3.706 2.828-7.64.349a20.605 20.605 0 00-.226-.14c-2.198-1.345-4.224-1.99-6.207-1.953-2.056.04-4.05.812-6.127 2.302a.284.284 0 00-.067.39.27.27 0 00.383.068c.121-.087.242-.172.363-.254 1.855-1.258 3.637-1.912 5.456-1.946 1.655-.032 3.351.445 5.173 1.441.317.174.639.363.964.568 3.375 2.126 5.333 1.637 6.997.554l-.028.062a4.45 4.45 0 00-.33 1.19c-.058.407-.05.783.02 1.123.069.338.22.634.456.89.118.125.255.231.411.313.156.082.333.143.53.181a1.774 1.774 0 00.713-.022 2.652 2.652 0 00.706-.267c.222-.118.455-.282.706-.487a7.682 7.682 0 00.664-.6 13.547 13.547 0 00.623-.686c.108-.132.207-.25.295-.359.087-.11.165-.207.229-.292.066-.084.134-.176.208-.272.073-.094.149-.198.229-.307a.464.464 0 00.064-.159.3.3 0 00-.017-.152c-.033-.1-.108-.156-.227-.17a.251.251 0 00-.158.028.309.309 0 00-.118.128c-.047.072-.097.152-.156.234a6.42 6.42 0 01-.198.26c-.073.092-.151.188-.239.292l-.274.323a9.724 9.724 0 01-.602.651 11.454 11.454 0 01-.656.594 3.58 3.58 0 01-.336.253 2.333 2.333 0 01-.628.306 1.524 1.524 0 01-.302.063.638.638 0 01-.52-.17c-.323-.262-.427-.778-.311-1.547.026-.167.073-.352.146-.552a6.16 6.16 0 01.283-.666c.177-.36.355-.663.532-.907.177-.243.354-.43.533-.557.23-.166.425-.205.588-.116.33.18.278.682.556.719.056.007.12-.014.193-.065a.538.538 0 00.156-.154.274.274 0 00.038-.172.971.971 0 00-.154-.473 1.257 1.257 0 00-.621-.516 1.502 1.502 0 00-.385-.091 1.43 1.43 0 00-.392.022 2.16 2.16 0 00-.382.11 2.123 2.123 0 00-.364.193 3.283 3.283 0 00-.363.27l-.187.175zm70.887-4.508c-.042.101-.094.236-.16.403-.064.166-.142.366-.227.6a30.22 30.22 0 00-.29.815 48.356 48.356 0 00-1.018 3.326c-.1.374-.19.752-.265 1.133a18.41 18.41 0 00-.198 1.148c-.111.77-.133 1.392-.062 1.864a2.873 2.873 0 00.227.806.902.902 0 00.25.34.598.598 0 00.352.142c.215.007.484-.12.81-.383a6.617 6.617 0 00.919-.897c.29-.338.602-.74.935-1.209.165-.231.31-.439.432-.62.12-.178.222-.332.3-.46l.234-.371c.078-.12.151-.24.224-.357a.321.321 0 00.043-.1.21.21 0 00.004-.084.143.143 0 00-.075-.115.366.366 0 00-.187-.039.44.44 0 00-.226.041.309.309 0 00-.14.142l-.078.12c-.042.064-.099.148-.172.254-.073.106-.146.212-.222.319-.076.108-.151.214-.227.325-.153.22-.333.473-.54.762l-.3.42c-.1.132-.194.263-.288.386a23.7 23.7 0 01-.546.699 7.764 7.764 0 01-.463.523 1.208 1.208 0 01-.172.142c-.048.034-.085.049-.114.049-.026 0-.05-.015-.07-.041a.347.347 0 01-.045-.128 1.098 1.098 0 01-.022-.186 3.074 3.074 0 01-.007-.217v-.241c.083-1.136.409-2.621.976-4.45.283-.916.569-1.765.857-2.55.286-.785.574-1.505.867-2.164a10.594 10.594 0 001.764.024c.196-.01.387-.026.576-.048a6.706 6.706 0 001.096-.205 6.77 6.77 0 00.562-.19c.38-.15.713-.333.996-.553.142-.108.272-.234.395-.376.12-.142.231-.301.33-.478.102-.175.182-.366.241-.566.059-.2.099-.413.121-.634a.362.362 0 00-.007-.16.281.281 0 00-.367-.16.288.288 0 00-.129.086.36.36 0 00-.078.156 2.62 2.62 0 01-.1.56 2.12 2.12 0 01-.212.492c-.09.152-.191.29-.3.412-.111.123-.23.232-.359.323a3.03 3.03 0 01-.413.249c-.149.075-.31.142-.477.202-.34.121-.666.205-.978.256-.31.048-.635.077-.975.084-.168.003-.324.005-.46.005a7.47 7.47 0 01-.662-.036 7.347 7.347 0 01-.274-.026 15.096 15.096 0 01.664-1.201.303.303 0 00.061-.198.403.403 0 00-.083-.212.608.608 0 00-.43-.26.626.626 0 00-.273.019.95.95 0 00-.279.149 3.12 3.12 0 00-.416.509 5.039 5.039 0 00-.408.73l-.173.357a12.397 12.397 0 01-.892-.106 21.217 21.217 0 00-1.176-.132 6.451 6.451 0 00-.548-.022c-.196 0-.406.005-.628.014a3.878 3.878 0 00-1.266.275c-.201.082-.39.179-.57.294a3.33 3.33 0 00-.51.394.278.278 0 00-.07.07.372.372 0 00-.069.285.36.36 0 00.1.173c.051.053.103.08.158.075.056-.003.11-.034.165-.094a2.33 2.33 0 01.748-.502 3.737 3.737 0 01.865-.256c.276-.04.602-.063.975-.063a11.064 11.064 0 01.919.034c.123.012.255.024.401.041.144.017.303.034.473.056.167.021.307.038.413.053.108.012.184.022.229.024l.014-.07zm37.514 6.301c-.139.148-.29.287-.456.42a12.48 12.48 0 01-1.209.81 21.422 21.422 0 01-.231-1.143 10.052 10.052 0 01-.109-.863 2.093 2.093 0 010-.297c.003-.053.01-.108.014-.164l.026-.183a.744.744 0 01.126-.316c.063-.087.139-.128.229-.128.023 0 .042.005.059.015.014.01.023.024.03.04a.25.25 0 010 .15l-.021.094a1.053 1.053 0 01-.111.323.128.128 0 00-.007.027.438.438 0 00.005.096.573.573 0 00.03.097.478.478 0 00.111.154c.05.044.111.05.187.022a.329.329 0 00.113-.075.659.659 0 00.116-.145l.047.037c.088-.123.149-.249.187-.377a1.09 1.09 0 00.042-.393 1.02 1.02 0 00-.087-.357.826.826 0 00-.203-.265.88.88 0 00-.373-.19.885.885 0 00-.451.007 1.22 1.22 0 00-.227.084 1.626 1.626 0 00-.224.133c-.144.106-.27.263-.373.468a2.128 2.128 0 00-.135.333c-.036.12-.066.25-.087.388-.031.229-.015.598.047 1.107.063.509.175 1.157.335 1.944a6.438 6.438 0 00-.425.318 9.142 9.142 0 00-.42.36 6.434 6.434 0 00-.803.911 3.26 3.26 0 00-.305.509 1.69 1.69 0 00-.16.817c.007.111.026.215.059.314.03.098.07.188.118.265a.814.814 0 00.177.2 1.3 1.3 0 00.224.15c.078.043.163.08.253.113.179.063.375.084.581.063a2.247 2.247 0 00.609-.15c.102-.038.198-.087.293-.147a2.183 2.183 0 00.527-.478 2.9 2.9 0 00.212-.306c.352-.63.402-1.618.146-2.966.702-.422 1.281-.91 1.824-1.432.254-.244.501-.489.751-.723 1.048-.98 2.15-1.777 4.036-1.562 1.116.126 2.309.555 3.535 1.191.634.33 1.277.714 1.922 1.14 1.216.804 2.543 1.018 3.91.78 1.484-.257 3.012-1.05 4.488-2.194a.283.283 0 00.052-.392.27.27 0 00-.383-.054c-.109.085-.218.167-.327.247-1.303.959-2.635 1.618-3.92 1.841-1.236.215-2.432.024-3.521-.697a23.839 23.839 0 00-1.162-.723c-1.564-.91-3.101-1.534-4.533-1.697-2.736-.31-3.581.728-5.158 2.45zm-27.62-.161a.97.97 0 00-.17.2 2.49 2.49 0 00-.182.323 6.512 6.512 0 00-.338.868 4.818 4.818 0 00-.208 1.018 4.742 4.742 0 000 .97c.017.144.052.277.104.395.052.12.121.224.206.318.087.092.189.16.307.205.118.046.25.065.399.063.243-.007.692-.311 1.348-.912a23.85 23.85 0 001.868-1.907c.588-.673.935-1.131 1.039-1.38a.7.7 0 00.041-.14c.011-.074 0-.132-.031-.17-.033-.04-.085-.06-.163-.063a.492.492 0 00-.222.04.613.613 0 00-.191.143c-.123.174-.336.441-.643.8-.309.36-.708.816-1.199 1.363-.492.547-.884.96-1.176 1.235-.293.275-.487.412-.581.412a.17.17 0 01-.088-.022.156.156 0 01-.057-.07.389.389 0 01-.028-.115c-.002-.046-.005-.099 0-.16a3.74 3.74 0 01.043-.383 3.93 3.93 0 01.101-.465l.073-.256c.024-.082.05-.161.074-.239.023-.077.049-.159.077-.24l.088-.254.087-.241c.029-.07.052-.135.073-.19l.13-.348a2.11 2.11 0 00.048-.132 1.063 1.063 0 00.075-.316.478.478 0 00-.113-.35.407.407 0 00-.132-.1.568.568 0 00-.166-.047.744.744 0 00-.359.041.767.767 0 00-.16.077l.026.029zm.935-.67l.035-.017a.857.857 0 00.371-.301.51.51 0 00.078-.355.603.603 0 00-.099-.266.59.59 0 00-.22-.18c-.229-.119-.449-.078-.663.127a.655.655 0 00-.229.495.685.685 0 00.042.272.545.545 0 00.151.203.395.395 0 00.239.089.701.701 0 00.302-.075l-.007.007zm14.156-.36c.038.058.085.092.139.099.057.007.121-.014.194-.065a.535.535 0 00.156-.154.272.272 0 00.038-.172 1.154 1.154 0 00-.048-.248.93.93 0 00-.106-.224 1.251 1.251 0 00-.621-.516 1.5 1.5 0 00-.385-.092c-.13-.01-.26-.005-.392.022a2.16 2.16 0 00-.382.11 2.123 2.123 0 00-.364.193 3.026 3.026 0 00-.451.35 3.613 3.613 0 00-.413.456c-.265.338-.477.7-.645 1.08a4.485 4.485 0 00-.331 1.19 3.3 3.3 0 00.022 1.123c.068.338.219.634.455.89.118.125.255.231.411.313.156.082.333.143.529.181a1.767 1.767 0 00.713-.022 2.62 2.62 0 00.706-.267c.223-.118.456-.282.707-.487.122-.102.24-.203.351-.302.112-.101.215-.2.312-.299a13.137 13.137 0 00.624-.685c.108-.132.208-.25.295-.359.087-.11.165-.207.229-.292.066-.084.135-.176.208-.272.073-.094.149-.198.229-.307a.481.481 0 00.064-.159.3.3 0 00-.017-.152c-.033-.1-.108-.156-.227-.17a.25.25 0 00-.158.028.307.307 0 00-.118.128c-.047.072-.097.152-.156.234a12.225 12.225 0 01-.437.552l-.274.323a8.667 8.667 0 01-.295.333 9.316 9.316 0 01-.963.912 3.65 3.65 0 01-.336.253 2.419 2.419 0 01-.628.306 1.518 1.518 0 01-.302.063.64.64 0 01-.52-.17c-.323-.262-.427-.778-.311-1.547a2.95 2.95 0 01.146-.552c.071-.203.165-.425.283-.666.177-.36.355-.663.532-.907.177-.243.354-.43.533-.557.229-.166.426-.205.589-.116.162.09.295.304.394.647l.021-.027zm9.998 3.637c.002.014.009.053.014.113.007.06.016.145.026.256.012.108.019.198.026.27.007.07.009.12.009.152v.347c0 .162-.014.304-.04.424a2.528 2.528 0 01-.111.36 1.927 1.927 0 01-.125.282c-.201.347-.458.523-.77.53a.626.626 0 01-.326-.07.601.601 0 01-.234-.233.749.749 0 01-.082-.478c.023-.174.099-.364.229-.567a3.68 3.68 0 01.567-.694 6.14 6.14 0 01.831-.685l-.014-.007zM36.173 74.37a1.68 1.68 0 00-.893.528 3.435 3.435 0 00-.637.962c-.17.364-.288.735-.352 1.112a4.08 4.08 0 00-.036 1.148c.029.231.08.44.161.629.08.19.184.36.316.509.263.296.624.458 1.08.487.392.029.77-.077 1.138-.316.366-.241.72-.613 1.063-1.119a2.532 2.532 0 001.211-.063c.406-.12.768-.296 1.08-.53.153-.116.297-.232.43-.35a4.787 4.787 0 00.661-.709 3.2 3.2 0 00.221-.34.293.293 0 00.031-.123.144.144 0 00-.03-.094.187.187 0 00-.078-.065.388.388 0 00-.116-.029.31.31 0 00-.125.017.269.269 0 00-.102.063c-.534.624-1.037 1.075-1.509 1.35-.475.275-.916.376-1.33.302a8.4 8.4 0 00.52-1.156c.132-.369.224-.72.276-1.056.133-1.003-.082-1.688-.642-2.055a1.517 1.517 0 00-.67-.238 1.505 1.505 0 00-.707.11c-.24.095-.446.227-.611.398a1.71 1.71 0 00-.385.628h.035zm1.592 3.229a1.383 1.383 0 01-.36-.145 1.292 1.292 0 01-.3-.239 1.676 1.676 0 01-.23-.306 1.535 1.535 0 01-.157-.343 3.633 3.633 0 01-.096-.376 4.257 4.257 0 01-.062-.4 2.905 2.905 0 01-.014-.403c.002-.13.017-.255.043-.376a1.66 1.66 0 01.181-.557c.09-.162.213-.304.364-.424.305-.242.63-.242.975 0 .395.267.539.769.435 1.504a5.298 5.298 0 01-.274.96c-.13.345-.3.714-.505 1.112V77.6zm-.369.571a4.38 4.38 0 01-.208.297 1.962 1.962 0 01-.122.147c-.047.053-.102.11-.16.171-.117.12-.228.212-.332.275a.716.716 0 01-.347.099.37.37 0 01-.174-.043.452.452 0 01-.15-.126c-.202-.234-.318-.567-.353-.996a4.456 4.456 0 01.068-1.252 4.14 4.14 0 01.333-1.017c.017.284.059.55.125.8.066.249.158.483.276.697.237.432.589.736 1.058.912l-.014.036zm13.472-2.727a1.26 1.26 0 00.186-.377 1.107 1.107 0 00-.045-.75.815.815 0 00-.203-.265.879.879 0 00-.373-.19.883.883 0 00-.45.007 1.18 1.18 0 00-.228.084 1.665 1.665 0 00-.224.133c-.144.106-.27.263-.373.468a2.108 2.108 0 00-.135.333c-.035.12-.066.25-.087.388-.03.229-.014.598.047 1.107.064.509.175 1.157.336 1.944a6.52 6.52 0 00-.426.318 9.479 9.479 0 00-.42.36 6.46 6.46 0 00-.803.911 3.302 3.302 0 00-.305.509 1.677 1.677 0 00-.144.467c-.016.123-.02.24-.016.35.007.111.026.215.059.314.03.098.07.188.118.265a.84.84 0 00.177.2c.069.058.144.106.224.15.078.043.163.08.253.113.18.063.376.084.581.063a2.267 2.267 0 00.61-.15c.1-.038.198-.087.292-.147a2.218 2.218 0 00.527-.478 2.9 2.9 0 00.212-.306c.352-.63.402-1.618.147-2.966 1.209-.728 1.984-1.38 2.324-1.951.047-.12.047-.212 0-.275a.272.272 0 00-.093-.08.411.411 0 00-.13-.04.383.383 0 00-.127 0 .187.187 0 00-.094.048 3.446 3.446 0 01-.366.472 4.54 4.54 0 01-.456.42 12.517 12.517 0 01-1.21.81 21.26 21.26 0 01-.23-1.143 9.65 9.65 0 01-.11-.863 2.035 2.035 0 010-.297c.003-.053.01-.108.015-.164a5.73 5.73 0 01.026-.183.742.742 0 01.125-.316c.064-.087.14-.128.23-.128.023 0 .042.005.058.015a.09.09 0 01.03.04.264.264 0 010 .15l-.02.094a1.16 1.16 0 01-.026.097c-.022.063-.043.12-.064.169l-.021.057a.153.153 0 00-.008.027.438.438 0 00.005.096.551.551 0 00.078.18c.019.028.04.05.064.071.05.044.11.05.186.022a.34.34 0 00.114-.075.676.676 0 00.116-.145l.047.037zm-1.481 3.475c.002.014.01.053.014.113.007.06.017.145.026.256.012.108.019.198.026.27.007.07.01.12.01.152v.347c0 .162-.015.304-.04.424-.015.06-.031.121-.05.179a2.12 2.12 0 01-.061.18 1.85 1.85 0 01-.126.283c-.2.347-.458.523-.77.53a.625.625 0 01-.325-.07.594.594 0 01-.234-.233.75.75 0 01-.083-.478c.024-.174.1-.364.23-.567.143-.234.332-.465.566-.694.231-.232.508-.458.831-.685l-.014-.007zm12.06-2.885a.268.268 0 00.011-.147.26.26 0 00-.073-.12.488.488 0 00-.255-.138 1.167 1.167 0 00-.388-.017c-.297.03-.479.121-.54.275-.237.615-.442 1.385-.624 2.31-.18.927-.2 1.614-.061 2.058a.303.303 0 00.087.135.4.4 0 00.156.084.606.606 0 00.392 0 .513.513 0 00.18-.094.531.531 0 00.118-.159c.044-.075.103-.181.172-.318.07-.138.154-.309.25-.51.097-.202.187-.375.265-.525.08-.15.151-.272.212-.371.052-.1.123-.23.213-.389l.328-.574c.425-.75.784-1.352 1.08-1.808.292-.456.521-.767.684-.931.104-.111.163-.133.177-.07.014.065-.014.215-.087.451l-.165.55c-.104.345-.18.607-.23.784l-.09.337c-.035.138-.075.3-.124.483-.047.183-.088.352-.12.504a6.171 6.171 0 00-.074.407 52.39 52.39 0 00-.104.806 3.78 3.78 0 00-.026.414c0 .126.005.244.019.35.014.104.033.2.06.29.023.086.056.163.093.23.034.068.08.12.14.153a.4.4 0 00.213.053.497.497 0 00.214-.044.348.348 0 00.144-.132c.012-.015.04-.07.09-.164l.208-.41.416-.825c.625-1.227 1.114-2.074 1.466-2.54.352-.465.567-.551.642-.26.022.075.031.174.029.297a3.962 3.962 0 01-.04.446c-.024.174-.05.35-.078.528-.029.181-.057.362-.088.548a9.68 9.68 0 00-.125 1.102 2.07 2.07 0 00.147.955.841.841 0 00.6.506.873.873 0 00.432.007 1.31 1.31 0 00.439-.212 4.15 4.15 0 00.54-.477c.197-.2.412-.447.643-.738.231-.29.446-.567.642-.837.199-.268.376-.523.534-.767.16-.243.298-.458.411-.641.114-.184.203-.338.267-.461a.594.594 0 00.042-.101.316.316 0 00.015-.09.208.208 0 00-.057-.135.284.284 0 00-.151-.062.402.402 0 00-.227.031.56.56 0 00-.203.166 4.535 4.535 0 00-.132.186c-.066.092-.151.212-.255.364l-.322.473c-.11.162-.224.326-.342.497-.118.168-.238.34-.361.508l-.378.517c-.13.173-.253.332-.369.475a7.613 7.613 0 01-.33.385 3.07 3.07 0 01-.265.261c-.07.058-.127.092-.165.094-.054.002-.1-.012-.13-.046a.29.29 0 01-.064-.159 1.23 1.23 0 01-.004-.25c.007-.097.02-.206.047-.329a9.52 9.52 0 01.075-.383c.029-.13.062-.265.095-.403a15.56 15.56 0 00.194-.912 5.98 5.98 0 00.104-.868c.014-.501-.104-.863-.352-1.08a.89.89 0 00-.411-.212 1.064 1.064 0 00-.49.022 1.446 1.446 0 00-.238.084 1.837 1.837 0 00-.472.313 2.543 2.543 0 00-.222.23 7.524 7.524 0 00-.203.243 4.838 4.838 0 00-.55.796 11.142 11.142 0 00-.29.516c-.03.053-.065.12-.107.2-.043.082-.092.179-.151.287.168-.562.307-1.08.42-1.553.114-.473.198-.902.258-1.288.059-.383.033-.68-.083-.887-.113-.208-.312-.326-.595-.355a.678.678 0 00-.184.005 1.175 1.175 0 00-.204.058 1.213 1.213 0 00-.207.116 1.903 1.903 0 00-.213.173c-.073.068-.144.138-.215.208l-.208.21a3.24 3.24 0 00-.215.243 6.922 6.922 0 00-.229.309c-.158.224-.297.422-.413.59a5.747 5.747 0 00-.189.293 314.05 314.05 0 00-.538.953l-.135.243-.17.323c-.061.118-.11.214-.149.284a2.788 2.788 0 01-.073.138c-.019.043-.068.142-.144.299a20.143 20.143 0 01.47-1.613l.262-.75zM79.2 77.351a.694.694 0 00.067-.014c.028-.008.061-.012.099-.02.141-.036.274-.072.401-.106.125-.033.243-.067.352-.099a6.55 6.55 0 00.713-.256c.13-.052.25-.115.364-.185.116-.067.222-.147.323-.231a2.092 2.092 0 00.478-.586c.09-.176.143-.345.16-.504a.963.963 0 00-.05-.451 1.182 1.182 0 00-.233-.391 1.09 1.09 0 00-.362-.258 1.678 1.678 0 00-.907-.128 2.088 2.088 0 00-.86.311 3.595 3.595 0 00-.677.555 4.55 4.55 0 00-.58.752 4.57 4.57 0 00-.664 1.74 6.355 6.355 0 00-.031.37 4.779 4.779 0 00-.005.372 2.228 2.228 0 00.14.706c.082.225.186.422.309.594.064.084.137.161.224.231.085.07.182.13.288.186.109.05.222.091.343.116.12.026.25.038.385.038.24 0 .49-.043.746-.128a3.4 3.4 0 00.376-.147c.12-.055.238-.118.351-.183a4.46 4.46 0 00.35-.23 6.62 6.62 0 00.364-.286c.25-.212.47-.417.663-.615a16.902 16.902 0 001.17-1.336l.228-.292.25-.33a.473.473 0 00.071-.172.286.286 0 00-.009-.154c-.035-.099-.111-.154-.23-.169a.277.277 0 00-.16.027.317.317 0 00-.123.123c-.233.374-.56.798-.975 1.27a9.797 9.797 0 01-1.412 1.315 4.05 4.05 0 01-.72.456 1.41 1.41 0 01-.581.152.678.678 0 01-.284-.058.618.618 0 01-.229-.176 1.048 1.048 0 01-.16-.256 1.2 1.2 0 01-.088-.301 2.613 2.613 0 01-.033-.328 3.113 3.113 0 01.005-.33c.014-.22.05-.41.104-.572l.05-.022zm.166-.641c.18-.5.387-.9.623-1.199.236-.301.5-.501.796-.605a.755.755 0 01.222-.053.472.472 0 01.435.231.377.377 0 01.052.155.54.54 0 01-.017.19.81.81 0 01-.087.212 1.704 1.704 0 01-.416.434c-.097.07-.203.135-.321.196-.118.06-.227.11-.328.154a2.616 2.616 0 01-.281.1c-.085.026-.187.052-.3.083-.116.032-.244.066-.385.102h.007zM47.59 78.206c-.492-.109-1.095-.175-1.81-.2V76.88h2.184a19.51 19.51 0 00.146.862 13.37 13.37 0 00-.34.292l.1.116v.001l-.101-.117a6.4 6.4 0 00-.178.174zm40.233-10.58c-.215-1.629-.583-2.881-1.104-3.758-.522-.877-1.104-1.527-1.748-1.95-.644-.422-1.311-.673-2.001-.751a16.383 16.383 0 00-1.817-.117h-4.278v15.559a5.458 5.458 0 00-.125.599h-.004a6.659 6.659 0 00-.04.482v.001h-.002a10.98 10.98 0 00-.002.456h.064l.002.003-.07.001c0 .044.003.086.008.128.004.06.008.114.013.16l-.002.001c.004.033.008.066.015.098.008.062.02.125.032.188h.001l-.004.001c.008.038.017.075.029.111a3.418 3.418 0 00.085.305v5.627c0 .658.046 1.252.138 1.785.092.532.3 1.002.621 1.41.322.406.79.72 1.403.938.614.22 1.426.36 2.438.423v1.222H66.941v-1.222c.981-.063 1.778-.195 2.392-.399.613-.204 1.08-.501 1.403-.893.322-.39.536-.86.644-1.409a9.704 9.704 0 00.16-1.855v-7.23l.083-.133a6.278 6.278 0 00.307-.53l.004-.006h.002c.02-.037.036-.075.052-.113l.01-.026h.003c.021-.05.038-.1.052-.15l.003-.011h.002v-.002h.002c.018-.058.03-.117.04-.176l.004-.028a1.204 1.204 0 00.007-.42 1.417 1.417 0 00-.097-.349l-.014.006.014-.007a1.198 1.198 0 00-.108-.2 1.16 1.16 0 00-.365-.38V61.049h-3.634c-.706 0-1.457.039-2.254.117a5.546 5.546 0 00-2.254.728c-.705.407-1.311 1.057-1.817 1.95-.506.892-.836 2.152-.989 3.78h-.966v-8.172H88.79v8.172h-.966zm28.15 22.921v-1.22c.92-.064 1.656-.204 2.208-.424.552-.219.974-.524 1.265-.915.292-.392.483-.862.575-1.41.092-.548.138-1.15.138-1.808v-5.91l.033-.035c.152-.165.143-.152.179-.193l.174-.204.003.003a1.31 1.31 0 00.079-.105l.052-.063.002.002.002-.002.002.001a.827.827 0 00.051-.066l.124-.154-.023-.018h.001l.025.021c.02-.024.038-.05.056-.075l.026-.032.002.001a1.02 1.02 0 00.054-.075l.11-.14.003.002c.02-.026.038-.053.055-.08l.089-.115.051-.067h.001l.009-.012.002.002c.018-.023.034-.047.05-.071l.139-.19.003.003.001-.002.001.001a.692.692 0 00.036-.052l.006-.008h.002c.053-.072.097-.148.132-.228a1.6 1.6 0 00.14-.429l.005.001c.013-.074.018-.147.018-.22a1.473 1.473 0 00-.101-.564l-.002-.007.004-.001a1.132 1.132 0 00-.066-.142 1.347 1.347 0 00-.403-.484 1.414 1.414 0 00-1.101-.258l-.001-.004-.008.002-.017.002V62.881l-4.403 10.51a4.553 4.553 0 00-.279.233l-.008.008-.002-.001-.047.046c-.076.073-.151.156-.228.24l-.082.096c-.061.071-.12.141-.176.213h.001l-.005-.003a1.476 1.476 0 00-.07.1 6.233 6.233 0 00-.717 1.228l-.004-.002a5.616 5.616 0 00-.261.744h-.003l-.013.053c-.06.225-.107.462-.14.712h-.001v.003h-.003c-.003.027-.006.054-.007.08a4.87 4.87 0 00-.004 1.141l-5.139 12.266h-1.104l-3.82-8.81a.837.837 0 00.1-.018c.28-.052.579-.186.897-.401.263-.177.582-.438.957-.781l.002.002.003-.003.001.002a26.19 26.19 0 001.954-2.002l.003.003.039-.046.103-.12 2.107 4.893 10.027-23.814h9.66v1.22c-.92.032-1.656.165-2.208.4-.552.235-.966.54-1.242.916s-.46.838-.552 1.386a11.278 11.278 0 00-.138 1.855v14.72a2.643 2.643 0 00-.192.68h-.002c-.006.041-.01.082-.011.121a3.367 3.367 0 00-.013.447l.079-.003h.001l-.084.004c.002.043.006.084.012.125.007.07.017.138.03.205h.001l-.003.001a2.633 2.633 0 00.073.283h-.001l.008.026.016.045c.021.058.048.124.08.196l-.002.001.001.004-.001.001.008.018v2.666c0 .658.038 1.252.115 1.785.077.532.253.994.529 1.386.276.39.69.704 1.242.939s1.303.383 2.254.446v1.222h-13.524zM101.64 77.114l-2.66-6.133c.072-.025.146-.053.221-.082v-.005h.001l.002.005c.039-.015.076-.032.112-.051.205-.085.39-.172.554-.263h.004l.029-.016c.186-.105.377-.233.572-.383l.006-.003.002.003c.03-.023.059-.048.086-.074a4.16 4.16 0 00.475-.461 1.1 1.1 0 00.073-.093c.064-.079.123-.157.177-.234h.001c.026-.036.049-.075.07-.114a4.23 4.23 0 00.135-.22l.005-.008.004.002c.019-.034.036-.068.051-.102a3.977 3.977 0 00.293-.715 4.382 4.382 0 00.157-.82l.004-.034h.003c.003-.032.005-.064.005-.096.003-.052.004-.102.001-.153v-.003h.004a1.23 1.23 0 00-.031-.221 1.361 1.361 0 00-.234-.545l.003-.003-.003-.003.002-.001a1.522 1.522 0 00-.282-.29l.001-.002a1.607 1.607 0 00-.306-.179l.001-.002h-.003l.002-.004a1.148 1.148 0 00-.152-.055 1.322 1.322 0 00-.579-.053 1.549 1.549 0 00-.287.064 1.38 1.38 0 00-.642.428l-.002-.001h-.001a1.759 1.759 0 00-.2.31l-.006-.003a1.9 1.9 0 00-.117.326h-.003c-.023.09-.035.18-.037.268a1.398 1.398 0 01-.013.11c-.005.023-.017.07-.038.139a1.157 1.157 0 01-.266.46v-.001a.873.873 0 01-.156.147l-.003-.003a1.282 1.282 0 01-.126.088 2.135 2.135 0 01-.303.15 3.8 3.8 0 01-.191.074v.003l-.001-.005c-.029.01-.057.022-.085.034-.045.016-.09.03-.136.044l-2.65-6.111v4.372a1.572 1.572 0 00-.458.07l.022.08-.003.002-.023-.085a1.123 1.123 0 00-.163.06c-.07.027-.138.059-.204.094l.01.018h-.002l-.01-.02c-.017.01-.032.022-.048.032-.075.042-.151.09-.229.147l.012.017-.013-.018a1.154 1.154 0 00-.193.18 4.328 4.328 0 00-.225.256l-.036.045v-1.258c0-.876-.008-1.643-.023-2.301-.016-.658-.138-1.221-.368-1.691-.23-.47-.606-.838-1.127-1.104-.522-.266-1.304-.415-2.346-.446v-1.221h9.797l6.844 15.888-.039.04.009.01-.012-.012a1.197 1.197 0 00-.145.19 20.896 20.896 0 01-.528.652l-.003-.003-.003.004h-.001l-.026.032-.226.261-.001-.01a1.81 1.81 0 00-.031-.297c.105-.1.197-.214.278-.338.111-.173.189-.357.232-.552h.003c.014-.06.022-.122.026-.183a1.775 1.775 0 00-.004-.406l-.04.005-.001-.003.045-.005a1.227 1.227 0 00-.023-.123 1.744 1.744 0 00-.282-.668l.003-.002a1.09 1.09 0 00-.116-.142 1.72 1.72 0 00-.196-.19 1.833 1.833 0 00-.328-.211l.001-.002-.003-.002.001-.003a1.253 1.253 0 00-.111-.05 1.582 1.582 0 00-.949-.108v.001l-.001-.004a1.177 1.177 0 00-.16.044c-.267.08-.511.225-.734.437h.001l-.001.002-.003-.003a1.1 1.1 0 00-.073.077 1.67 1.67 0 00-.145.169l.015.012-.001.002-.018-.014a1.933 1.933 0 00-.195.33l-.002-.001a1.22 1.22 0 00-.054.138 1.91 1.91 0 00-.07.232 2.089 2.089 0 00-.045.349h-.003c-.003.06-.001.12.005.178a1.927 1.927 0 00.029.261 1.182 1.182 0 00-.159.253l-.044.064.013.01-.018-.012c-.02.03-.039.061-.057.093a2.847 2.847 0 00-.209.386l-.004-.002a1.12 1.12 0 00-.04.093 3.847 3.847 0 00-.169.396 7.049 7.049 0 00-.145.398zm-6.457-4.816v2.64a1.454 1.454 0 00-.568.357l.128.13v.001l-.13-.133a1.762 1.762 0 00-.18.231h-.001c-.015.02-.025.041-.085.135l-.002-.001-.001.001h-.001l-.016.025c-.011.016-.02.033-.03.05l-.12.172-.008.012-.2.293-.005-.003a1.216 1.216 0 00-.053.081l-.025.036-.046.066c.096-.345.204-.711.324-1.098a56.246 56.246 0 011.02-2.995zm0 7.22v4.219c0 .845.023 1.605.07 2.278.046.673.199 1.245.46 1.714.26.47.674.838 1.241 1.104.568.266 1.373.43 2.415.493v1.222h-9.613v-1.222c1.012-.063 1.786-.227 2.323-.493.536-.266.92-.642 1.15-1.127.23-.486.352-1.057.368-1.715.015-.657.023-1.409.023-2.254v-2.554l.066-.06a6.965 6.965 0 00.468-.417c.024-.023.048-.044.07-.069a7.715 7.715 0 00.46-.501l.003.002a1.12 1.12 0 00.055-.07c.13-.155.272-.33.423-.526l.018-.024z" fill="#B38C0A"/></svg>