<svg width="285" height="290" fill="none" xmlns="http://www.w3.org/2000/svg"><path fill-rule="evenodd" clip-rule="evenodd" d="M85.028 79.951c7.916 3.835 14.979 8.367 21.669 13.175 10.418 7.497 19.454 16.012 27.251 25.522 8.875 10.837 16.074 22.85 22.122 35.571 6.015 12.674 10.915 25.988 14.656 39.654.332 1.22.572 2.449 1.009 3.639.246.663.518 1.28.825 1.888-7.17-6.739-16.526-16.628-24.052-24.016-4.976-4.869-9.165-8.572-10.862-10.153a.8.8 0 00-1.12-.035.779.779 0 00-.041 1.103c1.434 1.844 4.677 6.383 9.053 11.781 4.26 5.262 9.625 11.222 14.58 16.868 6.38 7.266 12.325 13.736 15.521 16.54.426.367.921.582 1.157.947 1.056 1.576 1.677 1.511 2.192 2.19 1.241.978 2.323.159 3.374.083 1.975-.136 3.168-2.077 3.823-4.446.448-1.652-.621-5.237-.472-7.141.488-6.947.858-13.973.702-20.998-.118-6.303-.574-12.602-1.278-18.849-.47-4.189-1.144-8.302-1.823-12.431-.135-.337-.13-.715-.381-1-1.347-1.606-1.475-.873-3.26-1.977a.366.366 0 00-.393-.319.351.351 0 00-.32.392c-1.527 1.436-1.791.778-2.78 2.642-.161.291-.101.631-.172.971.371 8.43.202 16.94.104 25.504-.041 2.607-.065 5.209-.106 7.815-2.838-11.312-6.481-22.411-11.253-32.923-4.075-9.001-8.939-17.605-14.667-25.548-9.479-13.201-21.088-24.906-35.31-33.848-8.863-5.556-18.73-9.827-29.53-13.152-.164-.047-.333.02-.402.172-.047.164.02.332.184.38z" fill="#FF5100"/></svg>