<svg width="75" height="157" fill="none" xmlns="http://www.w3.org/2000/svg"><path fill-rule="evenodd" clip-rule="evenodd" d="M74.873.524c-6.548 5.873-12.084 12.18-17.185 18.649-7.941 10.084-14.273 20.764-19.139 32.058-5.535 12.866-9.135 26.401-11.433 40.298-2.279 13.842-3.31 27.992-3.129 42.159.018 1.265.127 2.512.036 3.777a18.492 18.492 0 01-.271 2.042c5.029-8.457 11.288-20.546 16.48-29.726 3.437-6.054 6.44-10.77 7.633-12.759a.8.8 0 011.068-.343c.38.18.542.669.343 1.048-.868 2.169-2.731 7.427-5.445 13.824-2.64 6.235-6.15 13.445-9.352 20.24-4.124 8.746-8.05 16.607-10.347 20.185-.308.47-.724.813-.85 1.229-.58 1.807-1.194 1.915-1.502 2.711-.922 1.283-2.189.795-3.22 1.012-1.935.415-3.618-1.121-4.902-3.217-.887-1.464-.85-5.204-1.52-6.994-2.388-6.541-4.685-13.191-6.476-19.986-1.628-6.09-2.93-12.27-3.98-18.468C.977 104.106.488 99.968 0 95.812c.036-.362-.072-.723.09-1.066.85-1.916 1.176-1.247 2.587-2.801a.366.366 0 01.29-.416c.199-.036.38.09.416.29 1.863.957 1.935.252 3.4 1.77.236.235.272.578.435.886 1.972 8.204 4.486 16.336 6.946 24.54.76 2.494 1.502 4.987 2.261 7.481-.398-11.656.037-23.329 1.719-34.75 1.43-9.777 3.727-19.39 7.037-28.606 5.463-15.306 13.386-29.763 24.584-42.286 6.983-7.789 15.286-14.62 24.747-20.8a.333.333 0 01.434.054c.09.145.072.326-.073.416z" fill="#FF5100"/></svg>