<svg width="397" height="144" fill="none" xmlns="http://www.w3.org/2000/svg"><path d="M154.711.199c-25.169.794-50.136 3.664-72.38 8.962-10.643 2.54-20.428 5.718-29.507 9.228-9.18 3.554-17.402 7.594-24.615 11.943-7.162 4.305-12.912 9.05-17.3 14.018C6.52 49.339 3.746 54.615 2.03 59.913-1.55 70.951-.39 82.276 5.46 93.137c2.825 5.298 7.062 10.442 12.459 15.342 5.245 4.769 11.903 9.206 19.671 13.246 7.617 3.973 16.695 7.417 26.48 10.309 9.937 2.958 20.984 5.21 32.282 6.998 11.551 1.832 23.656 3.047 35.812 3.819 12.66.795 25.472 1.17 38.233 1.148 12.71 0 25.421-.441 38.081-1.148 12.56-.728 25.069-1.678 37.376-2.936 12.156-1.236 24.16-2.737 35.913-4.57 11.752-1.81 23.252-3.951 34.298-6.49 10.593-2.428 20.782-5.254 30.264-8.455 9.432-3.179 18.158-6.755 25.573-10.839 3.783-2.075 7.213-4.282 10.239-6.6a57.162 57.162 0 007.818-7.22c4.439-5.01 6.708-10.397 7.011-15.783.151-2.693-.303-5.365-1.11-8.036-.807-2.737-2.068-5.408-3.732-8.08-3.279-5.187-8.07-10.176-13.77-14.945-5.599-4.702-12.358-9.117-19.772-13.311-7.364-4.15-15.636-7.991-24.715-11.435-9.281-3.532-19.42-6.667-30.163-9.294-10.845-2.65-22.395-4.746-34.198-6.38-8.676-1.214-17.502-2.12-26.43-2.782-1.866-.286-3.783-.573-5.649-.86-2.371-.596-4.994-1.038-7.617-1.435-2.976-.442-6.103-.729-9.23-.95a112.02 112.02 0 00-5.397-.265A540.084 540.084 0 00192.642.596a468.005 468.005 0 00-37.931-.375V.199zm14.274 4.04c3.229 0 6.457.044 9.735.132-6.557.817-13.013 1.766-19.318 2.892-5.195.927-10.39 1.854-15.636 2.76-3.329.595-6.557 1.324-9.785 2.03-4.641.994-9.332 1.943-13.871 3.025-21.588 5.143-41.461 11.611-59.216 19.05-8.776 3.688-16.998 7.683-24.16 12.01-7.112 4.283-13.014 8.919-17.705 13.797-4.892 5.122-8.372 10.552-10.188 16.05-.454-4.968.05-9.935 1.513-14.858 1.866-5.872 5.094-11.678 10.29-17.152 4.489-4.592 10.34-8.919 17.25-12.893 8.575-4.812 18.511-9.095 29.507-12.848a231.124 231.124 0 0115.182-4.48c5.548-1.436 11.349-2.672 17.25-3.776 13.871-2.516 28.498-4.128 43.378-5.033a455.263 455.263 0 0125.774-.706zm19.42 1.368c2.017-.22 4.035-.441 6.103-.618.353 0 .706.044 1.009.066.605.044 1.16.067 1.765.11-1.059.067-2.119.111-3.127.177-3.128.199-6.255.42-9.332.685 1.211-.133 2.371-.287 3.582-.42zm27.489 3.245c6.91-.022 13.77.221 20.579.596.454.022.908.067 1.312.089a423.63 423.63 0 0112.458 2.097c17.452 3.267 34.047 7.373 49.128 12.45 13.064 4.482 24.917 9.603 35.156 15.365 8.575 4.923 16.04 10.265 21.689 15.96 4.741 5.034 7.97 10.332 9.735 15.719 1.311 4.635 1.311 9.36-.05 13.996-1.514 4.613-4.338 9.095-8.424 13.4-4.438 4.547-10.138 8.852-16.998 12.781-7.213 4.018-15.485 7.594-24.715 10.729 0 0 .101-.022.101-.044-11.551 3.841-24.362 6.931-37.729 9.448-19.268 3.532-39.645 5.762-60.325 7.02-12.257.729-24.615 1.126-36.972 1.126-12.156 0-24.312-.397-36.367-1.082-17.452-1.059-34.652-2.914-50.944-5.872h-.1c-3.884-1.589-7.667-3.245-11.5-4.856a139.337 139.337 0 01-7.012-3.157c-2.27-1.082-4.338-2.252-6.406-3.4l.202.11s-.151-.088-.252-.154c-.1-.066-.252-.133-.353-.199.1.044.151.089.252.133-3.228-1.855-6.254-3.775-8.978-5.784a56.89 56.89 0 01-7.062-6.137c-3.177-3.356-6.002-6.777-8.373-10.243-2.42-3.62-4.236-7.351-5.447-11.104-1.513-5.298-1.463-10.64.1-15.939 1.918-5.96 5.65-11.766 10.946-17.307 5.296-5.387 11.954-10.53 20.126-15.188 3.934-2.208 8.17-4.283 12.71-6.248 4.64-2.008 9.584-3.863 14.678-5.629 6.91-2.318 14.224-4.437 21.84-6.313 7.869-1.943 16.09-3.665 24.413-5.21 16.897-3.09 34.652-5.43 52.81-6.557 6.557-.353 13.114-.574 19.722-.596h.05zm-19.823.596s-.454.022-.655.044c.201 0 .403-.022.655-.044zm54.576 2.252s.302.044.454.088a3.277 3.277 0 01-.454-.088zm91.9 103.976c7.97-3.996 14.728-8.455 20.025-13.201 5.447-4.835 9.381-9.978 11.55-15.298 2.219-5.431 2.623-11.038 1.11-16.513-1.564-5.43-4.489-10.817-9.079-15.916-4.489-5.012-10.542-9.758-17.452-14.217-6.911-4.46-14.829-8.61-23.455-12.429-8.221-3.62-17.25-6.887-26.682-9.846 7.869 1.855 15.384 3.974 22.496 6.336 12.105 4.128 22.899 8.897 32.281 14.195 9.886 5.651 18.209 11.788 24.615 18.323 4.741 4.989 8.171 10.198 9.936 15.54.605 2.098 1.009 4.195 1.059 6.292.051 2.098-.252 4.195-.857 6.292a24.87 24.87 0 01-2.623 5.651c-1.16 1.877-2.623 3.709-4.338 5.497-3.783 3.841-8.625 7.44-14.425 10.773-7.062 3.929-15.384 7.417-24.413 10.486a299.45 299.45 0 01-14.527 4.437c5.246-1.987 10.189-4.128 14.729-6.402h.05zm-275.5-97.353s-.302.11-.504.154c.152-.044.303-.11.505-.154zm231.719 5.54s.454.155.656.221c-.202-.066-.454-.154-.656-.22zM38.449 30.73s-.253.133-.353.199c.1-.066.252-.133.353-.199zm20.528 8.455c-4.892 3.025-9.23 6.203-13.013 9.515-5.548 4.856-9.936 10-12.862 15.276-3.026 5.364-4.54 10.905-4.439 16.446.101 5.52 2.018 11.016 5.095 16.38 2.169 3.775 5.094 7.462 8.373 11.082a91.152 91.152 0 005.346 5.387c1.967 1.81 4.288 3.51 6.81 5.188 2.42 1.611 5.094 3.179 7.818 4.702 2.673 1.479 5.447 2.892 8.473 4.216-3.48-.993-6.91-2.053-10.188-3.157-8.625-2.98-16.494-6.357-23.253-10.154-5.346-3.091-9.886-6.402-13.417-9.979-1.715-1.832-3.177-3.708-4.388-5.629-1.21-1.92-2.018-3.885-2.673-5.85-1.564-5.342-1.463-10.729.1-16.049 1.817-5.695 5.297-11.236 10.34-16.535 5.146-5.231 11.804-10.132 19.672-14.658a191.8 191.8 0 0112.105-6.18h.101zm10.542.353s-.302.155-.403.243c.151-.088.302-.154.403-.243zm286.798 15.939c.151.132.252.265.353.375-.151-.132-.252-.265-.353-.375zm-346.064 5.74c0 .11-.05.242-.1.353 0-.11.05-.243.1-.353zm355.799 10.176s0 .11.05.177c0-.066 0-.11-.05-.177zm21.941 1.502zM16.962 76.117s-.051.176-.101.265c0-.089.05-.177.1-.265zm371.283 8.83s-.05.199-.101.287c0-.088.051-.199.101-.287zM38.65 87.927s0 .155.05.22c0-.065 0-.154-.05-.22zm-21.89 4.724s.05.177.1.265c0-.088-.05-.176-.1-.265zm35.307 16.16s.151.154.202.22c-.05-.066-.151-.154-.202-.22zm288.866 2.251s-.252.133-.353.199c.101-.066.252-.132.353-.199zM60.592 124.241s.302.111.504.155c-.151-.044-.303-.11-.504-.155zm83.073 14.195h.353-.353zm74.095.022h-.151.151zM68.51 121.151s0 .022.05.044a.72.72 0 00-.2-.11s.05.044.1.066h.05z" fill="#FF5100"/></svg>