<svg width="110" height="51" fill="none" xmlns="http://www.w3.org/2000/svg"><path d="M0 11.772C0 5.271 5.208 0 11.632 0H38.76c6.424 0 11.632 5.27 11.632 11.772v27.456C50.393 45.73 45.185 51 38.76 51H11.63C5.209 51 0 45.73 0 39.228V11.772z" fill="#000"/><path d="M40.123 23.94c-.526-3.464-3.436-5.98-6.915-5.98a7.313 7.313 0 00-2.193.336 1.54 1.54 0 00-1.07 1.468v2.407a4.243 4.243 0 013.147-1.372c1.17 0 2.262.45 3.069 1.267.811.82 1.256 1.935 1.256 3.127 0 2.46-1.904 4.39-4.325 4.395a4.228 4.228 0 01-3.047-1.276 4.42 4.42 0 01-1.248-3.114V15.019c0-.727-.59-1.316-1.316-1.316h-1.515V23.94s.036 1.145.151 1.868c.181 1.134.304 1.812.812 2.826.514 1.028 1.873 2.26 1.873 2.26a7.032 7.032 0 004.42 1.546c1.394 0 2.727-.41 3.858-1.192 2.469-1.704 3.526-4.233 3.056-7.308h-.013zm-29.739-.022c.526-3.464 3.435-5.98 6.914-5.98a7.303 7.303 0 012.193.336c.634.2 1.07.795 1.07 1.468v2.406a4.243 4.243 0 00-3.146-1.371 4.28 4.28 0 00-3.07 1.267c-.81.82-1.255 1.935-1.255 3.127 0 2.46 1.903 4.39 4.325 4.395a4.228 4.228 0 003.047-1.276 4.42 4.42 0 001.247-3.114v-6.968h1.317c.837 0 1.515.686 1.515 1.534v17.267h-1.32a1.523 1.523 0 01-1.516-1.533v-4.604a7.033 7.033 0 01-4.42 1.546 6.747 6.747 0 01-3.858-1.192c-2.47-1.704-3.527-4.233-3.056-7.308h.013z" fill="#FF5100"/><path d="M64.969 30.373a3.14 3.14 0 01-1.16.586c-.444.13-.916.196-1.417.196-1.26 0-2.234-.333-2.92-1-.688-.666-1.032-1.637-1.032-2.912v-5.585h-1.89v-2.174h1.89v-2.651h2.685v2.651h3.07v2.174h-3.07v5.52c0 .565.136 1 .408 1.304.272.29.665.434 1.18.434.602 0 1.103-.159 1.504-.478l.752 1.935zm6.984.782c-1.16 0-2.205-.254-3.135-.76a5.607 5.607 0 01-2.19-2.109c-.516-.913-.774-1.941-.774-3.086 0-1.145.258-2.166.773-3.064a5.607 5.607 0 012.19-2.108c.931-.507 1.976-.761 3.136-.761 1.174 0 2.226.254 3.157.76a5.457 5.457 0 012.169 2.109c.53.898.794 1.92.794 3.064 0 1.145-.265 2.173-.794 3.086a5.457 5.457 0 01-2.17 2.108c-.93.507-1.982.761-3.156.761zm0-2.325c.988 0 1.804-.334 2.448-1 .644-.667.966-1.543.966-2.63s-.322-1.963-.966-2.63c-.644-.666-1.46-1-2.448-1s-1.804.334-2.448 1c-.63.667-.945 1.543-.945 2.63s.315 1.963.945 2.63c.644.666 1.46 1 2.448 1zm13.841 2.325c-1.16 0-2.205-.254-3.135-.76a5.607 5.607 0 01-2.19-2.109c-.516-.913-.774-1.941-.774-3.086 0-1.145.258-2.166.773-3.064a5.607 5.607 0 012.19-2.108c.931-.507 1.976-.761 3.136-.761 1.174 0 2.226.254 3.157.76a5.457 5.457 0 012.168 2.109c.53.898.795 1.92.795 3.064 0 1.145-.265 2.173-.795 3.086a5.457 5.457 0 01-2.168 2.108c-.931.507-1.983.761-3.157.761zm0-2.325c.988 0 1.804-.334 2.448-1 .644-.667.966-1.543.966-2.63s-.322-1.963-.966-2.63c-.644-.666-1.46-1-2.448-1s-1.804.334-2.448 1c-.63.667-.945 1.543-.945 2.63s.315 1.963.945 2.63c.644.666 1.46 1 2.448 1zm8.686-13.953h2.685v16.126h-2.684V14.877zm9.751 16.278c-.93 0-1.839-.123-2.727-.37-.887-.246-1.596-.557-2.126-.934l1.031-2.065c.515.348 1.131.63 1.847.848.73.203 1.446.304 2.147.304 1.604 0 2.405-.427 2.405-1.282 0-.406-.207-.688-.622-.848-.401-.159-1.053-.311-1.955-.456-.944-.145-1.717-.311-2.319-.5a3.665 3.665 0 01-1.546-.978c-.43-.478-.644-1.137-.644-1.978 0-1.1.451-1.977 1.353-2.63.916-.666 2.147-.999 3.693-.999.788 0 1.575.094 2.362.283.788.173 1.432.412 1.933.717l-1.031 2.064c-.973-.58-2.068-.869-3.285-.869-.788 0-1.389.123-1.804.37-.401.231-.601.543-.601.934 0 .435.214.746.644.935.444.173 1.124.34 2.04.5.916.144 1.668.31 2.255.5a3.445 3.445 0 011.503.956c.429.449.644 1.086.644 1.912 0 1.087-.465 1.956-1.396 2.608-.93.652-2.197.978-3.801.978z" fill="#000"/></svg>