<svg width="218" height="193" fill="none" xmlns="http://www.w3.org/2000/svg"><path fill-rule="evenodd" clip-rule="evenodd" d="M195.256 88.73c-7.771 4.122-15.6 7.143-23.432 9.7-12.203 3.977-24.412 6.236-36.691 6.909-13.986.759-27.933-.53-41.769-3.166-13.78-2.634-27.416-6.546-40.652-11.602-1.181-.453-2.314-.985-3.533-1.337a18.497 18.497 0 00-2.01-.449c9.673-1.804 23.179-3.51 33.586-5.217 6.868-1.138 12.33-2.33 14.608-2.766a.8.8 0 00.69-.883.778.778 0 00-.865-.684c-2.335.067-7.913.002-14.854.343-6.763.33-14.74 1.137-22.223 1.799-9.632.855-18.364 1.829-22.515 2.751-.547.127-1.013.4-1.447.375-1.896-.08-2.21.46-3.062.474-1.522.424-1.501 1.78-2.06 2.674-1.058 1.673-.196 3.782 1.328 5.71 1.069 1.337 4.592 2.593 6.04 3.838 5.318 4.498 10.767 8.948 16.528 12.972 5.154 3.628 10.506 6.982 15.963 10.105 3.658 2.095 7.374 3.981 11.107 5.873.351.09.653.317 1.031.283 2.092-.138 1.576-.674 3.522-1.463a.366.366 0 00.49-.128.353.353 0 00-.128-.49c-.257-2.079.43-1.904-.49-3.803-.14-.302-.449-.454-.681-.713-7.021-4.68-13.787-9.845-20.64-14.983-2.078-1.574-4.163-3.13-6.242-4.703 10.804 4.393 21.91 8.012 33.211 10.371 9.67 2.03 19.486 3.189 29.278 3.26 16.251.151 32.554-2.301 48.17-8.492 9.719-3.869 18.994-9.307 28.058-16.056a.332.332 0 00.099-.426c-.104-.135-.28-.18-.415-.075z" fill="#FF5100"/></svg>