<svg width="218" height="193" fill="none" xmlns="http://www.w3.org/2000/svg"><path fill-rule="evenodd" clip-rule="evenodd" d="M195.256 104.269c-7.771-4.121-15.6-7.142-23.432-9.7-12.203-3.976-24.412-6.236-36.691-6.908-13.986-.759-27.933.53-41.769 3.166-13.78 2.634-27.416 6.546-40.652 11.602-1.181.453-2.314.985-3.533 1.336-.68.192-1.339.338-2.01.45 9.673 1.804 23.179 3.509 33.586 5.217 6.868 1.138 12.33 2.33 14.608 2.765a.8.8 0 01.69.884.777.777 0 01-.865.684c-2.335-.067-7.913-.003-14.854-.344-6.763-.329-14.74-1.136-22.223-1.798-9.632-.855-18.364-1.829-22.515-2.752-.547-.126-1.013-.398-1.447-.374-1.896.08-2.21-.46-3.062-.474-1.522-.424-1.501-1.781-2.06-2.674-1.058-1.673-.196-3.782 1.328-5.71 1.069-1.337 4.592-2.594 6.04-3.839 5.318-4.497 10.767-8.947 16.528-12.971 5.154-3.629 10.506-6.983 15.963-10.105 3.658-2.096 7.374-3.981 11.107-5.873.351-.09.653-.317 1.031-.283 2.092.138 1.576.674 3.522 1.462a.366.366 0 01.49.129.353.353 0 01-.128.49c-.257 2.08.43 1.904-.49 3.803-.14.302-.449.454-.681.713-7.021 4.68-13.787 9.845-20.64 14.983-2.078 1.573-4.163 3.13-6.242 4.703 10.804-4.394 21.91-8.012 33.211-10.371 9.67-2.03 19.486-3.19 29.278-3.26 16.251-.151 32.554 2.3 48.17 8.492 9.719 3.868 18.994 9.306 28.058 16.056.135.104.18.28.099.426-.104.135-.28.18-.415.075z" fill="#FF5100"/></svg>