<svg width="168" height="48" fill="none" xmlns="http://www.w3.org/2000/svg"><path fill-rule="evenodd" clip-rule="evenodd" d="M.743 38.27c7.771-4.122 15.6-7.143 23.432-9.7 12.204-3.977 24.412-6.237 36.691-6.91 13.986-.758 27.933.53 41.769 3.167 13.779 2.634 27.416 6.546 40.652 11.602 1.181.453 2.314.985 3.533 1.336.68.192 1.339.338 2.01.45-9.673 1.804-23.179 3.51-33.586 5.217-6.868 1.138-12.331 2.33-14.608 2.765a.8.8 0 00-.69.884c.038.419.44.74.865.684 2.335-.067 7.913-.003 14.854-.343 6.763-.33 14.741-1.137 22.223-1.8 9.632-.854 18.364-1.828 22.515-2.75.547-.127 1.013-.4 1.447-.375 1.896.08 2.21-.46 3.062-.474 1.522-.424 1.501-1.78 2.06-2.674 1.058-1.673.196-3.782-1.328-5.71-1.069-1.338-4.592-2.594-6.041-3.839-5.317-4.497-10.766-8.947-16.527-12.971-5.154-3.629-10.506-6.983-15.963-10.105-3.658-2.096-7.374-3.981-11.106-5.873-.352-.09-.654-.317-1.032-.283-2.092.138-1.576.674-3.522 1.462a.366.366 0 00-.49.129.354.354 0 00.128.49c.257 2.08-.43 1.904.49 3.803.139.302.449.454.681.713 7.021 4.68 13.787 9.845 20.639 14.983 2.079 1.573 4.164 3.13 6.243 4.703-10.804-4.393-21.911-8.012-33.211-10.371-9.67-2.03-19.486-3.19-29.278-3.26-16.251-.151-32.554 2.3-48.17 8.492C18.765 25.58 9.49 31.018.427 37.768a.331.331 0 00-.099.426c.104.135.28.18.415.075z" fill="#FF5100"/></svg>