<svg width="30" height="31" fill="none" xmlns="http://www.w3.org/2000/svg"><path d="M21.357 3.928H8.917a5.488 5.488 0 00-5.489 5.489v12.44a5.488 5.488 0 005.489 5.489h12.44a5.488 5.488 0 005.489-5.489V9.417a5.488 5.488 0 00-5.489-5.489z" fill="url(#paint0_radial_1007_23879)"/><path d="M21.357 3.928H8.917a5.488 5.488 0 00-5.489 5.489v12.44a5.488 5.488 0 005.489 5.489h12.44a5.488 5.488 0 005.489-5.489V9.417a5.488 5.488 0 00-5.489-5.489z" fill="url(#paint1_radial_1007_23879)"/><path d="M15.138 6.49c-2.484 0-2.796.01-3.772.055-.974.045-1.638.199-2.22.425a4.479 4.479 0 00-1.62 1.055 4.49 4.49 0 00-1.056 1.62c-.227.582-.381 1.247-.425 2.22-.044.976-.055 1.288-.055 3.772 0 2.485.01 2.795.055 3.771.045.974.199 1.639.425 2.22a4.483 4.483 0 001.055 1.62 4.48 4.48 0 001.62 1.056c.582.227 1.247.38 2.22.425.976.045 1.288.056 3.772.056s2.795-.011 3.77-.056c.975-.044 1.64-.198 2.222-.425a4.476 4.476 0 001.62-1.055 4.493 4.493 0 001.055-1.62c.225-.582.38-1.247.425-2.22.044-.976.055-1.287.055-3.772 0-2.484-.011-2.796-.055-3.772-.046-.973-.2-1.638-.425-2.22a4.491 4.491 0 00-1.056-1.62 4.47 4.47 0 00-1.62-1.055c-.583-.226-1.248-.38-2.221-.425-.976-.044-1.287-.055-3.772-.055h.003zm-.82 1.648h.82c2.442 0 2.732.009 3.696.053.892.04 1.376.19 1.699.315.426.166.73.364 1.05.684.321.32.52.625.685 1.052.125.322.275.806.315 1.698.044.964.054 1.254.054 3.695s-.01 2.731-.054 3.695c-.04.892-.19 1.376-.315 1.698a2.82 2.82 0 01-.684 1.051c-.32.32-.624.518-1.051.684-.323.126-.807.275-1.699.315-.964.044-1.254.054-3.696.054-2.443 0-2.732-.01-3.696-.054-.892-.04-1.376-.19-1.699-.315a2.834 2.834 0 01-1.052-.684 2.836 2.836 0 01-.684-1.052c-.126-.322-.275-.806-.315-1.698-.044-.964-.053-1.253-.053-3.696 0-2.443.009-2.731.053-3.695.04-.892.19-1.376.315-1.699.165-.427.364-.732.684-1.052.32-.32.625-.518 1.052-.684.322-.126.807-.275 1.699-.316.844-.038 1.17-.05 2.875-.051v.002zm5.703 1.519a1.098 1.098 0 100 2.196 1.098 1.098 0 000-2.196zm-4.883 1.283a4.698 4.698 0 100 9.395 4.698 4.698 0 000-9.395zm0 1.648a3.05 3.05 0 110 6.098 3.05 3.05 0 010-6.098z" fill="#fff"/><defs><radialGradient id="paint0_radial_1007_23879" cx="0" cy="0" r="1" gradientUnits="userSpaceOnUse" gradientTransform="matrix(0 -23.2081 21.5854 0 9.649 29.15)"><stop stop-color="#FD5"/><stop offset=".1" stop-color="#FD5"/><stop offset=".5" stop-color="#FF543E"/><stop offset="1" stop-color="#C837AB"/></radialGradient><radialGradient id="paint1_radial_1007_23879" cx="0" cy="0" r="1" gradientUnits="userSpaceOnUse" gradientTransform="rotate(78.681 -3.672 2.506) scale(10.3742 42.7626)"><stop stop-color="#3771C8"/><stop offset=".128" stop-color="#3771C8"/><stop offset="1" stop-color="#60F" stop-opacity="0"/></radialGradient></defs></svg>