<svg width="109" height="50" fill="none" xmlns="http://www.w3.org/2000/svg"><path d="M0 11.541C0 5.167 5.16 0 11.526 0h26.882c6.366 0 11.527 5.167 11.527 11.541V38.46c0 6.374-5.16 11.541-11.527 11.541H11.526C5.16 50 0 44.833 0 38.459V11.54z" fill="#000"/><path d="M39.758 23.47c-.522-3.396-3.404-5.863-6.852-5.863a7.313 7.313 0 00-2.173.33c-.628.197-1.06.78-1.06 1.439v2.36a4.225 4.225 0 013.118-1.345c1.16 0 2.241.441 3.041 1.242.804.805 1.245 1.897 1.245 3.066 0 2.411-1.887 4.304-4.286 4.308a4.213 4.213 0 01-3.02-1.25 4.31 4.31 0 01-1.236-3.054v-9.965c0-.72-.584-1.304-1.304-1.304H25.73V23.47s.036 1.123.15 1.831c.18 1.113.3 1.777.804 2.772.51 1.007 1.856 2.215 1.856 2.215a7.015 7.015 0 004.38 1.516 6.736 6.736 0 003.823-1.17c2.447-1.67 3.494-4.149 3.028-7.164h-.013zm-29.468-.021c.521-3.397 3.404-5.863 6.851-5.863a7.316 7.316 0 012.173.33c.628.197 1.06.779 1.06 1.439v2.36a4.225 4.225 0 00-3.117-1.346c-1.16 0-2.242.442-3.042 1.242-.804.805-1.244 1.898-1.244 3.067 0 2.41 1.886 4.304 4.285 4.308a4.213 4.213 0 003.02-1.25 4.31 4.31 0 001.236-3.054v-6.83h1.305c.83 0 1.5.672 1.5 1.503v16.929H23.01c-.83 0-1.501-.673-1.501-1.503v-4.514a7.016 7.016 0 01-4.38 1.516 6.736 6.736 0 01-3.823-1.17c-2.447-1.67-3.495-4.15-3.029-7.164h.013z" fill="#FF5100"/><path d="M64.378 29.777a3.124 3.124 0 01-1.15.576 5.01 5.01 0 01-1.404.191c-1.248 0-2.213-.326-2.893-.98-.681-.653-1.022-1.605-1.022-2.855v-5.476h-1.873v-2.13h1.873v-2.6h2.66v2.6h3.043v2.13h-3.043v5.412c0 .554.135.98.404 1.279.27.284.66.426 1.17.426.596 0 1.093-.157 1.49-.469l.745 1.896zm6.921.767c-1.15 0-2.185-.248-3.107-.745a5.531 5.531 0 01-2.17-2.067c-.511-.895-.766-1.904-.766-3.026 0-1.122.255-2.123.766-3.004a5.531 5.531 0 012.17-2.067c.922-.497 1.958-.745 3.107-.745 1.163 0 2.206.248 3.128.745a5.382 5.382 0 012.15 2.067c.524.88.786 1.882.786 3.004s-.262 2.13-.787 3.026a5.382 5.382 0 01-2.15 2.067c-.921.497-1.964.745-3.127.745zm0-2.28c.979 0 1.787-.326 2.426-.98.638-.653.957-1.512.957-2.578 0-1.065-.319-1.924-.957-2.578-.639-.653-1.447-.98-2.426-.98-.979 0-1.788.327-2.426.98-.624.654-.936 1.513-.936 2.578 0 1.066.312 1.925.936 2.578.638.654 1.447.98 2.426.98zm13.715 2.28c-1.15 0-2.185-.248-3.107-.745a5.531 5.531 0 01-2.17-2.067c-.511-.895-.766-1.904-.766-3.026 0-1.122.255-2.123.766-3.004a5.531 5.531 0 012.17-2.067c.922-.497 1.958-.745 3.107-.745 1.163 0 2.206.248 3.128.745a5.382 5.382 0 012.15 2.067c.524.88.786 1.882.786 3.004s-.262 2.13-.787 3.026a5.382 5.382 0 01-2.15 2.067c-.921.497-1.964.745-3.127.745zm0-2.28c.979 0 1.787-.326 2.426-.98.638-.653.957-1.512.957-2.578 0-1.065-.319-1.924-.957-2.578-.639-.653-1.447-.98-2.426-.98-.979 0-1.787.327-2.426.98-.624.654-.936 1.513-.936 2.578 0 1.066.312 1.925.936 2.578.639.654 1.447.98 2.426.98zm8.608-13.679h2.66v15.81h-2.66v-15.81zm9.662 15.959c-.922 0-1.823-.12-2.703-.362-.879-.241-1.581-.547-2.106-.916l1.021-2.024c.511.34 1.121.618 1.83.83a8.01 8.01 0 002.128.299c1.589 0 2.383-.419 2.383-1.257 0-.398-.205-.675-.617-.831-.397-.156-1.042-.305-1.936-.448-.936-.142-1.702-.305-2.298-.49a3.636 3.636 0 01-1.532-.958c-.426-.47-.639-1.115-.639-1.94 0-1.079.447-1.938 1.341-2.577.908-.654 2.128-.98 3.66-.98.78 0 1.56.092 2.341.276.78.17 1.418.405 1.915.704l-1.022 2.024c-.964-.568-2.05-.852-3.255-.852-.781 0-1.376.12-1.788.362-.397.227-.596.532-.596.916 0 .426.213.731.639.916.44.17 1.113.334 2.021.49.908.142 1.653.306 2.235.49a3.419 3.419 0 011.489.938c.426.44.638 1.065.638 1.875 0 1.065-.461 1.917-1.383 2.556-.922.64-2.177.96-3.766.96z" fill="#000"/></svg>