<svg width="121" height="53" fill="none" xmlns="http://www.w3.org/2000/svg"><g filter="url(#filter0_d_798_21108)"><rect x="9" y="8" width="97.654" height="29.459" rx="14.729" fill="#fff" shape-rendering="crispEdges"/><rect x="31.197" y="13.355" width="23.755" height="18.733" rx="9.367" fill="#1D59F9"/><path fill-rule="evenodd" clip-rule="evenodd" d="M33.884 17.684h9.19v9.508h-3.18v1.349h-2.617v-1.349h-3.393v-9.508zm6.646 2.696h-3.89v4.329h.636V23.43h2.616v1.278h.637V20.38zm3.676-2.696h7.989v5.996H51.17l.813 3.512h-2.757l-.813-3.512h-1.591v3.512h-2.616v-9.508zm5.515 2.696h-2.9v.852h2.9v-.852z" fill="#fff"/><path fill-rule="evenodd" clip-rule="evenodd" d="M64.85 17.896h-7.847v9.367h7.848V23.29l-.778-.745.778-.745v-3.902zm-2.686 2.484h-2.687v.923h1.91l.777-.923zm0 4.4h-2.687v-.923h1.91l.777.923zm3.606-6.884h7.848v9.367H65.77v-9.367zm5.373 2.2h-2.97v4.613h2.97v-4.613z" fill="#000"/><path d="M74.749 17.896v5.961h4.807v.852H74.75v2.554h7.353v-5.96h-4.808v-.852h4.808v-2.555H74.75zm8.484 0v5.961h4.807v.852h-4.807v2.554h7.352v-5.96h-4.807v-.852h4.807v-2.555h-7.352zm-24.32 11.458a.518.518 0 01-.168.404.817.817 0 01-.435.191v.012c.215.026.38.091.494.195a.514.514 0 01.172.402.668.668 0 01-.114.385.74.74 0 01-.34.261c-.15.063-.338.094-.56.094-.163 0-.31-.011-.444-.034a1.432 1.432 0 01-.357-.102v-.355c.071.034.15.064.234.089a1.823 1.823 0 00.513.075c.223 0 .387-.038.495-.113a.366.366 0 00.161-.319c0-.14-.07-.244-.209-.309-.139-.064-.33-.097-.572-.097h-.296v-.327h.277c.18 0 .325-.016.433-.048a.467.467 0 00.237-.136.322.322 0 00.073-.212.29.29 0 00-.13-.252.594.594 0 00-.353-.092c-.143 0-.268.02-.375.058-.108.039-.21.09-.308.152L57.156 29a1.516 1.516 0 01.547-.232c.109-.023.228-.034.358-.034.182 0 .335.027.46.08a.651.651 0 01.291.218c.067.094.1.2.1.321zm1.485-.014a.66.66 0 01.536.246c.136.164.204.407.204.73 0 .213-.031.394-.095.54a.726.726 0 01-.263.331.697.697 0 01-.393.111.74.74 0 01-.248-.037.618.618 0 01-.305-.23h-.024a3.836 3.836 0 01.024.301v.77h-.401v-2.726h.326l.056.261h.019a.782.782 0 01.127-.148.564.564 0 01.184-.108.717.717 0 01.253-.04zm-.107.328a.472.472 0 00-.265.066.372.372 0 00-.145.196 1.09 1.09 0 00-.047.33v.056c0 .14.014.258.042.356.03.097.078.17.145.222.067.05.16.075.275.075a.362.362 0 00.241-.08.477.477 0 00.144-.229 1.15 1.15 0 00.048-.35c0-.203-.036-.36-.109-.473-.071-.113-.181-.17-.33-.17zm2.975.648c0 .157-.02.296-.062.418a.838.838 0 01-.178.308.786.786 0 01-.282.191 1.01 1.01 0 01-.372.065.944.944 0 01-.355-.065.81.81 0 01-.28-.19.876.876 0 01-.182-.31 1.248 1.248 0 01-.065-.417c0-.208.036-.384.107-.529a.765.765 0 01.31-.332.95.95 0 01.477-.115.9.9 0 01.459.115.788.788 0 01.31.332c.075.146.113.322.113.529zm-1.365 0c0 .137.017.255.05.353a.46.46 0 00.156.225.45.45 0 00.272.077.45.45 0 00.272-.077.45.45 0 00.154-.225c.033-.098.05-.216.05-.353a1.08 1.08 0 00-.05-.35.43.43 0 00-.154-.22.454.454 0 00-.274-.076c-.165 0-.286.055-.362.167-.076.111-.114.27-.114.479zm1.716-.184c0-.274.03-.507.09-.7a1.01 1.01 0 01.284-.462 1.05 1.05 0 01.503-.237c.134-.03.27-.056.408-.078l.414-.063.055.353a4.249 4.249 0 00-.822.131.72.72 0 00-.27.113.5.5 0 00-.17.225c-.041.099-.066.23-.074.395h.022a.678.678 0 01.325-.255.7.7 0 01.266-.048.75.75 0 01.398.099c.11.066.193.161.25.286.058.125.086.276.086.452 0 .21-.037.387-.112.529a.743.743 0 01-.309.319.96.96 0 01-.464.107.853.853 0 01-.367-.077.764.764 0 01-.277-.225 1.092 1.092 0 01-.175-.366 1.848 1.848 0 01-.06-.498zm.908.837c.09 0 .168-.02.234-.058a.374.374 0 00.155-.188.877.877 0 00.056-.342.767.767 0 00-.096-.413c-.062-.101-.165-.152-.309-.152a.5.5 0 00-.243.06.745.745 0 00-.187.14.663.663 0 00-.108.138c0 .103.007.203.022.3.016.097.042.184.078.262a.472.472 0 00.153.185.415.415 0 00.245.068zm2.864.295h-.403V29.69h-.521a8.732 8.732 0 01-.085.735 2.5 2.5 0 01-.128.498.661.661 0 01-.188.28.422.422 0 01-.27.088.706.706 0 01-.226-.037v-.316a.468.468 0 00.132.024c.042 0 .08-.017.116-.051a.487.487 0 00.1-.166c.03-.075.058-.173.083-.296.025-.124.048-.274.068-.45.02-.178.039-.385.055-.623h1.267v1.888zm1.321-1.924a.85.85 0 01.432.104c.12.07.213.168.277.295a1 1 0 01.097.457v.215h-1.255c.004.183.053.324.146.423a.518.518 0 00.394.149 1.39 1.39 0 00.62-.139v.326a1.29 1.29 0 01-.287.097c-.097.02-.214.031-.35.031a1.06 1.06 0 01-.488-.107.785.785 0 01-.328-.324 1.103 1.103 0 01-.117-.534c0-.212.036-.391.107-.539a.773.773 0 01.3-.338.863.863 0 01.453-.116zm0 .302a.404.404 0 00-.305.123.583.583 0 00-.136.36h.856a.663.663 0 00-.047-.25.363.363 0 00-.136-.171.402.402 0 00-.231-.062zm1.657-.266v.759h.88v-.759h.401v1.888h-.4v-.815h-.88v.815h-.402v-1.888h.401zm3.517.94c0 .157-.02.296-.06.418a.785.785 0 01-.46.5 1.01 1.01 0 01-.373.064.945.945 0 01-.356-.065.81.81 0 01-.28-.19.875.875 0 01-.182-.31 1.248 1.248 0 01-.064-.417c0-.208.035-.384.107-.529a.764.764 0 01.31-.332.95.95 0 01.477-.115c.173 0 .326.038.458.115a.788.788 0 01.311.332c.075.146.112.322.112.529zm-1.364 0c0 .137.016.255.05.353a.458.458 0 00.156.225.45.45 0 00.271.077.45.45 0 00.272-.077.449.449 0 00.155-.225c.033-.098.05-.216.05-.353a1.08 1.08 0 00-.05-.35.43.43 0 00-.155-.22.454.454 0 00-.273-.076c-.166 0-.286.055-.362.167-.076.111-.114.27-.114.479zm4.309-.456a.37.37 0 01-.1.268.49.49 0 01-.272.135v.014c.123.015.226.06.309.13a.374.374 0 01.124.3.52.52 0 01-.082.287.537.537 0 01-.255.198 1.205 1.205 0 01-.453.072h-.853v-1.888h.85c.14 0 .265.016.375.046.11.03.198.081.262.152.063.07.095.166.095.286zm-.355.833c0-.094-.036-.16-.108-.202a.625.625 0 00-.309-.061h-.41v.539h.419a.597.597 0 00.299-.063c.072-.043.109-.114.109-.213zm-.051-.797c0-.074-.028-.128-.084-.163a.488.488 0 00-.261-.055h-.43v.457h.375c.132 0 .23-.019.298-.056a.195.195 0 00.102-.183zm3.765-1.126l-.79 1.786c-.07.16-.142.294-.218.404a.763.763 0 01-.277.253.928.928 0 01-.426.085 1.337 1.337 0 01-.366-.051v-.372a.822.822 0 00.344.065.475.475 0 00.205-.04.361.361 0 00.14-.115.885.885 0 00.103-.191l-.909-1.823h.437l.586 1.236a4.897 4.897 0 01.107.252h.015a4.163 4.163 0 01.102-.264l.52-1.224h.427zm1.45.606h.44l-.778.907.845.98h-.46l-.811-.957v.958h-.401v-1.888h.401v.916l.764-.916zm1.778-.036a.66.66 0 01.537.246c.135.164.203.407.203.73 0 .213-.031.394-.095.54a.726.726 0 01-.263.331.696.696 0 01-.392.111.74.74 0 01-.249-.037.618.618 0 01-.305-.23h-.024a3.492 3.492 0 01.024.301v.77h-.401v-2.726h.326l.056.261h.019a.782.782 0 01.127-.148.564.564 0 01.183-.108.717.717 0 01.254-.04zm-.107.328a.472.472 0 00-.265.066.372.372 0 00-.145.196 1.09 1.09 0 00-.047.33v.056c0 .14.014.258.042.356.03.097.078.17.144.222.068.05.16.075.276.075a.362.362 0 00.241-.08.477.477 0 00.144-.229 1.15 1.15 0 00.048-.35c0-.203-.036-.36-.109-.473-.071-.113-.181-.17-.33-.17zm2.047-.328c.238 0 .417.053.538.159.123.106.184.27.184.495v1.27h-.284l-.076-.268h-.014a.971.971 0 01-.165.169.575.575 0 01-.197.099.927.927 0 01-.27.034.706.706 0 01-.3-.061.477.477 0 01-.21-.191.623.623 0 01-.076-.324c0-.195.072-.34.216-.439.145-.097.363-.151.656-.162l.326-.011v-.1c0-.13-.03-.223-.092-.28a.361.361 0 00-.255-.083.92.92 0 00-.273.041 2.132 2.132 0 00-.259.1l-.129-.282a1.447 1.447 0 01.68-.166zm.326 1.022l-.243.008c-.2.007-.34.041-.42.103a.3.3 0 00-.12.252c0 .093.028.162.083.205a.354.354 0 00.22.063c.138 0 .252-.04.343-.118.091-.08.137-.196.137-.35v-.163zm1.354.902h-.399v-1.888h.4v1.888zm-.73-2.387c0-.069.018-.118.056-.149a.205.205 0 01.137-.048c.055 0 .101.016.14.048.04.03.06.08.06.149 0 .066-.02.115-.06.148a.207.207 0 01-.14.05.2.2 0 01-.137-.05c-.038-.033-.056-.082-.056-.148zm.667 0c0-.069.019-.118.056-.149a.212.212 0 01.14-.048c.054 0 .1.016.14.048.039.03.059.08.059.149 0 .066-.02.115-.06.148a.207.207 0 01-.14.05.207.207 0 01-.139-.05c-.037-.033-.056-.082-.056-.148zm1.037.499v.759h.88v-.759h.4v1.888h-.4v-.815h-.88v.815h-.401v-1.888h.4zm2.25 0v1.888h-.398v-1.888h.399zm-.196-.723c.061 0 .114.017.158.05.045.033.068.09.068.17 0 .08-.023.137-.068.17a.256.256 0 01-.158.05.262.262 0 01-.162-.05c-.043-.033-.064-.09-.064-.17 0-.08.021-.137.064-.17a.263.263 0 01.162-.05z" fill="#000"/><path fill-rule="evenodd" clip-rule="evenodd" d="M31.197 13.355h-1.272v2.2h1.272v-2.2zm-5.302 2.341h1.98v2.557h2.05v-.001h1.272v-1.064h-1.273v-1.631h-1.908v-1.918h-2.121v2.058zm1.98 4.97H25.54v-2.412h2.404v2.34h3.252v1.419h-1.06v.282h1.06v5.749h-3.323v-2.696h2.05v-2.202h-2.05v-2.479zm.211-7.31h1.838v.496h-1.838v-.497zm3.111 7.238v-2.342h-1.06v2.342h1.06zm-5.16 2.98h1.837v1.845h-1.838v-1.845zm-.496-2.91h-2.404v2.413h2.404v-2.413zm-4.1 2.412h1.625v1.632H21.44v-1.632zm.848-4.326h-1.626v1.632h1.626V18.75zm-2.404-2.697h1.626v1.632h-1.626v-1.632zm3.394-1.633h-1.627v1.632h1.486v2.06h2.403v-2.413H23.28v-1.28zm-1.626-1.065h-1.626v1.065h1.626v-1.065z" fill="#FCE501"/><rect x="9.468" y="8.468" width="96.717" height="28.522" rx="14.261" stroke="#FF5100" stroke-width=".936" shape-rendering="crispEdges"/></g><defs><filter id="filter0_d_798_21108" x=".572" y=".509" width="120.128" height="51.933" filterUnits="userSpaceOnUse" color-interpolation-filters="sRGB"><feFlood flood-opacity="0" result="BackgroundImageFix"/><feColorMatrix in="SourceAlpha" values="0 0 0 0 0 0 0 0 0 0 0 0 0 0 0 0 0 0 127 0" result="hardAlpha"/><feOffset dx="2.809" dy="3.746"/><feGaussianBlur stdDeviation="5.619"/><feComposite in2="hardAlpha" operator="out"/><feColorMatrix values="0 0 0 0 0 0 0 0 0 0 0 0 0 0 0 0 0 0 0.19 0"/><feBlend in2="BackgroundImageFix" result="effect1_dropShadow_798_21108"/><feBlend in="SourceGraphic" in2="effect1_dropShadow_798_21108" result="shape"/></filter></defs></svg>