<svg width="150" height="81" fill="none" xmlns="http://www.w3.org/2000/svg"><rect y=".886" width="149.581" height="79.19" rx="23.291" fill="url(#paint0_linear_1181_25390)"/><path d="M45.197 26.995c-1.096 1.305-2.843 2.34-4.586 2.188-.23-1.76.639-3.645 1.642-4.814 1.093-1.332 3.005-2.287 4.556-2.366.183 1.839-.537 3.645-1.612 4.992zm1.594 2.535c-2.533-.155-4.708 1.454-5.909 1.454-1.227 0-3.066-1.379-5.069-1.332-2.597.032-5.025 1.515-6.346 3.902-2.748 4.747-.714 11.775 1.927 15.645 1.291 1.912 2.837 4.007 4.874 3.949 1.927-.08 2.702-1.274 5.026-1.274 2.352 0 3.02 1.273 5.072 1.227 2.107-.032 3.442-1.912 4.733-3.823 1.473-2.171 2.079-4.298 2.11-4.403-.031-.047-4.083-1.609-4.112-6.315-.032-3.948 3.186-5.828 3.323-5.936-1.807-2.73-4.661-3.019-5.632-3.091l.003-.003zm14.622-5.345v28.718h4.416v-9.817h6.107c5.57 0 9.488-3.87 9.488-9.456 0-5.598-3.839-9.442-9.337-9.442l-10.674-.002zm4.416 3.765h5.087c3.824 0 6.013 2.063 6.013 5.691 0 3.628-2.19 5.709-6.043 5.709H65.83v-11.4zm23.637 25.165c2.778 0 5.344-1.41 6.515-3.66h.094v3.448h4.081v-14.3c0-4.125-3.277-6.81-8.334-6.81-4.676 0-8.139 2.717-8.258 6.435h3.961c.335-1.775 1.944-2.929 4.177-2.929 2.702 0 4.207 1.274 4.207 3.614v1.576l-5.495.335c-5.133.318-7.897 2.428-7.897 6.117 0 3.718 2.857 6.177 6.952 6.177l-.003-.003zm1.201-3.4c-2.355 0-3.856-1.14-3.856-2.882 0-1.807 1.443-2.87 4.189-3.04l4.906-.302v1.623c0 2.69-2.262 4.6-5.256 4.6h.017zm14.94 11.003c4.293 0 6.316-1.67 8.077-6.693l7.742-21.946h-4.477l-5.192 16.951h-.093l-5.192-16.95h-4.614l7.471 20.898-.396 1.274c-.685 2.142-1.776 2.972-3.72 2.972-.35 0-1.017-.044-1.291-.073v3.447c.256.073 1.352.105 1.67.105l.015.015z" fill="#000"/><defs><linearGradient id="paint0_linear_1181_25390" x1="74.79" y1=".886" x2="74.79" y2="80.076" gradientUnits="userSpaceOnUse"><stop stop-color="#fff"/><stop offset="1" stop-color="#FFF5EF"/></linearGradient></defs></svg>