<svg width="150" height="80" fill="none" xmlns="http://www.w3.org/2000/svg"><rect x=".873" y=".886" width="149.063" height="78.916" rx="23.291" fill="url(#paint0_linear_1181_25392)"/><path d="M94.758 32.99c2.56 0 4.54.666 6.053 2 1.513 1.332 2.211 3.11 2.211 5.33v10.663h-3.259v-2.444h-.116c-1.397 2-3.376 3-5.704 3-1.978 0-3.724-.556-5.121-1.667-1.28-1.11-2.095-2.665-2.095-4.331 0-1.777.698-3.221 2.095-4.332 1.397-1.11 3.375-1.555 5.703-1.555 2.095 0 3.725.334 5.005 1.11v-.776c0-1.037-.405-2.074-1.216-2.75l-.18-.138a5.212 5.212 0 00-3.376-1.222c-1.979 0-3.492.778-4.54 2.333l-3.026-1.778c1.863-2.332 4.307-3.443 7.566-3.443zm-16.411-7.552c2.088 0 4.073.693 5.66 1.986l.276.235c1.63 1.333 2.444 3.332 2.444 5.442 0 2.11-.815 3.999-2.444 5.442-1.63 1.444-3.609 2.222-5.936 2.222l-5.587-.111v10.329h-3.492V25.438h9.079zM95.224 42.32c-1.397 0-2.561.333-3.492 1-.931.555-1.397 1.332-1.397 2.332 0 .888.466 1.666 1.164 2.11.815.555 1.746.889 2.677.889a5.604 5.604 0 003.627-1.362l.214-.193c1.164-1 1.746-2.222 1.746-3.555-1.047-.777-2.56-1.221-4.54-1.221zM78.579 28.547h-5.82v8.886h5.82c1.28 0 2.56-.444 3.376-1.333 1.862-1.666 1.862-4.442.116-6.109l-.116-.11c-.931-.89-2.096-1.445-3.376-1.333zm43.299 4.998l-11.523 25.212h-3.492l4.307-8.774-7.566-16.326h3.725l5.47 12.55h.117l5.354-12.55h3.608v-.112z" fill="#5F6368"/><path d="M58.746 39.014c0-1.019-.11-2.037-.22-3.055h-13.81v5.77h7.844c-.331 1.81-1.326 3.508-2.872 4.526v3.733h4.75c2.762-2.602 4.308-6.449 4.308-10.974z" fill="#4285F4"/><path d="M44.751 53.496c4.29 0 7.866-1.376 10.488-3.67l-5.125-3.787c-1.43.918-3.218 1.492-5.363 1.492-4.052 0-7.628-2.639-8.82-6.31h-5.243v3.9c2.74 5.163 8.104 8.375 14.063 8.375z" fill="#34A853"/><path d="M35.946 40.72c-.722-1.887-.722-4.01 0-6.013v-4.009h-5.298c-2.288 4.362-2.288 9.55 0 14.03l5.298-4.009z" fill="#FBBC04"/><path d="M44.632 27.899c2.264 0 4.41.802 6.078 2.293l4.53-4.357c-2.861-2.523-6.675-4.014-10.49-3.9-5.958 0-11.44 3.212-14.063 8.372l5.244 3.899c1.073-3.67 4.649-6.307 8.7-6.307z" fill="#EA4335"/><defs><linearGradient id="paint0_linear_1181_25392" x1="75.405" y1=".886" x2="75.405" y2="79.802" gradientUnits="userSpaceOnUse"><stop stop-color="#fff"/><stop offset="1" stop-color="#FFF5EF"/></linearGradient></defs></svg>