<svg width="150" height="80" fill="none" xmlns="http://www.w3.org/2000/svg"><rect x=".227" y=".886" width="149.063" height="78.916" rx="23.291" fill="url(#paint0_linear_1181_25398)"/><path d="M76.476 34.967c-.057 4.153 4.008 6.47 7.07 7.849 3.145 1.413 4.201 2.32 4.189 3.584-.023 1.935-2.51 2.789-4.835 2.822-4.058.058-6.418-1.012-8.294-1.821l-1.462 6.318c1.882.8 5.367 1.5 8.981 1.53 8.483 0 14.033-3.867 14.063-9.864.033-7.61-11.397-8.03-11.319-11.432.027-1.032 1.093-2.132 3.427-2.412 1.156-.142 4.347-.25 7.964 1.289l1.42-6.113c-1.945-.654-4.446-1.28-7.558-1.28-7.985 0-13.6 3.92-13.646 9.53zm34.846-9.004c-1.549 0-2.854.834-3.437 2.115L95.768 54.8h8.476l1.687-4.305h10.359l.978 4.305h7.471l-6.519-28.837h-6.898zm1.186 7.79l2.446 10.829h-6.699l4.253-10.83zm-46.31-7.79L59.518 54.8h8.078l6.678-28.837H66.2m-11.95 0L45.842 45.59 42.44 28.9c-.4-1.862-1.975-2.938-3.726-2.938H24.972l-.193.837c2.822.566 6.028 1.478 7.97 2.454 1.188.596 1.527 1.117 1.918 2.533L41.108 54.8h8.536l13.087-28.837H54.25z" fill="url(#paint1_linear_1181_25398)"/><defs><linearGradient id="paint0_linear_1181_25398" x1="74.758" y1=".886" x2="74.758" y2="79.802" gradientUnits="userSpaceOnUse"><stop stop-color="#fff"/><stop offset="1" stop-color="#FFF5EF"/></linearGradient><linearGradient id="paint1_linear_1181_25398" x1="4620.34" y1="115.053" x2="4700.05" y2="-2947.11" gradientUnits="userSpaceOnUse"><stop stop-color="#222357"/><stop offset="1" stop-color="#254AA5"/></linearGradient></defs></svg>