<svg width="314" height="87" fill="none" xmlns="http://www.w3.org/2000/svg"><rect width="313.481" height="86.291" rx="34.937" fill="url(#paint0_linear_1181_25405)"/><path d="M44.905 56.645L35.44 43.79l3.018-1.864 10.696 14.72h-4.249zm-17.552 0V30.56h3.652v26.086h-3.652zm2.534-11.477v-3.28h8.46v3.28h-8.46zm8.907-1.156l-3.429-.521 9.354-12.932h3.987l-9.912 13.453zM53.2 64.1a8.06 8.06 0 01-2.758-.485 6.288 6.288 0 01-2.31-1.341l1.528-2.684a5.369 5.369 0 001.64 1.081 4.89 4.89 0 001.9.373c.87 0 1.59-.224 2.162-.67.571-.448 1.105-1.243 1.602-2.386l1.23-2.72.373-.448 7.75-17.924h3.504L60.244 58.62c-.571 1.39-1.217 2.484-1.937 3.279-.696.795-1.466 1.354-2.31 1.677-.846.348-1.777.522-2.796.522zm4.696-6.82l-9.019-20.384h3.727l7.677 17.59-2.385 2.794zm11.33-.634l8.496-11.03-.038 1.826L69.6 36.895h3.987l6.186 8.124h-1.528l6.187-8.124h3.913l-8.199 10.62.037-1.9 8.571 11.03h-4.062L78.17 48l1.453.223-6.41 8.422h-3.987zm23.29 0v-19.75h3.578v8.384h11.255v-8.384h3.577v19.75h-3.577v-8.273H96.095v8.273h-3.577zm37.999 0v-6.93l.559.67h-6.297c-2.634 0-4.696-.56-6.187-1.677-1.465-1.118-2.198-2.745-2.198-4.882 0-2.286.782-4.012 2.347-5.18 1.59-1.168 3.702-1.751 6.336-1.751h8.645v19.75h-3.205zm-14.31 0l5.367-7.565h3.689l-5.217 7.566h-3.839zm14.31-8.049V39.02l.559 1.006h-5.888c-1.639 0-2.906.31-3.801.932-.894.596-1.341 1.59-1.341 2.98 0 2.585 1.664 3.877 4.993 3.877h6.037l-.559.782z" fill="#000"/><path fill-rule="evenodd" clip-rule="evenodd" d="M185.108 41.911a1.748 1.748 0 010 2.47l-13.974 13.974a1.751 1.751 0 01-1.933.429 1.752 1.752 0 01-.965-.966 1.747 1.747 0 01.429-1.932l10.993-10.993h-33.05a1.746 1.746 0 110-3.494h33.05l-10.993-10.993a1.735 1.735 0 01-.556-1.247 1.747 1.747 0 013.025-1.222l13.974 13.974z" fill="#FF5100"/><path d="M209.996 54.894c-3.18 0-5.9-.435-8.161-1.304-2.261-.895-3.987-2.187-5.18-3.876-1.192-1.69-1.789-3.739-1.789-6.149s.597-4.46 1.789-6.149c1.193-1.689 2.919-2.98 5.18-3.875 2.261-.895 4.981-1.342 8.161-1.342h.932c3.18 0 5.888.447 8.124 1.342 2.261.894 3.987 2.186 5.18 3.875 1.192 1.69 1.789 3.74 1.789 6.15 0 2.384-.597 4.434-1.789 6.148-1.168 1.69-2.87 2.981-5.106 3.876-2.211.87-4.894 1.304-8.049 1.304h-1.081zm.41-2.907h.298c2.534-.025 4.671-.348 6.41-.969 1.739-.646 3.056-1.59 3.95-2.832.92-1.267 1.379-2.82 1.379-4.658 0-1.814-.459-3.342-1.379-4.584-.919-1.242-2.248-2.186-3.987-2.832-1.714-.646-3.814-.969-6.298-.969h-.373c-2.559 0-4.732.323-6.521.969-1.764.621-3.106 1.553-4.025 2.795-.919 1.242-1.379 2.795-1.379 4.658 0 1.864.472 3.416 1.416 4.658.944 1.243 2.298 2.187 4.062 2.833 1.789.62 3.938.931 6.447.931zm-1.677 5.627V29.591h3.466v28.023h-3.466zm34.761-.67c-1.987 0-3.838-.336-5.552-1.007-1.69-.67-3.156-1.602-4.398-2.794a13.21 13.21 0 01-2.907-4.249c-.695-1.615-1.043-3.379-1.043-5.291 0-1.913.348-3.677 1.043-5.292a12.792 12.792 0 012.907-4.211c1.242-1.218 2.708-2.162 4.398-2.833 1.689-.67 3.54-1.006 5.552-1.006 1.988 0 3.814.336 5.478 1.006a12.676 12.676 0 014.398 2.795 12.07 12.07 0 012.906 4.212c.696 1.614 1.044 3.39 1.044 5.328 0 1.938-.348 3.715-1.044 5.33a12.449 12.449 0 01-2.906 4.248c-1.243 1.192-2.708 2.124-4.398 2.795-1.664.646-3.49.969-5.478.969zm0-3.317c1.441 0 2.77-.248 3.988-.745a9.422 9.422 0 003.204-2.087 9.626 9.626 0 002.125-3.205c.521-1.217.782-2.547.782-3.988 0-1.44-.261-2.77-.782-3.987a9.23 9.23 0 00-2.125-3.168 9.151 9.151 0 00-3.204-2.124c-1.218-.497-2.547-.745-3.988-.745-1.466 0-2.82.248-4.062.745a9.645 9.645 0 00-3.205 2.124 9.707 9.707 0 00-2.161 3.168c-.497 1.217-.745 2.546-.745 3.987 0 1.441.248 2.77.745 3.988a10.138 10.138 0 002.161 3.205 9.94 9.94 0 003.205 2.087c1.242.497 2.596.745 4.062.745zm19.85 3.018V30.56h22.471v26.086h-3.652V32.834l.895.969h-16.956l.931-.97v23.813h-3.689z" fill="#000"/><defs><linearGradient id="paint0_linear_1181_25405" x1="156.741" y1="0" x2="156.741" y2="86.291" gradientUnits="userSpaceOnUse"><stop stop-color="#fff"/><stop offset="1" stop-color="#FFF5EF"/></linearGradient></defs></svg>