<svg width="150" height="80" fill="none" xmlns="http://www.w3.org/2000/svg"><rect x=".582" y=".886" width="149.063" height="78.916" rx="23.291" fill="url(#paint0_linear_1181_25400)"/><path d="M63.713 21.93H86.51v40.335H63.713V21.93z" fill="#FF5F00"/><path d="M64.745 41.22c0-8.403 3.742-15.856 9.494-20.679-4.227-3.507-9.563-5.626-15.385-5.626-13.792 0-24.95 11.764-24.95 26.305s11.158 26.306 24.95 26.306c5.821 0 11.157-2.12 15.385-5.627-5.752-4.75-9.494-12.276-9.494-20.679z" fill="#EB001B"/><path d="M116.324 41.22c0 14.541-11.642 26.306-26.034 26.306-6.074 0-11.642-2.12-16.054-5.627 6.075-4.822 9.908-12.276 9.908-20.679 0-8.403-3.906-15.856-9.908-20.679 4.411-3.507 9.98-5.626 16.054-5.626 14.392 0 26.034 11.837 26.034 26.305z" fill="#F79E1B"/><defs><linearGradient id="paint0_linear_1181_25400" x1="75.114" y1=".886" x2="75.114" y2="79.802" gradientUnits="userSpaceOnUse"><stop stop-color="#fff"/><stop offset="1" stop-color="#FFF5EF"/></linearGradient></defs></svg>