<svg width="261" height="87" fill="none" xmlns="http://www.w3.org/2000/svg"><rect x=".721" width="259.481" height="86.291" rx="34.937" fill="url(#paint0_linear_1181_25410)"/><path d="M28.074 56.645V30.56H47.75v3.168H31.763v7.453h8.124c3.105 0 5.466.646 7.08 1.938 1.615 1.292 2.423 3.168 2.423 5.627 0 2.534-.882 4.485-2.646 5.85-1.74 1.367-4.236 2.05-7.49 2.05h-11.18zm3.689-2.944h7.341c2.162 0 3.79-.41 4.882-1.23 1.118-.82 1.677-2.036 1.677-3.651 0-3.13-2.186-4.696-6.559-4.696h-7.341v9.578zm35.084 2.944v-4.173l-.187-.783v-7.118c0-1.515-.447-2.683-1.341-3.503-.87-.844-2.186-1.267-3.95-1.267-1.168 0-2.31.2-3.429.597-1.118.372-2.062.882-2.832 1.527l-1.49-2.683c1.018-.82 2.235-1.44 3.651-1.863a15.125 15.125 0 014.51-.67c2.708 0 4.794.658 6.26 1.974 1.466 1.317 2.199 3.33 2.199 6.037v11.925h-3.391zm-6.484.224c-1.466 0-2.758-.248-3.876-.745-1.093-.497-1.938-1.18-2.534-2.05-.597-.894-.895-1.9-.895-3.018 0-1.069.249-2.038.746-2.907.521-.87 1.354-1.565 2.496-2.087 1.168-.522 2.733-.783 4.696-.783h6.26v2.572h-6.11c-1.79 0-2.995.298-3.616.894-.62.596-.931 1.317-.931 2.162 0 .969.385 1.751 1.155 2.347.77.572 1.838.857 3.205.857 1.341 0 2.509-.298 3.503-.894 1.018-.596 1.751-1.466 2.198-2.609l.709 2.46c-.473 1.168-1.305 2.1-2.497 2.795-1.193.67-2.696 1.006-4.51 1.006zm26.789 0c-1.64 0-3.143-.373-4.51-1.118-1.341-.77-2.422-1.9-3.242-3.391-.795-1.49-1.192-3.354-1.192-5.59 0-2.236.385-4.1 1.155-5.59.795-1.49 1.863-2.608 3.205-3.354 1.366-.745 2.894-1.118 4.584-1.118 1.938 0 3.652.423 5.142 1.267a9.316 9.316 0 013.54 3.54c.87 1.491 1.305 3.243 1.305 5.255s-.435 3.776-1.304 5.292c-.87 1.515-2.05 2.695-3.54 3.54-1.491.845-3.206 1.267-5.143 1.267zM76.68 63.875v-26.98h3.428v5.329l-.223 4.583.372 4.584v12.484H76.68zM86.853 53.74c1.268 0 2.398-.286 3.392-.857a6.05 6.05 0 002.385-2.423c.596-1.068.894-2.298.894-3.689 0-1.416-.298-2.633-.894-3.652a6.05 6.05 0 00-2.385-2.422c-.994-.572-2.124-.857-3.392-.857-1.242 0-2.372.285-3.39.857-.994.571-1.79 1.379-2.386 2.422-.571 1.019-.857 2.236-.857 3.652 0 1.391.286 2.621.857 3.69.597 1.043 1.392 1.85 2.385 2.422 1.019.571 2.15.857 3.391.857z" fill="#000"/><path fill-rule="evenodd" clip-rule="evenodd" d="M146.831 41.911a1.748 1.748 0 010 2.47l-13.975 13.974a1.751 1.751 0 01-1.932.429 1.752 1.752 0 01-.965-.966 1.747 1.747 0 01.428-1.932l10.994-10.993h-33.05a1.748 1.748 0 01-1.236-2.982 1.748 1.748 0 011.236-.512h33.05l-10.994-10.993a1.747 1.747 0 112.469-2.47l13.975 13.975z" fill="#FF5100"/><path d="M164.301 56.645V32.834l.932.969h-9.838V30.56h21.502v3.243h-9.838l.894-.97v23.813h-3.652zm28.5.299c-1.987 0-3.838-.336-5.553-1.007-1.689-.67-3.155-1.602-4.397-2.794a13.21 13.21 0 01-2.907-4.249c-.695-1.615-1.043-3.379-1.043-5.291 0-1.913.348-3.677 1.043-5.292a12.792 12.792 0 012.907-4.211c1.242-1.218 2.708-2.162 4.397-2.833 1.69-.67 3.541-1.006 5.553-1.006 1.988 0 3.814.336 5.478 1.006 1.69.646 3.155 1.578 4.397 2.795a12.072 12.072 0 012.907 4.212c.696 1.614 1.044 3.39 1.044 5.328 0 1.938-.348 3.715-1.044 5.33a12.452 12.452 0 01-2.907 4.248c-1.242 1.192-2.707 2.124-4.397 2.795-1.664.646-3.49.969-5.478.969zm0-3.317c1.441 0 2.77-.248 3.988-.745a9.422 9.422 0 003.204-2.087 9.626 9.626 0 002.125-3.205c.521-1.217.782-2.547.782-3.988 0-1.44-.261-2.77-.782-3.987a9.23 9.23 0 00-2.125-3.168 9.151 9.151 0 00-3.204-2.124c-1.218-.497-2.547-.745-3.988-.745-1.466 0-2.82.248-4.062.745a9.635 9.635 0 00-3.205 2.124 9.707 9.707 0 00-2.161 3.168c-.497 1.217-.746 2.546-.746 3.987 0 1.441.249 2.77.746 3.988a10.138 10.138 0 002.161 3.205 9.928 9.928 0 003.205 2.087c1.242.497 2.596.745 4.062.745zm19.85 3.018V30.56h11.217c2.832 0 5.056.572 6.671 1.715 1.614 1.142 2.422 2.807 2.422 4.993 0 2.137-.77 3.776-2.311 4.92-1.54 1.117-3.565 1.676-6.074 1.676l.671-1.118c2.907 0 5.13.584 6.67 1.752 1.566 1.143 2.348 2.82 2.348 5.03 0 2.237-.82 3.988-2.459 5.255-1.615 1.242-4.025 1.864-7.23 1.864h-11.925zm3.689-2.944h8.161c1.988 0 3.479-.36 4.472-1.08 1.019-.745 1.528-1.876 1.528-3.391 0-1.516-.509-2.621-1.528-3.317-.993-.696-2.484-1.043-4.472-1.043h-8.161v8.832zm0-11.664h7.267c1.814 0 3.193-.36 4.137-1.08.969-.72 1.453-1.777 1.453-3.168 0-1.416-.484-2.484-1.453-3.205-.944-.72-2.323-1.08-4.137-1.08h-7.267v8.533z" fill="#000"/><defs><linearGradient id="paint0_linear_1181_25410" x1="130.461" y1="0" x2="130.461" y2="86.291" gradientUnits="userSpaceOnUse"><stop stop-color="#fff"/><stop offset="1" stop-color="#FFF5EF"/></linearGradient></defs></svg>