<svg width="155" height="70" fill="none" xmlns="http://www.w3.org/2000/svg"><path d="M0 16.158C0 7.234 7.338 0 16.39 0h38.227c9.053 0 16.39 7.234 16.39 16.158v37.684C71.008 62.766 63.67 70 54.618 70H16.39C7.338 70 0 62.766 0 53.842V16.158z" fill="#FF5100"/><path d="M56.537 32.858c-.742-4.755-4.841-8.208-9.743-8.208a10.54 10.54 0 00-3.09.462 2.12 2.12 0 00-1.508 2.014v3.304c1.1-1.163 2.664-1.883 4.434-1.883 1.648 0 3.186.618 4.324 1.739 1.143 1.127 1.77 2.656 1.77 4.293 0 3.375-2.682 6.025-6.094 6.031-1.637 0-3.163-.623-4.294-1.75a5.985 5.985 0 01-1.758-4.275V20.662c0-1.024-.83-1.855-1.855-1.855h-2.135v14.051s.051 1.572.214 2.564c.255 1.558.428 2.487 1.143 3.88.725 1.41 2.639 3.101 2.639 3.101a10.076 10.076 0 006.228 2.123c1.965 0 3.844-.564 5.437-1.637 3.48-2.339 4.97-5.81 4.306-10.031h-.018zm-41.905-.03c.742-4.755 4.84-8.208 9.743-8.208a10.552 10.552 0 013.09.462 2.12 2.12 0 011.508 2.014V30.4c-1.101-1.163-2.664-1.883-4.434-1.883-1.648 0-3.187.618-4.324 1.739-1.144 1.127-1.77 2.656-1.77 4.293 0 3.375 2.682 6.025 6.094 6.031 1.636 0 3.163-.623 4.294-1.75a5.985 5.985 0 001.758-4.275v-9.563h1.855c1.18 0 2.134.94 2.134 2.104v23.701h-1.86c-1.18 0-2.136-.941-2.136-2.104v-6.32a10.072 10.072 0 01-6.227 2.123 9.69 9.69 0 01-5.438-1.637c-3.479-2.339-4.969-5.81-4.306-10.031h.019zm76.915 8.86c-.444.358-.989.627-1.634.806a7.226 7.226 0 01-1.998.268c-1.775 0-3.147-.457-4.115-1.372-.968-.915-1.452-2.247-1.452-3.997v-7.666h-2.663v-2.983h2.663v-3.64h3.782v3.64h4.327v2.983H86.13v7.576c0 .776.192 1.372.575 1.79.383.398.938.597 1.664.597.848 0 1.554-.22 2.118-.657l1.06 2.655zm9.841 1.074c-1.634 0-3.106-.348-4.418-1.044-1.31-.696-2.34-1.66-3.086-2.893-.726-1.253-1.09-2.665-1.09-4.236 0-1.571.364-2.973 1.09-4.206.746-1.233 1.775-2.198 3.087-2.894 1.31-.696 2.783-1.044 4.417-1.044 1.655 0 3.137.348 4.448 1.044 1.312.696 2.33 1.66 3.057 2.894.746 1.233 1.119 2.635 1.119 4.206 0 1.57-.373 2.983-1.119 4.236-.727 1.232-1.745 2.197-3.057 2.893-1.311.696-2.793 1.044-4.448 1.044zm0-3.192c1.392 0 2.542-.457 3.45-1.372.908-.915 1.362-2.118 1.362-3.61 0-1.49-.454-2.694-1.362-3.609-.908-.914-2.058-1.372-3.45-1.372-1.392 0-2.541.458-3.45 1.372-.887.915-1.33 2.118-1.33 3.61 0 1.491.443 2.694 1.33 3.61.909.914 2.058 1.371 3.45 1.371zm19.503 3.192c-1.634 0-3.106-.348-4.418-1.044-1.311-.696-2.34-1.66-3.086-2.893-.726-1.253-1.089-2.665-1.089-4.236 0-1.571.363-2.973 1.089-4.206.746-1.233 1.775-2.198 3.086-2.894 1.312-.696 2.784-1.044 4.418-1.044 1.654 0 3.137.348 4.448 1.044 1.312.696 2.33 1.66 3.057 2.894.746 1.233 1.119 2.635 1.119 4.206 0 1.57-.373 2.983-1.119 4.236-.727 1.232-1.745 2.197-3.057 2.893-1.311.696-2.794 1.044-4.448 1.044zm0-3.192c1.392 0 2.542-.457 3.45-1.372.908-.915 1.362-2.118 1.362-3.61 0-1.49-.454-2.694-1.362-3.609-.908-.914-2.058-1.372-3.45-1.372-1.392 0-2.541.458-3.449 1.372-.888.915-1.332 2.118-1.332 3.61 0 1.491.444 2.694 1.332 3.61.908.914 2.057 1.371 3.449 1.371zm12.241-19.15h3.782v22.133h-3.782V20.42zm13.74 22.342c-1.312 0-2.593-.169-3.843-.507-1.251-.338-2.25-.766-2.996-1.283l1.453-2.834c.726.478 1.593.866 2.602 1.164 1.029.278 2.037.417 3.026.417 2.259 0 3.389-.586 3.389-1.76 0-.556-.293-.944-.878-1.163-.565-.219-1.482-.427-2.753-.626-1.332-.2-2.421-.428-3.268-.686a5.186 5.186 0 01-2.179-1.343c-.605-.656-.908-1.56-.908-2.714 0-1.511.636-2.715 1.907-3.61 1.291-.914 3.025-1.372 5.204-1.372 1.11 0 2.219.13 3.329.388 1.109.239 2.017.567 2.723.984l-1.452 2.834c-1.372-.795-2.915-1.193-4.63-1.193-1.11 0-1.957.17-2.542.507-.565.318-.847.746-.847 1.283 0 .596.302 1.024.908 1.283.625.238 1.583.467 2.874.686 1.291.199 2.35.427 3.177.686a4.871 4.871 0 012.119 1.312c.605.617.907 1.492.907 2.625 0 1.492-.655 2.685-1.966 3.58-1.312.895-3.097 1.342-5.356 1.342z" fill="#fff"/></svg>