<svg width="25" height="25" fill="none" xmlns="http://www.w3.org/2000/svg"><path d="M12.5 2.5a9.999 9.999 0 00-7.07 17.071A9.999 9.999 0 1019.57 5.43 9.999 9.999 0 0012.5 2.5z" fill="url(#paint0_linear_1038_4151)"/><path d="M7.256 12.374a496.188 496.188 0 015.907-2.511c2.814-1.156 3.398-1.356 3.78-1.363.083-.001.27.02.392.116.101.082.13.193.144.271.012.078.03.255.016.394-.152 1.581-.812 5.418-1.148 7.19-.14.749-.42 1-.691 1.024-.59.054-1.036-.383-1.605-.752-.891-.577-1.395-.936-2.26-1.499-1-.65-.352-1.008.218-1.592.149-.153 2.741-2.48 2.79-2.692.007-.026.013-.125-.047-.177-.059-.052-.146-.034-.21-.02-.09.02-1.512.95-4.272 2.788-.404.274-.77.408-1.099.4-.36-.007-1.057-.201-1.575-.367-.633-.204-1.138-.311-1.093-.657.022-.18.274-.364.753-.553z" fill="#fff"/><defs><linearGradient id="paint0_linear_1038_4151" x1="1002.5" y1="2.5" x2="1002.5" y2="2002.5" gradientUnits="userSpaceOnUse"><stop stop-color="#2AABEE"/><stop offset="1" stop-color="#229ED9"/></linearGradient></defs></svg>