<svg width="1920" height="1595" fill="none" xmlns="http://www.w3.org/2000/svg"><path opacity=".2" d="M-628.567 1511.03c52.136 50.79 121.429 70.32 186.542 79.27 131.162 17.92 143.373-172.38 239.736-181.99 85.224-8.51 140.969-32.47 186.392-111.71 76.418-133.26 201.702-59.15 279.85 27.64 120.613 133.94 248.042 316.05 443.875 258.7 145.625-42.68 237.257-125.02 299.142-271.89 26.24-62.29 54.49-132.84 66.64-200.67 11.77-65.61-6.01-166.559 56.42-203.388 130.94-77.284 314 53.604 453.16 14.461 98.84-27.65 138.33-75.685 99.12-189.33-53.44-154.736 131.23-196.032 235.09-218.835 90.1-19.88 232.58 32.749 307.19-37.557M-633.324 1489.71c51.663 48.83 120.297 67.88 183.391 75.24 72.817 8.53 124.66-60.52 159.133-120.75 23.355-40.89 48.293-77.86 77.462-78.39 90.955-1.59 135.701-29.22 185.938-104.25 14.297-21.43 29.905-39.33 46.844-49.99 85.524-53.94 170.038 13.16 230.957 75.72 64.837 66.93 129.036 158.11 204.854 214.42 81.894 60.81 158.641 79.99 253.854 60.18 58.371-12.11 124.686-38.3 167.523-79.04 52.254-49.93 90.71-115.76 123.638-185.31 6.61-14.06 12.52-29.54 18.29-45.07 22.79-61.57 38.59-117.44 46.16-183.59 7.24-63.26-6.53-135.459 44.79-178.135a42.61 42.61 0 016.32-4.476c132.34-75.854 317.46 59.982 457.83 23.641 102.25-26.264 131.93-75.742 93.66-189.341-27.75-82.771 19.41-130.769 79.64-162.071 49.45-25.648 111.6-40.706 169.01-52.507 88.87-18.313 230.33 29.375 304.51-36.298M-638.093 1467.77c51.327 46.27 119.205 63.18 180.137 68.05 73.47 5.88 122.974-72.47 156.904-133.48 23.374-42.01 48.106-78.03 76.989-78.69 87.384-1.96 132.426-25.56 186.032-94.47 13.07-17.64 29.683-32.02 48.732-42.18 87.556-43.65 161.548 4.65 226.518 66.15 69.815 66.01 137.752 153.99 212.342 213.51 80.555 64.21 163.214 93.01 260.907 74.5 56.215-10.64 120.368-36.9 161.509-78.08 50.099-50.11 89.523-111.62 121.94-178.5 6.693-13.79 12.703-29.15 18.563-44.63 24.81-64.9 35.4-118.45 39.98-188.82 4.21-64.394-9.49-137.82 43.46-180.531a46.163 46.163 0 016.42-4.466c134.44-74.089 321.21 67.113 462.06 32.468 104.93-25.776 123.56-76.417 88.42-189.737-26.46-85.413 30.37-129.567 91.85-158.834 50.94-24.257 112.49-39.274 170.18-51.408 87.99-18.507 227.52 27.692 301.53-35.119M-642.859 1445.77c48.786 41.13 118.221 59.13 176.653 58.18 76.311-1.18 120.816-82.31 154.924-143.82 23.49-42.31 48.211-76.53 76.853-77.27 76.204-1.85 136.651-23 186.678-82.42 14.232-15.62 31.64-27.7 51.027-35.41 86.594-38.35 154.762-1.92 221.559 57.87 71.931 64.38 142.465 147.7 217.158 207.95 82.811 66.76 169.22 105.93 268.519 89.33 57.979-10.04 111.589-36.78 154.915-77.28 50.07-48.66 91.24-106.49 121.624-170.87 6.61-14.01 12.833-28.93 18.939-44.28 27.26-68.81 31.22-120.12 32.8-194.61 1.36-65.264-11.2-139.651 43.59-181.859 2.04-1.659 4.2-3.15 6.47-4.461 136.63-72.059 325.27 73.865 465.74 40.824 105.95-24.845 114.49-77.935 83.45-189.95-24.19-87.746 42.23-127.805 104.58-155.284 52.18-22.79 113.17-38.226 170.82-50.671 87.13-18.805 224.47 26.187 298.37-33.962M-647.682 1423.1c48.774 37.27 117.496 50.83 173.142 46.29 75.43-6.1 118.306-90.39 153.248-151.86 23.649-41.68 48.462-73.36 76.96-74.17 73.93-1.68 132.973-19.17 187.942-68.41 16.275-13.45 34.577-24.04 54.227-31.36 85.752-34.23 151.218-7.59 217.469 50.64 70.781 62.26 144.051 140.26 217.955 199.71 85.268 68.46 180.957 120.95 276.066 103.65 55.442-10.82 106.73-36.62 148.862-74.89 49.907-46.32 91.33-101.78 122.379-163.84 6.695-13.8 12.912-28.62 19.277-44.25 28.855-69.83 29.155-123.32 24.895-200.59-3.38-60.924-10.46-144.503 44.95-182.379a67.626 67.626 0 016.72-4.435c138.72-69.937 328.63 80.183 468.71 48.491 106.05-24.013 105.21-79.736 78.79-190.082-21.35-89.143 55.11-125.987 117.49-151.457 53.1-21.614 113.49-36.959 171.26-49.751 86.26-19.102 221.26 24.718 295.05-32.871M-652.472 1400.69c48.869 33.27 116.652 41.23 169.505 33.26 73.842-11.56 115.386-96.61 151.835-157.76 23.895-40.06 49.1-68.47 77.334-68.99 71.374-.93 131.863-12.25 190.594-54.56a239.653 239.653 0 0156.807-28.47c84.289-31.19 148.158-13.11 213.925 43.38 69.42 59.54 142.046 132.74 215.261 190.58 87.633 69.22 187.48 131.04 282.635 116.22 47.803-7.47 102.174-33.93 145.245-70.43 50.917-43.17 92.814-96.78 123.287-157.74 6.787-13.68 13.026-28.86 19.668-44.21 46.626-106.31-44.119-320.244 63.936-388.624 2.3-1.404 4.67-3.006 7.01-4.404 141.07-68.868 326.35 86.935 469.73 54.561 108.69-24.557 96.87-81.127 75.76-189.578-17.28-89.023 68.71-123.167 130.94-146.803a1303.629 1303.629 0 01171.17-49.246c85.35-19.506 217.81 23.224 291.49-31.856m-2860.888 932.53c49.136 28.87 115.678 30.52 165.801 18.88 71.989-16.69 111.994-100.72 150.682-160.66 24.291-37.66 49.843-62.07 78.049-62.13 68.919-.21 134.575-5.85 193.994-42.48a335.022 335.022 0 0159.037-26.28c81.967-30.25 146.834-16.43 211.285 35.8 67.172 54.42 137.668 126.22 209.498 181.75 80.713 62.43 191.468 144.78 287.657 125.9 48.217-9.43 101.633-29.88 144.175-63.35 51.656-40.64 94.142-92.57 124.684-152.39 6.882-13.63 13.112-29.48 20.01-44.18 50.436-107.4-63.063-322.749 58.866-393.373 2.34-1.347 4.85-2.883 7.33-4.01 144.05-66.239 322.57 73.015 469.44 59.982 113.57-10.11 85.25-106.927 73.77-189.171-12.7-89.055 82-120.638 143.94-142.966a1612.416 1612.416 0 01170.66-48.888c84.59-19.946 214.31 21.724 287.89-30.848M-662.007 1356.76c53.382 23.82 112.809 17.01 162.157 4.36 67.27-17.61 107.964-103.25 149.824-161.12 24.773-34.26 50.773-53.89 79.091-53.38 69.236 1.06 136.037.07 197.843-32.92a475.455 475.455 0 0160.573-24.83c80.022-29.02 145.269-22.25 209.312 27.78 64.987 50.69 133.036 120.64 202.157 173.77 81.312 62.29 192.111 146.34 290.194 132.75 48.847-6.84 102.759-22.5 146.036-54.3 52.254-38.56 95.279-89.08 125.988-147.95 7.026-13.55 13.461-28.71 20.452-44.12 49.85-109.93-77.622-327.781 54.65-396.957 2.44-1.285 5.09-2.806 7.67-3.923 146.25-62.615 321.15 74.562 467.98 64.661 113.67-7.682 79.03-110.718 72.57-188.988-7.3-88.024 94.55-117.414 156.98-138.715 54.48-18.589 112.75-34.722 169.76-48.624 83.83-20.437 210.41 20.235 284.23-29.844m-2862.166 900.87c53.564 18.39 111.258 6.11 158.353-9.97 65.593-22.41 102.948-104.14 149.228-158.61 25.448-29.97 51.524-43.58 80.011-42.59 69.494 2.48 138.867 2.89 202.175-27.26a508.5 508.5 0 0162.311-24.3c80.31-25.64 140.588-31.07 208.156 19.28 63.046 46.99 128.774 115.46 195.246 166.83 82.316 63.57 190.26 145.22 289.567 139 49.409-3.13 104.256-14.74 148.663-45.7 53.004-36.65 96.723-85.99 127.727-144.16a420.909 420.909 0 0020.891-44.07c40.948-106.76-87.969-334.067 51.448-399.303 2.63-1.214 5.38-2.674 8.1-3.724 147.62-58.46 319.51 75.624 465.14 68.425 112.41-5.502 73.84-115.172 72.42-188.901-1.6-85.369 106.21-113.309 169.59-134.047 54.58-17.858 112-34.493 168.48-48.604 83.23-21.066 206.85 18.883 280.52-28.794M-671.366 1314.79c53.83 12.4 109.159-4.71 154.713-23.77 63.638-26.68 96.795-104.12 148.78-152.85 26.362-24.79 52.244-32.76 81.115-31.62 70.212 2.81 141.804 3.96 206.49-24.55 19.875-8.76 42.125-16.91 63.485-24.18 78.432-26.35 140.825-36.6 207.622 10.23 61.36 43.17 125.312 110.88 189.029 160.62 88.189 68.97 189.03 139.53 287.369 145.2 47.722 2.76 105.447-7.62 151.474-37.69 53.762-35.05 98.227-83.43 129.656-141.08 8.454-14.06 15.149-29.25 19.926-45.21 27.179-110.26-95.536-339.123 51.027-399.647 2.73-1.153 5.61-2.444 8.38-3.438 149.52-51.729 316.18 76.097 461.08 71.288 111.36-3.709 69.35-119.911 73.43-189.411 4.88-80.315 116.9-109.305 181.42-129.46 54.68-17.076 110.99-34.085 166.86-48.723 82.62-21.643 202.94 17.649 276.8-27.438M-676.063 1294.91c53.747 6.48 106.931-15.02 151.066-36.65 60.177-29.66 91.054-104.42 148.397-143.32 24.234-16.52 53.161-24.28 82.559-22.17 71.056 2.7 144.724 3.71 210.5-24.13 20.21-8.62 42.718-16.94 64.252-24.65 76.854-27.91 141.156-42.84 207.761.67 60.027 39.17 122.302 106.14 183.659 155.02 87.187 69.28 185.488 139.52 283.748 151.35 48.868 5.76 106.543-.57 154.404-30.03 54.614-33.6 99.919-81.18 131.86-138.48 8.225-14.35 13.828-30.24 16.535-46.9 15.686-111.47-101.725-344.203 53.662-396.807 2.81-.989 5.83-2.111 8.79-2.983 151.33-45.111 311.85 74.561 456.1 72.205 110.26-1.82 66.58-123.547 75.53-189.86 10.75-78.052 126.72-104.929 192.32-124.971 54.41-16.642 110.02-33.467 164.9-48.979 85.44-24.125 195.01 16.197 273.26-26.577M-680.667 1275.92c53.324.47 104.494-24.33 147.583-48.18 55.773-30.9 89.856-101.71 148.092-131.01 26.556-13.41 54.273-15.94 83.942-14.98 72.007 2.44 147.513 2.36 214.233-25.64 20.661-8.72 43.092-17.42 64.774-25.94 65.04-25.44 142.215-57.019 208.266-9.24 61.765 44.59 120.075 101.48 179.305 149.72 85.964 69.97 181.501 140.34 279.153 157.3 49.774 8.68 107.904 6.21 156.733-23 54.748-32.65 104.691-78.56 133.855-136.47 6.913-15.3 10.758-32.01 11.306-49.15 6.565-112.02-102.577-347.17 59.895-390.904 3-.815 6.17-1.87 9.26-2.624 151.96-38.311 307.06 72.36 449.94 71.607 108.32-.585 64.02-128.545 78.53-190.675 17.35-74.89 134.54-99.942 202.62-120.442 53.9-16.284 108.5-33.524 162.52-49.385 84.84-24.855 191.29 14.984 269.79-25.297m-2864.31 846.25c52.511-4.76 101.837-32.43 144.099-58.06 51.867-31.41 89.412-94.41 147.977-116.99 27.419-10.58 55.044-9.99 85.124-9.29 73.037 1.66 150.339.39 217.537-29 20.879-9.06 43.298-18.38 65.03-27.71 64.748-27.946 141.615-62.536 208.89-19.517 61.589 39.387 118.787 96.767 176.22 144.617 84.694 70.61 177.253 141.38 273.916 163.28 50.007 11.33 109.029 12.81 158.918-16.04 54.224-31.31 110.747-76.17 133.503-135.53 5.207-13.59 6.649-32.46 6.578-50.72-.452-116.409-101.411-345.301 69.298-382.821 3.09-.651 6.4-1.589 9.64-2.276 151.26-31.853 301.87 69.295 442.86 69.782 106.38.396 62.33-134.79 82.14-191.887 24.49-70.849 140.28-93.991 212.1-115.898 53.41-16.285 106.78-33.602 160-50.01 84.45-25.822 187.57 13.719 266.45-23.951M-689.654 1240.78c51.375-9.56 99.522-38.89 140.786-65.91 47.56-30.99 90.254-85.58 147.795-101.84 27.847-7.92 55.749-6.22 86.147-5.9 73.778.82 152.993-2.78 220.385-33.73 20.965-9.68 43.333-19.77 64.928-30.09 64.583-30.897 140.196-68.344 209.364-29.753 61.888 34.483 118.505 91.703 174.618 139.413 83.486 71.05 172.932 142.83 268.393 169.12 49.665 13.71 110.498 19.39 160.809-9.1 52.4-29.66 114.799-71.58 130.442-135.39 3.296-17.08 4.232-34.66 2.781-52.2-6.209-122.928-97.067-339.857 81.675-371.904 3.231-.585 6.631-1.41 9.961-1.985 149.23-25.846 296.54 65.7 435.01 67.053 104.43 1.012 62.03-139.45 87.18-192.901 31.88-67.859 145.49-89.122 220.03-112.08 52.41-16.081 104.88-33.905 157.06-50.319 84.12-26.731 184.01 12.521 263.36-22.425M-694.052 1224.89c50.052-13.71 95.709-44.17 137.643-71.69 46.147-30.42 91.17-75.56 147.502-87.32 28.264-5.87 56.255-4.01 86.824-4.08 74.675-.17 155.457-6.06 222.76-39.6 21.015-10.49 43.24-21.47 64.656-32.895 64.009-34.4 137.411-74.342 209.132-39.699 63.078 30.289 119.278 86.284 174.504 133.994 82.626 71.43 168.987 144.58 263.023 174.89 48.947 15.79 111.971 25.92 162.554-2.18 51.61-28.82 115.705-67.06 124.946-135.66 1.75-17.68 1.7-35.58-.15-53.39-10.756-130.704-88.066-332.478 96.688-359.779 3.278-.478 6.82-1.186 10.19-1.653 146.35-20.596 291.06 61.782 426.4 63.629 102.55 1.276 62.37-142.551 93.38-193.689 39.73-65.646 149.93-85.108 226.54-109.03 51.28-16.046 102.7-34.392 153.92-51.215 83.87-27.58 180.63 11.496 260.55-20.716M-698.37 1210.09c48.032-16.9 92.396-47.15 134.668-73.75 46.057-28.94 91.529-66.89 147.048-75.8 28.62-4.45 56.501-3.21 87.227-3.42 75.428-1.22 157.734-9.53 224.298-46.28 20.878-11.481 42.966-23.451 64.013-36.097 63.24-37.926 132.85-80.272 208.25-49.458 65.38 26.417 121.563 80.255 176.542 127.995 81.746 71.33 165.577 146.43 258.202 180.49 48.145 17.66 113.164 32.22 163.758 4.74 52.342-28.69 112.115-64.67 116.953-136.14a348.32 348.32 0 00-2.149-53.71c-14.046-138.914-74.77-323.672 114.075-346.223 3.422-.412 7.005-1.012 10.415-1.372 142.57-15.852 285.55 57.91 417.38 59.852 100.96 1.469 62.92-144.294 100.4-194.133 48.15-63.423 153.4-81.555 231.57-106.702 50.19-16.058 100.56-34.976 150.81-52.005 83.73-28.417 177.39 10.488 258.02-18.821M-702.676 1195.91c46.246-19.09 89.526-47.71 131.883-73.28 45.728-27.58 92.184-59.05 146.455-66.86 28.696-4.07 56.477-3.62 87.298-4.59 76.083-2.28 159.768-13.02 225.617-53.394 20.457-12.656 42.52-25.812 63.146-39.633C20.637 911.877 79.83 885.454 156.6 901.81c64.619 13.843 125.911 72.686 180.367 120.12 80.733 70.19 162.953 148.31 254.462 186.16 47.443 19.5 114.202 37.01 165.014 11.61 51.675-25.83 105.737-67.45 107.326-135.67a448.104 448.104 0 00-3.604-54.05c-15.677-146.911-56.679-313.603 133.614-331.631 3.467-.356 7.04-.854 10.55-1.153 138.52-11.649 279.91 54.233 408.02 55.937 99.64 1.33 63-145.724 108.16-194.654 56.27-60.923 156.13-78.696 235.45-105.007 48.74-16.468 97.99-35.607 146.89-53.086 83.69-29.297 174.54 9.571 255.97-16.723m-2865.78 798.527c44.59-20.19 86.557-47.45 129.194-71.14 45.181-25.07 93.979-52.95 145.752-60.15 28.344-3.96 56.292-5.44 87.086-6.78 76.634-3.24 161.437-16.18 225.941-60.344 20.535-13.934 42.437-28.495 61.697-43.333 61.93-47.165 126.71-66.727 198.258-57.554 68.372 8.787 132.577 59.402 187.947 106.362 80.222 68.089 158.992 143.829 251.804 191.029 49.409 25.2 114.008 44.23 166.221 18.47 52.213-25.77 95.673-70.3 95.641-134.53-.022-15.02-2.131-34.57-4.111-53.8-15.784-154.068-34.167-302.595 154.786-316.394 3.509-.248 7.175-.685 10.685-.882 134.23-8.295 274.1 50.897 398.45 52.205 98.77.931 62.68-146.838 116.31-195.235 64.68-58.291 157.84-75.947 238.14-103.902 47.72-16.627 95.38-36.242 143.35-53.768 83.78-30.16 172.03 8.69 254.35-14.374m-2865.685 791.19c43.025-21.18 84.444-46.7 126.464-68.35 45.721-23.42 94.11-47.02 144.858-55.97a711.016 711.016 0 0186.668-10.42c77.042-4.29 162.83-18.86 225.569-67.177 19.692-15.462 41.055-29.257 59.213-42.155 59.668-43.135 120.723-61.341 190.209-57.115 69.486 4.225 138.46 47.629 195.715 90.314C399.87 1019.49 478.586 1101 570.132 1151.2c47.199 25.94 116.058 52.62 164.598 24.92 45.879-26.02 86.145-70.63 85.621-131.62-.136-14.77-2.202-34.22-3.803-53.204-5.718-67.857-30.681-152.701 3.244-215.255 32.731-60.726 111.358-82.174 174.27-85.581 3.507-.197 7.268-.521 10.718-.621 127.87-3.257 265.97 46.237 388.88 48.473 85.65 1.555 83.99-154.982 124.78-196.041 56.16-56.616 157.72-74.056 239.63-103.334 47.04-16.801 92.59-37.46 139.47-54.69 83.97-30.962 170.01 7.861 253.25-11.662M-715.358 1156.78c41.509-21.34 81.524-45.61 123.86-65.17 46.694-21.62 94.32-42.37 143.832-54.49a496.517 496.517 0 0186.062-15.83c78.281-5.24 161.261-23.81 224.145-71.285 18.676-14.129 39.154-25.498 56.403-37.206 53.12-36.626 115.11-61.315 180.821-57.332 72.717 4.514 139.96 36.732 199.496 75.081 85.919 55.316 170.763 142.092 259.219 188.882 41.146 21.86 113.813 58.76 157.273 31.25 40.593-25.71 80.891-67.59 80.926-126.46-.01-14.4-1.746-33.604-2.823-52.331-3.853-67.763-22.412-148.643 17.535-207.427 38.676-56.501 119.859-75.469 183.1-77.813 3.552-.141 7.259-.419 10.759-.463 123.69-.92 260.13 44.337 379.37 45.416 44.52.365 58.93-27.787 74.35-62.724 23.34-52.819 15.58-94.461 58.96-134.374 59.54-54.769 158.31-72.451 240.07-103.287 45.69-17.201 89.74-38.377 135.35-55.792 84.01-32.296 168.81 7.477 252.91-8.51M-719.491 1144.63s34.465-23.68 121.166-62.17c45.528-20.25 95.085-39.57 142.627-55.7 28.295-9.62 55.843-21.53 85.445-23.5 76.85-5.184 156.508-24.158 221.485-67.197 18.255-12.065 37.38-22.239 53.375-32.742 51.273-33.787 108.963-58.979 171.791-57.768 71.877 1.34 138.881 26.952 199.724 60.81 88.502 49.264 176.044 130.507 264.128 179.367 38.093 21.08 111.126 62.5 150.335 36.9 37.559-24.38 79.689-61.59 81.063-118.99.352-13.895-.858-32.841-1.128-51.071-2.481-164.799 53.098-266.159 224.855-269.941 3.595-.033 7.305-.26 10.795-.252 119.63 1.069 254.19 43.299 370.12 42.899 45-.099 57.71-29.459 74-64.2 25.22-53.906 21.24-94.482 67.87-134.362 61.73-52.791 158.72-71.844 239.28-103.37 44.13-17.365 87.39-39.963 131.45-57.128 82.98-32.404 168.2 6.899 253.12-4.734M-723.647 1132.82s32.091-24.28 118.496-59.51c46.933-19.08 95.111-38.38 141.45-59.83 28.216-13.18 55.482-30.158 84.745-32.221 74.148-5.259 153.003-16.707 217.97-55.531 17.521-10.497 35.648-19.645 50.997-29.239 49.155-31.335 102.49-57.757 162.417-59.011 70.026-1.425 136.073 18.892 197.052 48.086 89.96 43.092 179.354 115.746 266.219 166.836 35.449 20.85 105.106 65.97 146.044 41.08 48.977-30.02 73.152-52.83 85.423-109.741 2.616-12.271.508-31.826 1.24-49.539 6.196-163.424 85.052-254.21 248.648-255.714 3.596-.033 7.296-.158 10.736-.105 115.84 2.829 248.39 43.255 361.27 41.248 45.43-.825 56.64-31.37 73.7-65.876 27.1-54.789 27.2-94.524 76.48-134.331 63.3-51.082 158.17-71.797 237.67-104.362 42.91-17.596 84.35-41.875 127.89-58.531 83.64-31.82 167.89 6.455 253.36-.595M-727.802 1121.02s29.811-24.83 116.018-57.62c48.526-17.83 95.257-40.28 139.626-67.06 27.945-17.627 54.613-32.869 83.891-34.365 74.507-3.885 146.821-8.925 214.353-44.6 17.136-9.046 34.823-17.418 48.716-26.548 49.306-32.194 97.932-54.021 153.432-60.985 62.31-8.098 132.139 12.36 192.306 37.098 89.602 36.833 178.841 102.318 265.001 152.06 34.096 19.62 103.673 66.07 143.261 43.14 35.706-20.61 86.234-48.62 92.376-99.44 1.562-12.742 2.304-30.608 4.182-47.739 17.609-158.469 117.505-241.54 273.019-241.272 3.541.013 7.191-.117 10.631.038 112.49 4.38 242.27 44.257 352.9 40.42 45.87-1.601 55.68-33.425 73.52-67.849 29.03-55.615 33.17-94.565 84.81-134.483 64.16-49.809 156.96-71.926 234.6-105.611 41.66-18.087 81.71-43.747 125.15-59.539 84.75-30.829 167.92 6.664 253.77 3.922M-731.95 1109.12s28.775-25.61 113.002-56.6c50.35-18.61 94.485-45.9 137.878-77.171 24.001-18.151 52.976-28.014 83.078-28.28 72.775-1.29 143.899-2.96 210.55-35.488a453.65 453.65 0 0046.694-24.858c47.315-31.015 92.45-55.318 145.383-64.608 58.804-10.319 127.767 7.374 185.969 27.998 88.847 31.457 176.665 89.544 261.846 136.761 33.321 18.626 102.513 64.926 141.637 43.956 36.632-19.65 90.864-37.337 101.601-88.448 2.613-12.22 4.381-29.156 7.686-45.468 31.314-153.171 144.813-230.08 296.176-228.707 3.54.064 7.14-.02 10.52.182 109.7 5.783 236.33 46.511 345.21 40.639 46.42-2.521 54.74-35.685 73.42-70.175 30.54-56.277 39.8-95.152 92.65-134.686 64.51-48.281 156.05-71.763 230.52-107.326 39.84-18.997 80.42-45.322 123.27-60.404 85.05-29.924 168.5 6.981 254.61 8.945M-736.136 1097.01s27.773-26.13 110.209-56.79c49.806-18.57 94.003-56.595 135.645-84.967 24.9-16.92 53.174-21.349 82.083-20.827 71.443 1.192 141.265 2.316 207.082-27.831a351.34 351.34 0 0045.724-23.47c44.917-29.621 89.421-56.51 138.592-69.487 55.04-14.777 122.17 3.906 178.927 20.778 87.699 26.041 172.367 79.271 255.643 121.403 34.954 17.663 102.816 60.741 140.879 43.462 38.063-17.283 95.487-25.947 112.277-77.038 3.86-11.677 6.849-27.662 11.741-43.344 44.547-143.346 172.21-219.28 317.804-216.919 3.49.059 6.98.066 10.37.217 111.39 4.675 228.96 50.312 338.44 41.931 46.93-3.598 53.81-38.249 73.33-72.805 32.09-56.68 46.54-95.935 99.96-135.1 64.29-47.173 153.35-71.842 225.34-109.567 38.69-20.302 79.9-46.457 122.52-60.946 85.44-29.01 169.41 7.282 255.51 14.284M-740.306 1084.64s26.211-26.34 107.254-58.39c49.077-19.51 89.392-64.119 133.334-88.238 24.799-13.639 52.531-15.606 81.328-14.068 70.456 3.659 139.087 7.384 204.221-21.242a280.436 280.436 0 0044.369-23.046c43.505-29.873 85.667-59.528 133.329-76.006 50.878-17.58 119.6 1.631 171.683 15.235 83.919 21.837 166.646 68.951 247.147 107.345 35.538 16.954 101.908 57.872 140.48 41.929 40.894-16.882 99.854-15.203 123.741-65.651 5.146-10.976 9.551-25.938 16.214-40.817 59.102-131.788 196.489-209.783 338.216-206.905l10.17.299c110.01 5.558 223.33 55.427 332.32 44.528 45.71-4.55 55.13-40.477 73.51-75.718 30.51-59.057 53.8-97.176 106.68-135.626 63.65-46.213 148.86-72.264 219.1-112.127 38.33-21.676 80.05-47.264 122.69-61.237 85.37-28.039 170.81 7.687 256.55 19.895m-2866.582 737.11s25.486-24.93 104.246-61.54c48.426-22.564 81.848-67.946 130.882-87.571 25.93-10.383 52.147-10.916 80.684-8.325 69.316 6.213 137.452 12.405 201.9-15.471a240.383 240.383 0 0043.694-23.271c42.788-31.028 83.789-64.25 130.197-84.408 47.867-20.673 115.454-2.199 164.798 11.117 78.823 21.456 158.73 60.714 236.345 95.566 36.463 16.33 102.51 55.261 140.314 39.803 44.172-18.183 102.536-3.455 135.267-54.464 6.525-10.162 12.539-24.081 21.115-38.039 73.357-119.336 215.886-201.778 356.05-198.394 3.35.043 6.8-.006 9.83.313 103.72 9.473 218.72 64.815 327.32 48.27 48.24-7.317 53.39-42.767 73.77-80.01 32.48-59.004 59.23-97.427 112.28-135.346 63.39-45.263 143.46-73.397 212.39-115.146 38.42-23.209 80.56-47.621 123.41-61.058 85.61-26.986 172.58 7.873 257.67 25.772M-748.77 1058.71s29.097-23.62 101.151-66.485c40.84-24.086 80.352-69.239 128.133-83.648 26.169-7.838 51.92-7.186 80.199-3.594 68.381 8.634 136.408 17.437 200.312-10.393a199.337 199.337 0 0043.585-23.9c43.313-34.007 81.501-72.769 129.311-94.939 46.753-21.767 109.481-5.963 158.99 7.884 73.997 20.691 149.937 56.395 223.652 87.391 37.481 15.77 100.559 51.715 139.635 37.212 47.977-17.627 106.5 3.39 146.46-43.464 7.957-9.447 15.474-22.179 26.305-35.179 88.629-106.624 229.129-195.346 371.237-192.324 3.24.084 6.64.03 9.82.365 102.73 10.345 215.24 72.777 323.57 53.324 47.92-8.635 53.09-45.833 74.46-83.176 33.74-58.769 64-98.314 117.17-136.528 62.23-44.871 140.03-76.895 205.7-118.473 37.37-23.577 82.65-51.155 124.23-60.612 86.24-19.567 168.69 6.899 258.91 31.919m-2867.115 720.9s28.991-24.3 97.938-72.732c35.684-25.092 79.891-66.511 126.048-76.875 26.28-5.616 51.706-4.484 79.783.013 67.658 10.82 135.95 22.53 199.488-5.749a182.84 182.84 0 0043.421-25.255c44.102-37.265 82.75-81.172 131.13-107.859 46.14-25.431 104.732-10.422 154.637 5.009 68.983 21.398 140.026 55.867 209.208 83.712 38.442 15.357 98.029 48.004 138.412 34.667 51.932-17.109 110.041 9.109 156.742-32.87 9.375-8.475 18.796-20.133 31.827-32.079 102.642-94.248 237.908-189.178 382.989-188.105 3.152.023 6.342.102 9.432.273 108.99 6.993 209.11 83.702 321.23 59.505 46.12-9.853 55.46-48.412 75.1-86.503 31.03-60.288 69.58-100.194 121.59-137.965 60.98-44.437 134.48-81.232 199.12-121.89 37.46-23.568 83.28-51.089 125.11-59.902 86.66-18.392 170.91 6.926 260.16 38.22M-757.451 1030.7s25.631-30.57 94.568-80.444c34.338-24.821 79.343-60.758 123.807-68.369 26.261-4.022 53.16-3.176 79.484 2.501 67.295 12.736 136.141 27.486 199.586-1.677 15.862-6.802 30.65-15.943 43.93-27.155 44.587-39.58 81.44-92.005 136.862-117.128 50.605-22.802 102.165-17.583 150.816-2.592 62.377 19.16 128.521 58.924 193.908 84.417 38.894 15.198 94.862 45.047 136.268 32.693 55.74-16.605 113.138 14.011 165.817-22.661 10.74-7.457 22.128-17.468 37.65-29.101 109.401-81.556 246.658-185.737 390.618-185.657 3.05.013 6.147.081 9.087.288 109.28 7.024 207.28 94.461 319.98 66.984 46.02-11.201 55.23-51.931 75.67-90.093 32.05-60.027 73.23-101.148 124.89-139.573 59.38-44.193 128.3-86.407 192.79-125.538 38.28-23.224 84.05-50.699 126.08-58.721 86.97-17.073 173.65 7.164 261.53 44.741M-761.472 1015.88s24.21-39.565 91.199-86.557c33.569-23.514 78.834-55.619 121.866-61.529 26.287-3.413 53.099-2.122 79.305 3.819 67.257 14.171 137.137 32.167 200.545 1.971 16.378-7.279 31.504-17.184 44.852-29.371 44.527-43.443 83.056-95.898 142.31-120.926 50.008-21.064 100.964-20.485 150-8.59 59.322 14.365 120.849 54.774 179.865 80.625 35.953 15.814 92.847 42.573 132.983 31.679 59.149-15.99 115.775 18.402 173.034-12.646 12.112-6.541 26.492-16.392 43.6-27.395 112.669-72.163 253.215-182.683 393.815-184.807 2.907-.054 5.905.005 8.748.15 109.64 6.855 206.83 107.576 320.22 76.11 45.49-12.337 55.43-55.253 76.56-93.496 33.16-59.755 76.15-102.126 127.61-141.395 57.39-43.837 122.82-91.868 186.71-129.16 39.09-22.83 84.86-50.203 127.2-57.831 87.19-15.713 176.73 7.641 262.9 51.466M-766.046 1000.44s18.25-47.6 87.782-91.085c39.554-24.787 74.7-50.758 119.863-56.907 26.257-3.588 53.082-2.297 79.256 3.814 67.342 15.209 138.606 36.332 202.227 5.079 17.14-7.734 32.78-18.541 46.239-31.95 42.477-45.355 87.519-96.457 148.202-119.072 48.239-18.199 100.754-22.231 152.009-11.67 54.539 12.062 112.933 45.715 168.896 71.604 46.246 21.371 91.672 42.45 128.323 32.217 58.33-16.281 122.846 15.444 178.824-3.45 13.064-4.384 29.194-15.49 47.64-25.839 113.948-64.058 257.064-180.426 393.423-184.847 2.822-.269 5.485-.349 8.425-.142 110.367 6.161 207.837 121.72 322.407 86.212 44.9-13.941 55.32-59.069 76.99-97.409 33.8-59.586 78.43-103.172 129.61-143.447 55.73-43.91 118.66-96.985 181.03-132.843 39.06-22.422 85.8-49.538 128.31-56.532 87.34-14.309 180.49 8.706 264.39 58.359M-770.432 984.343s16.978-52.562 84.485-94.307c38.155-23.649 72.834-47.612 118.233-54.405 26.197-4.191 53.081-3.297 79.328 2.639 67.384 15.316 141.232 39.283 204.606 7.232 17.413-8.54 33.188-20.202 46.639-34.479 43.237-47.332 92.119-92.785 154.044-112.338 50.221-16.251 103.709-20.306 156.499-11.867 51.662 9.189 108.843 36.081 160.831 60.164 43.083 19.958 82.838 42.034 124.526 32.332 60.565-14.195 123.416 20.646 180.712 4.358 13.76-3.694 31.146-14.411 50.692-24.232 114.786-57.595 257.775-178.346 389.698-186.731 2.718-.176 5.531-.292 8.233-.213 112.046 3.613 209.486 137.371 325.856 97.425 44.34-15.183 55.49-62.651 77.71-101.037 34.48-59.514 80.17-104.274 130.92-145.622 54.43-44.458 114.13-101.112 175.63-136.342 39.06-22.319 86.64-48.833 129.45-55.126 92.09-12.577 186.64 10.642 265.95 65.309M-774.882 967.678s15.611-55.997 80.836-96.645c36.834-22.965 71.112-45.993 116.797-54.247 26.084-5.303 53.085-5.255 79.529.141 66.936 14.6 143.355 40.791 206.203 8.48 17.228-8.387 33.053-19.497 46.941-32.957 45.813-45.981 97.314-88.381 160.857-105.4 52.864-14.113 108.2-17.35 163.001-9.536 49.989 7.573 105.474 27.55 155.162 48.975 40.815 17.611 76.801 40.165 121.441 30.464 60.198-13 123.198 24.222 179.826 10.847 14.279-3.331 32.654-13.327 53.2-22.58 76.661-34.457 151.541-76.043 225.882-116.041 48.695-26.19 101.45-68.973 157.919-73.264a85.476 85.476 0 018.19-.321c113.368 2.98 212.148 153.59 329.598 109.644 43.46-16.251 55.7-66.125 78.43-104.868 35.16-59.34 81.12-105.356 131.51-148.131 53.35-45.291 109.75-105.069 170.92-139.768 39.28-21.834 87.94-47.565 130.82-53.337 87.71-11.34 188.64 10.848 267.48 72.412M-779.392 950.39s14.207-57.996 77.396-98.344c35.834-22.71 69.568-45.693 115.643-56.322 26.458-6.112 53.068-9.071 79.686-4.06 65.871 12.69 142.517 41.629 205.955 12.568 17.467-7.469 33.655-17.71 48.014-30.376 48.037-44.513 103.078-86.849 167.444-98.793 55.995-11.292 113.662-13.224 170.891-5.725 51.723 7.826 102.747 21.119 152.282 39.674 39.173 14.662 72.426 36.825 118.51 26.865 57.638-12.189 123.052 26.624 177.827 16.19 14.545-2.84 33.776-12.335 55.076-21.046a1877.25 1877.25 0 00227.794-114.297c45.965-26.632 94.032-73.25 148.456-77.91a75.11 75.11 0 018.193-.372c114.755 2.046 215.415 169.411 333.295 121.654 42.43-17.08 56.15-70.243 79.18-108.184 35.88-59.16 81.63-106.536 131.52-150.701 52.43-46.415 105.03-108.547 166.83-142.975 39.33-21.931 88.81-47.216 131.92-51.987 88.03-10.277 192.97 12.435 269.05 79.725M-783.802 933.061s12.664-59.341 73.916-100.201c34.373-22.967 68.111-46.823 114.684-60.794 26.668-7.941 53.186-13.429 79.247-8.168 65.1 13.225 141.196 44.73 205.548 19.261 17.8-6.331 34.451-15.559 49.356-27.355 53.087-45.01 108.092-77.838 173.928-92.919 55.772-13.054 120.584-12.097 179.3-1.548 49.807 8.942 103.071 18.505 152.133 33.23 38.237 11.428 69.036 32.664 116.001 21.974 54.101-12.304 122.015 27.492 174.086 19.447 14.901-2.237 34.597-11.271 56.504-19.456 79.632-29.554 156.001-67.366 228.004-112.887 44.136-28.109 85.39-76.833 139.61-82.183a75.768 75.768 0 018.199-.474c116.866 1.292 219.936 182.535 337.006 133.561 41.01-17.178 56.3-73.62 79.95-111.34 36.47-58.997 81.82-107.855 130.94-153.23 51.78-47.771 100.75-111.622 163.27-145.972 39.46-21.558 89.78-46.087 133.1-50.372 88.59-8.83 197.43 14.344 270.74 86.793M-788.198 916.299s11.064-60.538 70.257-103.157c33.188-23.709 66.967-49.052 113.89-67.15 26.957-10.276 52.182-15.54 77.402-10.213 64.433 13.669 139.842 47.569 205.138 26.004a168.087 168.087 0 0050.738-24.998c55.623-42.995 112.797-74.258 179.88-87.974 58.716-12.127 126.336-9.589 187.594 2.872 50.943 10.502 103.318 19.303 154.709 30.52 37.938 8.259 66.8 28.161 114.179 16.332 50.926-12.69 120.744 27.357 170.229 21.354 15.284-2.042 35.467-10.202 57.803-18.136 77.962-26.711 158.319-63.658 225.826-111.882 42.6-30.379 76.571-79.92 131.629-86.108 2.724-.279 5.546-.548 8.157-.582 118.107.292 225.997 196.954 340.627 145.204 40.03-18.104 56.81-76.292 80.81-114.901 36.7-58.716 81.42-108.719 129.7-155.572 50.95-49.451 97.04-114.531 160.25-148.758 39.7-21.532 90.79-45.105 134.42-48.69 89.04-7.395 201.83 16.503 272.32 94.054M-792.69 899.527c9.49-43.224 33.262-81.038 67.185-106.874 32.135-25.002 67.355-55.438 112.843-75.025 26.169-11.078 50.632-15.96 75.113-10.608 64.359 14.073 138.581 49.699 204.544 32.524a159.637 159.637 0 0052.344-22.259c58.097-40.781 117.529-71.138 185.366-84.311 64.316-11.448 130.632-9.347 195.12 6.183 53.075 12.68 105.973 24.21 160.018 32.261 37.424 5.377 65.848 23.587 113.258 10.425 48.215-13.438 117.912 25.363 166.276 21.607 14.837-1.164 35.934-8.971 57.896-16.43 75.394-25.746 158.187-59.044 222.641-111.291 41.408-33.436 68.456-81.648 123.907-89.44a61.505 61.505 0 018.163-.684c119.806-.918 235.326 211.149 343.706 156.017 38.15-19.434 56.9-77.774 81.76-117.476 36.9-58.847 80.99-109.74 128.15-158.357 50.04-51.603 93.66-117.354 157.99-151.309 39.96-21.093 89.69-41.57 135.74-47.009 89.24-10.612 211.91 23.941 273.95 101.27M-797.156 883.117c9.177-43.815 31.592-82.892 63.974-111.531 33.3-29.609 70.799-63.508 111.462-82.265 24.968-11.565 48.969-16.135 73.022-11.034 65.454 13.88 135.745 51.817 203.087 38.695a154.116 154.116 0 0054.203-19.646c60.026-38.522 120.928-68.775 189.716-82.208 66.33-12.576 135.002-9.876 201.316 7.914 54.591 15.256 111.2 32.935 167.727 38.214 37.832 3.518 66.338 19.577 113.548 4.851 46.106-14.38 116.202 23.537 162.771 20.158 14.83-1.062 35.856-7.693 57.842-14.738 74.194-23.817 156.545-55.516 216.906-110.867 39.298-35.972 61.837-83.681 118.08-92.367a61.836 61.836 0 018.169-.786c120.893-1.781 240.633 223.431 346.233 166.36 37.61-20.363 57.75-78.917 83.27-119.783 36.8-58.756 80.51-109.792 125.99-160.847 48.37-53.991 91.62-120.294 156.3-153.595 40.29-20.699 91.07-40.655 136.98-45.286 90.13-9.079 216.07 26.641 275.53 108.43M-801.624 866.759c8.287-44.986 29.489-85.78 60.812-117.005 31.921-32.018 68.644-69.34 109.222-89.134 24.443-11.826 47.759-16.468 71.229-11.48 65.349 13.971 133.612 53.701 201.255 44.518a151.001 151.001 0 0056.301-16.906c61.761-36.282 124.03-67.163 193.286-81.832 65.065-13.722 140.369-12.895 205.682 7.345 57.969 17.977 116.109 43.684 177.743 49.14 39.847 3.575 68.294 16.543 115.109.233 44.603-15.566 114.629 21.058 159.86 17.847 14.827-1.011 35.715-6.989 57.627-13.63 72.767-22.218 152.595-52.897 209.07-110.714 37.215-38.145 57.009-85.218 113.697-94.731a55.652 55.652 0 018.168-.786c120.413-2.757 238.553 232.417 347.603 175.4 39.4-20.74 59.44-79.872 84.93-120.38 36.89-58.644 80.89-111.963 124.09-163.669 45.55-54.545 90.52-123.084 155.4-155.593 40.61-20.357 91.89-39.745 138.2-43.665 91.12-7.587 220.23 29.495 277.16 115.645M-806.148 850.498c7.771-46.52 27.79-89.392 57.832-123.849 29.468-33.767 66.514-73.986 106.999-94.664 23.77-12.102 46.842-16.771 69.63-11.905 65.111 13.843 131.339 55.467 198.765 49.86 20.028-.877 39.563-5.805 57.533-14.514 63.397-34.053 126.961-66.803 196.125-83.179 69.163-16.375 141.54-16.782 207.113 3.229 59.342 18.069 123.551 58.092 190.044 65.396 42.499 4.472 71.829 15.065 118.306-2.978 43.749-16.89 113.272 18.293 157.864 15.066 14.827-1.011 34.886-7.127 57.201-13.109 73.306-19.745 147.697-51.665 199.713-110.619 35.157-39.904 54.473-86.41 110.987-96.301a63.734 63.734 0 018.175-.888c123.671-3.803 236.761 239.323 348.971 183.514 40.6-20.101 61.39-80.335 87.08-121.544 36.59-58.623 79.9-112.786 121.02-165.842 43.5-56.508 89.96-125.971 155.38-157.755 40.98-19.957 94.32-40.774 139.47-41.886 92.03-2.297 221.21 27.284 278.7 122.646M-810.619 834.191c5.549-51.606 27.607-91.397 54.834-131.209 25.39-37.127 64.403-78.116 104.491-99.556 23.3-12.46 46.173-17.097 68.527-12.38 64.683 13.592 129.772 57.77 196.101 54.824 19.742-.905 41.565-3.648 59.026-12.351 64.171-32.224 128.057-65.403 197.616-86.673 70.918-21.744 142.651-27.772 208.042-5.569 61.873 20.958 129.883 75.366 201.397 87.518 46.039 7.775 76.962 15.655 123.275-3.741 56.426-23.835 98.965 24.5 157.114 12.005 14.414-3.111 34.912-7.536 56.713-13.161 73.461-19.06 138.708-50.348 188.203-110.75 33.657-41.141 54.548-87.636 110.121-98.243a55.564 55.564 0 018.132-.996c126.887-4.903 234.987 245.821 350.217 191.461 41.44-19.498 63.18-80.763 89.06-122.723 36.15-58.618 77.97-113.401 117.54-167.597 42.22-58.032 89.77-127.791 155.75-158.95 41.4-19.554 95.34-39.691 140.75-40.26 93.19-1.148 225.17 30.014 280.15 129.534M-815.137 817.827c4.49-53.619 25.592-97.11 51.984-139.376 23.67-37.975 61.994-81.402 101.978-103.573 22.97-12.7 45.7-17.404 67.62-12.836 64.403 13.357 127.478 59.071 193.244 59.718 20.544.734 40.862-2.919 59.715-10.737 65.849-30.659 131.311-66.294 200.461-93.778 71.523-28.468 143.255-39.328 208.51-15.701 64.347 23.173 134.008 93.335 208.499 112.381 50.842 12.959 83.937 19.114 129.75-1.775 56.688-25.709 99.753 22.065 157.881 9.104 14.27-3.178 34.132-7.669 56.047-13.539 73.284-19.387 130.639-48.78 177.228-109.951 32.109-42.384 54.647-89.271 109.465-100.42a57.64 57.64 0 018.139-1.098c129.866-6.031 233.246 251.036 351.296 198.824 42.48-18.771 64.94-81.35 90.81-123.876 35.65-58.517 75.53-113.863 114.01-169.562 41.5-60.061 89.84-129.737 156.72-160.339 41.86-19.094 96.39-38.449 142.07-38.527 94.42-.35 229.05 32.684 281.57 136.264M-819.599 801.367c3.398-55.894 23.635-102.972 49.201-147.844 22.048-38.815 59.609-84.276 99.482-107.024 22.841-13.022 45.376-17.747 67.07-13.511 64.225 13.03 125.483 60.301 190.94 64.411 20.623 1.614 41.167-1.488 60.206-9.091 68.468-30.023 136.013-70.787 204.372-104.678 70.49-34.952 139.642-48.707 208.287-25.802 72.362 24.118 134.046 104.855 210.178 137.392 40.2 17.187 98.525 22.037 138.438 4.281 59.355-26.663 104.903 20.755 160.397 6.592 13.857-3.684 33.701-7.869 55.276-13.826 72.035-19.879 122.667-48.796 166.7-110.03 31.229-43.299 54.435-90.631 109.571-102.158a49.98 49.98 0 018.142-1.148c132.489-7.194 231.629 255.75 352.209 205.553 81.97-34.259 148.09-214.31 202.77-296.071 40.95-61.507 90.09-131.459 157.92-161.395 42.33-18.685 97.45-37.258 143.35-36.85 95.72.918 232.73 35.231 282.93 142.886m-2871.896 551.75c3.257-55.382 19.171-108.648 46.408-155.337 23.298-39.146 57.363-87.803 97.263-111.011 22.812-13.333 45.398-18.104 66.847-13.894 64.202 12.617 123.746 61.353 188.656 68.799 20.565 2.473 41.214-.22 60.229-7.855 71.993-30.526 141.215-81.86 209.014-118.69 62.348-33.803 134.871-65.765 207.3-35.469 80.059 33.515 136.883 120.528 209.155 158.263 43.838 22.917 95.981 40.383 146.661 16.355 59.849-28.307 108.627 20.221 165.231 5.61 13.662-3.705 33.127-8.136 54.32-14.287 70.522-20.912 115.317-50.135 157.038-110.584 30.438-44.051 54.368-91.974 109.028-103.757a49.69 49.69 0 018.096-1.205c134.92-8.224 230.3 259.827 352.97 211.649 83.45-32.663 147.64-215.848 201.34-298.432 40.62-62.57 90.47-132.858 159.24-162.079 42.79-18.224 98.45-35.918 144.57-35.179 97.15 1.788 236.27 37.713 284.23 149.091M-828.502 768.088c2.271-57.499 17.142-113.195 43.465-162.793 21.78-40.077 55.45-91.141 95.583-114.941 22.921-13.528 45.755-18.325 66.973-14.344 64.245 11.901 122.406 62.342 186.725 73.017 20.418 3.47 41.15 1.252 60.094-6.429 76.056-31.796 144.863-92.48 213.85-135.098 60.245-37.264 132.85-74.616 205.768-44.269 83.283 34.729 137.712 125.501 207.961 175.466 42.462 30.176 97.792 59.187 151.723 32.673 60.031-29.677 113.569 21.513 171.932 5.492 13.515-3.72 32.494-8.253 53.279-14.962 68.493-21.537 108.583-51.923 148.543-110.912 30.12-44.496 53.919-92.69 108.714-105.075a56.064 56.064 0 018.099-1.257c132.273-9.273 229.843 267.338 353.473 217.153 86.96-35.38 146.15-217.96 199.75-300.554 40.52-62.58 91.08-134.028 160.69-162.543 43.3-17.708 99.51-34.624 145.84-33.4 98.68 2.617 239.63 39.968 285.4 155.075M-832.944 751.27c1.374-59.419 15.159-117.322 40.388-169.647 20.345-41.565 53.881-94.494 94.379-118.616 23.136-13.814 46.266-18.631 67.444-14.808 64.508 11.62 121.516 63.225 185.297 77.083 20.265 4.582 41.146 2.976 60.131-4.626 79.244-33.208 148.735-106.778 218.1-153.983 58.331-39.78 130.512-81.496 203.807-51.675 85.401 34.695 139.783 129.472 205.881 188.616 38.649 34.609 96.471 78.484 152.803 51.349 61.764-29.854 120.382 25.211 181.635 7.798 13.466-3.725 32.021-8.56 52.203-15.075 65.831-22.28 102.998-54.773 141.225-111.99 30.042-44.813 53.566-93.345 108.435-106.134a64.304 64.304 0 018.102-1.307c134.784-10.14 228.144 270.141 353.634 221.899 88.74-34.06 145.11-219.611 198.47-302.333 40.43-62.59 91.88-134.972 162.17-162.644 43.87-17.237 98.73-31.416 147.17-31.667 102.96-.634 245.35 46.998 286.43 160.737M-837.375 734.298c.466-61.378 13.14-121.51 37.215-176.562 19.059-43.089 52.803-97.795 93.68-122.494 23.5-14.136 46.826-18.932 68.361-15.329 65.68 10.972 121.442 63.629 184.548 80.501 20.294 6.087 41.713 4.708 60.629-3.905 81.542-39.446 148.398-119.051 221.024-171.312 57.645-41.446 127.878-85.938 201.397-57.378C116.03 301.4 172.014 397.374 233.31 465.062c37.957 41.94 91.08 95.914 152.534 70.346 65.631-27.083 126.684 32.456 190.638 13.527 13.369-3.736 31.553-8.97 51.17-15.904 113.772-40.116 136.476-194.142 244.046-219.691a55.662 55.662 0 018.054-1.312c137.708-11.221 225.908 271.192 353.778 225.976 88.73-31.336 144.87-221.282 197.33-303.841 40.29-63.582 92.47-135.682 163.84-162.47 44.37-16.669 99.72-29.974 148.44-29.887 104.72.22 248.04 48.977 287.37 166.133M-841.751 717.23c-2.53-64.436 13.443-124.766 34.06-182.962 16.289-46.105 51.623-101.056 93.457-126.117 20.656-13.048 44.969-18.752 69.454-16.293 67.621 7.371 122.82 61.203 185.217 80.828 20.325 6.979 42.13 5.786 61.087-3.343 83.07-41.907 149.482-130.403 222.278-185.474 56.237-42.571 124.979-87.631 198.56-60.916 87.404 31.717 144.775 128.352 201.796 200.783 35.142 44.523 87.332 114.647 152.356 89.454 68.159-26.559 127.761 41.465 197.994 22.065 13.809-3.689 31.077-9.225 50.217-16.415 110.827-41.866 133.918-195.799 240.123-221.543a56.788 56.788 0 018.108-1.41c140.194-11.628 223.884 271.339 353.464 229.492 88.31-28.553 144.93-222.355 196.47-305.012 40.2-64.517 93.33-136.208 165.54-162.085 44.93-16.097 100.65-28.385 149.84-27.94 106.8.953 250.7 50.645 288.11 171.044M-846.225 700.151c-3.464-66.077 11.414-128.63 31.183-189.074 15.343-47.542 50.639-104.296 93.629-129.75 21.076-13.157 45.495-19.66 70.44-18.761 69.173 2.907 124.915 57.516 186.769 79.604 10.017 3.842 20.598 5.555 31.108 5.035a73.526 73.526 0 0030.058-8.061c83.9-44.236 149.291-138.599 222.704-195.714 55.228-42.985 121.832-86.059 195.459-61.704 88.729 29.336 145.573 123.293 199.889 198.937 33.535 46.668 84.453 129.615 152.029 107.776 71.295-23.093 127.36 54.534 203.22 33.258a469.663 469.663 0 0049.065-16.896c107.894-43.82 133.177-197.368 238.235-222.874a56.541 56.541 0 018.105-1.358C1007.67 268.411 1087.81 551.467 1218.6 513.09c87.52-25.911 145.2-223.509 195.79-305.855 40.2-65.442 94.38-136.509 167.31-161.435 45.24-15.499 101.84-26.718 151.25-25.89 108.17 1.868 253.02 52.021 288.68 175.525M-850.65 683.077c-3.6-66.807 5.846-133.178 27.757-195.039 17.383-48.715 45.157-103.998 93.775-132.974 21.776-13.692 46.614-21.475 72.352-22.673 70.528-1.578 127.601 52.194 189.039 77.066 9.992 4.205 20.652 6.137 31.255 5.664a69.447 69.447 0 0030.189-8.403c84.242-45.795 147.912-144.246 221.61-201.999 54.567-42.644 118.519-80.957 192.03-59.546 90.053 26.185 145.995 113.928 198.523 191.44 33.017 48.722 86.858 144.317 151.742 124.663 67.596-20.551 126.348 69.544 206.239 46.739 13.925-3.985 30.117-9.635 48.178-16.887 108.35-44.029 133.17-198.86 238.527-224.437a56.927 56.927 0 018.108-1.409c143.486-12.361 220.966 270.054 352.126 234.442 86.42-23.353 146.02-224.812 195.43-306.357 39.99-66.08 95.42-136.656 169.27-160.508 49.16-16.024 100.63-24.045 152.65-23.79 109.78 2.81 255.12 53.014 289.32 179.552M-855.029 666.06c-8.224-116.505 19.822-272.59 118.447-337.182 128.167-84.21 226.454 97.971 327.877 44.009C-277.819 303.051-183.181 74.12-1.177 114.71c88.094 19.551 145.104 100.26 194.888 173.524 33.982 49.851 82.283 158.027 154.557 143.932 49.36-9.615 69.6 28.25 110.231 48.876 50.032 25.471 95.674 20.349 145.653-2.673 103.024-47.109 136.584-204.825 239.553-226.745 146.628-30.85 220.895 267.167 359.115 234.457 74.91-17.828 114.75-167.119 152.02-233.539 52.13-92.518 112.98-202.886 214.47-232.006 135.56-38.956 394.62-35.302 443.53 161.583" stroke="url(#paint0_linear_375_10816)" stroke-width=".5" stroke-miterlimit="10"/><defs><linearGradient id="paint0_linear_375_10816" x1="1719.59" y1="185.275" x2="-172.446" y2="607.637" gradientUnits="userSpaceOnUse"><stop offset=".683" stop-color="#FD6721"/><stop offset=".821" stop-color="#FD6721" stop-opacity="0"/></linearGradient></defs></svg>