<svg width="1920" height="991" fill="none" xmlns="http://www.w3.org/2000/svg"><path opacity=".2" d="M-225.642 927.086c52.136 38.607 121.43 53.453 186.543 60.263 131.161 13.621 143.372-131.05 239.736-138.353 85.223-6.474 140.968-24.686 186.391-84.924 76.418-101.304 201.702-44.963 279.851 21.015C787.491 886.905 914.92 1025.35 1110.75 981.751c145.63-32.445 237.26-95.045 299.15-206.697 26.23-47.349 54.49-100.986 66.64-152.549 11.76-49.875-6.02-126.621 56.41-154.618 130.95-58.753 314.01 40.75 453.17 10.993 98.84-21.02 138.33-57.537 99.12-143.931-53.44-117.632 131.22-149.026 235.08-166.361 90.1-15.113 232.59 24.896 307.2-28.552M-230.399 910.875c51.664 37.123 120.298 51.603 183.392 57.196 72.817 6.489 124.659-46.004 159.132-91.795 23.355-31.084 48.293-59.187 77.463-59.591 90.954-1.207 135.701-22.215 185.938-79.254 14.296-16.29 29.904-29.895 46.844-38 85.524-41.004 170.038 10.004 230.957 57.561 64.836 50.881 129.035 120.199 204.853 163.007 81.895 46.225 158.64 60.806 253.85 45.75 58.38-9.208 124.69-29.116 167.53-60.088 52.25-37.958 90.71-88.004 123.63-140.877 6.61-10.689 12.53-22.451 18.29-34.263 22.8-46.804 38.6-89.281 46.16-139.569 7.24-48.086-6.53-102.974 44.79-135.417a45.378 45.378 0 016.33-3.403c132.33-57.664 317.46 45.6 457.82 17.972 102.25-19.965 131.94-57.579 93.66-143.938-27.75-62.924 19.42-99.413 79.65-123.209 49.45-19.498 111.59-30.945 169.01-39.916 88.87-13.922 230.33 22.331 304.51-27.594M-235.168 894.194c51.327 35.18 119.205 48.036 180.137 51.737C18.44 950.4 67.943 890.84 101.873 844.459c23.375-31.942 48.106-59.32 76.989-59.824 87.384-1.493 132.427-19.429 186.032-71.82 13.07-13.411 29.683-24.341 48.732-32.064 87.556-33.18 161.548 3.54 226.519 50.288 69.814 50.184 137.751 117.065 212.341 162.315 80.555 48.815 163.214 70.71 260.904 56.634 56.22-8.091 120.37-28.054 161.51-59.358 50.1-38.091 89.53-84.854 121.94-135.696 6.7-10.487 12.7-22.163 18.56-33.929 24.82-49.339 35.41-90.043 39.98-143.542 4.21-48.954-9.48-104.774 43.46-137.243a48.825 48.825 0 016.43-3.395c134.44-56.323 321.2 51.02 462.06 24.682 104.92-19.595 123.56-58.092 88.41-144.24-26.45-64.932 30.37-98.498 91.86-120.747 50.94-18.441 112.49-29.857 170.17-39.081 88-14.07 227.53 21.051 301.53-26.698M-239.934 877.473c48.786 31.264 118.222 44.948 176.653 44.228 76.311-.894 120.816-62.573 154.924-109.332 23.491-32.167 48.212-58.177 76.853-58.74 76.205-1.41 136.652-17.488 186.678-62.66 14.232-11.875 31.64-21.058 51.027-26.916 86.594-29.153 154.762-1.46 221.559 43.988 71.931 48.946 142.465 112.283 217.158 158.088 82.812 50.755 169.222 80.533 268.522 67.914 57.98-7.634 111.59-27.966 154.91-58.751 50.07-36.99 91.24-80.96 121.63-129.897 6.61-10.651 12.83-21.997 18.93-33.666 27.27-52.308 31.22-91.315 32.8-147.946 1.36-49.612-11.2-106.161 43.59-138.249a52.864 52.864 0 016.47-3.391c136.64-54.78 325.28 56.153 465.74 31.035 105.95-18.888 114.5-59.247 83.46-144.403-24.2-66.705 42.22-97.159 104.58-118.048 52.18-17.325 113.16-29.06 170.82-38.521 87.13-14.295 224.47 19.908 298.36-25.818M-244.757 860.24c48.774 28.332 117.496 38.636 173.142 35.191 75.43-4.638 118.306-68.715 153.248-115.446 23.649-31.685 48.462-55.773 76.96-56.386 73.93-1.28 132.974-14.577 187.942-52.005 16.275-10.228 34.577-18.276 54.227-23.846 85.753-26.015 151.218-5.769 217.47 38.501 70.781 47.33 144.05 106.624 217.955 151.82 85.267 52.045 180.953 91.947 276.063 78.798 55.44-8.223 106.73-27.837 148.86-56.929 49.91-35.217 91.33-77.378 122.38-124.56 6.7-10.488 12.92-21.756 19.28-33.638 28.85-53.081 29.15-93.748 24.89-152.488-3.38-46.317-10.45-109.855 44.96-138.648a72.236 72.236 0 016.71-3.372c138.72-53.167 328.63 60.956 468.72 36.863 106.05-18.254 105.2-60.616 78.79-144.502-21.36-67.768 55.11-95.777 117.49-115.14 53.09-16.431 113.48-28.096 171.25-37.821 86.26-14.521 221.27 18.791 295.05-24.989M-249.547 843.205c48.87 25.291 116.652 31.337 169.505 25.284 73.843-8.791 115.386-73.443 151.835-119.936 23.895-30.455 49.1-52.048 77.334-52.448 71.374-.702 131.864-9.311 190.595-41.474 17.634-9.116 36.719-16.389 56.807-21.646 84.288-23.708 148.157-9.961 213.924 32.98 69.42 45.267 142.046 100.914 215.262 144.881 87.633 52.626 187.475 99.622 282.635 88.353 47.8-5.675 102.17-25.796 145.24-53.544 50.92-32.816 92.82-73.568 123.29-119.914 6.79-10.402 13.03-21.942 19.67-33.607 46.63-80.819-44.12-243.455 63.94-295.439 2.3-1.066 4.66-2.285 7.01-3.348 141.06-52.353 326.35 66.09 469.72 41.479 108.7-18.669 96.88-61.674 75.76-144.12-17.28-67.676 68.72-93.633 130.94-111.601 55.85-15.427 113.03-27.932 171.17-37.437 85.35-14.829 217.81 17.655 291.5-24.218M-254.303 826.369c49.136 21.95 115.678 23.207 165.802 14.355 71.988-12.692 111.993-76.568 150.682-122.139 24.29-28.625 49.842-47.181 78.048-47.231 68.919-.156 134.575-4.442 193.995-32.29 18.808-8.1 38.569-14.789 59.036-19.982 81.968-22.995 146.834-12.491 211.285 27.218 67.172 41.374 137.668 95.951 209.498 138.166 80.713 47.459 191.467 110.065 287.657 95.712 48.22-7.166 101.63-22.712 144.17-48.157 51.66-30.899 94.15-70.376 124.69-115.854 6.88-10.355 13.11-22.404 20.01-33.579 50.43-81.649-63.06-245.362 58.86-299.051 2.35-1.024 4.85-2.191 7.33-3.048 144.06-50.356 322.57 55.507 469.45 45.599 113.57-7.686 85.25-81.288 73.76-143.81-12.7-67.701 82-91.711 143.95-108.685 55.93-14.759 112.89-27.164 170.66-37.165 84.59-15.164 214.31 16.515 287.88-23.451M-259.081 809.804c53.381 18.107 112.808 12.931 162.156 3.314C-29.655 799.736 11.04 734.625 52.9 690.637c24.773-26.046 50.773-40.97 79.092-40.581 69.235.808 136.036.053 197.843-25.024 19.607-7.348 39.84-13.656 60.572-18.882 80.022-22.056 145.269-16.916 209.312 21.119 64.987 38.54 133.037 91.711 202.157 132.106 81.312 47.351 192.112 111.25 290.195 100.919 48.85-5.201 102.76-17.111 146.04-41.285 52.25-29.31 95.27-67.718 125.98-112.467 7.03-10.304 13.46-21.829 20.45-33.544 49.85-83.572-77.62-249.184 54.66-301.771 2.44-.978 5.09-2.134 7.67-2.983 146.24-47.601 321.14 56.683 467.97 49.156 113.67-5.84 79.04-84.169 72.58-143.671-7.3-66.917 94.55-89.26 156.97-105.453 54.49-14.131 112.76-26.396 169.76-36.964 83.83-15.537 210.41 15.382 284.23-22.688M-263.78 793.48c53.564 13.978 111.257 4.638 158.352-7.583C-39.835 768.863-2.479 706.729 43.8 665.322c25.448-22.786 51.525-33.131 80.011-32.377 69.494 1.884 138.867 2.195 202.175-20.729 20.224-7.19 41.035-13.359 62.312-18.469 80.309-19.493 140.588-23.623 208.155 14.655 63.046 35.727 128.774 87.773 195.246 126.823 82.317 48.331 190.26 110.398 289.571 105.676 49.41-2.38 104.25-11.205 148.66-34.742 53-27.861 96.72-65.373 127.73-109.591 7.78-10.815 14.76-22.003 20.89-33.509 40.94-81.157-87.97-253.959 51.44-303.552 2.64-.923 5.38-2.033 8.11-2.831 147.61-44.442 319.5 57.49 465.14 52.017 112.4-4.182 73.84-87.555 72.42-143.605-1.61-64.898 106.21-86.138 169.58-101.904 54.59-13.576 112.01-26.221 168.48-36.949 83.23-16.015 206.85 14.355 280.53-21.89M-268.44 777.902c53.829 9.426 109.158-3.583 154.713-18.076 63.637-20.279 96.794-79.153 148.779-116.194 26.362-18.843 52.244-24.904 81.116-24.041 70.212 2.137 141.804 3.016 206.489-18.664 19.875-6.658 42.125-12.853 63.485-18.376 78.433-20.033 140.825-27.825 207.623 7.772 61.359 32.817 125.312 84.291 189.028 122.105 88.19 52.435 189.031 106.078 287.367 110.386 47.72 2.097 105.45-5.794 151.48-28.654 53.76-26.645 98.22-63.425 129.65-107.248 8.46-10.692 15.15-22.239 19.93-34.368 27.18-83.821-95.54-257.809 51.02-303.82 2.73-.877 5.62-1.858 8.38-2.614 149.53-39.325 316.18 57.85 461.08 54.195 111.36-2.82 69.36-91.159 73.44-143.993 4.88-61.057 116.89-83.095 181.41-98.417 54.69-12.982 111-25.912 166.86-37.04 82.63-16.454 202.94 13.417 276.8-20.858M-273.138 762.789c53.747 4.925 106.931-11.421 151.067-27.866 60.176-22.549 91.054-79.377 148.397-108.954 24.234-12.555 53.16-18.459 82.558-16.85 71.056 2.048 144.724 2.819 210.5-18.344 20.211-6.553 42.718-12.883 64.253-18.744 76.853-21.215 141.155-32.567 207.76.513 60.028 29.779 122.303 80.689 183.66 117.844 87.186 52.668 185.487 106.069 283.743 115.062 48.87 4.377 106.55-.43 154.41-22.831 54.61-25.539 99.92-61.71 131.86-105.273 8.22-10.906 13.83-22.988 16.53-35.656 15.69-84.74-101.72-261.665 53.66-301.655 2.82-.752 5.84-1.605 8.8-2.268 151.33-34.294 311.84 56.682 456.1 54.891 110.26-1.383 66.57-93.922 75.52-144.333 10.76-59.337 126.72-79.769 192.32-95.005 54.42-12.652 110.02-25.442 164.91-37.235 85.43-18.34 195 12.313 273.25-20.204M-277.742 748.349c53.325.356 104.494-18.496 147.583-36.627 55.773-23.487 89.857-77.323 148.092-99.597 26.556-10.189 54.273-12.116 83.943-11.384 72.006 1.85 147.512 1.791 214.233-19.492 20.661-6.634 43.092-13.244 64.774-19.718 65.039-19.346 142.215-43.35 208.265-7.031 61.765 33.905 120.076 77.149 179.306 113.822 85.963 53.196 181.5 106.688 279.156 119.58 49.77 6.6 107.9 4.722 156.73-17.484 54.75-24.821 104.69-59.719 133.85-103.746 6.92-11.63 10.76-24.337 11.31-37.364 6.57-85.157-102.58-263.922 59.9-297.169 3-.62 6.16-1.422 9.26-1.995 151.95-29.125 307.06 55.009 449.94 54.436 108.31-.444 64.02-97.722 78.53-144.953 17.35-56.933 134.53-75.977 202.62-91.562 53.9-12.379 108.5-25.485 162.52-37.543 84.84-18.895 191.29 11.391 269.78-19.23M-282.254 734.62c52.51-3.618 101.836-24.65 144.098-44.137 51.867-23.878 89.413-71.769 147.978-88.935 27.418-8.048 55.043-7.598 85.123-7.068 73.037 1.268 150.339.297 217.538-22.042 20.878-6.89 43.298-13.97 65.029-21.066 64.749-21.246 141.615-47.541 208.89-14.838 61.589 29.943 118.787 73.568 176.22 109.94 84.694 53.681 177.253 107.482 273.918 124.126 50.01 8.612 109.03 9.736 158.92-12.189 54.22-23.807 110.74-57.906 133.5-103.032 5.21-10.333 6.65-24.68 6.58-38.562-.45-88.494-101.41-262.501 69.29-291.024 3.09-.495 6.4-1.208 9.64-1.731 151.27-24.214 301.88 52.68 442.86 53.05 106.39.301 62.34-102.469 82.15-145.875 24.49-53.86 140.28-71.453 212.09-88.107 53.41-12.38 106.78-25.545 160-38.019 84.46-19.63 187.58 10.43 266.45-18.207M-286.729 721.636c51.375-7.265 99.522-29.565 140.787-50.108 47.559-23.559 90.253-65.057 147.794-77.419 27.847-6.021 55.75-4.727 86.147-4.485 73.778.624 152.993-2.109 220.385-25.644 20.965-7.353 43.333-15.023 64.928-22.873 64.583-23.486 140.196-51.954 209.365-22.617 61.887 26.214 118.504 69.714 174.617 105.981 83.486 54.014 172.932 108.583 268.396 128.57 49.66 10.422 110.5 14.74 160.81-6.917 52.4-22.546 114.8-54.416 130.44-102.925a111.895 111.895 0 002.78-39.687c-6.21-93.449-97.07-258.361 81.67-282.724 3.24-.444 6.64-1.072 9.97-1.509 149.23-19.648 296.53 49.946 435 50.975 104.43.77 62.03-106.011 87.18-146.645 31.89-51.588 145.5-67.753 220.03-85.205 52.42-12.226 104.88-25.775 157.07-38.253 84.11-20.322 184 9.518 263.35-17.048M-291.127 709.558c50.052-10.42 95.709-33.584 137.644-54.504 46.146-23.124 91.17-57.439 147.502-66.38 28.264-4.462 56.254-3.044 86.823-3.101 74.675-.125 155.457-4.609 222.761-30.106 21.014-7.974 43.239-16.321 64.655-25.005 64.009-26.152 137.411-56.516 209.133-30.18 63.078 23.026 119.277 65.593 174.503 101.868 82.627 54.297 168.987 109.908 263.026 132.948 48.94 12.006 111.97 19.705 162.55-1.657 51.61-21.905 115.71-50.982 124.95-103.13a153.213 153.213 0 00-.15-40.586c-10.76-99.363-88.07-252.755 96.69-273.509 3.27-.364 6.81-.902 10.19-1.257 146.34-15.657 291.06 46.967 426.4 48.372 102.54.97 62.36-108.37 93.38-147.245 39.72-49.905 149.93-64.7 226.54-82.886 51.27-12.199 102.69-26.145 153.92-38.934 83.87-20.967 180.62 8.739 260.54-15.749m-2865.375 619.79c48.032-12.849 92.396-35.842 134.669-56.071 46.056-21.997 91.528-50.843 147.047-57.621 28.62-3.379 56.502-2.439 87.227-2.6 75.428-.925 157.734-7.241 224.298-35.182 20.878-8.728 42.967-17.828 64.014-27.441 63.239-28.832 132.849-61.024 208.249-37.599 65.38 20.083 121.564 61.007 176.542 97.301 81.746 54.226 165.577 111.317 258.199 137.214 48.15 13.427 113.17 24.491 163.76 3.599 52.34-21.808 112.12-49.158 116.95-103.495.67-13.591-.04-27.244-2.14-40.824-14.05-105.608-74.77-246.063 114.07-263.207 3.42-.313 7-.769 10.42-1.043 142.57-12.051 285.54 44.024 417.38 45.5 100.95 1.117 62.91-109.693 100.4-147.582 48.15-48.215 153.4-61.999 231.56-81.116 50.2-12.207 100.56-26.589 150.82-39.534 83.73-21.604 177.39 7.972 258.02-14.31m-2865.791 613.23c46.246-14.517 89.526-36.267 131.883-55.707 45.728-20.969 92.184-44.889 146.455-50.828 28.697-3.099 56.478-2.754 87.299-3.494 76.083-1.732 159.767-9.893 225.616-40.588 20.457-9.621 42.52-19.622 63.146-30.129 68.914-35.18 128.107-55.267 204.878-42.833 64.619 10.524 125.912 55.257 180.368 91.314 80.732 53.363 162.952 112.748 254.461 141.527 47.445 14.817 114.205 28.131 165.015 8.82 51.67-19.633 105.74-51.27 107.33-103.131a261.044 261.044 0 00-3.61-41.097c-15.68-111.68-56.68-238.401 133.61-252.107 3.47-.27 7.05-.648 10.56-.876 138.52-8.856 279.91 41.229 408.02 42.524 99.63 1.011 63-110.781 108.15-147.978 56.27-46.315 156.14-59.826 235.45-79.828 48.75-12.519 98-27.069 146.9-40.356 83.68-22.272 174.54 7.275 255.97-12.714M-304.035 677.098c44.589-15.352 86.557-36.074 129.193-54.085 45.182-19.057 93.979-40.25 145.752-45.724 28.345-3.01 56.293-4.137 87.086-5.153 76.634-2.47 161.437-12.3 225.941-45.878 20.535-10.592 42.437-21.661 61.698-32.942 61.93-35.855 126.71-50.726 198.258-43.753 68.372 6.68 132.576 45.158 187.947 80.858 80.221 51.759 158.992 109.343 251.803 145.223 49.407 19.157 114.007 33.627 166.217 14.037 52.22-19.589 95.68-53.443 95.65-102.267-.03-11.416-2.14-26.282-4.12-40.903-15.78-117.122-34.16-230.034 154.79-240.524 3.51-.189 7.18-.521 10.68-.67 134.24-6.307 274.11 38.692 398.46 39.686 98.77.708 62.67-111.627 116.31-148.42 64.67-44.313 157.83-57.735 238.14-78.987 47.72-12.64 95.37-27.552 143.34-40.875 83.79-22.928 172.03 6.606 254.35-10.928M-308.22 667.265c43.025-16.103 84.444-35.501 126.464-51.958 45.721-17.803 94.11-35.744 144.858-42.552a925.197 925.197 0 0186.668-7.922c77.042-3.258 162.83-14.338 225.569-51.067 19.692-11.754 41.055-22.241 59.214-32.046 59.667-32.792 120.722-46.633 190.208-43.42 69.486 3.212 138.461 36.208 195.715 68.658 82.319 46.454 161.036 108.412 252.582 146.575 47.202 19.723 116.052 40.006 164.602 18.95 45.87-19.784 86.14-53.697 85.62-100.059-.14-11.23-2.21-26.014-3.81-40.449-5.71-51.585-30.68-116.084 3.25-163.639 32.73-46.165 111.36-62.469 174.27-65.06 3.5-.149 7.26-.396 10.72-.472 127.87-2.476 265.97 35.15 388.88 36.85 85.64 1.182 83.99-117.819 124.78-149.033 56.15-43.04 157.72-56.298 239.63-78.556 47.04-12.772 92.59-28.477 139.46-41.576 83.98-23.538 170.02 5.976 253.25-8.865M-312.433 657.78c41.51-16.224 81.524-34.679 123.86-49.547 46.694-16.435 94.32-32.209 143.833-41.422 28.128-5.926 56.915-9.951 86.061-12.036 78.281-3.98 161.261-18.099 224.146-54.191 18.676-10.741 39.153-19.383 56.402-28.284 53.119-27.843 115.11-46.612 180.821-43.584 72.717 3.431 139.96 27.924 199.496 57.077 85.92 42.052 170.763 108.018 259.219 143.588 41.145 16.621 113.815 44.674 157.275 23.759 40.59-19.542 80.89-51.382 80.92-96.135-.01-10.946-1.74-25.548-2.82-39.784-3.85-51.514-22.41-113 17.54-157.688 38.67-42.954 119.85-57.373 183.1-59.155 3.55-.107 7.26-.319 10.75-.352 123.7-.699 260.14 33.706 379.38 34.526 44.52.277 58.93-21.124 74.34-47.684 23.34-40.153 15.59-71.81 58.96-102.152 59.54-41.637 158.32-55.079 240.07-78.521 45.69-13.076 89.75-29.174 135.35-42.413 84.01-24.552 168.81 5.684 252.91-6.47M-316.566 648.54s34.465-18 121.167-47.262c45.528-15.394 95.084-30.076 142.626-42.339 28.295-7.314 55.843-16.368 85.446-17.87 76.85-3.938 156.507-18.362 221.484-51.081 18.256-9.172 37.38-16.907 53.375-24.892 51.273-25.684 108.964-44.836 171.792-43.915 71.876 1.019 138.88 20.489 199.723 46.229 88.503 37.45 176.045 99.215 264.128 136.359 38.094 16.024 111.125 47.507 150.335 28.05 37.56-18.534 79.69-46.826 81.06-90.456.36-10.565-.85-24.968-1.12-38.827-2.49-125.283 53.09-202.337 224.85-205.213 3.6-.025 7.3-.198 10.79-.192 119.64.813 254.2 32.917 370.13 32.613 44.99-.075 57.7-22.395 73.99-48.806 25.23-40.98 21.25-71.826 67.87-102.143 61.73-40.132 158.72-54.617 239.29-78.584 44.12-13.2 87.38-30.38 131.44-43.43 82.99-24.633 168.21 5.245 253.13-3.598M-320.721 639.568s32.091-18.463 118.495-45.247c46.933-14.501 95.111-29.175 141.45-45.483 28.217-10.017 55.482-22.924 84.745-24.492 74.148-3.999 153.004-12.702 217.971-42.216 17.52-7.98 35.647-14.934 50.996-22.228 49.155-23.822 102.491-43.908 162.417-44.861 70.027-1.083 136.073 14.362 197.052 36.556 89.96 32.759 179.354 87.988 266.219 126.832 35.449 15.852 105.106 50.153 146.046 31.225 48.98-22.819 73.15-40.156 85.42-83.423 2.62-9.329.51-24.195 1.24-37.661 6.2-124.236 85.05-193.253 248.65-194.397 3.59-.025 7.29-.12 10.74-.079 115.83 2.15 248.38 32.883 361.26 31.357 45.43-.627 56.64-23.848 73.7-50.08 27.11-41.651 27.21-71.858 76.49-102.12 63.3-38.833 158.17-54.581 237.67-79.337 42.91-13.377 84.35-31.834 127.88-44.496 83.64-24.19 167.89 4.907 253.37-.452M-324.876 630.597s29.811-18.88 116.017-43.804c48.526-13.56 95.257-30.623 139.626-50.983 27.946-13.4 54.614-24.988 83.891-26.125 74.508-2.953 146.821-6.785 214.353-33.905 17.137-6.877 34.823-13.241 48.716-20.182 49.306-24.474 97.933-41.068 153.432-46.362 62.311-6.156 132.139 9.396 192.306 28.202 89.602 28.001 178.841 77.784 265.001 115.595 34.096 14.922 103.673 50.234 143.264 32.8 35.7-15.672 86.23-36.96 92.37-75.597 1.57-9.686 2.31-23.268 4.19-36.291 17.6-120.47 117.5-183.622 273.01-183.418 3.55.009 7.2-.09 10.63.029 112.5 3.33 242.27 33.645 352.91 30.727 45.87-1.217 55.68-25.41 73.52-51.579 29.02-42.279 33.16-71.89 84.81-102.236 64.16-37.866 156.95-54.679 234.6-80.287 41.66-13.75 81.7-33.257 125.14-45.262 84.76-23.436 167.92 5.066 253.78 2.981M-329.025 621.548s28.775-19.471 113.002-43.028c50.351-14.149 94.486-34.893 137.878-58.667 24.001-13.799 52.976-21.297 83.079-21.5 72.774-.98 143.898-2.249 210.549-26.978a515.008 515.008 0 0046.695-18.897c47.314-23.578 92.449-42.053 145.383-49.116 58.804-7.845 127.766 5.606 185.968 21.284 88.847 23.915 176.665 68.073 261.847 103.968 33.32 14.157 102.512 49.359 141.637 33.413 36.627-14.934 90.867-28.381 101.597-67.237 2.62-9.289 4.38-22.164 7.69-34.565 31.31-116.442 144.81-174.91 296.17-173.865 3.54.048 7.14-.016 10.53.138 109.7 4.396 236.32 35.358 345.21 30.894 46.42-1.917 54.73-27.128 73.42-53.348 30.54-42.783 39.79-72.336 92.64-102.39 64.51-36.704 156.06-54.555 230.52-81.59 39.85-14.443 80.43-34.455 123.28-45.92 85.05-22.749 168.49 5.307 254.61 6.8M-333.211 612.34s27.773-19.864 110.209-43.173c49.806-14.115 94.003-43.023 135.645-64.592 24.9-12.862 53.175-16.23 82.083-15.833 71.443.906 141.265 1.761 207.082-21.158 15.779-5.084 31.057-11.046 45.724-17.841 44.917-22.519 89.421-42.96 138.593-52.825 55.039-11.234 122.169 2.969 178.926 15.796 87.699 19.796 172.368 60.262 255.643 92.292 34.954 13.427 102.816 46.178 140.879 33.04 38.064-13.139 95.487-19.725 112.277-58.565 3.86-8.878 6.85-21.03 11.74-32.951 44.55-108.974 172.21-166.699 317.8-164.905 3.5.045 6.99.051 10.38.165 111.39 3.555 228.95 38.248 338.43 31.877 46.93-2.735 53.81-29.078 73.34-55.347 32.09-43.089 46.53-72.931 99.96-102.705 64.29-35.862 153.35-54.615 225.34-83.295 38.69-15.433 79.9-35.317 122.52-46.332 85.43-22.053 169.41 5.537 255.51 10.86m-2866.25 566.09s26.211-20.028 107.254-44.387c49.076-14.837 89.391-48.747 133.334-67.083 24.799-10.368 52.53-11.864 81.328-10.694 70.455 2.782 139.086 5.613 204.22-16.149 15.429-4.817 30.271-10.678 44.369-17.52 43.505-22.71 85.667-45.253 133.329-57.78 50.878-13.365 119.601 1.239 171.684 11.581 83.919 16.602 166.645 52.418 247.146 81.606 35.539 12.888 101.908 43.995 140.48 31.874 40.894-12.833 99.856-11.557 123.746-49.908 5.14-8.345 9.55-19.719 16.21-31.03 59.1-100.187 196.49-159.48 338.21-157.291l10.17.227c110.01 4.225 223.33 42.136 332.33 33.85 45.7-3.458 55.12-30.771 73.51-57.561 30.51-44.896 53.79-73.875 106.68-103.105 63.64-35.132 148.85-54.936 219.1-85.24 38.33-16.479 80.05-35.93 122.68-46.554 85.38-21.315 170.82 5.845 256.55 15.125M-341.627 593.256s25.486-18.952 104.246-46.777c48.426-17.157 81.848-51.657 130.882-66.576 25.93-7.893 52.147-8.298 80.684-6.329 69.316 4.724 137.452 9.431 201.901-11.76 15.304-4.73 29.938-10.655 43.693-17.692 42.788-23.588 83.789-48.843 130.198-64.168 47.867-15.716 115.453-1.671 164.797 8.451 78.824 16.312 158.73 46.156 236.346 72.651 36.462 12.415 102.509 42.01 140.314 30.258 44.172-13.822 102.536-2.626 135.266-41.403 6.52-7.726 12.54-18.307 21.12-28.918 73.35-90.721 215.88-153.394 356.05-150.822 3.34.033 6.79-.004 9.82.239 103.72 7.201 218.73 49.273 327.33 36.694 48.23-5.562 53.39-32.512 73.77-60.824 32.48-44.856 59.22-74.065 112.27-102.891 63.39-34.41 143.46-55.798 212.4-87.536 38.42-17.644 80.56-36.203 123.41-46.417 85.61-20.515 172.57 5.985 257.67 19.592M-345.845 583.225s29.098-17.96 101.151-50.543c40.84-18.31 80.352-52.636 128.133-63.59 26.17-5.959 51.92-5.463 80.2-2.732 68.38 6.563 136.407 13.255 200.312-7.901 15.441-4.639 30.07-10.738 43.584-18.17 43.313-25.852 81.501-55.319 129.312-72.173 46.752-16.548 109.48-4.534 158.989 5.993 73.998 15.729 149.937 42.872 223.652 66.436 37.481 11.988 100.56 39.314 139.635 28.289 47.977-13.401 106.5 2.577 146.457-33.042 7.96-7.182 15.48-16.861 26.31-26.744 88.63-81.056 229.13-148.504 371.24-146.207 3.24.064 6.64.023 9.82.277 102.73 7.865 215.23 55.327 323.57 40.538 47.92-6.564 53.09-34.842 74.45-63.231 33.75-44.677 64.01-74.739 117.18-103.791 62.23-34.111 140.02-58.456 205.7-90.064 37.36-17.924 82.65-38.889 124.22-46.078 86.24-14.875 168.7 5.245 258.92 24.265m-2867.12 548.04s28.992-18.476 97.939-55.295c35.683-19.074 79.89-50.562 126.047-58.441 26.28-4.269 51.707-3.408 79.783.01 67.658 8.226 135.95 17.128 199.489-4.371 15.531-4.835 30.128-11.289 43.42-19.198 44.102-28.33 82.751-61.709 131.131-81.996 46.139-19.333 104.732-7.923 154.636 3.808 68.984 16.266 140.027 42.47 209.209 63.639 38.441 11.674 98.029 36.492 138.411 26.354 51.933-13.006 110.041 6.925 156.743-24.989 9.374-6.442 18.792-15.305 31.822-24.386 102.65-71.649 237.91-143.815 382.99-143 3.15.017 6.35.077 9.44.207 108.98 5.317 209.11 63.632 321.22 45.237 46.13-7.49 55.46-36.803 75.1-65.76 31.03-45.832 69.59-76.169 121.6-104.883 60.97-33.782 134.48-61.754 199.11-92.663 37.46-17.916 83.29-38.838 125.12-45.538 86.66-13.981 170.91 5.265 260.16 29.056M-354.526 561.93s25.632-23.241 94.568-61.154c34.338-18.87 79.343-46.19 123.808-51.976 26.26-3.058 53.16-2.414 79.484 1.902 67.295 9.682 136.14 20.895 199.585-1.275 15.862-5.171 30.65-12.12 43.93-20.643 44.587-30.09 81.44-69.944 136.862-89.043 50.606-17.334 102.165-13.366 150.817-1.97 62.376 14.566 128.52 44.794 193.907 64.174 38.894 11.554 94.862 34.246 136.268 24.854 55.741-12.624 113.139 10.652 165.818-17.227 10.74-5.669 22.127-13.279 37.649-22.123 109.4-62 246.66-141.2 390.62-141.139 3.05.01 6.15.062 9.09.219 109.28 5.34 207.27 71.811 319.98 50.922 46.01-8.515 55.23-39.479 75.66-68.49 32.05-45.633 73.24-76.893 124.89-106.105 59.39-33.596 128.3-65.687 192.8-95.435 38.27-17.656 84.04-38.543 126.07-44.64 86.98-12.98 173.65 5.445 261.54 34.012m-2867.367 533.87s24.21-30.077 91.199-65.801c33.57-17.876 78.834-42.282 121.866-46.775 26.287-2.595 53.1-1.614 79.306 2.903 67.256 10.774 137.136 24.455 200.544 1.5 16.379-5.534 31.504-13.064 44.853-22.329 44.526-33.025 83.055-72.902 142.31-91.929 50.008-16.014 100.963-15.573 150-6.531 59.321 10.921 120.848 41.64 179.865 61.293 35.952 12.022 92.846 32.364 132.982 24.082 59.149-12.155 115.776 13.99 173.035-9.613 12.111-4.973 26.492-12.462 43.597-20.826 112.67-54.86 253.22-138.878 393.82-140.493 2.9-.041 5.9.004 8.75.114 109.63 5.212 206.82 81.781 320.21 57.86 45.49-9.379 55.44-42.004 76.56-71.077 33.17-45.427 76.15-77.638 127.61-107.49 57.4-33.325 122.83-69.839 186.72-98.189 39.09-17.356 84.85-38.165 127.2-43.964 87.19-11.945 176.72 5.809 262.9 39.125M-363.121 538.924s18.25-36.183 87.783-69.241c39.553-18.844 74.699-38.587 119.862-43.261 26.258-2.728 53.083-1.747 79.257 2.899 67.341 11.562 138.605 27.62 202.226 3.861 17.141-5.88 32.78-14.095 46.239-24.289 42.478-34.479 87.519-73.327 148.203-90.52 48.238-13.835 100.753-16.9 152.008-8.872 54.539 9.171 112.933 34.753 168.896 54.435 46.246 16.246 91.673 32.271 128.323 24.492 58.33-12.378 122.846 11.741 178.825-2.623 13.063-3.333 29.193-11.776 47.64-19.643C1110.09 317.464 1253.2 229 1389.56 225.638c2.83-.204 5.49-.264 8.43-.107 110.37 4.684 207.83 92.533 322.41 65.539 44.89-10.598 55.32-44.905 76.99-74.051 33.79-45.298 78.43-78.433 129.6-109.05 55.73-33.381 118.66-73.73 181.04-100.99 39.06-17.044 85.79-37.659 128.3-42.976 87.35-10.877 180.5 6.619 264.4 44.366M-367.506 526.69s16.977-39.959 84.484-71.694c38.155-17.978 72.835-36.195 118.234-41.359 26.196-3.186 53.081-2.506 79.327 2.006 67.385 11.644 141.232 29.863 204.606 5.498 17.413-6.492 33.188-15.358 46.639-26.211 43.238-35.983 92.119-70.536 154.044-85.401 50.222-12.354 103.709-15.437 156.499-9.021 51.662 6.985 108.844 27.429 160.831 45.737 43.083 15.172 82.838 31.955 124.526 24.579 60.565-10.791 123.416 15.695 180.712 3.313 13.76-2.808 31.146-10.955 50.693-18.421 114.781-43.785 257.771-135.581 389.701-141.955 2.71-.135 5.53-.223 8.23-.163 112.05 2.747 209.49 104.432 325.86 74.064 44.33-11.542 55.49-47.628 77.71-76.809 34.48-45.243 80.16-79.271 130.91-110.704 54.44-33.797 114.14-76.867 175.64-103.649 39.06-16.967 86.64-37.123 129.45-41.908 92.09-9.56 186.63 8.09 265.94 49.65M-371.957 514.02s15.611-42.57 80.837-73.471c36.833-17.458 71.112-34.964 116.796-41.239 26.085-4.031 53.085-3.995 79.53.107 66.935 11.099 143.354 31.01 206.202 6.446 17.228-6.375 33.053-14.822 46.941-25.054 45.813-34.955 97.314-67.188 160.857-80.126 52.864-10.729 108.2-13.19 163.002-7.25 49.988 5.757 105.474 20.944 155.162 37.232 40.814 13.388 76.8 30.534 121.44 23.159 60.198-9.883 123.199 18.414 179.826 8.246 14.279-2.532 32.655-10.131 53.2-17.166 76.664-26.194 151.544-57.809 225.884-88.215 48.69-19.911 101.45-52.435 157.92-55.697 2.67-.177 5.48-.265 8.19-.244 113.36 2.266 212.14 116.761 329.59 83.353 43.47-12.354 55.7-50.269 78.44-79.722 35.15-45.111 81.12-80.093 131.51-112.61 53.35-34.431 109.75-79.876 170.92-106.254 39.27-16.599 87.94-36.16 130.82-40.548 87.7-8.62 188.63 8.247 267.48 55.05m-2869.057 500.86s14.207-44.089 77.396-74.762c35.834-17.265 69.568-34.736 115.643-42.817 26.458-4.646 53.068-6.896 79.686-3.086 65.871 9.646 142.517 31.647 205.955 9.554 17.467-5.678 33.655-13.463 48.014-23.092 48.037-33.839 103.078-66.024 167.444-75.104 55.996-8.584 113.662-10.053 170.891-4.352 51.724 5.949 102.747 16.055 152.283 30.161 39.172 11.146 72.425 27.995 118.509 20.423 57.638-9.266 123.052 20.24 177.827 12.308 14.545-2.16 33.776-9.377 55.076-16 78.363-24.982 154.453-54.005 227.793-86.89 45.97-20.246 94.03-55.685 148.46-59.228a98.7 98.7 0 018.19-.283c114.75 1.556 215.42 128.788 333.3 92.483 42.43-12.985 56.14-53.4 79.17-82.243 35.89-44.974 81.64-80.99 131.52-114.564C1973.13 48.1 2025.73.866 2087.52-25.305c39.34-16.673 88.81-35.895 131.92-39.522 88.04-7.813 192.97 9.453 269.06 60.608M-380.877 487.705s12.664-45.112 73.916-76.175c34.373-17.459 68.111-35.595 114.685-46.216 26.667-6.036 53.185-10.209 79.246-6.209 65.1 10.054 141.196 34.004 205.548 14.642 17.8-4.812 34.451-11.828 49.356-20.796 53.088-34.217 108.092-59.173 173.929-70.637 55.771-9.924 120.583-9.197 179.299-1.178 49.807 6.798 103.071 14.068 152.133 25.263 38.237 8.687 69.036 24.831 116.001 16.705 54.102-9.354 122.016 20.899 174.086 14.783 14.902-1.701 34.597-8.568 56.505-14.79 79.633-22.468 156.003-51.213 228.003-85.818 44.14-21.37 85.39-58.41 139.61-62.477 2.72-.233 5.46-.353 8.2-.361 116.86.982 219.93 138.766 337 101.536 41.01-13.06 56.3-55.967 79.96-84.643 36.46-44.85 81.81-81.992 130.94-116.487 51.77-36.316 100.74-84.856 163.27-110.97 39.46-16.389 89.77-35.036 133.1-38.294 88.59-6.712 197.43 10.905 270.74 65.981M-385.272 474.962s11.063-46.022 70.256-78.422c33.188-18.023 66.967-37.289 113.89-51.048 26.957-7.812 52.182-11.814 77.402-7.764 64.433 10.392 139.843 36.163 205.138 19.769 18.177-4.1 35.307-10.516 50.739-19.004 55.623-32.686 112.796-56.452 179.878-66.879 58.717-9.219 126.337-7.289 187.595 2.184 50.943 7.983 103.318 14.674 154.709 23.201 37.938 6.279 66.801 21.408 114.179 12.416 50.926-9.647 120.744 20.797 170.229 16.234 15.284-1.553 35.467-7.756 57.803-13.788 77.964-20.305 158.314-48.394 225.824-85.054 42.6-23.095 76.57-60.756 131.63-65.46 2.73-.212 5.55-.417 8.16-.442 118.11.221 226 149.726 340.62 110.385 40.03-13.763 56.81-57.998 80.82-87.349 36.69-44.636 81.42-82.649 129.7-118.267 50.94-37.594 97.03-87.069 160.24-113.089 39.7-16.368 90.8-34.289 134.43-37.014 89.04-5.621 201.82 12.546 272.31 71.5m-2870.044 475.14c9.49-32.859 33.261-61.605 67.185-81.247 32.134-19.006 67.355-42.144 112.843-57.034 26.168-8.422 50.632-12.133 75.112-8.064 64.36 10.698 138.58 37.781 204.545 24.725 18.631-3.211 36.329-8.932 52.344-16.922 58.097-31.002 117.528-54.08 185.365-64.094 64.317-8.703 130.632-7.106 195.121 4.7 53.074 9.64 105.973 18.405 160.017 24.525 37.424 4.088 65.848 17.932 113.259 7.925 48.214-10.215 117.911 19.282 166.276 16.427 14.836-.886 35.933-6.82 57.897-12.491 75.39-19.573 158.18-44.886 222.64-84.605 41.41-25.418 68.46-62.07 123.91-67.993 2.69-.311 5.42-.485 8.16-.52 119.8-.698 235.32 160.518 343.71 118.606 38.14-14.774 56.9-59.125 81.76-89.306 36.89-44.737 80.99-83.426 128.14-120.385 50.05-39.23 93.66-89.215 157.99-115.028 39.97-16.035 89.69-31.602 135.75-35.736 89.24-8.068 211.91 18.2 273.95 76.986M-394.23 449.738c9.176-33.309 31.591-63.016 63.973-84.787 33.301-22.51 70.799-48.28 111.462-62.54 24.968-8.791 48.97-12.266 73.023-8.387 65.453 10.551 135.744 39.391 203.086 29.416 19.156-2.346 37.509-7.403 54.203-14.936 60.027-29.284 120.929-52.283 189.716-62.495 66.331-9.561 135.003-7.508 201.316 6.016 54.591 11.598 111.201 25.038 167.727 29.051 37.833 2.674 66.338 14.883 113.548 3.688 46.107-10.932 116.202 17.893 162.771 15.324 14.831-.807 35.857-5.848 57.845-11.204 74.19-18.106 156.54-42.204 216.9-84.282 39.3-27.346 61.84-63.616 118.08-70.219 2.7-.336 5.43-.535 8.17-.597 120.89-1.354 240.63 169.855 346.23 126.469 37.61-15.481 57.76-59.994 83.28-91.061 36.79-44.667 80.5-83.465 125.98-122.278 48.37-41.044 91.63-91.449 156.31-116.765 40.29-15.735 91.07-30.906 136.97-34.426 90.13-6.903 216.08 20.252 275.53 82.429M-398.698 437.301c8.286-34.199 29.488-65.211 60.812-88.949 31.92-24.34 68.643-52.713 109.221-67.761 24.443-8.99 47.76-12.519 71.229-8.727 65.35 10.621 133.612 40.824 201.256 33.844 19.73-1.448 38.82-5.805 56.3-12.853 61.761-27.582 124.03-51.058 193.287-62.21 65.064-10.431 140.368-9.803 205.681 5.584 57.97 13.666 116.109 33.209 177.743 37.357 39.847 2.718 68.295 12.577 115.109.177 44.603-11.833 114.63 16.009 159.86 13.568 14.827-.769 35.715-5.313 57.63-10.362 72.76-16.89 152.59-40.213 209.07-84.166 37.21-28.998 57.01-64.784 113.69-72.016 2.7-.351 5.43-.551 8.17-.597 120.41-2.096 238.56 176.686 347.6 133.341 39.41-15.767 59.44-60.719 84.94-91.515 36.89-44.581 80.88-85.115 124.09-124.423 45.54-41.465 90.51-93.57 155.39-118.284 40.62-15.475 91.9-30.214 138.21-33.194 91.12-5.768 220.23 22.422 277.15 87.915M-403.223 424.939c7.771-35.365 27.79-67.957 57.832-94.152 29.468-25.669 66.514-56.244 106.999-71.964 23.77-9.2 46.842-12.749 69.63-9.051 65.111 10.524 131.34 42.167 198.765 37.905 20.028-.667 39.563-4.413 57.534-11.034 63.397-25.887 126.961-50.785 196.124-63.234 69.164-12.449 141.54-12.758 207.113 2.455 59.342 13.736 123.551 44.162 190.044 49.715 42.499 3.399 71.83 11.452 118.306-2.264 43.749-12.84 113.272 13.906 157.864 11.453 14.827-.768 34.886-5.418 57.202-9.966 73.31-15.01 147.7-39.275 199.71-84.093 35.16-30.336 54.48-65.69 110.99-73.21 2.7-.358 5.43-.583 8.17-.675 123.68-2.89 236.76 181.937 348.98 139.51 40.6-15.281 61.39-61.072 87.07-92.399 36.59-44.566 79.9-85.742 121.03-126.075 43.5-42.959 89.95-95.765 155.38-119.927 40.98-15.172 94.32-30.998 139.47-31.843 92.03-1.746 221.2 20.742 278.7 93.237M-407.694 412.542c5.55-39.231 27.607-69.481 54.834-99.747 25.391-28.224 64.403-59.384 104.491-75.683 23.3-9.472 46.173-12.998 68.527-9.412 64.684 10.333 129.772 43.918 196.1 41.679 19.743-.688 41.566-2.774 59.027-9.39 64.172-24.497 128.057-49.72 197.617-65.89 70.917-16.53 142.651-21.112 208.041-4.234 61.874 15.933 129.883 57.295 201.398 66.533 46.039 5.91 76.961 11.901 123.274-2.844 56.427-18.12 98.966 18.625 157.115 9.126 14.413-2.365 34.911-5.729 56.71-10.005 73.46-14.49 138.71-38.275 188.21-84.193 33.65-31.276 54.54-66.623 110.12-74.686 2.67-.404 5.39-.657 8.13-.757 126.89-3.728 234.98 186.876 350.21 145.551 41.45-14.823 63.19-61.398 89.07-93.296 36.15-44.562 77.97-86.208 117.54-127.41 42.21-44.116 89.76-97.147 155.74-120.835 41.4-14.865 95.34-30.173 140.75-30.606 93.2-.873 225.18 22.817 280.16 98.473M-412.212 400.102c4.491-40.762 25.592-73.824 51.984-105.955 23.67-28.869 61.994-61.883 101.979-78.738 22.97-9.654 45.699-13.231 67.619-9.758 64.403 10.155 127.478 44.907 193.244 45.398 20.544.558 40.862-2.219 59.716-8.162 65.848-23.307 131.31-50.398 200.46-71.291 71.523-21.641 143.255-29.898 208.51-11.936 64.347 17.616 134.008 70.954 208.499 85.433 50.842 9.852 83.937 14.531 129.75-1.349 56.688-19.544 99.754 16.774 157.882 6.921 14.269-2.416 34.129-5.83 56.049-10.293 73.28-14.738 130.64-37.083 177.23-83.586 32.1-32.221 54.64-67.865 109.46-76.34 2.68-.425 5.4-.704 8.14-.835 129.86-4.584 233.24 190.841 351.29 151.148 42.49-14.27 64.95-61.843 90.81-94.172 35.65-44.485 75.54-86.56 114.02-128.903 41.5-45.659 89.83-98.628 156.71-121.892 41.87-14.515 96.4-29.229 142.08-29.288 94.42-.266 229.04 24.847 281.56 103.59M-416.674 387.589c3.399-42.491 23.635-78.281 49.201-112.393 22.048-29.508 59.61-64.067 99.482-81.361 22.842-9.9 45.376-13.491 67.07-10.271 64.226 9.906 125.483 45.842 190.94 48.966 20.623 1.227 41.168-1.131 60.206-6.911 68.468-22.824 136.014-53.813 204.372-79.578 70.49-26.571 139.642-37.027 208.288-19.615 72.361 18.335 134.045 79.713 210.177 104.447 40.2 13.066 98.525 16.754 138.438 3.255 59.355-20.269 104.903 15.778 160.397 5.011 13.857-2.8 33.703-5.982 55.273-10.511 72.04-15.111 122.67-37.095 166.7-83.646 31.23-32.916 54.44-68.898 109.57-77.661 2.68-.46 5.4-.752 8.15-.873 132.49-5.469 231.62 194.425 352.21 156.264 81.96-26.044 148.09-162.921 202.77-225.077 40.95-46.758 90.09-99.936 157.91-122.695 42.33-14.204 97.46-28.323 143.35-28.014 95.73.698 232.73 26.784 282.93 108.625M-421.131 374.997c3.258-42.101 19.172-82.595 46.408-118.088 23.298-29.759 57.363-66.749 97.263-84.392 22.812-10.137 45.398-13.763 66.847-10.563 64.202 9.592 123.747 46.641 188.656 52.302 20.565 1.88 41.215-.167 60.23-5.971 71.992-23.207 141.214-62.232 209.013-90.23 62.348-25.698 134.871-49.995 207.3-26.964 80.059 25.478 136.883 91.627 209.155 120.313 43.838 17.422 95.982 30.7 146.661 12.434 59.849-21.52 108.627 15.372 165.231 4.264 13.662-2.816 33.127-6.184 54.317-10.861 70.53-15.897 115.32-38.113 157.04-84.067 30.44-33.488 54.37-69.92 109.03-78.877 2.66-.474 5.36-.78 8.1-.916 134.91-6.252 230.29 197.524 352.97 160.898 83.44-24.831 147.64-164.09 201.34-226.872 40.62-47.566 90.47-101 159.23-123.214 42.8-13.855 98.46-27.306 144.58-26.744 97.15 1.36 236.27 28.67 284.23 113.341m-2872.047 411.5c2.272-43.711 17.142-86.052 43.465-123.757 21.78-30.468 55.45-69.287 95.583-87.38 22.922-10.284 45.756-13.93 66.973-10.904 64.245 9.047 122.406 47.393 186.726 55.508 20.418 2.638 41.149.952 60.093-4.887 76.057-24.172 144.863-70.305 213.85-102.703 60.246-28.329 132.85-56.724 205.769-33.654 83.282 26.4 137.712 95.407 207.96 133.391 42.462 22.94 97.792 44.995 151.724 24.839 60.03-22.561 113.568 16.354 171.931 4.175 13.516-2.828 32.493-6.275 53.283-11.375 68.49-16.372 108.58-39.472 148.54-84.316 30.12-33.826 53.92-70.464 108.71-79.88 2.67-.468 5.37-.787 8.1-.955 132.28-7.05 229.84 203.233 353.48 165.082 86.95-26.896 146.14-165.696 199.74-228.485 40.53-47.574 91.09-101.889 160.69-123.567 43.31-13.462 99.51-26.322 145.85-25.391 98.67 1.99 239.63 30.384 285.39 117.89M-430.018 349.504c1.374-45.17 15.159-89.189 40.387-128.967 20.345-31.599 53.882-71.836 94.379-90.174 23.136-10.501 46.266-14.163 67.444-11.257 64.508 8.834 121.516 48.065 185.297 58.6 20.265 3.483 41.146 2.262 60.132-3.517 79.243-25.245 148.734-81.174 218.099-117.06 58.331-30.24 130.512-61.954 203.807-39.283 85.401 26.375 139.784 98.426 205.881 143.388 38.649 26.309 96.471 59.664 152.803 39.036 61.764-22.696 120.382 19.166 181.635 5.928 13.467-2.832 32.024-6.508 52.204-11.46 65.83-16.938 103-41.64 141.22-85.137 30.05-34.067 53.57-70.961 108.44-80.684 2.67-.462 5.37-.793 8.1-.994 134.79-7.708 228.14 205.365 353.63 168.691 88.75-25.893 145.11-166.95 198.48-229.837 40.42-47.582 91.87-102.608 162.17-123.644 43.87-13.104 98.72-23.883 147.17-24.074 102.95-.482 245.35 35.728 286.42 122.194m-2872.13 395.35c.466-46.661 13.141-92.374 37.216-134.225 19.059-32.757 52.802-74.345 93.679-93.122 23.5-10.746 46.826-14.392 68.362-11.653 65.679 8.341 121.442 48.372 184.548 61.198 20.293 4.627 41.713 3.579 60.629-2.969 81.542-29.987 148.398-90.504 221.023-130.234 57.645-31.507 127.878-65.33 201.397-43.619 86.552 25.529 142.535 98.49 203.831 149.947 37.957 31.883 91.08 72.915 152.534 53.478 65.631-20.589 126.684 24.673 190.638 10.283 13.369-2.84 31.553-6.819 51.173-12.09 113.77-30.497 136.47-147.59 244.04-167.012 2.65-.482 5.34-.815 8.06-.998 137.7-8.53 225.91 206.164 353.77 171.79 88.73-23.822 144.87-168.22 197.34-230.983 40.29-48.336 92.46-103.148 163.83-123.511 44.38-12.673 99.72-22.788 148.44-22.721 104.73.167 248.04 37.232 287.38 126.296M-438.826 323.627c-2.53-48.985 13.443-94.849 34.06-139.09 16.29-35.049 51.623-76.824 93.457-95.875 20.656-9.92 44.969-14.256 69.454-12.387 67.621 5.604 122.82 46.528 185.217 61.447 20.325 5.305 42.13 4.398 61.087-2.541 83.07-31.859 149.482-99.135 222.278-141 56.237-32.363 124.979-66.618 198.561-46.31 87.404 24.112 144.774 97.575 201.795 152.638 35.142 33.848 87.332 87.156 152.356 68.005 68.159-20.191 127.761 31.522 197.995 16.774 13.808-2.805 31.076-7.013 50.216-12.479 110.83-31.827 133.92-148.85 240.12-168.42a73.43 73.43 0 018.11-1.072c140.19-8.84 223.89 206.275 353.47 174.463 88.31-21.706 144.93-169.037 196.47-231.874 40.19-49.047 93.33-103.547 165.53-123.219 44.93-12.237 100.66-21.579 149.85-21.24 106.79.724 250.69 38.5 288.11 130.029M-443.3 310.643c-3.464-50.232 11.414-97.786 31.184-143.736 15.343-36.142 50.638-79.287 93.628-98.638 21.077-10.001 45.496-14.946 70.441-14.262 69.172 2.21 124.914 43.725 186.768 60.516 10.018 2.921 20.598 4.223 31.108 3.828 10.51-.395 20.733-2.48 30.058-6.128 83.9-33.63 149.291-105.365 222.704-148.784C277.819-69.24 344.423-101.984 418.05-83.47c88.729 22.302 145.573 93.73 199.889 151.234 33.535 35.478 84.453 98.535 152.03 81.933 71.294-17.555 127.36 41.458 203.22 25.284a576.625 576.625 0 0049.061-12.845c107.9-33.313 133.18-150.042 238.24-169.431 2.66-.493 5.37-.838 8.1-1.033 142-9.242 222.14 205.94 352.94 176.766 87.51-19.699 145.2-169.915 195.78-232.515 40.21-49.75 94.39-103.776 167.32-122.725 45.24-11.783 101.83-20.312 151.25-19.682 108.17 1.42 253.02 39.547 288.67 133.436M-447.724 297.664c-3.6-50.788 5.845-101.244 27.756-148.272 17.384-37.033 45.157-79.06 93.775-101.088 21.777-10.409 46.614-16.326 72.352-17.236 70.528-1.2 127.601 39.678 189.04 58.586 9.991 3.197 20.651 4.665 31.254 4.306 10.603-.36 20.9-2.538 30.19-6.388C80.882 52.758 144.553-22.086 218.251-65.99c54.568-32.418 118.519-61.545 192.03-45.268 90.053 19.906 145.995 86.61 198.524 145.536 33.016 37.038 86.857 109.711 151.741 94.77 67.596-15.624 126.349 52.868 206.239 35.531 13.925-3.029 30.117-7.324 48.174-12.837C1123.31 118.27 1148.13.566 1253.49-18.878c2.66-.505 5.37-.863 8.11-1.071 143.49-9.397 220.96 205.298 352.13 178.225 86.42-17.753 146.02-170.904 195.42-232.896 40-50.235 95.43-103.887 169.28-122.02 49.15-12.182 100.62-18.28 152.64-18.085 109.79 2.136 255.13 40.302 289.32 136.497M-452.104 284.727c-8.223-88.568 19.823-207.226 118.447-256.33C-205.49-35.62-107.203 102.876-5.78 61.853c130.886-53.09 225.525-227.126 407.528-196.269 88.094 14.863 145.104 76.219 194.889 131.915 33.981 37.898 82.282 120.134 154.556 109.419 49.36-7.31 69.6 21.476 110.231 37.156 50.033 19.363 95.675 15.47 145.656-2.032 103.02-35.813 136.58-155.71 239.55-172.375 146.63-23.452 220.89 203.105 359.12 178.238 74.91-13.553 114.75-127.047 152.01-177.54 52.14-70.333 112.99-154.236 214.48-176.374 135.55-29.614 394.61-26.836 443.53 122.838" stroke="url(#paint0_linear_6_312)" stroke-width=".5" stroke-miterlimit="10"/><defs><linearGradient id="paint0_linear_6_312" x1="2122.52" y1="-80.771" x2="293.872" y2="456.197" gradientUnits="userSpaceOnUse"><stop offset=".683" stop-color="#FD6721"/><stop offset=".821" stop-color="#FD6721" stop-opacity="0"/></linearGradient></defs></svg>