<svg width="1920" height="1212" fill="none" xmlns="http://www.w3.org/2000/svg"><path opacity=".34" d="M2406.78 1148.55c-52.14 38.61-121.43 53.45-186.55 60.26-131.16 13.62-143.37-131.05-239.73-138.35-85.22-6.48-140.97-24.69-186.39-84.926-76.42-101.303-201.7-44.963-279.85 21.016-120.62 101.82-248.04 240.26-443.88 196.66-145.623-32.44-237.255-95.04-299.144-206.694-26.231-47.349-54.49-100.985-66.637-152.549-11.766-49.874 6.016-126.62-56.417-154.618-130.946-58.753-314.005 40.75-453.164 10.994-98.84-21.021-138.33-57.537-99.121-143.932C149.34 438.779-35.33 407.386-139.19 390.05c-90.098-15.113-232.585 24.896-307.194-28.551M2411.53 1132.34c-51.66 37.12-120.29 51.6-183.39 57.19-72.81 6.49-124.66-46-159.13-91.79-23.35-31.09-48.29-59.19-77.46-59.59-90.96-1.21-135.7-22.22-185.94-79.256-14.3-16.29-29.9-29.896-46.84-38-85.53-41.004-170.04 10.004-230.96 57.561-64.84 50.885-129.04 120.195-204.85 163.005-81.9 46.23-158.65 60.81-253.86 45.75-58.37-9.21-124.685-29.11-167.521-60.09-52.255-37.95-90.711-88-123.634-140.873-6.614-10.69-12.525-22.452-18.294-34.264-22.791-46.804-38.591-89.28-46.157-139.569-7.242-48.086 6.529-102.973-44.792-135.416a44.672 44.672 0 00-6.326-3.403c-132.335-57.665-317.456 45.599-457.823 17.972-102.249-19.966-131.934-57.579-93.658-143.939 27.747-62.924-19.42-99.413-79.647-123.209-49.449-19.498-111.593-30.945-169.01-39.916-88.871-13.922-230.33 22.331-304.509-27.594M2416.3 1115.66c-51.32 35.18-119.2 48.03-180.13 51.73-73.47 4.47-122.98-55.09-156.91-101.47-23.37-31.94-48.1-59.32-76.99-59.82-87.38-1.5-132.42-19.431-186.03-71.822-13.07-13.411-29.68-24.342-48.73-32.064-87.56-33.181-161.55 3.539-226.52 50.287-69.81 50.189-137.75 117.069-212.34 162.319-80.56 48.81-163.21 70.71-260.91 56.63-56.21-8.09-120.366-28.05-161.506-59.36-50.1-38.09-89.524-84.85-121.94-135.693-6.696-10.488-12.699-22.164-18.562-33.93-24.815-49.339-35.405-90.043-39.979-143.541-4.211-48.954 9.487-104.774-43.461-137.244a48.624 48.624 0 00-6.424-3.395c-134.442-56.323-321.206 51.02-462.06 24.683-104.927-19.595-123.559-58.093-88.416-144.241 26.454-64.931-30.371-98.498-91.853-120.747-50.94-18.441-112.49-29.857-170.174-39.081-87.997-14.069-227.528 21.052-301.533-26.698M2421.07 1098.94c-48.79 31.26-118.22 44.94-176.65 44.22-76.31-.89-120.82-62.57-154.93-109.33-23.49-32.17-48.21-58.176-76.85-58.738-76.21-1.411-136.65-17.488-186.68-62.661-14.23-11.875-31.64-21.058-51.03-26.916-86.59-29.153-154.76-1.459-221.55 43.988-71.94 48.947-142.47 112.287-217.16 158.087-82.81 50.76-169.22 80.53-268.52 67.92-57.98-7.64-111.59-27.97-154.917-58.76-50.07-36.99-91.24-80.96-121.623-129.893-6.611-10.65-12.834-21.997-18.935-33.665-27.267-52.309-31.224-91.316-32.8-147.946-1.36-49.613 11.196-106.162-43.591-138.25a52.68 52.68 0 00-6.473-3.391c-136.632-54.78-325.274 56.154-465.736 31.035-105.953-18.887-114.496-59.247-83.458-144.402 24.196-66.705-42.224-97.159-104.581-118.048-52.18-17.326-113.165-29.061-170.819-38.522-87.128-14.295-224.469 19.908-298.362-25.818M2425.89 1081.7c-48.77 28.33-117.49 38.64-173.14 35.19-75.43-4.63-118.31-68.71-153.25-115.44-23.65-31.688-48.46-55.776-76.96-56.389-73.93-1.279-132.97-14.577-187.94-52.005-16.27-10.228-34.58-18.276-54.23-23.846-85.75-26.015-151.21-5.769-217.47 38.502-70.78 47.329-144.05 106.628-217.95 151.818-85.27 52.05-180.96 91.95-276.07 78.8-55.44-8.22-106.726-27.84-148.859-56.93-49.907-35.22-91.329-77.38-122.378-124.56-6.696-10.487-12.913-21.756-19.277-33.638-28.855-53.081-29.155-93.748-24.895-152.487 3.383-46.317 10.458-109.855-44.952-138.649a72.481 72.481 0 00-6.717-3.371c-138.718-53.167-328.631 60.956-468.715 36.863-106.05-18.255-105.205-60.616-78.79-144.503 21.355-67.767-55.107-95.776-117.49-115.139-53.093-16.432-113.482-28.097-171.255-37.822-86.261-14.521-221.261 18.792-295.047-24.989M2430.68 1064.67c-48.87 25.29-116.65 31.33-169.5 25.28-73.84-8.79-115.39-73.44-151.84-119.935-23.89-30.454-49.1-52.048-77.33-52.448-71.38-.702-131.86-9.31-190.6-41.473-17.63-9.117-36.72-16.389-56.8-21.646-84.29-23.709-148.16-9.962-213.93 32.98-69.42 45.266-142.04 100.913-215.26 144.882-87.63 52.62-187.48 99.62-282.63 88.35-47.81-5.67-102.178-25.79-145.249-53.54-50.916-32.82-92.814-73.57-123.286-119.916-6.787-10.402-13.026-21.943-19.668-33.607-46.627-80.82 44.118-243.455-63.94-295.439-2.3-1.067-4.662-2.285-7.011-3.348-141.065-52.354-326.35 66.09-469.724 41.478-108.691-18.669-96.873-61.673-75.757-144.12 17.277-67.676-68.717-93.632-130.94-111.601-55.852-15.427-113.03-27.932-171.174-37.437-85.35-14.829-217.808 17.655-291.491-24.218m2860.89 708.918c-49.14 21.95-115.68 23.21-165.8 14.36-71.99-12.7-112-76.572-150.69-122.143-24.29-28.625-49.84-47.181-78.04-47.231-68.92-.155-134.58-4.442-194-32.289-18.81-8.101-38.57-14.789-59.03-19.983-81.97-22.995-146.84-12.491-211.29 27.219-67.17 41.373-137.67 95.95-209.5 138.167-80.71 47.46-191.47 110.06-287.65 95.71-48.22-7.17-101.637-22.71-144.179-48.16-51.656-30.9-94.142-70.373-124.684-115.851-6.882-10.355-13.112-22.404-20.011-33.579-50.433-81.649 63.063-245.361-58.864-299.05-2.346-1.024-4.851-2.192-7.331-3.049-144.055-50.356-322.57 55.507-469.444 45.599-113.571-7.685-85.251-81.287-73.763-143.81 12.697-67.701-82-91.71-143.946-108.685-55.932-14.758-112.895-27.163-170.661-37.165-84.589-15.163-214.307 16.515-287.886-23.451M2440.22 1031.27c-53.38 18.1-112.81 12.93-162.16 3.31-67.27-13.38-107.96-78.493-149.82-122.481-24.78-26.045-50.78-40.969-79.1-40.581-69.23.808-136.03.053-197.84-25.024-19.61-7.348-39.84-13.655-60.57-18.882-80.02-22.056-145.27-16.916-209.31 21.119-64.99 38.541-133.04 91.711-202.16 132.106-81.31 47.353-192.11 111.253-290.19 100.923-48.85-5.2-102.763-17.11-146.04-41.29-52.253-29.31-95.279-67.716-125.988-112.465-7.026-10.305-13.46-21.83-20.451-33.544-49.849-83.572 77.622-249.184-54.652-301.772-2.44-.977-5.092-2.134-7.67-2.983-146.246-47.6-321.147 56.683-467.978 49.157-113.67-5.841-79.034-84.169-72.572-143.671 7.297-66.917-94.551-89.26-156.976-105.454-54.483-14.131-112.755-26.396-169.759-36.964-83.831-15.536-210.41 15.383-284.231-22.688M2444.92 1014.94c-53.57 13.98-111.26 4.64-158.36-7.58-65.59-17.035-102.94-79.169-149.22-120.576-25.45-22.786-51.53-33.13-80.02-32.376-69.49 1.884-138.86 2.194-202.17-20.73-20.22-7.19-41.03-13.358-62.31-18.469-80.31-19.493-140.59-23.623-208.16 14.655-63.04 35.727-128.77 87.773-195.24 126.824-82.32 48.332-190.26 110.402-289.57 105.672-49.41-2.38-104.256-11.2-148.664-34.74-53.004-27.86-96.723-65.371-127.727-109.59-7.785-10.815-14.76-22.003-20.891-33.509-40.944-81.156 87.969-253.959-51.447-303.552-2.633-.923-5.38-2.032-8.102-2.831-147.617-44.442-319.507 57.49-465.14 52.018-112.405-4.183-73.842-87.556-72.418-143.605 1.601-64.898-106.213-86.139-169.588-101.904-54.587-13.576-112.003-26.222-168.478-36.95-83.23-16.014-206.85 14.356-280.526-21.889M2449.58 999.364c-53.83 9.426-109.16-3.582-154.72-18.076-63.63-20.279-96.79-79.152-148.78-116.194-26.36-18.843-52.24-24.903-81.11-24.04-70.21 2.136-141.81 3.015-206.49-18.665-19.88-6.658-42.13-12.853-63.49-18.376-78.43-20.033-140.82-27.825-207.62 7.772-61.36 32.817-125.31 84.292-189.03 122.105-88.19 52.436-189.03 106.08-287.37 110.39-47.72 2.09-105.44-5.8-151.471-28.66-53.762-26.642-98.226-63.422-129.656-107.246-8.454-10.692-15.148-22.238-19.926-34.367-27.179-83.822 95.537-257.809-51.026-303.821-2.727-.876-5.611-1.857-8.379-2.613-149.522-39.326-316.181 57.849-461.078 54.194-111.361-2.82-69.356-91.158-73.434-143.993-4.883-61.057-116.896-83.095-181.416-98.417-54.687-12.981-110.994-25.911-166.862-37.04-82.625-16.453-202.938 13.418-276.801-20.858M2454.27 984.252c-53.74 4.924-106.93-11.422-151.06-27.866-60.18-22.549-91.06-79.377-148.4-108.954-24.23-12.556-53.16-18.46-82.56-16.85-71.05 2.047-144.72 2.819-210.5-18.344-20.21-6.553-42.72-12.883-64.25-18.744-76.85-21.215-141.16-32.568-207.76.512-60.03 29.779-122.3 80.689-183.66 117.845-87.19 52.668-185.49 106.069-283.75 115.059-48.87 4.38-106.54-.43-154.402-22.83-54.614-25.538-99.92-61.709-131.861-105.272-8.224-10.905-13.827-22.988-16.534-35.655-15.687-84.741 101.724-261.666-53.659-301.656-2.816-.752-5.837-1.605-8.794-2.267-151.334-34.294-311.845 56.682-456.1 54.89-110.263-1.383-66.575-93.921-75.529-144.333-10.75-59.337-126.72-79.769-192.317-95.005-54.414-12.651-110.02-25.442-164.907-37.235-85.434-18.339-195.004 12.314-273.254-20.204M2458.88 969.812c-53.33.356-104.5-18.497-147.59-36.627-55.77-23.488-89.85-77.323-148.09-99.598-26.55-10.189-54.27-12.115-83.94-11.384-72.01 1.851-147.51 1.792-214.23-19.491-20.66-6.635-43.1-13.244-64.78-19.719-65.04-19.346-142.21-43.35-208.26-7.03-61.77 33.905-120.08 77.149-179.31 113.822-85.96 53.195-181.5 106.688-279.15 119.575-49.77 6.6-107.9 4.73-156.734-17.48-54.747-24.82-104.69-59.719-133.854-103.746-6.913-11.629-10.758-24.337-11.307-37.363-6.565-85.158 102.578-263.923-59.894-297.17-3.003-.62-6.168-1.422-9.266-1.995-151.954-29.124-307.056 55.009-449.935 54.436-108.316-.444-64.023-97.721-78.531-144.953-17.35-56.932-134.537-75.977-202.623-91.561-53.9-12.38-108.498-25.486-162.521-37.543-84.838-18.896-191.288 11.391-269.78-19.231M2463.39 956.082c-52.51-3.617-101.84-24.65-144.1-44.137-51.87-23.878-89.41-71.768-147.98-88.935-27.41-8.048-55.04-7.598-85.12-7.068-73.04 1.268-150.34.298-217.54-22.041-20.88-6.891-43.29-13.971-65.03-21.067-64.74-21.245-141.61-47.541-208.89-14.837-61.59 29.943-118.78 73.567-176.22 109.94-84.69 53.68-177.25 107.481-273.91 124.125-50.01 8.608-109.03 9.738-158.921-12.189-54.223-23.807-110.747-57.906-133.502-103.031-5.207-10.333-6.65-24.681-6.579-38.563.453-88.494 101.412-262.5-69.296-291.023-3.091-.496-6.397-1.209-9.638-1.731-151.266-24.215-301.878 52.679-442.86 53.05-106.387.3-62.336-102.469-82.148-145.876-24.488-53.86-140.279-71.453-212.093-88.107-53.408-12.38-106.78-25.545-159.999-38.018-84.454-19.63-187.575 10.429-266.45-18.208M2467.86 943.099c-51.37-7.266-99.52-29.565-140.78-50.109-47.56-23.558-90.26-65.056-147.8-77.419-27.84-6.02-55.75-4.727-86.14-4.484-73.78.624-153-2.109-220.39-25.645-20.96-7.352-43.33-15.023-64.93-22.872-64.58-23.487-140.19-51.955-209.36-22.617-61.89 26.214-118.51 69.714-174.62 105.981-83.48 54.013-172.93 108.582-268.39 128.569-49.67 10.422-110.5 14.74-160.811-6.917-52.4-22.545-114.799-54.415-130.442-102.924a111.712 111.712 0 01-2.78-39.687c6.208-93.45 97.067-258.361-81.676-282.724-3.234-.445-6.632-1.072-9.964-1.509-149.228-19.649-296.535 49.946-435.003 50.975-104.43.769-62.029-106.012-87.182-146.646-31.885-51.588-145.495-67.752-220.03-85.205-52.412-12.225-104.88-25.775-157.065-38.253-84.116-20.321-184.006 9.518-263.355-17.048M2472.26 931.02c-50.05-10.42-95.71-33.583-137.64-54.503-46.15-23.124-91.17-57.439-147.5-66.38-28.27-4.463-56.26-3.045-86.83-3.102-74.67-.125-155.45-4.609-222.76-30.106-21.01-7.974-43.24-16.32-64.65-25.005-64.01-26.151-137.41-56.516-209.13-30.18-63.08 23.026-119.28 65.594-174.51 101.868-82.62 54.297-168.99 109.909-263.02 132.948-48.95 12.006-111.97 19.705-162.56-1.657-51.606-21.905-115.701-50.981-124.941-103.129-1.751-13.442-1.7-27.047.15-40.586 10.755-99.364 88.065-252.755-96.689-273.51-3.277-.363-6.815-.901-10.19-1.257-146.349-15.657-291.064 46.968-426.401 48.372-102.544.97-62.366-108.369-93.382-147.244-39.724-49.906-149.927-64.701-226.539-82.887-51.277-12.198-102.694-26.145-153.92-38.934-83.872-20.967-180.623 8.74-260.544-15.748M2476.58 919.769c-48.03-12.849-92.4-35.842-134.67-56.07-46.05-21.998-91.53-50.844-147.05-57.622-28.62-3.378-56.5-2.438-87.22-2.6-75.43-.925-157.74-7.241-224.3-35.182-20.88-8.727-42.97-17.827-64.01-27.441-63.24-28.832-132.85-61.024-208.25-37.599-65.38 20.083-121.57 61.008-176.55 97.301-81.74 54.227-165.57 111.317-258.2 137.214-48.14 13.428-113.16 24.491-163.76 3.6-52.337-21.808-112.111-49.158-116.949-103.496a201.863 201.863 0 012.149-40.824c14.046-105.607 74.77-246.063-114.075-263.207-3.421-.312-7.001-.769-10.419-1.043-142.567-12.05-285.541 44.025-417.378 45.501-100.957 1.116-62.914-109.694-100.398-147.583-48.153-48.214-153.402-61.999-231.565-81.116-50.195-12.207-100.564-26.589-150.818-39.534-83.727-21.604-177.387 7.972-258.017-14.309m2865.79 613.229c-46.25-14.516-89.53-36.267-131.89-55.707-45.72-20.968-92.18-44.888-146.45-50.828-28.7-3.099-56.48-2.753-87.3-3.494-76.08-1.732-159.77-9.892-225.62-40.587-20.45-9.622-42.52-19.623-63.14-30.13-68.92-35.179-128.11-55.266-204.88-42.833-64.62 10.524-125.91 55.258-180.37 91.314-80.73 53.364-162.95 112.749-254.46 141.527-47.44 14.818-114.2 28.131-165.01 8.821-51.678-19.633-105.741-51.271-107.33-103.132a260.57 260.57 0 013.604-41.097c15.677-111.679 56.68-238.401-133.613-252.106-3.467-.27-7.041-.649-10.554-.876-138.52-8.856-279.907 41.228-408.018 42.523-99.636 1.012-63.001-110.781-108.157-147.978-56.27-46.314-156.132-59.826-235.448-79.828-48.744-12.519-97.994-27.068-146.898-40.356-83.681-22.272-174.538 7.276-255.969-12.713M2485.17 898.561c-44.59-15.353-86.56-36.075-129.19-54.085-45.18-19.058-93.98-40.25-145.75-45.725-28.35-3.01-56.3-4.136-87.09-5.152-76.63-2.47-161.44-12.3-225.94-45.878-20.54-10.593-42.44-21.662-61.7-32.942-61.93-35.856-126.71-50.727-198.26-43.754-68.37 6.681-132.57 45.158-187.94 80.858-80.23 51.759-159 109.344-251.81 145.223-49.41 19.158-114.01 33.628-166.22 14.038-52.211-19.59-95.672-53.444-95.64-102.268.023-11.416 2.131-26.282 4.112-40.903 15.783-117.121 34.167-230.033-154.786-240.524-3.51-.188-7.179-.52-10.685-.67-134.232-6.306-274.105 38.693-398.451 39.687-98.774.708-62.675-111.628-116.313-148.42-64.674-44.314-157.835-57.736-238.138-78.988-47.72-12.64-95.374-27.552-143.345-40.875-83.783-22.928-172.033 6.607-254.351-10.927M2489.36 888.727c-43.03-16.103-84.45-35.5-126.47-51.958-45.72-17.802-94.11-35.744-144.86-42.551a925.056 925.056 0 00-86.66-7.922c-77.05-3.259-162.83-14.339-225.57-51.068-19.7-11.754-41.06-22.241-59.22-32.046-59.66-32.792-120.72-46.632-190.21-43.42-69.48 3.212-138.46 36.208-195.71 68.658-82.32 46.454-161.04 108.413-252.58 146.576-47.2 19.723-116.06 40.006-164.6 18.95-45.879-19.784-86.145-53.698-85.62-100.06.135-11.229 2.201-26.014 3.803-40.448 5.718-51.586 30.681-116.085-3.245-163.64-32.731-46.164-111.358-62.469-174.27-65.059-3.506-.15-7.266-.397-10.718-.472-127.871-2.477-265.972 35.149-388.883 36.849-85.644 1.182-83.99-117.819-124.778-149.033-56.156-43.04-157.721-56.298-239.63-78.555-47.04-12.772-92.593-28.478-139.464-41.576-83.979-23.538-170.016 5.976-253.25-8.866M2493.57 879.244c-41.51-16.225-81.53-34.679-123.86-49.548-46.7-16.435-94.32-32.209-143.83-41.422-28.13-5.925-56.92-9.951-86.07-12.035-78.28-3.981-161.26-18.1-224.14-54.191-18.68-10.741-39.15-19.384-56.4-28.285-53.12-27.843-115.11-46.612-180.82-43.584-72.72 3.432-139.96 27.924-199.5 57.077-85.92 42.052-170.76 108.018-259.22 143.589-41.15 16.62-113.81 44.674-157.27 23.758-40.6-19.542-80.893-51.381-80.929-96.135.011-10.946 1.747-25.547 2.823-39.783 3.853-51.515 22.416-113-17.534-157.689-38.676-42.953-119.859-57.372-183.1-59.155-3.553-.107-7.261-.318-10.758-.351-123.693-.7-260.132 33.705-379.373 34.525-44.52.278-58.931-21.124-74.344-47.683-23.342-40.154-15.587-71.81-58.964-102.153-59.538-41.636-158.312-55.078-240.07-78.52-45.687-13.076-89.745-29.175-135.347-42.414-84.011-24.551-168.809 5.684-252.911-6.469M2497.7 870.001s-34.46-18-121.16-47.261c-45.53-15.395-95.09-30.077-142.63-42.34-28.3-7.313-55.84-16.367-85.45-17.87-76.85-3.938-156.5-18.362-221.48-51.081-18.26-9.172-37.38-16.906-53.38-24.891-51.27-25.685-108.96-44.837-171.79-43.916-71.87 1.019-138.88 20.489-199.72 46.229-88.5 37.451-176.05 99.216-264.13 136.359-38.09 16.024-111.13 47.508-150.33 28.05-37.56-18.533-79.69-46.826-81.07-90.456-.35-10.565.86-24.968 1.13-38.827 2.48-125.282-53.097-202.337-224.854-205.212-3.595-.025-7.301-.198-10.795-.192-119.635.812-254.19 32.917-370.125 32.613-44.992-.076-57.703-22.395-73.991-48.806-25.229-40.98-21.249-71.827-67.872-102.144-61.731-40.132-158.718-54.616-239.286-78.583-44.123-13.201-87.382-30.38-131.443-43.43-82.984-24.633-168.204 5.245-253.124-3.598M2501.86 861.03s-32.09-18.463-118.5-45.247c-46.93-14.5-95.11-29.175-141.45-45.482-28.21-10.017-55.48-22.925-84.74-24.493-74.15-3.998-153.01-12.701-217.97-42.216-17.52-7.98-35.65-14.934-51-22.228-49.16-23.821-102.49-43.908-162.42-44.861-70.02-1.083-136.07 14.363-197.05 36.556-89.96 32.759-179.35 87.988-266.22 126.832-35.45 15.852-105.1 50.154-146.04 31.226-48.98-22.82-73.15-40.157-85.43-83.424-2.61-9.328-.5-24.194-1.24-37.66-6.19-124.237-85.048-193.254-248.644-194.397-3.595-.026-7.294-.121-10.736-.08-115.836 2.151-248.385 32.883-361.267 31.358-45.43-.628-56.639-23.849-73.7-50.081-27.104-41.65-27.206-71.858-76.483-102.119-63.3-38.834-158.174-54.582-237.674-79.338C-21.609 302-63.05 283.542-106.589 270.881c-83.638-24.191-167.887 4.906-253.365-.453M2506.01 852.059s-29.81-18.88-116.02-43.803c-48.52-13.561-95.25-30.624-139.62-50.984-27.95-13.4-54.62-24.987-83.89-26.124-74.51-2.953-146.82-6.785-214.36-33.906-17.13-6.877-34.82-13.241-48.71-20.182-49.31-24.474-97.93-41.067-153.43-46.361-62.31-6.157-132.14 9.396-192.31 28.202-89.6 28.001-178.84 77.784-265 115.594-34.1 14.923-103.67 50.234-143.26 32.801-35.71-15.672-86.24-36.961-92.38-75.597-1.56-9.686-2.3-23.269-4.18-36.292-17.61-120.47-117.504-183.621-273.019-183.418-3.543.01-7.193-.089-10.629.029-112.494 3.33-242.271 33.645-352.902 30.728-45.87-1.218-55.68-25.411-73.524-51.58-29.024-42.279-33.164-71.89-84.81-102.235-64.158-37.866-156.952-54.68-234.6-80.287-41.656-13.75-81.705-33.258-125.141-45.263-84.759-23.436-167.923 5.066-253.779 2.982M2510.16 843.011s-28.77-19.471-113-43.029c-50.35-14.149-94.49-34.893-137.88-58.667-24-13.799-52.98-21.297-83.08-21.499-72.77-.981-143.9-2.25-210.55-26.978-16.02-5.598-31.61-11.907-46.69-18.898-47.32-23.578-92.45-42.053-145.39-49.116-58.8-7.844-127.76 5.607-185.96 21.285-88.85 23.914-176.67 68.072-261.85 103.967-33.32 14.157-102.51 49.36-141.64 33.414-36.63-14.934-90.86-28.382-101.6-67.237-2.61-9.29-4.38-22.165-7.68-34.565-31.32-116.443-144.817-174.91-296.179-173.866-3.54.049-7.138-.015-10.522.138-109.701 4.396-236.326 35.358-345.21 30.894-46.419-1.916-54.735-27.128-73.419-53.347-30.542-42.783-39.796-72.337-92.649-102.39-64.508-36.705-156.055-54.556-230.52-81.591-39.841-14.442-80.423-34.454-123.274-45.92-85.049-22.748-168.495 5.307-254.606 6.8M2514.35 833.803s-27.78-19.864-110.21-43.174c-49.81-14.114-94.01-43.023-135.65-64.592-24.9-12.862-53.17-16.229-82.08-15.832-71.44.906-141.27 1.761-207.08-21.158-15.78-5.085-31.06-11.046-45.73-17.842-44.91-22.519-89.42-42.96-138.59-52.825-55.04-11.233-122.17 2.97-178.93 15.796-87.69 19.796-172.36 60.263-255.64 92.292-34.95 13.428-102.81 46.178-140.88 33.04-38.06-13.138-95.48-19.725-112.27-58.565-3.86-8.877-6.85-21.029-11.75-32.951C1051 559.019 923.334 501.293 777.741 503.088c-3.491.044-6.985.05-10.372.165-111.393 3.554-228.958 38.247-338.438 31.877-46.927-2.736-53.809-29.079-73.333-55.348-32.092-43.089-46.537-72.931-99.958-102.704-64.294-35.862-153.353-54.616-225.341-83.295-38.69-15.434-79.901-35.317-122.52-46.332-85.436-22.053-169.411 5.536-255.512 10.859M2518.52 824.401s-26.22-20.028-107.26-44.387c-49.07-14.838-89.39-48.747-133.33-67.083-24.8-10.369-52.53-11.864-81.33-10.695-70.46 2.782-139.09 5.613-204.22-16.148-15.43-4.817-30.27-10.678-44.37-17.521-43.5-22.709-85.67-45.253-133.33-57.78-50.88-13.364-119.6 1.24-171.68 11.582-83.92 16.601-166.65 52.417-247.15 81.605-35.54 12.888-101.91 43.995-140.48 31.875-40.89-12.834-99.85-11.558-123.74-49.909-5.15-8.344-9.55-19.718-16.21-31.029-59.11-100.187-196.492-159.48-338.215-157.292l-10.17.227c-110.011 4.226-223.331 42.137-332.325 33.851-45.705-3.459-55.125-30.771-73.51-57.562-30.513-44.896-53.798-73.874-106.684-103.105-63.644-35.131-148.851-54.936-219.098-85.24-38.33-16.478-80.048-35.93-122.685-46.553-85.377-21.315-170.814 5.844-256.549 15.125M2522.76 814.719s-25.48-18.953-104.24-46.778c-48.43-17.156-81.85-51.656-130.89-66.575-25.93-7.894-52.14-8.299-80.68-6.329-69.32 4.723-137.45 9.43-201.9-11.761-15.3-4.73-29.94-10.655-43.69-17.691-42.79-23.589-83.79-48.844-130.2-64.168-47.87-15.716-115.45-1.672-164.8 8.451-78.82 16.311-158.73 46.155-236.34 72.65-36.47 12.415-102.51 42.011-140.32 30.259-44.17-13.823-102.53-2.627-135.26-41.404-6.53-7.726-12.54-18.307-21.12-28.917-73.36-90.721-215.886-153.395-356.052-150.823-3.344.033-6.793-.004-9.825.239-103.718 7.201-218.724 49.273-327.323 36.695-48.236-5.563-53.394-32.512-73.771-60.824-32.479-44.856-59.228-74.066-112.278-102.892-63.389-34.41-143.456-55.798-212.39-87.536-38.424-17.644-80.563-36.202-123.413-46.417-85.608-20.515-172.575 5.985-257.668 19.593m2866.38 554.196s-29.1-17.959-101.15-50.543c-40.84-18.31-80.35-52.636-128.13-63.59-26.17-5.959-51.92-5.463-80.2-2.732-68.38 6.564-136.41 13.255-200.32-7.901-15.44-4.639-30.07-10.738-43.58-18.169-43.31-25.852-81.5-55.32-129.31-72.174-46.75-16.548-109.48-4.534-158.99 5.993-74 15.73-149.94 42.872-223.65 66.436-37.48 11.989-100.56 39.314-139.64 28.289-47.97-13.4-106.5 2.577-146.46-33.042-7.95-7.181-15.47-16.86-26.3-26.744-88.63-81.056-229.132-148.504-371.24-146.206-3.243.063-6.642.023-9.821.277-102.73 7.865-215.238 55.326-323.57 40.538-47.923-6.565-53.089-34.843-74.456-63.232-33.744-44.677-64.007-74.739-117.173-103.79-62.234-34.111-140.027-58.457-205.703-90.064-37.363-17.924-82.648-38.889-124.222-46.079-86.24-14.875-168.696 5.245-258.919 24.266M2531.27 794.26s-29-18.477-97.94-55.295c-35.69-19.075-79.89-50.563-126.05-58.441-26.28-4.27-51.71-3.409-79.78.009-67.66 8.226-135.95 17.128-199.49-4.37-15.53-4.835-30.13-11.289-43.42-19.199-44.1-28.33-82.75-61.708-131.13-81.996-46.14-19.333-104.73-7.923-154.64 3.808-68.98 16.267-140.03 42.471-209.21 63.639-38.44 11.674-98.03 36.493-138.41 26.354-51.93-13.006-110.04 6.925-156.74-24.988-9.38-6.443-18.8-15.305-31.83-24.387-102.64-71.649-237.907-143.815-382.988-143-3.148.018-6.343.078-9.433.208-108.988 5.316-209.111 63.631-321.226 45.236-46.126-7.49-55.46-36.803-75.101-65.76-31.031-45.832-69.584-76.169-121.592-104.883-60.976-33.782-134.482-61.753-199.118-92.663-37.46-17.916-83.284-38.838-125.114-45.538-86.661-13.981-170.909 5.266-260.16 29.056M2535.66 783.393s-25.63-23.24-94.57-61.154c-34.33-18.87-79.34-46.189-123.8-51.975-26.26-3.058-53.16-2.415-79.49 1.901-67.29 9.682-136.14 20.896-199.58-1.275-15.87-5.171-30.65-12.12-43.93-20.643-44.59-30.089-81.44-69.944-136.87-89.043-50.6-17.334-102.16-13.366-150.81-1.97-62.38 14.566-128.52 44.795-193.91 64.175-38.89 11.554-94.86 34.245-136.27 24.853-55.74-12.623-113.14 10.652-165.81-17.226-10.74-5.669-22.13-13.28-37.65-22.123-109.41-62.001-246.662-141.2-390.622-141.139-3.051.009-6.148.062-9.088.219-109.282 5.339-207.275 71.81-319.983 50.922-46.012-8.516-55.231-39.479-75.664-68.491-32.049-45.633-73.236-76.893-124.889-106.104-59.387-33.596-128.301-65.688-192.794-95.436-38.277-17.655-84.047-38.542-126.076-44.64-86.974-12.979-173.651 5.446-261.535 34.013m2867.361 533.87s-24.21-30.078-91.2-65.802c-33.57-17.876-78.83-42.282-121.86-46.775-26.29-2.595-53.1-1.613-79.31 2.903-67.25 10.774-137.13 24.454-200.54 1.499-16.38-5.534-31.51-13.064-44.85-22.328-44.53-33.026-83.06-72.903-142.32-91.93-50-16.013-100.96-15.573-150-6.53-59.32 10.92-120.84 41.64-179.86 61.292-35.95 12.022-92.85 32.365-132.98 24.083-59.15-12.156-115.78 13.989-173.04-9.614-12.11-4.973-26.49-12.461-43.6-20.826-112.67-54.859-253.212-138.877-393.811-140.492-2.907-.041-5.906.003-8.752.113-109.636 5.212-206.822 81.781-320.216 57.86-45.49-9.378-55.433-42.004-76.56-71.077-33.164-45.426-76.149-77.637-127.608-107.49-57.396-33.325-122.824-69.839-186.714-98.189-39.09-17.356-84.854-38.165-127.203-43.963-87.186-11.946-176.723 5.808-262.898 39.125m2867.902 526.4s-18.25-36.183-87.79-69.241c-39.55-18.843-74.7-38.586-119.86-43.261-26.26-2.728-53.08-1.747-79.25 2.899-67.35 11.562-138.61 27.621-202.23 3.862-17.14-5.88-32.78-14.096-46.24-24.289-42.48-34.48-87.52-73.328-148.2-90.52-48.24-13.836-100.76-16.901-152.01-8.872-54.54 9.17-112.93 34.753-168.9 54.434-46.24 16.247-91.67 32.271-128.32 24.492-58.33-12.377-122.85 11.741-178.82-2.623-13.07-3.333-29.2-11.776-47.64-19.642-113.95-48.699-257.069-137.163-393.428-140.524-2.821-.204-5.484-.265-8.425-.108-110.367 4.684-207.832 92.533-322.407 65.54-44.898-10.598-55.32-44.905-76.994-74.052-33.794-45.298-78.428-78.432-129.604-109.05-55.727-33.381-118.657-73.73-181.032-100.989-39.064-17.045-85.797-37.66-128.305-42.977-87.347-10.877-180.497 6.619-264.398 44.366M2548.64 748.152s-16.98-39.959-84.48-71.693c-38.16-17.978-72.84-36.195-118.24-41.359-26.19-3.187-53.08-2.507-79.32 2.006-67.39 11.643-141.24 29.863-204.61 5.498-17.41-6.492-33.19-15.358-46.64-26.212-43.24-35.982-92.12-70.536-154.04-85.401-50.22-12.353-103.71-15.437-156.5-9.021-51.66 6.986-108.84 27.429-160.83 45.737-43.09 15.173-82.84 31.955-124.53 24.579-60.56-10.791-123.41 15.696-180.71 3.314-13.76-2.809-31.15-10.956-50.69-18.422-114.79-43.784-257.777-135.581-389.701-141.955-2.718-.134-5.53-.222-8.232-.162-112.049 2.746-209.49 104.431-325.86 74.063-44.334-11.542-55.489-47.628-77.708-76.809-34.478-45.243-80.168-79.27-130.916-110.704-54.432-33.797-114.134-76.866-175.634-103.648-39.059-16.968-86.641-37.124-129.45-41.908-92.089-9.561-186.638 8.09-265.945 49.649m2868.486 509.78s-15.61-42.57-80.83-73.471c-36.84-17.459-71.12-34.965-116.8-41.24-26.08-4.031-53.09-3.995-79.53.107-66.94 11.1-143.35 31.01-206.2 6.447-17.23-6.376-33.06-14.822-46.94-25.054-45.82-34.956-97.32-67.189-160.86-80.127-52.86-10.728-108.2-13.19-163-7.249-49.99 5.757-105.48 20.944-155.16 37.231-40.82 13.388-76.8 30.534-121.44 23.16-60.2-9.883-123.2 18.414-179.83 8.245-14.28-2.532-32.66-10.131-53.2-17.165-76.66-26.195-151.54-57.809-225.883-88.216-48.694-19.91-101.45-52.434-157.918-55.696a111.989 111.989 0 00-8.19-.244c-113.367 2.265-212.146 116.761-329.596 83.353-43.464-12.355-55.7-50.27-78.432-79.722-35.158-45.111-81.121-80.094-131.513-112.611-53.35-34.431-109.748-79.876-170.92-106.254C47.573 190.38-1.094 170.819-43.97 166.43c-87.708-8.62-188.635 8.247-267.481 55.049M2557.6 722.341s-14.2-44.09-77.39-74.763c-35.84-17.264-69.57-34.736-115.65-42.816-26.45-4.647-53.06-6.896-79.68-3.087-65.87 9.647-142.52 31.647-205.96 9.554-17.46-5.677-33.65-13.463-48.01-23.091-48.04-33.84-103.08-66.025-167.45-75.105-55.99-8.584-113.66-10.052-170.89-4.351-51.72 5.949-102.74 16.054-152.28 30.16-39.17 11.146-72.42 27.995-118.51 20.424-57.64-9.267-123.05 20.239-177.83 12.307-14.54-2.159-33.77-9.377-55.07-15.999-78.37-24.982-154.46-54.005-227.795-86.89-45.966-20.246-94.032-55.686-148.456-59.229a99.33 99.33 0 00-8.193-.283c-114.752 1.556-215.417 128.789-333.296 92.483-42.431-12.984-56.147-53.399-79.175-82.242-35.885-44.975-81.635-80.99-131.521-114.565-52.435-35.286-105.037-82.519-166.833-108.691-39.33-16.672-88.807-35.895-131.917-39.522-88.038-7.812-192.969 9.454-269.055 60.608M2562.01 709.167s-12.66-45.112-73.91-76.174c-34.38-17.46-68.11-35.596-114.69-46.216-26.67-6.037-53.18-10.209-79.24-6.21-65.1 10.054-141.2 34.004-205.55 14.642-17.8-4.812-34.45-11.828-49.36-20.795-53.09-34.217-108.09-59.174-173.93-70.638-55.77-9.924-120.58-9.196-179.3-1.177-49.8 6.798-103.07 14.068-152.13 25.262-38.24 8.687-69.04 24.832-116 16.705-54.1-9.354-122.02 20.899-174.09 14.784-14.9-1.701-34.59-8.569-56.5-14.791-79.63-22.468-156-51.212-228.005-85.818-44.135-21.369-85.39-58.409-139.61-62.477a99.417 99.417 0 00-8.199-.36c-116.865.982-219.934 138.765-337.001 101.535-41.01-13.059-56.303-55.967-79.958-84.642-36.465-44.85-81.813-81.993-130.936-116.488-51.779-36.316-100.746-84.856-163.275-110.97-39.455-16.388-89.772-35.035-133.099-38.293-88.589-6.713-197.43 10.905-270.741 65.981M2566.41 696.424s-11.07-46.021-70.26-78.421c-33.19-18.024-66.97-37.29-113.89-51.049-26.96-7.811-52.18-11.813-77.4-7.763-64.43 10.391-139.84 36.162-205.14 19.768-18.18-4.1-35.3-10.516-50.74-19.004-55.62-32.685-112.79-56.452-179.88-66.878-58.71-9.219-126.33-7.29-187.59 2.183-50.94 7.983-103.32 14.674-154.71 23.201-37.94 6.279-66.8 21.409-114.18 12.416-50.92-9.647-120.74 20.798-170.23 16.234-15.28-1.553-35.46-7.756-57.8-13.787-77.96-20.306-158.32-48.394-225.826-85.054-42.601-23.095-76.571-60.757-131.63-65.461-2.724-.212-5.545-.416-8.156-.442-118.107.221-225.997 149.726-340.624 110.385-40.033-13.762-56.811-57.998-80.815-87.349-36.694-44.636-81.423-82.649-129.7-118.267-50.946-37.594-97.035-87.068-160.245-113.088-39.7-16.369-90.795-34.289-134.424-37.015-89.044-5.621-201.827 12.546-272.318 71.501M2570.9 683.674c-9.49-32.86-33.26-61.606-67.18-81.247-32.14-19.007-67.36-42.145-112.85-57.035-26.17-8.421-50.63-12.133-75.11-8.064-64.36 10.698-138.58 37.782-204.55 24.725-18.63-3.211-36.32-8.932-52.34-16.921-58.1-31.003-117.53-54.08-185.36-64.095-64.32-8.703-130.64-7.105-195.13 4.701-53.07 9.639-105.97 18.404-160.01 24.525-37.43 4.087-65.85 17.931-113.26 7.925-48.22-10.216-117.91 19.281-166.28 16.426-14.83-.885-35.93-6.82-57.89-12.49-75.4-19.573-158.19-44.887-222.643-84.606-41.408-25.418-68.457-62.07-123.908-67.993a80.547 80.547 0 00-8.162-.52c-119.805-.698-235.323 160.518-343.708 118.606-38.145-14.773-56.901-59.124-81.758-89.306-36.9-44.737-80.993-83.426-128.148-120.385-50.043-39.23-93.662-89.214-157.988-115.027-39.968-16.035-89.694-31.603-135.749-35.737-89.239-8.068-211.907 18.2-273.946 76.987m2870.44 467.056c-9.18-33.309-31.6-63.015-63.98-84.787-33.3-22.51-70.8-48.28-111.46-62.539-24.97-8.792-48.97-12.266-73.02-8.388-65.46 10.551-135.75 39.392-203.09 29.416-19.15-2.346-37.51-7.403-54.2-14.935-60.03-29.285-120.93-52.284-189.72-62.496-66.33-9.56-135-7.508-201.31 6.017-54.59 11.598-111.2 25.037-167.73 29.05-37.83 2.674-66.34 14.883-113.55 3.688-46.1-10.932-116.2 17.893-162.77 15.325-14.83-.807-35.86-5.849-57.84-11.205-74.2-18.105-156.55-42.203-216.907-84.282-39.298-27.346-61.837-63.616-118.081-70.218a80.647 80.647 0 00-8.169-.598c-120.891-1.354-240.629 169.855-346.228 126.469-37.611-15.48-57.758-59.994-83.277-91.061-36.795-44.667-80.504-83.465-125.986-122.278-48.367-41.044-91.626-91.448-156.306-116.764-40.29-15.736-91.066-30.906-136.973-34.427-90.13-6.902-216.074 20.253-275.529 82.429M2579.83 658.763c-8.28-34.199-29.48-65.211-60.81-88.949-31.92-24.339-68.64-52.712-109.22-67.76-24.44-8.99-47.76-12.52-71.23-8.727-65.35 10.621-133.61 40.824-201.25 33.843-19.73-1.447-38.82-5.805-56.3-12.852-61.77-27.583-124.03-51.059-193.29-62.21-65.07-10.432-140.37-9.803-205.68 5.584-57.97 13.666-116.11 33.209-177.75 37.357-39.84 2.717-68.29 12.576-115.1.177-44.61-11.834-114.63 16.008-159.86 13.567-14.83-.768-35.72-5.313-57.63-10.362-72.77-16.89-152.6-40.213-209.072-84.166-37.215-28.998-57.008-64.783-113.696-72.015a72.721 72.721 0 00-8.169-.598c-120.409-2.096-238.557 176.686-347.598 133.341-39.406-15.767-59.44-60.719-84.938-91.514-36.887-44.582-80.882-85.116-124.09-124.423-45.546-41.466-90.515-93.57-155.394-118.284-40.612-15.475-91.896-30.214-138.203-33.195-91.122-5.767-220.232 22.423-277.157 87.915M2584.36 646.401c-7.77-35.365-27.79-67.956-57.83-94.151-29.47-25.67-66.52-56.245-107-71.965-23.77-9.2-46.84-12.749-69.63-9.05-65.11 10.524-131.34 42.166-198.77 37.904-20.03-.666-39.56-4.413-57.53-11.033-63.4-25.888-126.96-50.785-196.13-63.234-69.16-12.449-141.54-12.758-207.11 2.454-59.34 13.737-123.55 44.163-190.04 49.715-42.5 3.4-71.83 11.452-118.31-2.264-43.75-12.84-113.27 13.907-157.86 11.454-14.83-.769-34.89-5.419-57.2-9.966-73.31-15.01-147.7-39.276-199.716-84.094-35.157-30.335-54.473-65.69-110.987-73.209a83.131 83.131 0 00-8.175-.675C724.4 325.396 611.313 510.223 499.097 467.796c-40.598-15.281-61.388-61.071-87.076-92.399-36.59-44.566-79.898-85.741-121.023-126.075-43.5-42.958-89.953-95.765-155.378-119.927C94.638 114.223 41.3 98.398-3.853 97.553c-92.031-1.747-221.203 20.741-278.7 93.237M2588.83 634.004c-5.55-39.231-27.61-69.48-54.83-99.746-25.39-28.224-64.41-59.385-104.5-75.684-23.3-9.472-46.17-12.997-68.52-9.411-64.69 10.333-129.77 43.917-196.1 41.678-19.75-.688-41.57-2.773-59.03-9.39-64.17-24.497-128.06-49.72-197.62-65.89-70.91-16.53-142.65-21.112-208.04-4.233-61.87 15.932-129.88 57.294-201.39 66.532-46.04 5.91-76.97 11.902-123.28-2.844-56.43-18.119-98.97 18.626-157.11 9.126-14.42-2.365-34.92-5.729-56.72-10.005-73.46-14.489-138.7-38.274-188.2-84.193-33.657-31.276-54.547-66.622-110.12-74.686a72.248 72.248 0 00-8.133-.757c-126.888-3.727-234.986 186.876-350.215 145.551-41.446-14.822-63.185-61.397-89.066-93.295-36.147-44.563-77.967-86.209-117.537-127.41-42.214-44.116-89.768-97.148-155.746-120.836-41.4-14.864-95.338-30.173-140.752-30.606-93.192-.872-225.172 22.818-280.152 98.474M2593.35 621.565c-4.49-40.762-25.59-73.825-51.99-105.955-23.67-28.87-61.99-61.884-101.97-78.738-22.97-9.655-45.7-13.231-67.62-9.758-64.41 10.154-127.48 44.906-193.25 45.398-20.54.558-40.86-2.219-59.71-8.163-65.85-23.307-131.31-50.397-200.46-71.291-71.53-21.641-143.26-29.898-208.51-11.935-64.35 17.615-134.01 70.953-208.5 85.433-50.85 9.851-83.94 14.531-129.75-1.349-56.69-19.545-99.76 16.773-157.88 6.92-14.27-2.415-34.14-5.83-56.05-10.292-73.29-14.739-130.64-37.084-177.23-83.586-32.108-32.221-54.647-67.865-109.465-76.341a74.984 74.984 0 00-8.139-.835c-129.861-4.584-233.241 190.841-351.293 151.149-42.485-14.27-64.944-61.843-90.81-94.172-35.648-44.486-75.534-86.56-114.013-128.904-41.501-45.658-89.838-98.627-156.717-121.891C108.128 92.74 53.599 78.025 7.919 77.966c-94.423-.266-229.046 24.847-281.564 103.59M2597.81 609.051c-3.4-42.491-23.64-78.28-49.2-112.393-22.05-29.507-59.61-64.067-99.48-81.36-22.84-9.9-45.38-13.492-67.07-10.272-64.23 9.906-125.49 45.842-190.94 48.967-20.63 1.226-41.17-1.132-60.21-6.912-68.47-22.824-136.01-53.813-204.37-79.577-70.49-26.571-139.64-37.028-208.29-19.615-72.36 18.335-134.04 79.712-210.18 104.447-40.2 13.065-98.52 16.753-138.43 3.255-59.36-20.27-104.91 15.778-160.4 5.011-13.86-2.801-33.7-5.983-55.28-10.511-72.03-15.112-122.66-37.095-166.698-83.646-31.229-32.917-54.434-68.899-109.571-77.662a64.879 64.879 0 00-8.142-.873c-132.491-5.468-231.626 194.425-352.212 156.264-81.965-26.044-148.087-162.921-202.769-225.076-40.95-46.759-90.09-99.937-157.913-122.695-42.332-14.204-97.454-28.324-143.35-28.015-95.725.699-232.73 26.784-282.934 108.625M2602.27 596.46c-3.26-42.102-19.17-82.596-46.41-118.089-23.3-29.759-57.36-66.749-97.26-84.392-22.82-10.136-45.4-13.763-66.85-10.562-64.2 9.591-123.75 46.641-188.66 52.301-20.56 1.88-41.21-.167-60.23-5.971-71.99-23.207-141.21-62.231-209.01-90.229-62.35-25.698-134.87-49.996-207.3-26.965-80.06 25.479-136.88 91.627-209.16 120.314-43.83 17.422-95.98 30.7-146.66 12.434-59.85-21.52-108.62 15.372-165.23 4.264-13.66-2.816-33.12-6.185-54.32-10.861-70.52-15.898-115.31-38.113-157.036-84.067-30.437-33.488-54.368-69.92-109.028-78.878a64.336 64.336 0 00-8.096-.916c-134.916-6.252-230.295 197.524-352.974 160.899-83.443-24.832-147.639-164.091-201.337-226.872-40.621-47.567-90.471-101.001-159.234-123.215C120.678 71.801 65.019 58.35 18.897 58.912c-97.148 1.36-236.271 28.67-284.23 113.34m2872.043 411.5c-2.27-43.711-17.14-86.052-43.46-123.757-21.78-30.467-55.45-69.286-95.59-87.38-22.92-10.284-45.75-13.93-66.97-10.904-64.24 9.047-122.4 47.394-186.72 55.509-20.42 2.637-41.15.951-60.1-4.888-76.05-24.171-144.86-70.304-213.85-102.703-60.24-28.328-132.85-56.724-205.77-33.654-83.28 26.401-137.71 95.407-207.96 133.391-42.46 22.941-97.79 44.995-151.72 24.839-60.03-22.561-113.57 16.354-171.93 4.175-13.52-2.828-32.5-6.274-53.28-11.374-68.49-16.373-108.58-39.473-148.54-84.317-30.123-33.826-53.923-70.464-108.718-79.88a72.972 72.972 0 00-8.099-.955c-132.273-7.049-229.839 203.234-353.476 165.083-86.955-26.896-146.143-165.696-199.744-228.485-40.522-47.575-91.083-101.89-160.689-123.568-43.307-13.461-99.51-26.322-145.848-25.39-98.672 1.989-239.628 30.384-285.391 117.889M2611.15 570.967c-1.37-45.171-15.15-89.19-40.38-128.968-20.35-31.598-53.89-71.835-94.38-90.173-23.14-10.502-46.27-14.163-67.45-11.258-64.5 8.834-121.51 48.065-185.29 58.6-20.27 3.484-41.15 2.262-60.13-3.516-79.25-25.246-148.74-81.174-218.1-117.061-58.34-30.24-130.52-61.953-203.81-39.283-85.4 26.375-139.79 98.426-205.88 143.388-38.65 26.31-96.47 59.665-152.81 39.036-61.76-22.696-120.38 19.166-181.63 5.928-13.47-2.832-32.02-6.507-52.2-11.46-65.83-16.937-103-41.639-141.23-85.136-30.04-34.067-53.564-70.962-108.433-80.684a83.03 83.03 0 00-8.103-.994c-134.786-7.709-228.142 205.365-353.63 168.69-88.745-25.892-145.112-166.95-198.474-229.837-40.425-47.582-91.879-102.608-162.172-123.644-43.869-13.104-98.724-23.883-147.17-24.073-102.955-.483-245.352 35.728-286.425 122.194M2615.59 558.065c-.47-46.661-13.14-92.373-37.22-134.225-19.06-32.756-52.8-74.345-93.68-93.122-23.5-10.746-46.83-14.391-68.36-11.653-65.68 8.341-121.44 48.372-184.55 61.198-20.29 4.628-41.71 3.579-60.63-2.968-81.54-29.987-148.4-90.505-221.02-130.234-57.65-31.508-127.88-65.331-201.4-43.62-86.55 25.529-142.53 98.49-203.83 149.947-37.96 31.884-91.08 72.915-152.53 53.478-65.63-20.588-126.69 24.673-190.64 10.283-13.37-2.839-31.55-6.818-51.17-12.09-113.77-30.497-136.48-147.589-244.048-167.012a71.881 71.881 0 00-8.053-.997c-137.707-8.531-225.913 206.163-353.776 171.79-88.728-23.823-144.869-168.221-197.336-230.984-40.288-48.336-92.463-103.147-163.835-123.511-44.375-12.673-99.718-22.787-148.44-22.721-104.724.167-248.037 37.233-287.376 126.296M2619.96 545.089c2.53-48.985-13.44-94.848-34.06-139.089-16.29-35.05-51.62-76.824-93.46-95.876-20.65-9.92-44.96-14.256-69.45-12.387-67.62 5.604-122.82 46.528-185.22 61.447-20.32 5.306-42.13 4.399-61.08-2.541-83.07-31.858-149.49-99.134-222.28-141-56.24-32.363-124.98-66.618-198.56-46.309-87.41 24.112-144.78 97.575-201.8 152.638-35.14 33.847-87.33 87.156-152.35 68.004-68.16-20.191-127.76 31.522-198 16.774-13.81-2.804-31.07-7.013-50.21-12.479-110.83-31.827-133.92-148.849-240.127-168.42a73.115 73.115 0 00-8.109-1.072C765.061 215.94 681.368 431.055 551.79 399.242c-88.312-21.706-144.934-169.037-196.471-231.874-40.197-49.046-93.332-103.547-165.534-123.219C144.854 31.912 89.129 22.571 39.937 22.91c-106.796.724-250.692 38.5-288.111 130.029M2624.44 532.106c3.46-50.233-11.42-97.786-31.19-143.737-15.34-36.142-50.64-79.287-93.63-98.637-21.07-10.002-45.49-14.946-70.44-14.262-69.17 2.21-124.91 43.724-186.77 60.515-10.01 2.922-20.59 4.224-31.1 3.828-10.51-.395-20.74-2.479-30.06-6.128-83.9-33.629-149.29-105.365-222.71-148.784-55.22-32.678-121.83-65.423-195.45-46.909-88.73 22.303-145.58 93.73-199.89 151.235-33.54 35.477-84.46 98.535-152.03 81.933-71.3-17.556-127.36 41.457-203.22 25.283a575.963 575.963 0 01-49.07-12.845c-107.89-33.312-133.17-150.042-238.233-169.431a72.817 72.817 0 00-8.105-1.032c-141.997-9.243-222.141 205.94-352.935 176.765-87.512-19.698-145.201-169.915-195.785-232.515-40.204-49.75-94.383-103.776-167.315-122.725-45.24-11.782-101.834-20.31-151.249-19.682-108.167 1.42-253.02 39.547-288.676 133.437M2628.86 519.126c3.6-50.788-5.85-101.243-27.76-148.271-17.38-37.034-45.15-79.061-93.77-101.088-21.78-10.409-46.62-16.326-72.35-17.237-70.53-1.199-127.6 39.679-189.04 58.587-9.99 3.196-20.65 4.665-31.26 4.305-10.6-.359-20.9-2.538-30.19-6.388-84.24-34.813-147.91-109.657-221.61-153.562-54.56-32.418-118.52-61.545-192.03-45.267-90.05 19.906-145.99 86.609-198.52 145.535-33.02 37.039-86.86 109.711-151.74 94.77-67.6-15.623-126.35 52.869-206.24 35.532-13.93-3.03-30.12-7.325-48.18-12.838-108.35-33.471-133.17-151.176-238.526-170.62a73.333 73.333 0 00-8.108-1.071c-143.486-9.397-220.962 205.299-352.13 178.226-86.42-17.753-146.018-170.905-195.421-232.896-39.997-50.235-95.426-103.888-169.277-122.02C153.553 12.64 102.085 6.542 50.061 6.736-59.722 8.873-205.064 47.04-239.256 143.235M2633.24 506.189c8.22-88.568-19.82-207.226-118.45-256.329-128.16-64.018-226.45 74.478-327.87 33.455-130.89-53.089-225.53-227.126-407.53-196.27-88.1 14.865-145.11 76.22-194.89 131.916-33.98 37.898-82.28 120.134-154.56 109.419-49.36-7.309-69.6 21.476-110.23 37.156-50.03 19.364-95.67 15.47-145.65-2.031-103.03-35.813-136.59-155.711-239.555-172.375-146.628-23.452-220.891 203.104-359.117 178.237-74.912-13.553-114.751-127.046-152.013-177.539-52.137-70.333-112.988-154.237-214.476-176.374C73.344-14.161-185.717-11.383-234.63 138.29" stroke="url(#paint0_linear_770_22413)" stroke-width=".5" stroke-miterlimit="10"/><defs><linearGradient id="paint0_linear_770_22413" x1="58.616" y1="140.691" x2="1887.26" y2="677.659" gradientUnits="userSpaceOnUse"><stop offset=".683" stop-color="#FD6721"/><stop offset=".821" stop-color="#FD6721" stop-opacity="0"/></linearGradient></defs></svg>