<svg width="1920" height="1581" fill="none" xmlns="http://www.w3.org/2000/svg"><path opacity=".2" d="M2165.78 1498.06c-52.14 50.36-121.43 69.73-186.55 78.61-131.16 17.77-143.37-170.95-239.73-180.47-85.22-8.45-140.97-32.21-186.39-110.79-76.42-132.14-201.7-58.65-279.85 27.42-120.62 132.82-248.04 313.41-443.878 256.54-145.625-42.32-237.257-123.98-299.147-269.63-26.23-61.77-54.49-131.73-66.637-199-11.765-65.06 6.017-165.17-56.417-201.692-130.945-76.642-314.005 53.158-453.163 14.341-98.84-27.421-138.33-75.056-99.122-187.756 53.444-153.447-131.225-194.4-235.085-217.013-90.098-19.715-232.586 32.476-307.194-37.245M2170.53 1476.92c-51.66 48.42-120.29 67.31-183.39 74.61-72.81 8.46-124.66-60.01-159.13-119.75-23.35-40.55-48.29-77.21-77.46-77.73-90.96-1.58-135.7-28.98-185.94-103.39-14.3-21.25-29.9-39-46.84-49.57-85.53-53.49-170.04 13.05-230.96 75.09-64.84 66.37-129.04 156.8-204.86 212.64-81.89 60.3-158.636 79.32-253.848 59.68-58.372-12.01-124.687-37.98-167.524-78.39-52.254-49.51-90.71-114.79-123.634-183.77-6.613-13.94-12.525-29.28-18.293-44.69-22.791-61.06-38.592-116.47-46.157-182.07-7.243-62.723 6.529-134.323-44.792-176.644a42.699 42.699 0 00-6.326-4.439C289.041 803.275 103.92 937.98-36.447 901.941c-102.249-26.045-131.934-75.111-93.659-187.765 27.747-82.082-19.419-129.681-79.646-160.722-49.449-25.435-111.593-40.368-169.011-52.071-88.87-18.16-230.329 29.131-304.508-35.995M2175.3 1455.16c-51.32 45.89-119.2 62.66-180.13 67.49-73.47 5.83-122.98-71.87-156.91-132.37-23.37-41.67-48.1-77.38-76.99-78.04-87.38-1.95-132.42-25.35-186.03-93.69-13.07-17.49-29.68-31.75-48.73-41.83-87.56-43.28-161.55 4.62-226.52 65.6-69.81 65.47-137.75 152.71-212.34 211.74-80.56 63.68-163.215 92.24-260.907 73.88-56.216-10.56-120.369-36.6-161.51-77.43-50.099-49.69-89.523-110.69-121.94-177.02-6.695-13.68-12.699-28.91-18.562-44.26-24.815-64.36-35.404-117.45-39.978-187.24-4.211-63.861 9.486-136.677-43.461-179.033a46.079 46.079 0 00-6.424-4.428c-134.443-73.473-321.206 66.554-462.06 32.197-104.927-25.561-123.559-75.78-88.417-188.158 26.454-84.702-30.371-128.488-91.852-157.512-50.94-24.055-112.491-38.948-170.175-50.98-87.996-18.353-227.528 27.462-301.533-34.827M2180.07 1433.34c-48.79 40.79-118.22 58.64-176.65 57.7-76.31-1.17-120.82-81.63-154.93-142.62-23.49-41.96-48.21-75.89-76.85-76.63-76.21-1.84-136.65-22.81-186.68-81.74-14.23-15.49-31.64-27.47-51.03-35.11-86.59-38.03-154.76-1.9-221.55 57.38-71.94 63.85-142.47 146.47-217.16 206.23-82.81 66.2-169.223 105.05-268.522 88.59-57.979-9.96-111.589-36.48-154.915-76.64-50.07-48.25-91.24-105.61-121.624-169.45-6.61-13.89-12.833-28.69-18.935-43.92-27.267-68.23-31.223-119.11-32.8-192.99-1.359-64.715 11.197-138.482-43.591-180.34a49.769 49.769 0 00-6.473-4.424c-136.632-71.459-325.274 73.251-465.735 40.485-105.953-24.639-114.497-77.287-83.458-188.37 24.196-87.015-42.224-126.742-104.582-153.991-52.179-22.601-113.165-37.909-170.818-50.25-87.129-18.648-224.47 25.97-298.362-33.679M2184.89 1410.86c-48.77 36.96-117.49 50.4-173.14 45.91-75.43-6.05-118.31-89.64-153.25-150.6-23.65-41.33-48.46-72.75-76.96-73.55-73.93-1.67-132.97-19.02-187.94-67.84a188.85 188.85 0 00-54.23-31.11c-85.75-33.93-151.22-7.52-217.47 50.23-70.78 61.74-144.05 139.09-217.95 198.04-85.27 67.89-180.958 119.94-276.067 102.79-55.442-10.72-106.73-36.31-148.862-74.26-49.907-45.94-91.33-100.94-122.379-162.49-6.695-13.68-12.912-28.38-19.277-43.88-28.855-69.24-29.154-122.29-24.894-198.91 3.383-60.422 10.458-143.306-44.952-180.866a67.646 67.646 0 00-6.717-4.398c-138.718-69.355-328.631 79.515-468.715 48.087-106.05-23.813-105.206-79.072-78.79-188.5 21.354-88.402-55.108-124.939-117.491-150.197-53.092-21.434-113.481-36.652-171.254-49.337-86.261-18.943-221.262 24.513-295.048-32.598M2189.68 1388.64c-48.87 32.99-116.65 40.88-169.5 32.98-73.85-11.46-115.39-95.8-151.84-156.45-23.89-39.73-49.1-67.9-77.33-68.42-71.38-.91-131.87-12.14-190.6-54.1a240.366 240.366 0 00-56.8-28.23c-84.29-30.93-148.16-13-213.93 43.02-69.42 59.05-142.04 131.64-215.26 188.99-87.63 68.65-187.479 129.95-282.634 115.25-47.803-7.4-102.174-33.65-145.245-69.84-50.917-42.81-92.814-95.97-123.286-156.43-6.788-13.57-13.027-28.62-19.669-43.84-46.627-105.42 44.119-317.578-63.94-385.389-2.3-1.392-4.661-2.981-7.011-4.368-141.064-68.294-326.349 86.213-469.723 54.107-108.692-24.352-96.874-80.451-75.758-188 17.277-88.282-68.717-122.142-130.939-145.581a1312.348 1312.348 0 00-171.175-48.836c-85.35-19.344-217.808 23.031-291.491-31.592M2194.44 1366.68c-49.14 28.63-115.68 30.27-165.8 18.73-71.99-16.56-112-99.89-150.69-159.33-24.29-37.34-49.84-61.55-78.04-61.61-68.92-.21-134.58-5.8-194-42.13a336.538 336.538 0 00-59.03-26.06c-81.97-30-146.84-16.3-211.29 35.5-67.17 53.97-137.67 125.17-209.5 180.24-80.71 61.91-191.466 143.58-287.655 124.85-48.217-9.35-101.633-29.63-144.175-62.82-51.656-40.3-94.142-91.8-124.684-151.13-6.882-13.5-13.112-29.22-20.01-43.8-50.434-106.51 63.063-320.068-58.864-390.104-2.346-1.336-4.851-2.859-7.332-3.977-144.055-65.688-322.569 72.408-469.443 59.483-113.572-10.025-85.251-106.037-73.764-187.596 12.698-88.315-82-119.635-143.946-141.777a1622.767 1622.767 0 00-170.661-48.482c-84.589-19.78-214.306 21.544-287.886-30.591m2861.55 908.994c-53.38 23.62-112.81 16.87-162.16 4.32-67.27-17.45-107.96-102.39-149.82-159.77-24.78-33.98-50.78-53.44-79.1-52.94-69.23 1.06-136.03.07-197.84-32.64a477.532 477.532 0 00-60.57-24.63c-80.02-28.77-145.27-22.07-209.31 27.55-64.99 50.27-133.04 119.63-202.16 172.33-81.31 61.77-192.111 145.12-290.194 131.64-48.847-6.78-102.759-22.32-146.036-53.85-52.254-38.24-95.279-88.34-125.988-146.71-7.026-13.44-13.461-28.48-20.451-43.76-49.85-109.02 77.621-325.053-54.652-393.653-2.441-1.275-5.093-2.783-7.671-3.891-146.246-62.093-321.147 73.942-467.977 64.123-113.67-7.618-79.035-109.796-72.572-187.415 7.297-87.291-94.552-116.438-156.977-137.561-54.483-18.434-112.754-34.433-169.758-48.219-83.832-20.267-210.41 20.066-284.232-29.596M2203.92 1323.78c-53.57 18.23-111.26 6.05-158.36-9.89-65.59-22.23-102.95-103.28-149.23-157.29-25.44-29.73-51.52-43.22-80.01-42.24-69.49 2.46-138.86 2.87-202.17-27.04a512.405 512.405 0 00-62.31-24.09c-80.31-25.43-140.59-30.82-208.16 19.12-63.04 46.6-128.77 114.49-195.24 165.43-82.32 63.05-190.264 144.02-289.571 137.86-49.409-3.11-104.256-14.62-148.663-45.32-53.004-36.35-96.723-85.28-127.727-142.96a417.15 417.15 0 01-20.891-43.71c-40.944-105.87 87.969-331.288-51.448-395.981-2.633-1.204-5.379-2.651-8.101-3.693-147.618-57.973-319.507 74.995-465.14 67.855-112.406-5.456-73.842-114.213-72.419-187.329 1.602-84.658-106.213-112.366-169.588-132.931-54.586-17.71-112.003-34.206-168.478-48.2-83.23-20.89-206.85 18.726-280.525-28.554M2208.58 1303.45c-53.83 12.3-109.16-4.67-154.72-23.57-63.63-26.46-96.79-103.26-148.78-151.58-26.36-24.58-52.24-32.48-81.11-31.36-70.21 2.79-141.81 3.94-206.49-24.34-19.88-8.69-42.13-16.77-63.49-23.98-78.43-26.13-140.82-36.29-207.62 10.14-61.36 42.81-125.31 109.96-189.03 159.29-88.19 68.4-189.028 138.37-287.367 143.99-47.722 2.74-105.447-7.56-151.474-37.38-53.762-34.75-98.227-82.73-129.656-139.9-8.454-13.95-15.149-29.01-19.926-44.83-27.179-109.34 95.536-336.306-51.026-396.327-2.728-1.143-5.612-2.423-8.379-3.409-149.522-51.299-316.181 75.463-461.078 70.695C-62.928 807.21-20.922 691.975-25 623.054c-4.884-79.648-116.896-108.396-181.417-128.383-54.687-16.934-110.994-33.801-166.861-48.317-82.625-21.464-202.939 17.502-276.801-27.21M2213.27 1283.74c-53.74 6.43-106.93-14.9-151.06-36.35-60.18-29.41-91.06-103.54-148.4-142.13-24.23-16.38-53.16-24.08-82.56-21.98-71.05 2.67-144.72 3.68-210.5-23.93-20.21-8.54-42.72-16.8-64.25-24.45-76.86-27.67-141.16-42.482-207.76.67-60.03 38.85-122.3 105.26-183.66 153.73-87.19 68.7-185.489 138.36-283.749 150.09-48.868 5.71-106.543-.56-154.404-29.78-54.614-33.32-99.919-80.5-131.86-137.33-8.225-14.22-13.828-29.99-16.535-46.51-15.686-110.54 101.725-341.336-53.658-393.502-2.816-.981-5.838-2.093-8.795-2.958-151.334-44.736-311.844 73.941-456.1 71.604-110.262-1.805-66.574-122.519-75.528-188.28-10.75-77.403-126.72-104.056-192.317-123.931-54.414-16.503-110.021-33.188-164.908-48.572-85.434-23.924-195.004 16.063-273.254-26.356M2217.88 1264.9c-53.33.47-104.5-24.12-147.59-47.77-55.77-30.64-89.85-100.87-148.09-129.93-26.55-13.29-54.27-15.8-83.94-14.85-72.01 2.42-147.51 2.34-214.23-25.42-20.66-8.66-43.1-17.28-64.78-25.73-65.04-25.232-142.21-56.544-208.26-9.17-61.77 44.23-120.08 100.64-179.31 148.48-85.96 69.39-181.499 139.17-279.151 155.99-49.774 8.61-107.904 6.16-156.733-22.81-54.748-32.38-104.691-77.9-133.855-135.33-6.913-15.17-10.758-31.75-11.306-48.74-6.565-111.087 102.578-344.282-59.895-387.652-3.003-.809-6.168-1.855-9.265-2.603-151.954-37.991-307.056 71.758-449.935 71.011-108.317-.579-64.024-127.475-78.531-189.088-17.35-74.267-134.538-99.11-202.623-119.439-53.9-16.149-108.499-33.246-162.521-48.974-84.839-24.649-191.288 14.859-269.78-25.087M2222.39 1247c-52.51-4.72-101.84-32.16-144.1-57.58-51.87-31.15-89.41-93.62-147.98-116.01-27.42-10.5-55.04-9.92-85.12-9.22-73.04 1.65-150.34.38-217.54-28.76-20.88-8.99-43.3-18.22-65.03-27.48-64.75-27.712-141.61-62.014-208.89-19.353-61.59 39.063-118.78 95.963-176.22 143.413-84.69 70.03-177.25 140.21-273.913 161.92-50.007 11.23-109.029 12.7-158.918-15.9-54.224-31.06-110.747-75.54-133.503-134.4-5.206-13.48-6.649-32.2-6.578-50.31.452-115.434 101.411-342.422-69.297-379.63-3.091-.646-6.396-1.576-9.637-2.257-151.267-31.588-301.878 68.719-442.86 69.202-106.387.392-62.336-133.669-82.149-190.291-24.487-70.26-140.279-93.209-212.092-114.934-53.408-16.149-106.781-33.322-159.999-49.594-84.455-25.607-187.575 13.605-266.45-23.751M2226.86 1230.06c-51.37-9.48-99.52-38.57-140.78-65.37-47.56-30.73-90.26-84.86-147.8-100.99-27.84-7.85-55.75-6.16-86.14-5.85-73.78.82-153-2.75-220.39-33.45-20.96-9.59-43.33-19.6-64.93-29.838-64.58-30.637-140.19-67.773-209.36-29.503-61.89 34.196-118.51 90.941-174.62 138.251-83.48 70.46-172.93 141.64-268.392 167.71-49.665 13.6-110.498 19.23-160.809-9.02-52.4-29.41-114.799-70.98-130.442-134.26-3.296-16.94-4.232-34.37-2.781-51.77 6.209-121.904 97.067-337.028-81.675-368.808-3.235-.58-6.632-1.399-9.965-1.969-149.227-25.63-296.534 65.153-435.003 66.496-104.43 1.003-62.029-138.29-87.181-191.296-31.886-67.295-145.496-88.381-220.031-111.148-52.411-15.947-104.879-33.623-157.065-49.9-84.116-26.509-184.005 12.417-263.354-22.238M2231.26 1214.3c-50.05-13.59-95.71-43.81-137.64-71.1-46.15-30.16-91.17-74.92-147.5-86.59-28.27-5.82-56.26-3.97-86.83-4.04-74.67-.17-155.45-6.02-222.76-39.28-21.01-10.4-43.24-21.285-64.65-32.614-64.01-34.114-137.41-73.724-209.14-39.369-63.07 30.037-119.27 85.563-174.5 132.883-82.63 70.83-168.99 143.37-263.021 173.43-48.948 15.66-111.972 25.7-162.555-2.16-51.61-28.58-115.705-66.51-124.946-134.53-1.75-17.54-1.7-35.28.15-52.95 10.756-129.614 88.066-329.709-96.688-356.783-3.278-.474-6.815-1.176-10.191-1.64-146.349-20.424-291.063 61.268-426.401 63.1C2.045 763.923 42.223 621.292 11.207 570.58c-39.725-65.1-149.927-84.4-226.539-108.123-51.277-15.913-102.694-34.106-153.92-50.789-83.873-27.35-180.623 11.401-260.544-20.543M2235.58 1199.63c-48.03-16.77-92.4-46.76-134.67-73.15-46.05-28.69-91.53-66.32-147.05-75.16-28.62-4.41-56.5-3.18-87.22-3.39-75.43-1.21-157.74-9.45-224.3-45.9-20.88-11.384-42.97-23.254-64.01-35.795-63.24-37.61-132.85-79.604-208.25-49.047-65.38 26.198-121.57 79.583-176.55 126.932-81.74 70.73-165.57 145.21-258.198 178.99-48.145 17.51-113.164 31.95-163.758 4.69-52.342-28.45-112.115-64.12-116.953-135a342.53 342.53 0 012.149-53.26c14.046-137.761 74.77-320.982-114.075-343.346-3.422-.407-7.002-1.003-10.42-1.36-142.566-15.72-285.54 57.428-417.378 59.354C13.94 755.645 51.983 611.095 14.5 561.67c-48.154-62.895-153.403-80.876-231.565-105.814-50.195-15.924-100.565-34.685-150.819-51.571-83.726-28.182-177.386 10.4-258.017-18.666M2239.89 1185.56c-46.25-18.93-89.53-47.31-131.89-72.67-45.72-27.35-92.18-58.55-146.45-66.3-28.7-4.04-56.48-3.59-87.3-4.56-76.08-2.26-159.77-12.9-225.62-52.944-20.45-12.551-42.52-25.597-63.14-39.303-68.92-45.891-128.11-72.094-204.88-55.874-64.62 13.727-125.91 72.081-180.37 119.121-80.73 69.61-162.95 147.07-254.46 184.61-47.443 19.33-114.202 36.7-165.014 11.51-51.675-25.61-105.737-66.88-107.326-134.53a440.75 440.75 0 013.604-53.61c15.677-145.686 56.679-310.991-133.614-328.87-3.466-.352-7.04-.846-10.553-1.142-138.521-11.553-279.907 53.781-408.018 55.471-99.637 1.319-63.001-144.511-108.157-193.034-56.27-60.416-156.133-78.042-235.449-104.134-48.743-16.33-97.994-35.31-146.897-52.644-83.681-29.053-174.538 9.491-255.97-16.584M2244.17 1171.96c-44.59-20.03-86.56-47.06-129.19-70.55-45.18-24.86-93.98-52.51-145.75-59.65-28.35-3.93-56.3-5.4-87.09-6.72-76.64-3.22-161.44-16.05-225.94-59.848-20.54-13.817-42.44-28.257-61.7-42.972-61.93-46.772-126.71-66.172-198.26-57.075-68.37 8.714-132.57 58.908-187.94 105.477-80.23 67.518-159 142.638-251.808 189.438-49.409 24.99-114.008 43.87-166.221 18.31-52.213-25.55-95.673-69.71-95.641-133.4.022-14.89 2.131-34.29 4.111-53.36 15.784-152.781 34.167-300.072-154.786-313.757-3.509-.245-7.178-.678-10.684-.873-134.232-8.227-274.106 50.473-398.451 51.77-98.775.923-62.675-145.616-116.313-193.611-64.674-57.806-157.836-75.314-238.138-103.037-47.72-16.488-95.375-35.941-143.346-53.32-83.783-29.91-172.032 8.617-254.35-14.255M2248.36 1159.13c-43.03-21-84.45-46.31-126.47-67.78-45.72-23.22-94.11-46.62-144.86-55.5a716.73 716.73 0 00-86.66-10.34c-77.05-4.25-162.84-18.7-225.57-66.614-19.7-15.333-41.06-29.013-59.22-41.803-59.66-42.777-120.72-60.831-190.21-56.641-69.48 4.191-138.46 47.233-195.71 89.563-82.32 60.595-161.04 141.425-252.582 191.205-47.199 25.73-116.058 52.19-164.598 24.72-45.879-25.81-86.145-70.05-85.621-130.53.136-14.64 2.202-33.93 3.803-52.76 5.718-67.292 30.681-151.43-3.244-213.464-32.731-60.22-111.358-81.489-174.27-84.869-3.507-.195-7.267-.516-10.718-.615-127.872-3.231-265.972 45.852-388.883 48.069-85.645 1.542-83.99-153.692-124.779-194.409-56.156-56.146-157.72-73.441-239.629-102.475-47.041-16.66-92.594-37.148-139.464-54.234-83.98-30.705-170.016 7.795-253.251-11.566M2252.57 1146.76c-41.51-21.16-81.53-45.24-123.86-64.63-46.7-21.44-94.32-42.02-143.83-54.04a500.108 500.108 0 00-86.07-15.7c-78.28-5.19-161.26-23.607-224.14-70.688-18.68-14.011-39.15-25.285-56.4-36.896-53.12-36.321-115.11-60.804-180.83-56.854-72.71 4.476-139.95 36.426-199.49 74.456-85.92 54.855-170.76 140.902-259.22 187.312-41.146 21.68-113.813 58.27-157.273 30.99-40.593-25.49-80.89-67.03-80.926-125.41.01-14.28 1.746-33.324 2.823-51.895 3.853-67.199 22.412-147.406-17.535-205.701-38.676-56.031-119.859-74.841-183.1-77.166-3.552-.139-7.26-.415-10.757-.458-123.694-.913-260.132 43.967-379.373 45.037-44.521.362-58.931-27.556-74.344-62.202C54.903 610.536 62.657 569.24 19.28 529.66c-59.538-54.314-158.312-71.849-240.069-102.429-45.687-17.057-89.746-38.057-135.348-55.327-84.011-32.027-168.808 7.415-252.911-8.439M2256.7 1134.7s-34.46-23.48-121.17-61.65c-45.52-20.08-95.08-39.23-142.62-55.23-28.3-9.54-55.85-21.349-85.45-23.309-76.85-5.137-156.5-23.953-221.48-66.634-18.26-11.965-37.38-22.054-53.38-32.47-51.27-33.505-108.96-58.488-171.79-57.287-71.87 1.329-138.88 26.728-199.72 60.304-88.5 48.854-176.05 129.426-264.13 177.876-38.093 20.9-111.126 61.97-150.335 36.59-37.559-24.17-79.689-61.08-81.063-117.996-.352-13.781.858-32.57 1.128-50.649 2.481-163.428-53.098-263.943-224.855-267.694-3.595-.033-7.3-.258-10.794-.251-119.635 1.061-254.191 42.94-370.125 42.543-44.992-.099-57.704-29.214-73.991-63.666-25.23-53.457-21.249-93.696-67.872-133.244-61.731-52.351-158.718-71.246-239.287-102.51-44.122-17.22-87.381-39.63-131.442-56.653-82.984-32.134-168.204 6.842-253.125-4.694M2260.86 1123s-32.09-24.08-118.5-59.02c-46.93-18.92-95.11-38.06-141.45-59.33-28.22-13.069-55.48-29.907-84.74-31.953-74.15-5.215-153.01-16.568-217.97-55.069-17.52-10.41-35.65-19.482-51-28.996-49.16-31.074-102.49-57.277-162.42-58.52-70.02-1.413-136.07 18.735-197.05 47.686-89.96 42.734-179.35 114.779-266.22 165.452-35.448 20.68-105.105 65.42-146.043 40.73-48.977-29.77-73.152-52.38-85.423-108.824-2.616-12.168-.508-31.561-1.24-49.127-6.196-162.064-85.052-252.094-248.648-253.586-3.595-.033-7.294-.157-10.736-.104-115.837 2.806-248.386 42.895-361.268 40.905-45.43-.818-56.639-31.109-73.7-65.328-27.103-54.333-27.206-93.738-76.482-133.213-63.3-50.657-158.174-71.2-237.674-103.494-42.906-17.449-84.348-41.527-127.885-58.043-83.638-31.556-167.887 6.4-253.366-.59M2265.01 1111.3s-29.81-24.63-116.02-57.14a816.107 816.107 0 01-139.62-66.508c-27.95-17.48-54.62-32.595-83.89-34.079-74.51-3.852-146.82-8.851-214.36-44.229-17.13-8.971-34.82-17.273-48.71-26.327-49.31-31.926-97.93-53.571-153.43-60.477-62.31-8.031-132.14 12.257-192.31 36.789-89.6 36.526-178.84 101.467-265 150.791-34.1 19.47-103.674 65.53-143.262 42.79-35.706-20.45-86.234-48.22-92.376-98.618-1.562-12.635-2.304-30.354-4.182-47.341-17.609-157.151-117.505-239.53-273.019-239.265-3.543.013-7.193-.116-10.629.038-112.494 4.344-242.271 43.889-352.902 40.083-45.871-1.588-55.681-33.147-73.524-67.284-29.025-55.152-33.164-93.779-84.81-133.364-64.159-49.395-156.952-71.327-234.6-104.732-41.656-17.937-81.705-43.384-125.141-59.044-84.759-30.572-167.923 6.608-253.78 3.889M2269.16 1099.5s-28.77-25.4-113-56.13c-50.35-18.46-94.49-45.521-137.88-76.534-24-18-52.98-27.781-83.08-28.045-72.77-1.279-143.9-2.935-210.55-35.192a454.426 454.426 0 01-46.69-24.652c-47.32-30.757-92.45-54.857-145.39-64.07-58.8-10.233-127.76 7.313-185.96 27.765-88.85 31.195-176.67 88.799-261.85 135.623-33.32 18.467-102.513 64.385-141.637 43.585-36.632-19.48-90.864-37.021-101.601-87.707-2.613-12.118-4.381-28.913-7.686-45.089C802.522 737.157 689.023 660.888 537.66 662.25c-3.539.064-7.138-.02-10.521.18-109.702 5.735-236.326 46.124-345.211 40.301-46.418-2.5-54.735-35.388-73.419-69.591-30.541-55.809-39.795-94.361-92.648-133.565-64.509-47.88-156.056-71.166-230.52-106.433-39.842-18.84-80.423-44.945-123.275-59.901-85.048-29.675-168.494 6.923-254.606 8.87m2865.89 745.369s-27.78-25.91-110.21-56.31c-49.81-18.42-94.01-56.127-135.65-84.263-24.9-16.779-53.17-21.171-82.08-20.654-71.44 1.183-141.27 2.298-207.08-27.599a352.561 352.561 0 01-45.73-23.275c-44.91-29.375-89.42-56.039-138.59-68.909-55.04-14.653-122.17 3.874-178.93 20.606-87.7 25.824-172.36 78.611-255.64 120.393-34.95 17.516-102.81 60.241-140.878 43.1-38.063-17.139-95.487-25.731-112.277-76.397-3.86-11.58-6.849-27.432-11.741-42.984-44.547-142.153-172.21-217.454-317.804-215.114-3.49.059-6.985.066-10.372.216-111.393 4.636-228.958 49.893-338.437 41.582-46.928-3.568-53.809-37.931-73.333-72.199-32.092-56.209-46.538-95.137-99.959-133.976-64.293-46.781-153.353-71.244-225.34-108.656-38.69-20.132-79.902-46.07-122.52-60.439-85.436-28.768-169.411 7.223-255.512 14.166M2277.52 1075.22s-26.22-26.13-107.26-57.9c-49.07-19.357-89.39-63.592-133.33-87.511-24.8-13.525-52.53-15.476-81.33-13.95-70.46 3.629-139.09 7.322-204.22-21.066a281.286 281.286 0 01-44.37-22.854c-43.5-29.625-85.67-59.032-133.33-75.374-50.88-17.433-119.6 1.618-171.68 15.109-83.92 21.656-166.65 68.377-247.15 106.452-35.54 16.812-101.91 57.391-140.48 41.58-40.893-16.742-99.853-15.077-123.74-65.105-5.146-10.885-9.551-25.722-16.214-40.477-59.102-130.692-196.489-208.038-338.211-205.183l-10.171.296c-110.01 5.512-223.331 54.966-332.324 44.157-45.706-4.512-55.125-40.14-73.51-75.088-30.514-58.565-53.799-96.367-106.684-134.497-63.644-45.829-148.851-71.663-219.098-111.194-38.331-21.496-80.049-46.871-122.685-60.728-85.377-27.805-170.814 7.624-256.549 19.73M2281.76 1062.59s-25.48-24.72-104.24-61.02c-48.43-22.381-81.85-67.385-130.89-86.847-25.93-10.297-52.14-10.825-80.68-8.255-69.32 6.161-137.45 12.301-201.9-15.342a240.811 240.811 0 01-43.69-23.078c-42.79-30.77-83.79-63.715-130.2-83.706-47.87-20.501-115.45-2.18-164.8 11.025-78.82 21.277-158.73 60.208-236.34 94.77-36.47 16.195-102.51 54.802-140.32 39.472-44.17-18.031-102.534-3.426-135.265-54.01-6.525-10.078-12.539-23.881-21.115-37.723-73.357-118.343-215.886-200.099-356.053-196.743-3.344.043-6.792-.006-9.824.311-103.719 9.393-218.725 64.275-327.323 47.867-48.236-7.256-53.394-42.411-73.771-79.343-32.48-58.514-59.228-96.617-112.278-134.22-63.39-44.887-143.457-72.787-212.391-114.188-38.424-23.016-80.563-47.225-123.413-60.55-85.608-26.762-172.574 7.807-257.668 25.558M2285.98 1049.5s-29.1-23.42-101.15-65.928c-40.84-23.886-80.35-68.663-128.13-82.952-26.17-7.774-51.92-7.127-80.2-3.564-68.38 8.562-136.41 17.291-200.32-10.307a199.762 199.762 0 01-43.58-23.701c-43.31-33.724-81.5-72.163-129.31-94.149-46.75-21.586-109.48-5.914-158.99 7.818-74 20.519-149.94 55.926-223.65 86.664-37.48 15.639-100.56 51.284-139.64 36.903-47.98-17.481-106.498 3.361-146.458-43.103-7.957-9.368-15.474-21.994-26.305-34.887-88.629-105.736-229.129-193.72-371.237-190.723-3.243.083-6.643.03-9.822.362-102.73 10.259-215.237 72.172-323.569 52.881-47.923-8.564-53.089-45.452-74.456-82.485-33.745-58.279-64.007-97.495-117.174-135.392-62.233-44.497-140.027-76.255-205.702-117.486-37.364-23.382-82.648-50.73-124.222-60.109-86.24-19.404-168.697 6.842-258.919 31.654M2290.26 1035.9s-28.99-24.1-97.93-72.13c-35.69-24.882-79.89-65.957-126.05-76.235-26.28-5.569-51.71-4.446-79.78.013-67.66 10.73-135.95 22.343-199.49-5.701a183.246 183.246 0 01-43.42-25.044c-44.1-36.956-82.75-80.498-131.13-106.962-46.14-25.219-104.74-10.336-154.64 4.967-68.98 21.22-140.03 55.402-209.21 83.016-38.44 15.229-98.03 47.604-138.41 34.378-51.93-16.966-110.04 9.034-156.742-32.597-9.375-8.404-18.796-19.965-31.827-31.812-102.642-93.464-237.908-187.603-382.989-186.539-3.149.022-6.343.1-9.434.27-108.988 6.935-209.11 83.006-321.225 59.01-46.127-9.771-55.46-48.008-75.101-85.783-31.031-59.786-69.585-99.36-121.592-136.817-60.977-44.067-134.483-80.556-199.118-120.876-37.461-23.371-83.284-50.663-125.115-59.404-86.66-18.238-170.909 6.869-260.159 37.903M2294.66 1021.73s-25.63-30.32-94.57-79.778c-34.33-24.615-79.34-60.253-123.8-67.8-26.26-3.989-53.16-3.15-79.49 2.48-67.29 12.63-136.14 27.258-199.58-1.663a175.074 175.074 0 01-43.93-26.929c-44.59-39.251-81.44-91.24-136.87-116.154-50.6-22.611-102.16-17.436-150.81-2.57-62.38 19.001-128.52 58.434-193.91 83.714-38.89 15.072-94.86 44.673-136.27 32.421-55.74-16.467-113.14 13.895-165.815-22.472-10.74-7.395-22.128-17.322-37.65-28.858-109.401-80.878-246.658-184.192-390.618-184.113-3.05.013-6.147.081-9.088.286-109.281 6.965-207.275 93.675-319.983 66.427-46.011-11.109-55.231-51.5-75.664-89.345-32.049-59.527-73.235-100.305-124.888-138.41-59.388-43.826-128.301-85.688-192.794-124.494-38.277-23.031-84.048-50.278-126.076-58.232-86.974-16.931-173.652 7.104-261.535 44.369M2298.68 1007.03s-24.21-39.236-91.2-85.837c-33.57-23.319-78.83-55.156-121.86-61.017-26.29-3.385-53.1-2.105-79.31 3.787-67.26 14.054-137.13 31.899-200.54 1.955a167.437 167.437 0 01-44.86-29.127c-44.52-43.081-83.05-95.099-142.31-119.919-50-20.89-100.96-20.315-150-8.519-59.32 14.245-120.84 54.318-179.86 79.954-35.95 15.683-92.85 42.219-132.98 31.415-59.15-15.856-115.78 18.249-173.037-12.541-12.112-6.486-26.492-16.255-43.6-27.167-112.669-71.562-253.215-181.162-393.814-183.268-2.908-.054-5.906.004-8.752.148-109.637 6.799-206.823 106.681-320.216 75.476-45.49-12.233-55.433-54.793-76.56-92.718-33.165-59.257-76.15-101.276-127.608-140.217-57.397-43.473-122.825-91.104-186.714-128.086-39.09-22.64-84.854-49.785-127.203-57.35-87.187-15.582-176.723 7.578-262.898 51.038M2303.26 991.714s-18.25-47.199-87.79-90.323c-39.55-24.581-74.7-50.335-119.86-56.433-26.26-3.559-53.08-2.279-79.26 3.782-67.34 15.082-138.6 36.03-202.22 5.037-17.14-7.67-32.78-18.387-46.24-31.685-42.48-44.977-87.52-95.654-148.2-118.081-48.24-18.048-100.76-22.046-152.01-11.573-54.54 11.962-112.94 45.335-168.9 71.009-46.24 21.193-91.67 42.096-128.32 31.949-58.33-16.146-122.85 15.315-178.825-3.422-13.064-4.348-29.194-15.361-47.64-25.623-113.948-63.526-257.064-178.925-393.423-183.31-2.822-.266-5.485-.346-8.425-.141-110.368 6.11-207.833 120.707-322.407 85.495-44.899-13.825-55.321-58.578-76.995-96.598-33.794-59.091-78.428-102.314-129.603-142.254-55.728-43.544-118.657-96.178-181.032-131.737-39.065-22.235-85.798-49.126-128.305-56.062-87.348-14.189-180.497 8.634-264.399 57.874M2307.64 975.755s-16.98-52.125-84.48-93.522c-38.16-23.452-72.84-47.216-118.24-53.952-26.19-4.156-53.08-3.27-79.32 2.617-67.39 15.189-141.24 38.955-204.61 7.172-17.41-8.469-33.19-20.034-46.64-34.193-43.24-46.938-92.12-92.012-154.04-111.403-50.22-16.115-103.71-20.137-156.5-11.768-51.66 9.113-108.85 35.781-160.83 59.663-43.09 19.792-82.84 41.685-124.53 32.063-60.56-14.077-123.41 20.474-180.711 4.322-13.76-3.663-31.146-14.291-50.692-24.03-114.786-57.116-257.775-176.863-389.698-185.177-2.718-.176-5.531-.29-8.233-.212-112.048 3.583-209.489 136.228-325.86 96.614-44.334-15.056-55.489-62.129-77.707-100.196-34.479-59.018-80.168-103.406-130.917-144.41C-39.8 375.255-99.5 319.072-161 284.136c-39.059-22.134-86.642-48.427-129.451-54.668-92.088-12.472-186.637 10.553-265.945 64.766M2312.09 959.229s-15.61-55.531-80.83-95.841c-36.84-22.774-71.12-45.61-116.8-53.795-26.09-5.259-53.09-5.212-79.53.139-66.94 14.479-143.35 40.452-206.2 8.409-17.23-8.316-33.06-19.335-46.94-32.682-45.82-45.599-97.32-87.646-160.86-104.523-52.87-13.995-108.2-17.206-163-9.457-49.99 7.51-105.48 27.321-155.16 48.567-40.82 17.465-76.8 39.831-121.45 30.211-60.19-12.891-123.19 24.021-179.82 10.757-14.28-3.303-32.655-13.216-53.201-22.392-76.661-34.171-151.541-75.411-225.882-115.075-48.695-25.973-101.45-68.4-157.919-72.655a86.132 86.132 0 00-8.19-.318c-113.366 2.955-212.145 152.312-329.595 108.732-43.464-16.117-55.701-65.575-78.433-103.996-35.157-58.846-81.12-104.48-131.512-146.898-53.35-44.914-109.748-104.195-170.92-138.605-39.275-21.653-87.942-47.169-130.818-52.894-87.708-11.245-188.636 10.758-267.482 71.81M2316.6 942.085s-14.2-57.514-77.39-97.526c-35.84-22.521-69.57-45.313-115.65-55.853-26.45-6.061-53.07-8.996-79.68-4.026-65.87 12.583-142.52 41.282-205.96 12.463a179.219 179.219 0 01-48.01-30.123c-48.04-44.143-103.08-86.127-167.45-97.972-55.99-11.198-113.66-13.113-170.89-5.677-51.72 7.761-102.74 20.944-152.28 39.344-39.17 14.54-72.43 36.519-118.51 26.642-57.64-12.088-123.05 26.402-177.83 16.055-14.541-2.817-33.772-12.232-55.072-20.871a1883.45 1883.45 0 01-227.794-113.346c-45.965-26.41-94.032-72.64-148.456-77.262a76.125 76.125 0 00-8.193-.369c-114.752 2.03-215.416 168.002-333.295 120.642-42.432-16.938-56.148-69.659-79.176-107.283-35.884-58.669-81.634-105.65-131.52-149.447-52.435-46.03-105.038-107.645-166.834-141.785-39.33-21.749-88.806-46.824-131.917-51.555-88.037-10.191-192.969 12.331-269.054 79.061M2321.01 924.9s-12.66-58.847-73.91-99.368c-34.38-22.775-68.11-46.433-114.69-60.287-26.67-7.875-53.18-13.318-79.25-8.1-65.09 13.115-141.19 44.357-205.54 19.1a173.319 173.319 0 01-49.36-27.127c-53.09-44.636-108.09-77.191-173.93-92.146-55.77-12.945-120.58-11.996-179.3-1.536-49.8 8.868-103.07 18.352-152.13 32.955-38.24 11.332-69.04 32.392-116 21.791-54.1-12.202-122.02 27.262-174.09 19.285-14.898-2.219-34.594-11.178-56.501-19.294a1226.992 1226.992 0 01-228.004-111.948c-44.136-27.876-85.39-76.193-139.61-81.499a76.02 76.02 0 00-8.199-.47c-116.866 1.281-219.934 181.016-337.001 132.45-41.01-17.035-56.304-73.008-79.958-110.414C117.071 479.786 71.723 431.335 22.6 386.336-29.179 338.964-78.145 275.644-140.674 241.58c-39.456-21.379-89.772-45.704-133.099-49.954-88.589-8.756-197.43 14.225-270.742 86.071m2869.925 630.58s-11.07-60.034-70.26-102.299c-33.19-23.511-66.97-48.643-113.89-66.591-26.96-10.19-52.18-15.411-77.4-10.128-64.43 13.556-139.84 47.173-205.14 25.788a168.615 168.615 0 01-50.74-24.79c-55.62-42.638-112.79-73.64-179.88-87.241-58.71-12.027-126.33-9.51-187.59 2.847-50.94 10.414-103.32 19.142-154.71 30.266-37.94 8.19-66.8 27.927-114.18 16.196-50.92-12.584-120.74 27.13-170.23 21.177-15.282-2.026-35.465-10.118-57.801-17.986-77.962-26.488-158.319-63.128-225.826-110.95-42.6-30.127-76.571-79.256-131.629-85.392-2.724-.277-5.546-.543-8.157-.577-118.107.289-225.997 195.315-340.624 143.995-40.033-17.953-56.81-75.657-80.814-113.945-36.695-58.226-81.423-107.813-129.7-154.276-50.947-49.041-97.035-113.579-160.246-147.521-39.7-21.353-90.795-44.73-134.424-48.285-89.043-7.333-201.827 16.366-272.318 93.272M2329.9 891.645c-9.49-42.865-33.26-80.364-67.19-105.985-32.13-24.794-67.35-54.977-112.84-74.4-26.17-10.986-50.63-15.827-75.11-10.52-64.36 13.956-138.58 49.285-204.55 32.253a160.414 160.414 0 01-52.34-22.073c-58.1-40.442-117.53-70.546-185.36-83.61-64.32-11.353-130.64-9.269-195.13 6.132-53.07 12.574-105.97 24.008-160.01 31.992-37.43 5.332-65.85 23.391-113.26 10.338-48.22-13.326-117.91 25.152-166.277 21.428-14.837-1.155-35.934-8.897-57.896-16.294-75.394-25.532-158.186-58.553-222.641-110.365-41.408-33.158-68.456-80.969-123.907-88.696a62.178 62.178 0 00-8.163-.678c-119.805-.911-235.322 209.392-343.707 154.719-38.145-19.272-56.901-77.127-81.759-116.498-36.899-58.358-80.992-108.827-128.147-157.039-50.043-51.174-93.662-116.378-157.988-150.051-39.969-20.917-89.694-41.224-135.749-46.617-89.239-10.525-211.908 23.741-273.947 100.427M2334.37 875.372c-9.18-43.451-31.6-82.202-63.98-110.603-33.3-29.363-70.8-62.98-111.46-81.581-24.97-11.468-48.97-16.001-73.02-10.942-65.46 13.764-135.75 51.386-203.09 38.373a154.94 154.94 0 01-54.2-19.483c-60.03-38.201-120.93-68.203-189.72-81.524-66.33-12.471-135-9.794-201.31 7.849-54.59 15.129-111.2 32.661-167.73 37.896-37.83 3.488-66.34 19.414-113.55 4.81-46.11-14.26-116.2 23.342-162.77 19.991-14.83-1.053-35.856-7.63-57.842-14.616-74.194-23.618-156.545-55.054-216.906-109.944-39.298-35.673-61.837-82.985-118.08-91.599a62.51 62.51 0 00-8.169-.779c-120.892-1.766-240.63 221.571-346.229 164.976-37.611-20.194-57.758-78.261-83.277-118.787C126.242 451.142 82.533 400.531 37.052 349.9c-48.367-53.541-91.626-119.292-156.306-152.316-40.289-20.527-91.066-40.317-136.974-44.909-90.13-9.004-216.074 26.419-275.528 107.527M2338.83 859.15c-8.28-44.612-29.48-85.067-60.81-116.032-31.92-31.751-68.64-68.763-109.22-88.393-24.44-11.727-47.76-16.331-71.23-11.383-65.35 13.854-133.61 53.253-201.25 44.147-19.74-1.888-38.82-7.572-56.3-16.766-61.77-35.98-124.03-66.604-193.29-81.151-65.07-13.607-140.37-12.787-205.68 7.285-57.97 17.827-116.11 43.32-177.75 48.731-39.84 3.545-68.29 16.405-115.1.231-44.61-15.437-114.63 20.883-159.865 17.698-14.827-1.002-35.714-6.93-57.627-13.517-72.767-22.033-152.595-52.457-209.07-109.792-37.215-37.828-57.009-84.509-113.697-93.943a56.058 56.058 0 00-8.168-.779c-120.409-2.734-238.558 230.482-347.599 173.94-39.405-20.568-59.44-79.207-84.937-119.379-36.887-58.155-80.882-111.031-124.09-162.306-45.546-54.091-90.516-122.06-155.394-154.299-40.613-20.187-91.896-39.414-138.204-43.301-91.122-7.524-220.232 29.249-277.157 114.682M2343.36 843.024c-7.77-46.133-27.79-88.648-57.83-122.819-29.47-33.485-66.52-73.37-107-93.876-23.77-12.001-46.85-16.631-69.63-11.806-65.11 13.728-131.34 55.006-198.77 49.446-20.03-.87-39.56-5.757-57.53-14.394-63.4-33.769-126.96-66.247-196.13-82.486-69.16-16.24-141.54-16.643-207.11 3.201-59.34 17.919-123.55 57.609-190.04 64.853-42.5 4.434-71.83 14.938-118.31-2.954-43.75-16.75-113.27 18.141-157.863 14.941-14.827-1.003-34.886-7.068-57.201-13.001-73.306-19.58-147.697-51.234-199.713-109.698-35.157-39.572-54.473-85.691-110.987-95.5a64.262 64.262 0 00-8.175-.88c-123.672-3.771-236.759 237.331-348.975 181.987-40.597-19.934-61.388-79.667-87.075-120.532C134.43 431.37 91.122 377.658 49.998 325.043 6.498 269.005-39.955 200.12-105.38 168.601c-40.982-19.791-94.321-40.435-139.473-41.537-92.031-2.279-221.204 27.056-278.701 121.625M2347.83 826.852c-5.55-51.176-27.61-90.636-54.84-130.117-25.39-36.817-64.4-77.465-104.49-98.727-23.3-12.356-46.17-16.955-68.52-12.278-64.69 13.48-129.77 57.29-196.1 54.369-19.75-.898-41.57-3.618-59.03-12.249-64.17-31.955-128.06-64.858-197.62-85.952-70.91-21.563-142.65-27.54-208.04-5.522-61.87 20.783-129.88 74.739-201.4 86.79-46.03 7.709-76.96 15.525-123.27-3.711-56.43-23.636-98.97 24.297-157.114 11.906-14.414-3.085-34.912-7.474-56.713-13.051-73.461-18.902-138.708-49.929-188.203-109.829-33.657-40.799-54.548-86.907-110.121-97.426a55.963 55.963 0 00-8.132-.987c-126.889-4.863-234.986 243.775-350.215 189.867-41.446-19.335-63.186-80.091-89.067-121.701-36.147-58.131-77.967-112.457-117.536-166.203C15.204 254.482-32.35 185.304-98.327 154.404c-41.401-19.391-95.338-39.361-140.752-39.925-93.192-1.138-225.172 29.765-280.152 128.456m2871.581 567.69c-4.49-53.173-25.59-96.302-51.99-138.216-23.67-37.66-61.99-80.725-101.98-102.712-22.97-12.594-45.7-17.259-67.61-12.729-64.41 13.246-127.48 58.58-193.25 59.221-20.54.728-40.86-2.895-59.71-10.648-65.85-30.403-131.31-65.742-200.46-92.997-71.53-28.231-143.26-39.001-208.51-15.57-64.35 22.979-134.01 92.557-208.5 111.445-50.85 12.851-83.94 18.956-129.75-1.759-56.69-25.496-99.76 21.88-157.885 9.027-14.27-3.151-34.132-7.605-56.047-13.426-73.284-19.226-130.639-48.374-177.228-109.036-32.109-42.031-54.647-88.528-109.465-99.585a58.212 58.212 0 00-8.139-1.088c-129.861-5.981-233.242 248.947-351.293 197.169-42.485-18.615-64.944-80.673-90.81-122.845-35.649-58.03-75.534-112.915-114.014-168.151-41.5-59.561-89.838-128.658-156.716-159.005-41.865-18.935-96.395-38.129-142.075-38.207-94.422-.346-229.045 32.413-281.563 135.131M2356.81 794.301c-3.4-55.428-23.64-102.115-49.2-146.613-22.05-38.492-59.61-83.575-99.48-106.134-22.85-12.914-45.38-17.599-67.07-13.398-64.23 12.922-125.49 59.799-190.94 63.875-20.63 1.6-41.17-1.476-60.21-9.015-68.47-29.774-136.01-70.198-204.37-103.808-70.49-34.661-139.64-48.301-208.29-25.587-72.36 23.918-134.04 103.983-210.18 136.249-40.2 17.044-98.52 21.854-138.43 4.246-59.36-26.441-104.91 20.582-160.402 6.536-13.857-3.653-33.701-7.803-55.276-13.711-72.035-19.713-122.667-48.39-166.7-109.114-31.229-42.939-54.435-89.876-109.571-101.307a50.408 50.408 0 00-8.142-1.14c-132.491-7.133-231.626 253.623-352.213 203.843-81.965-33.974-148.087-212.527-202.769-293.607-40.949-60.995-90.09-130.365-157.912-160.052-42.332-18.529-97.455-36.948-143.351-36.544-95.724.91-232.73 34.938-282.933 141.698M2361.27 777.876c-3.26-54.921-19.18-107.744-46.41-154.044-23.3-38.82-57.36-87.072-97.27-110.087-22.81-13.223-45.39-17.954-66.84-13.778-64.2 12.511-123.75 60.842-188.66 68.226-20.56 2.452-41.21-.218-60.23-7.79-71.99-30.272-141.21-81.179-209.01-117.702-62.35-33.522-134.87-65.218-207.3-35.174-80.06 33.236-136.88 119.525-209.16 156.946-43.83 22.726-95.98 40.047-146.66 16.219-59.85-28.072-108.62 20.053-165.228 5.563-13.662-3.674-33.127-8.068-54.32-14.168-70.522-20.738-115.317-49.718-157.038-109.663-30.438-43.685-54.368-91.209-109.028-102.894a50.001 50.001 0 00-8.096-1.195C501.103 350.18 405.724 616 283.046 568.223c-83.443-32.392-147.639-214.052-201.338-295.949-40.62-62.049-90.47-131.753-159.234-160.731-42.796-18.072-98.456-35.619-144.578-34.886-97.147 1.774-236.27 37.399-284.229 147.851M2365.71 761.299c-2.27-57.02-17.14-112.252-43.46-161.438-21.78-39.744-55.45-90.382-95.59-113.985-22.92-13.415-45.75-18.172-66.97-14.224-64.24 11.802-122.4 61.824-186.72 72.41-20.42 3.44-41.15 1.241-60.1-6.376-76.05-31.531-144.86-91.711-213.85-133.973-60.24-36.955-132.85-73.996-205.77-43.901-83.28 34.439-137.71 124.456-207.96 174.005-42.46 29.925-97.79 58.695-151.72 32.402-60.03-29.43-113.57 21.333-171.932 5.446-13.515-3.689-32.494-8.185-53.279-14.838-68.493-21.357-108.583-51.491-148.543-109.989-30.12-44.125-53.919-91.918-108.714-104.201a56.6 56.6 0 00-8.099-1.246c-132.274-9.196-229.839 265.114-353.476 215.346-86.955-35.085-146.144-216.146-199.744-298.053C49.26 196.625-1.3 125.771-70.907 97.494c-43.306-17.561-99.509-34.337-145.848-33.122-98.672 2.595-239.627 39.635-285.391 153.784M2370.15 744.621c-1.37-58.924-15.16-116.345-40.38-168.235-20.35-41.219-53.89-93.708-94.38-117.629-23.14-13.699-46.27-18.475-67.45-14.685-64.51 11.523-121.51 62.7-185.29 76.442-20.27 4.544-41.15 2.951-60.14-4.587-79.24-32.933-148.73-105.89-218.09-152.703-58.34-39.448-130.52-80.817-203.81-51.244-85.4 34.406-139.79 128.395-205.88 187.046-38.65 34.321-96.47 77.832-152.81 50.922-61.76-29.606-120.38 25.002-181.631 7.733-13.466-3.694-32.021-8.489-52.203-14.95-65.831-22.094-102.998-54.317-141.225-111.058-30.042-44.439-53.566-92.567-108.435-105.25a64.643 64.643 0 00-8.102-1.296c-134.787-10.056-228.142 267.893-353.63 220.052-88.746-33.776-145.112-217.783-198.475-299.817-40.424-62.07-91.878-133.849-162.172-161.29-43.868-17.095-98.723-31.156-147.169-31.404-102.955-.63-245.353 46.607-286.425 159.399M2374.58 727.791c-.46-60.868-13.14-120.499-37.21-175.093-19.06-42.73-52.8-96.981-93.68-121.475-23.5-14.018-46.83-18.774-68.36-15.201-65.68 10.881-121.44 63.1-184.55 79.831-20.29 6.036-41.71 4.668-60.63-3.873-81.54-39.117-148.4-118.06-221.02-169.887-57.65-41.1-127.88-85.222-201.4-56.9-86.55 33.302-142.53 128.478-203.83 195.602-37.96 41.591-91.08 95.116-152.53 69.761-65.63-26.857-126.69 32.185-190.642 13.414-13.369-3.704-31.553-8.895-51.17-15.771-113.772-39.783-136.476-192.527-244.046-217.863a56.056 56.056 0 00-8.054-1.302C519.751 297.907 431.545 577.97 303.682 533.13c-88.727-31.076-144.868-219.44-197.335-301.312C66.059 168.765 13.884 97.264-57.488 70.7c-44.375-16.53-99.719-29.725-148.44-29.639-104.724.219-248.038 48.57-287.377 164.751M2378.96 710.864c2.53-63.899-13.44-123.727-34.06-181.439-16.29-45.721-51.62-100.214-93.46-125.067-20.65-12.94-44.97-18.596-69.45-16.158-67.62 7.31-122.82 60.694-185.22 80.156-20.32 6.921-42.13 5.738-61.08-3.315-83.07-41.558-149.49-129.318-222.28-183.931-56.24-42.217-124.98-86.902-198.56-60.409-87.41 31.453-144.78 127.283-201.8 199.112-35.14 44.153-87.33 113.693-152.35 88.71-68.16-26.338-127.76 41.12-197.998 21.881-13.809-3.658-31.077-9.148-50.217-16.278-110.827-41.518-133.918-194.17-240.123-219.7a57.043 57.043 0 00-8.108-1.398C524.061 281.497 440.368 562.109 310.79 520.61c-88.312-28.315-144.934-220.504-196.472-302.474C74.121 154.156 20.987 83.062-51.216 57.4c-44.93-15.963-100.655-28.149-149.847-27.707-106.796.944-250.692 50.223-288.112 169.62M2383.44 693.928c3.46-65.527-11.42-127.56-31.19-187.501-15.34-47.146-50.64-103.428-93.63-128.67-21.07-13.047-45.49-19.497-70.44-18.605-69.17 2.883-124.91 57.038-186.77 78.941-10.01 3.811-20.59 5.51-31.1 4.994a74.017 74.017 0 01-30.06-7.994c-83.9-43.869-149.29-137.446-222.71-194.085-55.22-42.628-121.83-85.343-195.45-61.192-88.73 29.093-145.58 122.268-199.89 197.282-33.54 46.28-84.46 128.537-152.03 106.88-71.3-22.901-127.36 54.08-203.223 32.981a472.11 472.11 0 01-49.065-16.756c-107.894-43.455-133.177-195.726-238.235-221.019a56.94 56.94 0 00-8.105-1.347c-141.997-12.056-222.141 268.645-352.936 230.587-87.511-25.696-145.201-221.65-195.784-303.31C82.618 140.216 28.438 69.741-44.494 45.022c-45.239-15.37-101.834-26.496-151.248-25.674C-303.91 21.2-448.763 70.934-484.418 193.411M2387.86 676.996c3.6-66.251-5.85-132.069-27.76-193.416-17.38-48.31-45.15-103.133-93.77-131.867-21.78-13.579-46.62-21.297-72.35-22.485-70.53-1.564-127.6 51.76-189.04 76.425-10 4.17-20.66 6.085-31.26 5.617a69.891 69.891 0 01-30.19-8.334c-84.24-45.413-147.91-143.045-221.61-200.318-54.56-42.288-118.52-80.283-192.03-59.05-90.05 25.967-145.99 112.98-198.52 189.847-33.02 48.316-86.86 143.116-151.74 123.626-67.6-20.381-126.35 68.965-206.241 46.35-13.925-3.952-30.117-9.555-48.178-16.747-108.35-43.662-133.17-197.205-238.527-222.569a57.183 57.183 0 00-8.108-1.397c-143.486-12.259-220.962 267.807-352.13 232.49-86.421-23.158-146.018-222.94-195.421-303.807C90.988 125.831 35.558 55.842-38.293 32.189-87.446 16.298-138.914 8.343-190.938 8.597c-109.784 2.786-255.126 52.573-289.317 178.058M2392.24 660.121c8.22-115.535-19.82-270.322-118.45-334.376-128.16-83.509-226.45 97.155-327.87 43.642-130.89-69.254-225.53-296.281-407.53-256.029-88.1 19.389-145.11 99.426-194.89 172.081-33.98 49.436-82.28 156.711-154.56 142.734-49.36-9.535-69.6 28.015-110.23 48.469-50.03 25.259-95.673 20.18-145.652-2.65-103.024-46.717-136.584-203.121-239.553-224.859-146.628-30.593-220.891 264.944-359.118 232.506-74.912-17.679-114.751-165.729-152.012-231.596C130.238 158.296 69.386 48.846-32.101 19.968-167.656-18.664-426.718-15.04-475.63 180.206" stroke="url(#paint0_linear_300_13249)" stroke-width=".5" stroke-miterlimit="10"/><defs><linearGradient id="paint0_linear_300_13249" x1="-182.385" y1="183.337" x2="1708.14" y2="608.902" gradientUnits="userSpaceOnUse"><stop offset=".683" stop-color="#FD6721"/><stop offset=".821" stop-color="#FD6721" stop-opacity="0"/></linearGradient></defs></svg>