<svg width="386" height="178" fill="none" xmlns="http://www.w3.org/2000/svg"><path d="M0 41.087C0 18.395 18.274 0 40.817 0h95.198c22.543 0 40.818 18.395 40.818 41.087v95.826c0 22.692-18.275 41.087-40.818 41.087H40.817C18.274 178 0 159.605 0 136.913V41.087z" fill="#000"/><path d="M140.796 83.554c-1.847-12.09-12.056-20.872-24.264-20.872a26.12 26.12 0 00-3.438.228 25.773 25.773 0 00-4.256.946 5.377 5.377 0 00-3.756 5.122v8.4c2.741-2.957 6.634-4.786 11.041-4.786 4.105 0 7.937 1.57 10.769 4.42 2.848 2.867 4.408 6.755 4.408 10.917 0 8.584-6.68 15.323-15.177 15.338-4.074 0-7.876-1.586-10.693-4.452-2.817-2.866-4.377-6.724-4.377-10.87V52.443a4.62 4.62 0 00-4.62-4.62h-5.316v35.73s.128 3.997.532 6.519c.635 3.96 1.065 6.325 2.848 9.866 1.805 3.586 6.571 7.886 6.571 7.886 4.347 3.477 9.785 5.398 15.51 5.398 4.892 0 9.572-1.434 13.54-4.163 8.664-5.946 12.375-14.773 10.724-25.506h-.046zm-104.358-.077c1.848-12.09 12.056-20.872 24.264-20.872a25.775 25.775 0 017.694 1.174 5.376 5.376 0 013.757 5.123v8.4c-2.742-2.957-6.634-4.787-11.042-4.787-4.104 0-7.937 1.57-10.769 4.422-2.847 2.866-4.407 6.754-4.407 10.916 0 8.583 6.68 15.322 15.176 15.337 4.074 0 7.876-1.585 10.693-4.451 2.817-2.867 4.377-6.724 4.377-10.87V63.55h4.62c2.938 0 5.316 2.394 5.316 5.352v60.268h-4.634c-2.939 0-5.317-2.394-5.317-5.351v-16.07c-4.347 3.476-9.784 5.397-15.51 5.397-4.892 0-9.572-1.433-13.54-4.162-8.664-5.946-12.374-14.773-10.724-25.507h.046z" fill="#FF5100"/><path d="M226.399 113.039c-1.106.91-2.462 1.593-4.07 2.048-1.557.455-3.215.683-4.973.683-4.421 0-7.837-1.164-10.248-3.49-2.412-2.326-3.617-5.714-3.617-10.164V82.622h-6.632v-7.585h6.632v-9.254h9.419v9.254h10.776v7.585H212.91v19.267c0 1.972.477 3.489 1.432 4.551.954 1.011 2.336 1.517 4.144 1.517 2.11 0 3.869-.557 5.275-1.669l2.638 6.751zm25.314 3.264c-4.069 0-7.736-.885-11.002-2.655-3.265-1.77-5.827-4.222-7.686-7.358-1.808-3.185-2.713-6.776-2.713-10.77 0-3.996.905-7.56 2.713-10.696 1.859-3.135 4.421-5.588 7.686-7.358 3.266-1.77 6.933-2.654 11.002-2.654 4.12 0 7.812.885 11.078 2.654 3.265 1.77 5.802 4.223 7.61 7.358 1.859 3.135 2.789 6.7 2.789 10.695s-.93 7.586-2.789 10.771c-1.808 3.136-4.345 5.588-7.61 7.358-3.266 1.77-6.958 2.655-11.078 2.655zm0-8.116c3.467 0 6.33-1.163 8.591-3.49 2.26-2.326 3.391-5.385 3.391-9.178 0-3.792-1.131-6.852-3.391-9.178-2.261-2.326-5.124-3.49-8.591-3.49-3.466 0-6.329 1.164-8.59 3.49-2.211 2.326-3.316 5.386-3.316 9.178 0 3.793 1.105 6.852 3.316 9.178 2.261 2.327 5.124 3.49 8.59 3.49zm50.694 8.116c-4.069 0-7.737-.885-11.002-2.655-3.266-1.77-5.828-4.222-7.686-7.358-1.809-3.185-2.713-6.776-2.713-10.77 0-3.996.904-7.56 2.713-10.696 1.858-3.135 4.42-5.588 7.686-7.358 3.265-1.77 6.933-2.654 11.002-2.654 4.119 0 7.812.885 11.077 2.654 3.265 1.77 5.802 4.223 7.611 7.358 1.859 3.135 2.788 6.7 2.788 10.695s-.929 7.586-2.788 10.771c-1.809 3.136-4.346 5.588-7.611 7.358-3.265 1.77-6.958 2.655-11.077 2.655zm0-8.116c3.466 0 6.33-1.163 8.59-3.49 2.261-2.326 3.391-5.385 3.391-9.178 0-3.792-1.13-6.852-3.391-9.178-2.26-2.326-5.124-3.49-8.59-3.49-3.467 0-6.33 1.164-8.591 3.49-2.21 2.326-3.315 5.386-3.315 9.178 0 3.793 1.105 6.852 3.315 9.178 2.261 2.327 5.124 3.49 8.591 3.49zm29.134-47.564h9.419v56.283h-9.419V60.623zm33.442 55.68c-3.265 0-6.455-.43-9.57-1.29-3.114-.859-5.601-1.947-7.46-3.261l3.617-7.206c1.809 1.213 3.969 2.199 6.481 2.958 2.562.708 5.074 1.062 7.535 1.062 5.627 0 8.44-1.492 8.44-4.475 0-1.416-.728-2.402-2.185-2.959-1.407-.556-3.693-1.087-6.858-1.593-3.315-.505-6.028-1.087-8.138-1.744-2.06-.657-3.868-1.795-5.426-3.413-1.507-1.67-2.26-3.97-2.26-6.903 0-3.843 1.582-6.903 4.747-9.178 3.215-2.326 7.536-3.49 12.961-3.49a35.7 35.7 0 018.289.987c2.763.606 5.024 1.44 6.782 2.503l-3.617 7.206c-3.416-2.023-7.259-3.034-11.529-3.034-2.763 0-4.873.43-6.33 1.29-1.407.808-2.11 1.895-2.11 3.26 0 1.518.754 2.605 2.261 3.262 1.557.607 3.943 1.189 7.159 1.745 3.215.506 5.852 1.087 7.912 1.745 2.06.657 3.818 1.77 5.275 3.337 1.507 1.568 2.26 3.793 2.26 6.675 0 3.793-1.632 6.827-4.898 9.103-3.265 2.275-7.711 3.413-13.338 3.413z" fill="#000"/></svg>