<svg width="270" height="71" fill="none" xmlns="http://www.w3.org/2000/svg"><rect x="43.2" width="90.72" height="70.951" rx="17" fill="#1D59F9"/><path fill-rule="evenodd" clip-rule="evenodd" d="M53.46 16.394h35.1v36.013H76.41v5.107h-9.99v-5.107H53.46V16.394zm25.38 10.213H63.99V43h2.43v-4.838h9.99V43h2.43V26.607zm14.04-10.213h30.51v22.71h-3.915l3.105 13.303h-10.53l-3.105-13.303h-6.075v13.304h-9.99V16.393zm21.06 10.213h-11.07v3.225h11.07v-3.225z" fill="#fff"/><path fill-rule="evenodd" clip-rule="evenodd" d="M171.72 17.2h-29.97v35.476h29.97v-15.05l-2.97-2.822 2.97-2.822V17.2zm-10.26 9.407H151.2V30.1h7.29l2.97-3.494zm0 16.663H151.2v-3.494h7.29l2.97 3.494zm13.77-26.07h29.97v35.476h-29.97V17.2zm20.52 8.332h-11.34V43h11.34V25.53z" fill="#000"/><path d="M209.52 17.2v22.576h18.36V43h-18.36v9.675h28.08V30.101h-18.36v-3.225h18.36V17.2h-28.08zm32.4 0v22.576h18.36V43h-18.36v9.675H270V30.101h-18.36v-3.225H270V17.2h-28.08zm-92.877 43.395c0 .638-.214 1.148-.642 1.531-.424.379-.978.62-1.661.723v.046c.821.099 1.451.344 1.888.736.437.387.655.895.655 1.524 0 .551-.145 1.038-.435 1.46-.29.422-.722.751-1.297.988-.576.237-1.289.355-2.142.355-.618 0-1.183-.043-1.693-.13a5.511 5.511 0 01-1.363-.387v-1.343c.273.13.571.241.896.336.329.09.662.161.999.213.342.047.662.071.96.071.848 0 1.478-.142 1.888-.426.411-.284.617-.687.617-1.208 0-.534-.266-.924-.798-1.169s-1.261-.368-2.187-.368h-1.129v-1.24h1.058c.688 0 1.239-.06 1.654-.18.416-.122.716-.294.902-.518.186-.224.279-.49.279-.8 0-.41-.164-.728-.493-.956-.324-.233-.774-.35-1.349-.35-.545 0-1.023.074-1.434.22a5.818 5.818 0 00-1.175.575l-.707-1.04a5.94 5.94 0 01.947-.523c.346-.15.727-.269 1.142-.355a6.761 6.761 0 011.369-.129c.692 0 1.278.101 1.759.304.484.198.854.473 1.109.826s.383.758.383 1.214zm5.671-.051c.852 0 1.535.31 2.05.93.519.62.779 1.541.779 2.764 0 .81-.121 1.492-.364 2.047-.238.552-.573.97-1.005 1.253-.429.28-.928.42-1.499.42-.363 0-.679-.047-.947-.142a2.355 2.355 0 01-.688-.368 2.585 2.585 0 01-.48-.504h-.091c.021.172.041.364.058.575.022.207.033.396.033.568V71h-1.532V60.68h1.246l.214.987h.072a2.98 2.98 0 01.486-.561c.195-.173.429-.308.701-.407.277-.104.599-.155.967-.155zm-.409 1.24c-.42 0-.757.084-1.012.252-.251.163-.435.41-.552.742-.112.332-.173.747-.181 1.247v.213c0 .53.054.98.162 1.35.112.366.296.646.551.84.26.189.61.284 1.051.284.372 0 .68-.102.922-.304.246-.202.43-.49.551-.865.121-.375.182-.816.182-1.324 0-.771-.138-1.37-.415-1.796-.273-.426-.692-.64-1.259-.64zm11.361 2.454c0 .594-.078 1.122-.233 1.582-.156.461-.383.85-.682 1.17a2.996 2.996 0 01-1.077.723 3.883 3.883 0 01-1.421.245c-.493 0-.945-.082-1.356-.245a3.085 3.085 0 01-1.07-.724 3.315 3.315 0 01-.695-1.169c-.164-.46-.246-.988-.246-1.582 0-.788.136-1.455.409-2.002a2.9 2.9 0 011.18-1.26c.511-.288 1.119-.432 1.824-.432.661 0 1.245.144 1.752.433.506.288.901.708 1.187 1.259.285.551.428 1.218.428 2.002zm-5.21 0c0 .521.063.967.188 1.337.13.37.329.654.597.852.268.194.614.291 1.038.291.424 0 .77-.097 1.038-.29.269-.199.465-.483.591-.853.125-.37.188-.816.188-1.337s-.063-.962-.188-1.324c-.126-.366-.322-.644-.591-.833-.268-.194-.616-.29-1.044-.29-.632 0-1.092.21-1.382.632-.29.422-.435 1.027-.435 1.815zm6.553-.698c0-1.037.115-1.92.344-2.648.229-.727.591-1.31 1.084-1.75.493-.439 1.133-.738 1.92-.898.511-.116 1.03-.215 1.557-.297a201.18 201.18 0 011.584-.239l.207 1.337c-.246.03-.51.067-.791.11-.282.039-.565.08-.85.123-.281.043-.552.088-.811.136-.256.043-.485.086-.688.129a2.763 2.763 0 00-1.032.426c-.277.194-.493.478-.649.852-.155.375-.248.875-.279 1.499h.085a2.669 2.669 0 011.239-.969 2.7 2.7 0 011.019-.18c.597 0 1.103.124 1.518.374.42.25.737.611.954 1.085.22.473.331 1.044.331 1.711 0 .797-.143 1.464-.429 2.003a2.823 2.823 0 01-1.18 1.207c-.507.271-1.097.407-1.772.407-.519 0-.986-.097-1.401-.29a2.912 2.912 0 01-1.058-.853c-.29-.379-.512-.842-.668-1.389-.156-.55-.234-1.18-.234-1.886zm3.465 3.172c.346 0 .645-.074.895-.22.256-.146.452-.383.591-.71.143-.328.214-.76.214-1.299 0-.663-.121-1.184-.363-1.563-.238-.383-.632-.574-1.181-.574-.338 0-.647.075-.928.226-.281.15-.519.327-.714.53a2.525 2.525 0 00-.415.522c0 .392.028.771.084 1.137.061.366.16.698.299.995.142.293.337.525.584.697.246.172.558.259.934.259zm10.939 1.117h-1.537v-5.961h-1.992a32.86 32.86 0 01-.325 2.783c-.129.771-.292 1.4-.486 1.886-.195.482-.435.835-.721 1.06a1.623 1.623 0 01-1.031.335 2.7 2.7 0 01-.48-.038 1.593 1.593 0 01-.383-.104v-1.195c.073.026.153.048.24.065.086.017.175.026.266.026.16 0 .307-.065.441-.194.139-.133.266-.342.383-.627a6.38 6.38 0 00.318-1.123c.095-.47.182-1.038.259-1.705.078-.672.148-1.458.208-2.358h4.84v7.15zm5.048-7.285c.641 0 1.19.131 1.648.394.459.262.811.635 1.058 1.117s.37 1.06.37 1.73v.815h-4.795c.017.693.203 1.227.558 1.601.359.375.861.562 1.505.562.459 0 .87-.043 1.233-.129.368-.09.746-.222 1.135-.394v1.234c-.359.168-.724.29-1.096.368a6.651 6.651 0 01-1.337.116c-.705 0-1.325-.136-1.862-.407a2.985 2.985 0 01-1.252-1.227c-.299-.542-.448-1.216-.448-2.021 0-.801.136-1.482.409-2.041.273-.56.655-.986 1.148-1.28.494-.292 1.069-.438 1.726-.438zm0 1.143c-.48 0-.869.155-1.168.465-.294.31-.467.764-.519 1.363h3.271a2.502 2.502 0 00-.182-.95 1.385 1.385 0 00-.519-.646c-.229-.155-.524-.232-.883-.232zm6.327-1.007v2.873h3.36V60.68h1.532v7.15h-1.532v-3.087h-3.36v3.087h-1.532v-7.15h1.532zm13.43 3.558c0 .594-.077 1.122-.233 1.582-.156.461-.383.85-.681 1.17a3.009 3.009 0 01-1.078.723 3.881 3.881 0 01-1.42.245c-.494 0-.946-.082-1.357-.245a3.104 3.104 0 01-1.07-.724 3.299 3.299 0 01-.694-1.169c-.165-.46-.247-.988-.247-1.582 0-.788.136-1.455.409-2.002.277-.551.67-.971 1.181-1.26.51-.288 1.118-.432 1.823-.432.662 0 1.246.144 1.752.433.506.288.902.708 1.187 1.259.286.551.428 1.218.428 2.002zm-5.21 0c0 .521.063.967.188 1.337.13.37.329.654.597.852.269.194.615.291 1.039.291.423 0 .769-.097 1.038-.29.268-.199.465-.483.59-.853.126-.37.188-.816.188-1.337s-.062-.962-.188-1.324c-.125-.366-.322-.644-.59-.833-.269-.194-.617-.29-1.045-.29-.632 0-1.092.21-1.382.632-.29.422-.435 1.027-.435 1.815zm16.455-1.724c0 .413-.128.75-.383 1.014-.251.258-.597.428-1.038.51v.052c.471.06.865.225 1.181.497.315.271.473.648.473 1.13 0 .409-.103.773-.311 1.091-.203.315-.528.564-.973.75-.442.18-1.019.27-1.733.27h-3.257V60.68h3.244c.537 0 1.015.058 1.434.175.424.116.757.308.999.575.243.267.364.628.364 1.085zm-1.356 3.151c0-.353-.137-.607-.409-.762-.268-.155-.662-.232-1.181-.232h-1.564v2.04h1.596c.485 0 .866-.08 1.142-.238.277-.164.416-.433.416-.808zm-.195-3.016c0-.28-.106-.486-.318-.62-.212-.138-.545-.207-.999-.207h-1.642v1.731h1.434c.502 0 .881-.07 1.136-.213.259-.146.389-.377.389-.69zm14.378-4.262l-3.017 6.762a9.148 9.148 0 01-.83 1.53 2.906 2.906 0 01-1.058.956c-.42.215-.962.323-1.629.323a5.138 5.138 0 01-1.395-.194v-1.408c.195.082.405.145.63.188.229.038.456.058.681.058.316 0 .578-.05.785-.149.212-.099.39-.245.532-.439.147-.198.279-.44.396-.723l-3.471-6.904h1.667l2.239 4.682.13.284c.051.112.101.228.149.349.052.116.095.224.13.323h.058c.03-.086.067-.187.11-.304.048-.12.095-.243.143-.368l.136-.33 1.986-4.636h1.628zm5.541 2.293h1.681l-2.972 3.435 3.225 3.714h-1.758l-3.095-3.63v3.63h-1.532v-7.15h1.532v3.469l2.919-3.469zm6.787-.136c.852 0 1.536.31 2.05.93.52.62.779 1.541.779 2.764 0 .81-.121 1.492-.363 2.047-.238.552-.573.97-1.006 1.253-.428.28-.928.42-1.499.42-.363 0-.679-.047-.947-.142a2.367 2.367 0 01-.688-.368 2.646 2.646 0 01-.48-.504h-.091c.022.172.041.364.059.575.021.207.032.396.032.568V71h-1.531V60.68h1.246l.214.987h.071a2.95 2.95 0 01.487-.561 2.15 2.15 0 01.7-.407c.277-.104.599-.155.967-.155zm-.409 1.24c-.419 0-.757.084-1.012.252-.251.163-.435.41-.551.742-.113.332-.173.747-.182 1.247v.213c0 .53.054.98.162 1.35.113.366.297.646.552.84.259.189.61.284 1.051.284.372 0 .679-.102.921-.304.247-.202.431-.49.552-.865.121-.375.181-.816.181-1.324 0-.771-.138-1.37-.415-1.796-.272-.426-.692-.64-1.259-.64zm7.819-1.24c.908 0 1.594.2 2.057.6.467.4.7 1.025.7 1.873v4.812h-1.083l-.292-1.014h-.052a3.693 3.693 0 01-.629.64 2.215 2.215 0 01-.753.374c-.281.086-.625.13-1.032.13-.428 0-.811-.078-1.148-.233-.338-.16-.604-.4-.798-.724-.195-.323-.292-.732-.292-1.227 0-.736.274-1.29.824-1.66.554-.37 1.388-.574 2.504-.613l1.246-.046v-.374c0-.495-.117-.848-.35-1.06-.23-.21-.554-.316-.974-.316-.359 0-.707.052-1.044.155a7.41 7.41 0 00-.986.381l-.493-1.072c.35-.185.748-.336 1.193-.452.45-.116.917-.174 1.402-.174zm1.246 3.868l-.928.033c-.762.026-1.296.155-1.603.387-.307.233-.46.551-.46.956 0 .353.105.611.317.775.212.16.491.239.837.239.528 0 .965-.149 1.311-.446.35-.301.526-.742.526-1.324v-.62zm5.171 3.417h-1.525v-7.15h1.525v7.15zm-2.79-9.042c0-.258.071-.446.214-.562a.788.788 0 01.526-.18c.207 0 .385.06.532.18.151.116.227.304.227.562 0 .25-.076.437-.227.562a.795.795 0 01-.532.187.77.77 0 01-.526-.187c-.143-.125-.214-.312-.214-.562zm2.55 0c0-.258.071-.446.214-.562a.811.811 0 01.532-.18c.208 0 .385.06.532.18.151.116.227.304.227.562 0 .25-.076.437-.227.562a.794.794 0 01-.532.187.794.794 0 01-.532-.187c-.143-.125-.214-.312-.214-.562zm3.958 1.893v2.873h3.361V60.68h1.531v7.15h-1.531v-3.087h-3.361v3.087h-1.532v-7.15h1.532zm8.597 0v7.149h-1.525v-7.15h1.525zm-.753-2.739c.234 0 .435.062.604.187.173.125.259.34.259.646 0 .301-.086.517-.259.646a.987.987 0 01-.604.187c-.242 0-.448-.062-.616-.187-.165-.13-.247-.345-.247-.646 0-.306.082-.52.247-.646.168-.125.374-.187.616-.187z" fill="#000"/><path fill-rule="evenodd" clip-rule="evenodd" d="M43.2 0H31.32v1.881h7.02v6.45h-7.29V1.075h-8.1v7.794h7.56v9.675H21.6v9.138h8.91v9.406h7.83v8.332h-7.83V38.7h-7.02v6.988h7.02v9.944H43.2V33.863h-4.05v-1.075h4.05V14.513h-4.86V8.33h4.86V0zM30.78 27.413h8.37v-8.869h-8.37v8.87zm-9.18.269h-9.18v9.137h9.18v-9.137zM5.94 36.819h6.21v6.182H5.94V36.82zm3.24-16.394H2.97v6.182h6.21v-6.182zM0 10.213h6.21v6.181H0v-6.181zM12.96 4.03H6.75V0H.54v4.031h6.21v6.182h5.67v7.794h9.18V8.869h-8.64V4.03z" fill="#FCE501"/></svg>